<svg width="54" height="294" viewBox="0 0 54 294" fill="none" xmlns="http://www.w3.org/2000/svg">
<g filter="url(#filter0_f_1866_9944)">
<path d="M51 4C51.5523 4 52 3.55228 52 3C52 2.44771 51.5523 2 51 2L51 4ZM22.0086 15.1131L21.2985 14.4091L21.2985 14.4091L22.0086 15.1131ZM10 44.3567L9 44.3567L10 44.3567ZM9.29289 291.207C9.68342 291.598 10.3166 291.598 10.7071 291.207L17.0711 284.843C17.4616 284.453 17.4616 283.819 17.0711 283.429C16.6805 283.038 16.0474 283.038 15.6569 283.429L10 289.086L4.34315 283.429C3.95262 283.038 3.31946 283.038 2.92893 283.429C2.53841 283.819 2.53841 284.453 2.92893 284.843L9.29289 291.207ZM51 2C39.8581 2 29.1743 6.46469 21.2985 14.4091L22.7188 15.8171C30.2209 8.24973 40.3941 4 51 4L51 2ZM21.2985 14.4091C13.4229 22.3531 9 33.1257 9 44.3567L11 44.3567C11 33.6506 15.2164 23.3848 22.7188 15.8171L21.2985 14.4091ZM9 44.3567L9 290.5L11 290.5L11 44.3567L9 44.3567Z" fill="#3C65F7"/>
</g>
<defs>
<filter id="filter0_f_1866_9944" x="0.636719" y="0" width="53.3633" height="293.5" filterUnits="userSpaceOnUse" color-interpolation-filters="sRGB">
<feFlood flood-opacity="0" result="BackgroundImageFix"/>
<feBlend mode="normal" in="SourceGraphic" in2="BackgroundImageFix" result="shape"/>
<feGaussianBlur stdDeviation="1" result="effect1_foregroundBlur_1866_9944"/>
</filter>
</defs>
</svg>
