<svg width="183" height="22" viewBox="0 0 183 22" fill="none" xmlns="http://www.w3.org/2000/svg">
<path d="M19.8295 8.45455V15H19.0668V8.45455H19.8295ZM19.5483 11.6889V12.4134C19.2898 12.5071 19.044 12.5866 18.8111 12.652C18.5781 12.7145 18.3438 12.7628 18.108 12.7969C17.875 12.831 17.6264 12.848 17.3622 12.848C16.6264 12.8452 16.0483 12.6562 15.6278 12.2812C15.2102 11.9062 15.0014 11.3352 15.0014 10.5682V8.43324H15.7599V10.5682C15.7599 10.9318 15.8253 11.2287 15.956 11.4588C16.0866 11.6889 16.2713 11.8594 16.5099 11.9702C16.7486 12.0781 17.0298 12.1321 17.3537 12.1321C17.7514 12.1321 18.1264 12.0923 18.4787 12.0128C18.831 11.9332 19.1875 11.8253 19.5483 11.6889ZM21.8537 15V8.45455H26.8097V15H26.0469V9.17045H22.6165V15H21.8537Z" fill="#FF7961"/>
<rect x="0.5" y="0.5" width="41" height="21" rx="10.5" stroke="#FF7961"/>
<path d="M65.7145 6L66.1108 6.48153C65.9318 6.65483 65.7173 6.77415 65.4673 6.83949C65.2202 6.90199 64.9432 6.9375 64.6364 6.94602C64.3324 6.95455 64.0043 6.96733 63.652 6.98438C63.1463 7.00994 62.7301 7.14205 62.4034 7.38068C62.0767 7.61648 61.8281 7.95739 61.6577 8.40341C61.4901 8.84659 61.3849 9.38778 61.3423 10.027H61.4276C61.6463 9.58097 61.9545 9.24148 62.3523 9.00852C62.7528 8.77557 63.1932 8.65909 63.6733 8.65909C64.1761 8.65909 64.6278 8.78267 65.0284 9.02983C65.4318 9.27415 65.75 9.63352 65.983 10.108C66.2188 10.5795 66.3366 11.1548 66.3366 11.8338C66.3366 12.5043 66.2188 13.0881 65.983 13.5852C65.7472 14.0795 65.4176 14.4616 64.9943 14.7315C64.571 15.0014 64.0753 15.1364 63.5071 15.1364C62.9361 15.1364 62.4361 15.0028 62.0071 14.7358C61.581 14.4659 61.25 14.0696 61.0142 13.5469C60.7813 13.0213 60.6648 12.375 60.6648 11.608V10.9219C60.6648 9.39631 60.9063 8.24858 61.3892 7.47869C61.8722 6.70881 62.6151 6.30682 63.6179 6.27273C63.9418 6.26136 64.2358 6.25852 64.5 6.2642C64.7642 6.26705 64.9972 6.25426 65.1989 6.22585C65.4006 6.1946 65.5724 6.11932 65.7145 6ZM63.5071 14.4418C63.9304 14.4418 64.2969 14.3352 64.6065 14.1222C64.9162 13.9062 65.1548 13.6023 65.3224 13.2102C65.4929 12.8182 65.5781 12.3594 65.5781 11.8338C65.5781 11.3111 65.4915 10.8651 65.3182 10.4957C65.1477 10.1264 64.9091 9.84375 64.6023 9.64773C64.2955 9.4517 63.9361 9.35369 63.5241 9.35369C63.2003 9.35369 62.9091 9.41619 62.6506 9.54119C62.3949 9.66335 62.1761 9.83807 61.9943 10.0653C61.8125 10.2926 61.6733 10.5597 61.5767 10.8665C61.4801 11.1733 61.4304 11.5099 61.4276 11.8764C61.4276 12.669 61.6122 13.2955 61.9815 13.7557C62.3537 14.2131 62.8622 14.4418 63.5071 14.4418ZM68.6367 10.9815H70.5543C71.2901 10.9815 71.8583 11.1605 72.2589 11.5185C72.6594 11.8764 72.8597 12.3608 72.8597 12.9716C72.8597 13.3778 72.7688 13.733 72.587 14.0369C72.408 14.3409 72.1467 14.5781 71.8029 14.7486C71.4592 14.9162 71.043 15 70.5543 15H68.006V8.45455H68.7688V14.2841H70.5543C71.0174 14.2841 71.3896 14.1733 71.6708 13.9517C71.9549 13.7301 72.0969 13.4148 72.0969 13.0057C72.0969 12.5881 71.9549 12.2656 71.6708 12.0384C71.3896 11.8111 71.0174 11.6974 70.5543 11.6974H68.6367V10.9815ZM73.9634 15V8.45455H74.7219V15H73.9634ZM76.3391 9.17045V8.45455H81.4528V9.17045H79.288V15H78.5295V9.17045H76.3391ZM85.2603 15.1364C84.695 15.1364 84.195 14.9929 83.7603 14.706C83.3285 14.419 82.9904 14.0227 82.7461 13.517C82.5018 13.0085 82.3796 12.4219 82.3796 11.7571C82.3796 11.0866 82.5018 10.4972 82.7461 9.98864C82.9904 9.47727 83.3285 9.07955 83.7603 8.79545C84.195 8.50852 84.695 8.36506 85.2603 8.36506C85.8256 8.36506 86.3242 8.50852 86.756 8.79545C87.1879 9.08239 87.5259 9.48011 87.7702 9.98864C88.0174 10.4972 88.141 11.0866 88.141 11.7571C88.141 12.4219 88.0188 13.0085 87.7745 13.517C87.5302 14.0227 87.1907 14.419 86.756 14.706C86.3242 14.9929 85.8256 15.1364 85.2603 15.1364ZM85.2603 14.4418C85.7148 14.4418 86.0998 14.3196 86.4151 14.0753C86.7305 13.831 86.9691 13.5057 87.131 13.0994C87.2958 12.6932 87.3782 12.2457 87.3782 11.7571C87.3782 11.2685 87.2958 10.8196 87.131 10.4105C86.9691 10.0014 86.7305 9.6733 86.4151 9.42614C86.0998 9.17898 85.7148 9.0554 85.2603 9.0554C84.8086 9.0554 84.4237 9.17898 84.1055 9.42614C83.7901 9.6733 83.5501 10.0014 83.3853 10.4105C83.2234 10.8196 83.1424 11.2685 83.1424 11.7571C83.1424 12.2457 83.2234 12.6932 83.3853 13.0994C83.5501 13.5057 83.7901 13.831 84.1055 14.0753C84.4208 14.3196 84.8058 14.4418 85.2603 14.4418ZM89.8061 15V8.45455H92.3842C93.0803 8.45455 93.6286 8.60511 94.0291 8.90625C94.4325 9.20739 94.6342 9.61364 94.6342 10.125C94.6342 10.5142 94.522 10.8253 94.2976 11.0582C94.0732 11.2912 93.772 11.456 93.3942 11.5526C93.647 11.5952 93.8814 11.6875 94.0973 11.8295C94.3161 11.9716 94.4936 12.1591 94.63 12.392C94.7663 12.625 94.8345 12.9034 94.8345 13.2273C94.8345 13.5682 94.7493 13.8722 94.5788 14.1392C94.4084 14.4062 94.1683 14.6165 93.8587 14.7699C93.549 14.9233 93.1825 15 92.7592 15H89.8061ZM90.5305 14.2969H92.7592C93.1598 14.2969 93.4766 14.1946 93.7095 13.9901C93.9425 13.7827 94.0589 13.5071 94.0589 13.1634C94.0589 12.7969 93.9482 12.5043 93.7266 12.2855C93.5078 12.0639 93.2138 11.9531 92.8445 11.9531H90.5305V14.2969ZM90.5305 11.2798H92.4311C92.7266 11.2798 92.9822 11.2344 93.1982 11.1435C93.4141 11.0526 93.5803 10.9247 93.6967 10.7599C93.8161 10.5923 93.8743 10.3963 93.8714 10.1719C93.8714 9.85085 93.7408 9.60227 93.4794 9.42614C93.218 9.24716 92.853 9.15767 92.3842 9.15767H90.5305V11.2798ZM97.1367 10.9815H99.0543C99.7901 10.9815 100.358 11.1605 100.759 11.5185C101.159 11.8764 101.36 12.3608 101.36 12.9716C101.36 13.3778 101.269 13.733 101.087 14.0369C100.908 14.3409 100.647 14.5781 100.303 14.7486C99.9592 14.9162 99.543 15 99.0543 15H96.506V8.45455H97.2688V14.2841H99.0543C99.5174 14.2841 99.8896 14.1733 100.171 13.9517C100.455 13.7301 100.597 13.4148 100.597 13.0057C100.597 12.5881 100.455 12.2656 100.171 12.0384C99.8896 11.8111 99.5174 11.6974 99.0543 11.6974H97.1367V10.9815ZM102.463 15V8.45455H103.222V15H102.463ZM107.886 15.1364C107.275 15.1364 106.747 14.9943 106.301 14.7102C105.855 14.4233 105.51 14.027 105.265 13.5213C105.024 13.0128 104.903 12.4276 104.903 11.7656C104.903 11.1065 105.024 10.5213 105.265 10.0099C105.51 9.49574 105.846 9.09375 106.275 8.80398C106.707 8.51136 107.206 8.36506 107.771 8.36506C108.126 8.36506 108.468 8.4304 108.798 8.56108C109.127 8.68892 109.423 8.88636 109.684 9.15341C109.949 9.41761 110.157 9.75142 110.311 10.1548C110.464 10.5554 110.541 11.0298 110.541 11.5781V11.9531H105.427V11.2841H109.765C109.765 10.8636 109.68 10.4858 109.51 10.1506C109.342 9.8125 109.108 9.54545 108.806 9.34943C108.508 9.15341 108.163 9.0554 107.771 9.0554C107.356 9.0554 106.991 9.16619 106.676 9.38778C106.36 9.60937 106.113 9.90199 105.934 10.2656C105.758 10.6293 105.669 11.027 105.666 11.4588V11.8594C105.666 12.3793 105.755 12.8338 105.934 13.223C106.116 13.6094 106.373 13.9091 106.706 14.1222C107.038 14.3352 107.431 14.4418 107.886 14.4418C108.196 14.4418 108.467 14.3935 108.7 14.2969C108.936 14.2003 109.133 14.071 109.292 13.9091C109.454 13.7443 109.576 13.5639 109.659 13.3679L110.379 13.6023C110.279 13.8778 110.116 14.1321 109.889 14.3651C109.664 14.598 109.383 14.7855 109.045 14.9276C108.71 15.0668 108.324 15.1364 107.886 15.1364ZM118.144 15.1364C117.559 15.1364 117.049 14.9901 116.614 14.6974C116.183 14.4048 115.847 14.0043 115.609 13.4957C115.37 12.9872 115.251 12.4077 115.251 11.7571C115.251 11.1009 115.371 10.517 115.613 10.0057C115.857 9.49432 116.195 9.09375 116.627 8.80398C117.059 8.51136 117.56 8.36506 118.131 8.36506C118.569 8.36506 118.965 8.45028 119.32 8.62074C119.675 8.78835 119.968 9.02557 120.198 9.33239C120.431 9.63636 120.577 9.99148 120.637 10.3977H119.87C119.79 10.0284 119.599 9.71307 119.295 9.4517C118.994 9.1875 118.61 9.0554 118.144 9.0554C117.727 9.0554 117.357 9.16903 117.036 9.39631C116.715 9.62074 116.464 9.93466 116.282 10.3381C116.103 10.7386 116.013 11.2031 116.013 11.7315C116.013 12.2628 116.102 12.733 116.278 13.142C116.454 13.5483 116.701 13.8665 117.019 14.0966C117.34 14.3267 117.715 14.4418 118.144 14.4418C118.434 14.4418 118.698 14.3878 118.937 14.2798C119.178 14.169 119.38 14.0128 119.542 13.8111C119.707 13.6094 119.817 13.3693 119.874 13.0909H120.641C120.585 13.4858 120.444 13.8381 120.219 14.1477C119.998 14.4545 119.71 14.696 119.354 14.8722C119.002 15.0483 118.599 15.1364 118.144 15.1364ZM123.026 13.9219L126.482 8.45455H127.389V15H126.631V9.53267L123.188 15H122.267V8.45455H123.026V13.9219ZM128.476 9.17045V8.45455H133.589V9.17045H131.425V15H130.666V9.17045H128.476ZM135.721 17.4545C135.571 17.4545 135.43 17.4403 135.299 17.4119C135.169 17.3835 135.065 17.3523 134.988 17.3182L135.193 16.6491C135.451 16.7287 135.681 16.7571 135.883 16.7344C136.085 16.7145 136.264 16.6236 136.42 16.4616C136.576 16.3026 136.716 16.0582 136.838 15.7287L137.076 15.0639L134.669 8.45455H135.491L137.434 13.9986H137.494L139.437 8.45455H140.26L137.49 16.0355C137.373 16.3509 137.23 16.6136 137.059 16.8239C136.889 17.0369 136.691 17.1946 136.467 17.2969C136.245 17.402 135.997 17.4545 135.721 17.4545ZM143.373 15.1491C142.978 15.1491 142.617 15.0724 142.29 14.919C141.963 14.7628 141.703 14.5384 141.51 14.2457C141.317 13.9503 141.221 13.5923 141.221 13.1719C141.221 12.848 141.282 12.5753 141.404 12.3537C141.526 12.1321 141.699 11.9503 141.924 11.8082C142.148 11.6662 142.414 11.554 142.721 11.4716C143.027 11.3892 143.365 11.3253 143.735 11.2798C144.101 11.2344 144.411 11.1946 144.664 11.1605C144.919 11.1264 145.114 11.0724 145.248 10.9986C145.381 10.9247 145.448 10.8054 145.448 10.6406V10.4872C145.448 10.0412 145.314 9.69034 145.047 9.43466C144.783 9.17614 144.402 9.04688 143.905 9.04688C143.434 9.04688 143.049 9.15057 142.75 9.35795C142.455 9.56534 142.248 9.80966 142.128 10.0909L141.408 9.83097C141.556 9.47301 141.76 9.1875 142.022 8.97443C142.283 8.75852 142.576 8.60369 142.9 8.50994C143.223 8.41335 143.551 8.36506 143.884 8.36506C144.134 8.36506 144.394 8.39773 144.664 8.46307C144.936 8.52841 145.189 8.64205 145.422 8.80398C145.655 8.96307 145.844 9.18608 145.989 9.47301C146.134 9.7571 146.206 10.1179 146.206 10.5554V15H145.448V13.9645H145.401C145.31 14.1577 145.175 14.3452 144.996 14.527C144.817 14.7088 144.593 14.858 144.323 14.9744C144.053 15.0909 143.736 15.1491 143.373 15.1491ZM143.475 14.4545C143.878 14.4545 144.228 14.3651 144.523 14.1861C144.819 14.0071 145.046 13.7699 145.205 13.4744C145.367 13.1761 145.448 12.848 145.448 12.4901V11.544C145.391 11.598 145.296 11.6463 145.162 11.6889C145.032 11.7315 144.88 11.7699 144.706 11.804C144.536 11.8352 144.365 11.8622 144.195 11.8849C144.025 11.9077 143.871 11.9276 143.735 11.9446C143.365 11.9901 143.05 12.0611 142.789 12.1577C142.527 12.2543 142.327 12.3878 142.188 12.5582C142.049 12.7259 141.979 12.9418 141.979 13.206C141.979 13.6037 142.121 13.9119 142.405 14.1307C142.689 14.3466 143.046 14.4545 143.475 14.4545ZM153.189 8.45455V14.2798H153.883V17.1179H153.125V15H148.233V8.45455H148.995V14.2841H152.426V8.45455H153.189ZM156.26 13.9219L159.716 8.45455H160.624V15H159.865V9.53267L156.422 15H155.501V8.45455H156.26V13.9219ZM163.385 13.9219L166.841 8.45455H167.749V15H166.99V9.53267L163.547 15H162.626V8.45455H163.385V13.9219Z" fill="#FF7961"/>
<rect x="46.5" y="0.5" width="136" height="21" rx="10.5" stroke="#FF7961"/>
</svg>
