<svg width="340" height="160" viewBox="0 0 340 160" fill="none" xmlns="http://www.w3.org/2000/svg">
<rect width="340" height="160" rx="8" fill="white"/>
<path d="M24.0781 24H26.4609V29.2812C26.4609 30.0156 26.5885 30.5964 26.8438 31.0234C27.099 31.4453 27.4688 31.7448 27.9531 31.9219C28.4427 32.099 29.0365 32.1875 29.7344 32.1875C30.1042 32.1875 30.4792 32.1745 30.8594 32.1484C31.2448 32.1172 31.6276 32.0755 32.0078 32.0234C32.388 31.9661 32.7552 31.901 33.1094 31.8281C33.4688 31.75 33.8021 31.6641 34.1094 31.5703V33.625C33.8073 33.724 33.487 33.8125 33.1484 33.8906C32.8151 33.9635 32.4661 34.0286 32.1016 34.0859C31.737 34.138 31.3568 34.1797 30.9609 34.2109C30.5651 34.2422 30.1563 34.2578 29.7344 34.2578C28.5677 34.2578 27.5599 34.0911 26.7109 33.7578C25.8672 33.4193 25.2161 32.8854 24.7578 32.1562C24.3047 31.4271 24.0781 30.4687 24.0781 29.2812V24ZM33.75 24H36.1406V40H33.75V24ZM38.9902 30.0156V28H49.1152V30.0156H45.2012V40H42.9199V30.0156H38.9902ZM56.082 40.2422C54.957 40.2422 53.9753 39.9844 53.1367 39.4687C52.2982 38.9531 51.6471 38.2318 51.1836 37.3047C50.7201 36.3776 50.4883 35.2943 50.4883 34.0547C50.4883 32.8099 50.7201 31.7214 51.1836 30.7891C51.6471 29.8568 52.2982 29.1328 53.1367 28.6172C53.9753 28.1016 54.957 27.8438 56.082 27.8438C57.207 27.8438 58.1888 28.1016 59.0273 28.6172C59.8659 29.1328 60.5169 29.8568 60.9805 30.7891C61.444 31.7214 61.6758 32.8099 61.6758 34.0547C61.6758 35.2943 61.444 36.3776 60.9805 37.3047C60.5169 38.2318 59.8659 38.9531 59.0273 39.4687C58.1888 39.9844 57.207 40.2422 56.082 40.2422ZM56.0898 38.2812C56.819 38.2812 57.4232 38.0885 57.9023 37.7031C58.3815 37.3177 58.7357 36.8047 58.9648 36.1641C59.1992 35.5234 59.3164 34.8177 59.3164 34.0469C59.3164 33.2812 59.1992 32.5781 58.9648 31.9375C58.7357 31.2917 58.3815 30.7734 57.9023 30.3828C57.4232 29.9922 56.819 29.7969 56.0898 29.7969C55.3555 29.7969 54.7461 29.9922 54.2617 30.3828C53.7826 30.7734 53.4258 31.2917 53.1914 31.9375C52.9622 32.5781 52.8477 33.2812 52.8477 34.0469C52.8477 34.8177 52.9622 35.5234 53.1914 36.1641C53.4258 36.8047 53.7826 37.3177 54.2617 37.7031C54.7461 38.0885 55.3555 38.2812 56.0898 38.2812ZM68.9336 43.4609V37.9766H69.9102C70.1602 37.7474 70.3711 37.474 70.543 37.1562C70.7201 36.8385 70.8685 36.4609 70.9883 36.0234C71.1133 35.5859 71.2174 35.0755 71.3008 34.4922C71.3841 33.9036 71.457 33.2318 71.5195 32.4766L71.8945 28H80.0508V37.9766H81.8945V43.4609H79.6133V40H71.2461V43.4609H68.9336ZM72.4102 37.9766H77.7695V30H73.9883L73.7383 32.4766C73.6185 33.737 73.4674 34.8307 73.2852 35.7578C73.1029 36.6797 72.8112 37.4193 72.4102 37.9766ZM89.3496 40.2422C88.1673 40.2422 87.1491 39.9896 86.2949 39.4844C85.446 38.974 84.7897 38.2578 84.3262 37.3359C83.8678 36.4089 83.6387 35.3229 83.6387 34.0781C83.6387 32.849 83.8678 31.7656 84.3262 30.8281C84.7897 29.8906 85.4355 29.1589 86.2637 28.6328C87.097 28.1068 88.071 27.8438 89.1855 27.8438C89.8626 27.8438 90.5189 27.9557 91.1543 28.1797C91.7897 28.4036 92.36 28.7552 92.8652 29.2344C93.3704 29.7135 93.7689 30.3359 94.0605 31.1016C94.3522 31.862 94.498 32.7865 94.498 33.875V34.7031H84.959V32.9531H92.209C92.209 32.3385 92.084 31.7943 91.834 31.3203C91.584 30.8411 91.2324 30.4635 90.7793 30.1875C90.3314 29.9115 89.8053 29.7734 89.2012 29.7734C88.5449 29.7734 87.972 29.9349 87.4824 30.2578C86.998 30.5755 86.623 30.9922 86.3574 31.5078C86.097 32.0182 85.9668 32.5729 85.9668 33.1719V34.5391C85.9668 35.3411 86.1074 36.0234 86.3887 36.5859C86.6751 37.1484 87.0736 37.5781 87.584 37.875C88.0944 38.1667 88.6908 38.3125 89.373 38.3125C89.8158 38.3125 90.2194 38.25 90.584 38.125C90.9486 37.9948 91.2637 37.8021 91.5293 37.5469C91.7949 37.2917 91.998 36.9766 92.1387 36.6016L94.3496 37C94.1725 37.651 93.8548 38.2214 93.3965 38.7109C92.9434 39.1953 92.373 39.5729 91.6855 39.8437C91.0033 40.1094 90.2246 40.2422 89.3496 40.2422ZM96.1445 40L96.1367 37.9766H96.5664C96.8997 37.9766 97.1784 37.9062 97.4023 37.7656C97.6315 37.6198 97.819 37.375 97.9648 37.0312C98.1107 36.6875 98.2227 36.2135 98.3008 35.6094C98.3789 35 98.4362 34.2344 98.4727 33.3125L98.6836 28H107.059V40H104.77V30.0156H100.848L100.66 34.0938C100.613 35.0833 100.512 35.9479 100.355 36.6875C100.204 37.4271 99.9831 38.0443 99.6914 38.5391C99.3997 39.0286 99.0247 39.3958 98.5664 39.6406C98.1081 39.8802 97.5508 40 96.8945 40H96.1445ZM113.666 40.2656C112.906 40.2656 112.218 40.125 111.604 39.8437C110.989 39.5573 110.502 39.1432 110.143 38.6016C109.788 38.0599 109.611 37.3958 109.611 36.6094C109.611 35.9323 109.742 35.375 110.002 34.9375C110.262 34.5 110.614 34.1536 111.057 33.8984C111.499 33.6432 111.994 33.4505 112.541 33.3203C113.088 33.1901 113.645 33.0911 114.213 33.0234C114.932 32.9401 115.515 32.8724 115.963 32.8203C116.411 32.763 116.736 32.6719 116.939 32.5469C117.143 32.4219 117.244 32.2187 117.244 31.9375V31.8828C117.244 31.2005 117.051 30.6719 116.666 30.2969C116.286 29.9219 115.718 29.7344 114.963 29.7344C114.176 29.7344 113.557 29.9089 113.104 30.2578C112.656 30.6016 112.346 30.9844 112.174 31.4062L109.979 30.9062C110.239 30.1771 110.619 29.5885 111.119 29.1406C111.624 28.6875 112.205 28.3594 112.861 28.1562C113.518 27.9479 114.208 27.8438 114.932 27.8438C115.411 27.8438 115.919 27.901 116.455 28.0156C116.997 28.125 117.502 28.3281 117.971 28.625C118.445 28.9219 118.833 29.3464 119.135 29.8984C119.437 30.4453 119.588 31.1563 119.588 32.0313V40H117.307V38.3594H117.213C117.062 38.6615 116.835 38.9583 116.533 39.25C116.231 39.5417 115.843 39.7839 115.369 39.9766C114.895 40.1693 114.327 40.2656 113.666 40.2656ZM114.174 38.3906C114.82 38.3906 115.372 38.263 115.83 38.0078C116.294 37.7526 116.645 37.4193 116.885 37.0078C117.13 36.5911 117.252 36.1458 117.252 35.6719V34.125C117.169 34.2083 117.007 34.2865 116.768 34.3594C116.533 34.4271 116.265 34.487 115.963 34.5391C115.661 34.5859 115.367 34.6302 115.08 34.6719C114.794 34.7083 114.554 34.7396 114.361 34.7656C113.908 34.8229 113.494 34.9193 113.119 35.0547C112.749 35.1901 112.452 35.3854 112.229 35.6406C112.01 35.8906 111.9 36.224 111.9 36.6406C111.9 37.2187 112.114 37.6562 112.541 37.9531C112.968 38.2448 113.512 38.3906 114.174 38.3906ZM121.211 30.0156V28H131.336V30.0156H127.422V40H125.141V30.0156H121.211ZM135.564 32.125H139.049C140.518 32.125 141.648 32.4896 142.439 33.2187C143.231 33.9479 143.627 34.888 143.627 36.0391C143.627 36.7891 143.45 37.4635 143.096 38.0625C142.742 38.6615 142.223 39.1354 141.541 39.4844C140.859 39.8281 140.028 40 139.049 40H133.807V28H136.096V37.9844H139.049C139.721 37.9844 140.273 37.8099 140.705 37.4609C141.137 37.1068 141.354 36.6563 141.354 36.1094C141.354 35.5312 141.137 35.0599 140.705 34.6953C140.273 34.3255 139.721 34.1406 139.049 34.1406H135.564V32.125ZM152.068 40V28H161.857V40H159.568V30.0156H154.342V40H152.068ZM164.98 44.5V28H167.262V29.9453H167.457C167.592 29.6953 167.788 29.4062 168.043 29.0781C168.298 28.75 168.652 28.4635 169.105 28.2187C169.559 27.9688 170.158 27.8438 170.902 27.8438C171.871 27.8438 172.736 28.0885 173.496 28.5781C174.257 29.0677 174.853 29.7734 175.285 30.6953C175.723 31.6172 175.941 32.7266 175.941 34.0234C175.941 35.3203 175.725 36.4323 175.293 37.3594C174.861 38.2812 174.267 38.9922 173.512 39.4922C172.757 39.987 171.895 40.2344 170.926 40.2344C170.197 40.2344 169.6 40.112 169.137 39.8672C168.678 39.6224 168.319 39.3359 168.059 39.0078C167.798 38.6797 167.598 38.388 167.457 38.1328H167.316V44.5H164.98ZM167.27 34C167.27 34.8437 167.392 35.5833 167.637 36.2188C167.882 36.8542 168.236 37.3516 168.699 37.7109C169.163 38.0651 169.73 38.2422 170.402 38.2422C171.1 38.2422 171.684 38.0573 172.152 37.6875C172.621 37.3125 172.975 36.8047 173.215 36.1641C173.46 35.5234 173.582 34.8021 173.582 34C173.582 33.2083 173.462 32.4974 173.223 31.8672C172.988 31.237 172.634 30.7396 172.16 30.375C171.691 30.0104 171.105 29.8281 170.402 29.8281C169.725 29.8281 169.152 30.0026 168.684 30.3516C168.22 30.7005 167.868 31.1875 167.629 31.8125C167.389 32.4375 167.27 33.1667 167.27 34ZM180.848 36.7266L186.137 28H188.652V40H186.363V31.2656L181.098 40H178.559V28H180.848V36.7266ZM197.615 40V28H207.404V40H205.115V30.0156H199.889V40H197.615ZM215.582 40.2422C214.457 40.2422 213.475 39.9844 212.637 39.4687C211.798 38.9531 211.147 38.2318 210.684 37.3047C210.22 36.3776 209.988 35.2943 209.988 34.0547C209.988 32.8099 210.22 31.7214 210.684 30.7891C211.147 29.8568 211.798 29.1328 212.637 28.6172C213.475 28.1016 214.457 27.8438 215.582 27.8438C216.707 27.8438 217.689 28.1016 218.527 28.6172C219.366 29.1328 220.017 29.8568 220.48 30.7891C220.944 31.7214 221.176 32.8099 221.176 34.0547C221.176 35.2943 220.944 36.3776 220.48 37.3047C220.017 38.2318 219.366 38.9531 218.527 39.4687C217.689 39.9844 216.707 40.2422 215.582 40.2422ZM215.59 38.2812C216.319 38.2812 216.923 38.0885 217.402 37.7031C217.882 37.3177 218.236 36.8047 218.465 36.1641C218.699 35.5234 218.816 34.8177 218.816 34.0469C218.816 33.2812 218.699 32.5781 218.465 31.9375C218.236 31.2917 217.882 30.7734 217.402 30.3828C216.923 29.9922 216.319 29.7969 215.59 29.7969C214.855 29.7969 214.246 29.9922 213.762 30.3828C213.283 30.7734 212.926 31.2917 212.691 31.9375C212.462 32.5781 212.348 33.2812 212.348 34.0469C212.348 34.8177 212.462 35.5234 212.691 36.1641C212.926 36.8047 213.283 37.3177 213.762 37.7031C214.246 38.0885 214.855 38.2812 215.59 38.2812ZM222.545 40L227.193 33.8594L222.6 28H225.318L229.029 32.9844H229.865V28H232.201V32.9844H233.014L236.725 28H239.443L234.873 33.8594L239.498 40H236.725L232.982 35H232.201V40H229.865V35H229.084L225.318 40H222.545ZM245.344 40.2656C244.583 40.2656 243.896 40.125 243.281 39.8437C242.667 39.5573 242.18 39.1432 241.82 38.6016C241.466 38.0599 241.289 37.3958 241.289 36.6094C241.289 35.9323 241.419 35.375 241.68 34.9375C241.94 34.5 242.292 34.1536 242.734 33.8984C243.177 33.6432 243.672 33.4505 244.219 33.3203C244.766 33.1901 245.323 33.0911 245.891 33.0234C246.609 32.9401 247.193 32.8724 247.641 32.8203C248.089 32.763 248.414 32.6719 248.617 32.5469C248.82 32.4219 248.922 32.2187 248.922 31.9375V31.8828C248.922 31.2005 248.729 30.6719 248.344 30.2969C247.964 29.9219 247.396 29.7344 246.641 29.7344C245.854 29.7344 245.234 29.9089 244.781 30.2578C244.333 30.6016 244.023 30.9844 243.852 31.4062L241.656 30.9062C241.917 30.1771 242.297 29.5885 242.797 29.1406C243.302 28.6875 243.883 28.3594 244.539 28.1562C245.195 27.9479 245.885 27.8438 246.609 27.8438C247.089 27.8438 247.596 27.901 248.133 28.0156C248.674 28.125 249.18 28.3281 249.648 28.625C250.122 28.9219 250.51 29.3464 250.813 29.8984C251.115 30.4453 251.266 31.1563 251.266 32.0313V40H248.984V38.3594H248.891C248.74 38.6615 248.513 38.9583 248.211 39.25C247.909 39.5417 247.521 39.7839 247.047 39.9766C246.573 40.1693 246.005 40.2656 245.344 40.2656ZM245.852 38.3906C246.497 38.3906 247.049 38.263 247.508 38.0078C247.971 37.7526 248.323 37.4193 248.563 37.0078C248.807 36.5911 248.93 36.1458 248.93 35.6719V34.125C248.846 34.2083 248.685 34.2865 248.445 34.3594C248.211 34.4271 247.943 34.487 247.641 34.5391C247.339 34.5859 247.044 34.6302 246.758 34.6719C246.471 34.7083 246.232 34.7396 246.039 34.7656C245.586 34.8229 245.172 34.9193 244.797 35.0547C244.427 35.1901 244.13 35.3854 243.906 35.6406C243.688 35.8906 243.578 36.224 243.578 36.6406C243.578 37.2187 243.792 37.6562 244.219 37.9531C244.646 38.2448 245.19 38.3906 245.852 38.3906ZM254.377 44.5V28H256.658V29.9453H256.854C256.989 29.6953 257.184 29.4062 257.439 29.0781C257.695 28.75 258.049 28.4635 258.502 28.2187C258.955 27.9688 259.554 27.8438 260.299 27.8438C261.268 27.8438 262.132 28.0885 262.893 28.5781C263.653 29.0677 264.249 29.7734 264.682 30.6953C265.119 31.6172 265.338 32.7266 265.338 34.0234C265.338 35.3203 265.122 36.4323 264.689 37.3594C264.257 38.2812 263.663 38.9922 262.908 39.4922C262.153 39.987 261.291 40.2344 260.322 40.2344C259.593 40.2344 258.997 40.112 258.533 39.8672C258.075 39.6224 257.715 39.3359 257.455 39.0078C257.195 38.6797 256.994 38.388 256.854 38.1328H256.713V44.5H254.377ZM256.666 34C256.666 34.8437 256.788 35.5833 257.033 36.2188C257.278 36.8542 257.632 37.3516 258.096 37.7109C258.559 38.0651 259.127 38.2422 259.799 38.2422C260.497 38.2422 261.08 38.0573 261.549 37.6875C262.018 37.3125 262.372 36.8047 262.611 36.1641C262.856 35.5234 262.979 34.8021 262.979 34C262.979 33.2083 262.859 32.4974 262.619 31.8672C262.385 31.237 262.031 30.7396 261.557 30.375C261.088 30.0104 260.502 29.8281 259.799 29.8281C259.122 29.8281 258.549 30.0026 258.08 30.3516C257.617 30.7005 257.265 31.1875 257.025 31.8125C256.786 32.4375 256.666 33.1667 256.666 34ZM273.127 40.2422C271.945 40.2422 270.926 39.9896 270.072 39.4844C269.223 38.974 268.567 38.2578 268.104 37.3359C267.645 36.4089 267.416 35.3229 267.416 34.0781C267.416 32.849 267.645 31.7656 268.104 30.8281C268.567 29.8906 269.213 29.1589 270.041 28.6328C270.874 28.1068 271.848 27.8438 272.963 27.8438C273.64 27.8438 274.296 27.9557 274.932 28.1797C275.567 28.4036 276.137 28.7552 276.643 29.2344C277.148 29.7135 277.546 30.3359 277.838 31.1016C278.13 31.862 278.275 32.7865 278.275 33.875V34.7031H268.736V32.9531H275.986C275.986 32.3385 275.861 31.7943 275.611 31.3203C275.361 30.8411 275.01 30.4635 274.557 30.1875C274.109 29.9115 273.583 29.7734 272.979 29.7734C272.322 29.7734 271.749 29.9349 271.26 30.2578C270.775 30.5755 270.4 30.9922 270.135 31.5078C269.874 32.0182 269.744 32.5729 269.744 33.1719V34.5391C269.744 35.3411 269.885 36.0234 270.166 36.5859C270.452 37.1484 270.851 37.5781 271.361 37.875C271.872 38.1667 272.468 38.3125 273.15 38.3125C273.593 38.3125 273.997 38.25 274.361 38.125C274.726 37.9948 275.041 37.8021 275.307 37.5469C275.572 37.2917 275.775 36.9766 275.916 36.6016L278.127 37C277.95 37.651 277.632 38.2214 277.174 38.7109C276.721 39.1953 276.15 39.5729 275.463 39.8437C274.781 40.1094 274.002 40.2422 273.127 40.2422ZM283.422 35.3984V35.25C283.432 34.2812 283.529 33.5104 283.711 32.9375C283.898 32.3646 284.164 31.901 284.508 31.5469C284.852 31.1927 285.266 30.8698 285.75 30.5781C286.063 30.3802 286.344 30.1589 286.594 29.9141C286.844 29.6693 287.042 29.388 287.188 29.0703C287.333 28.7526 287.406 28.401 287.406 28.0156C287.406 27.5521 287.297 27.151 287.078 26.8125C286.859 26.474 286.568 26.2135 286.203 26.0312C285.844 25.8437 285.443 25.75 285 25.75C284.599 25.75 284.216 25.8333 283.852 26C283.487 26.1667 283.185 26.4271 282.945 26.7812C282.706 27.1302 282.568 27.5807 282.531 28.1328H280.156C280.193 27.1953 280.43 26.4036 280.867 25.7578C281.305 25.1068 281.883 24.6146 282.602 24.2812C283.326 23.9479 284.125 23.7812 285 23.7812C285.958 23.7812 286.797 23.9609 287.516 24.3203C288.234 24.6745 288.792 25.1719 289.188 25.8125C289.589 26.4479 289.789 27.1901 289.789 28.0391C289.789 28.6224 289.698 29.1484 289.516 29.6172C289.333 30.0807 289.073 30.4948 288.734 30.8594C288.401 31.224 288 31.5469 287.531 31.8281C287.089 32.1042 286.729 32.3906 286.453 32.6875C286.182 32.9844 285.984 33.3359 285.859 33.7422C285.734 34.1484 285.667 34.651 285.656 35.25V35.3984H283.422ZM284.602 40.1484C284.174 40.1484 283.807 39.9974 283.5 39.6953C283.193 39.388 283.039 39.0182 283.039 38.5859C283.039 38.1589 283.193 37.7943 283.5 37.4922C283.807 37.1849 284.174 37.0312 284.602 37.0312C285.023 37.0312 285.388 37.1849 285.695 37.4922C286.008 37.7943 286.164 38.1589 286.164 38.5859C286.164 38.8724 286.091 39.1354 285.945 39.375C285.805 39.6094 285.617 39.7969 285.383 39.9375C285.148 40.0781 284.888 40.1484 284.602 40.1484Z" fill="#231F1C"/>
<path d="M41.8295 66.4545V73H41.0668V66.4545H41.8295ZM41.5483 69.6889V70.4134C41.2898 70.5071 41.044 70.5866 40.8111 70.652C40.5781 70.7145 40.3438 70.7628 40.108 70.7969C39.875 70.831 39.6264 70.848 39.3622 70.848C38.6264 70.8452 38.0483 70.6562 37.6278 70.2812C37.2102 69.9062 37.0014 69.3352 37.0014 68.5682V66.4332H37.7599V68.5682C37.7599 68.9318 37.8253 69.2287 37.956 69.4588C38.0866 69.6889 38.2713 69.8594 38.5099 69.9702C38.7486 70.0781 39.0298 70.1321 39.3537 70.1321C39.7514 70.1321 40.1264 70.0923 40.4787 70.0128C40.831 69.9332 41.1875 69.8253 41.5483 69.6889ZM43.8537 73V66.4545H48.8097V73H48.0469V67.1705H44.6165V73H43.8537Z" fill="#FF7961"/>
<rect x="22.5" y="58.5" width="41" height="21" rx="10.5" stroke="#FF7961"/>
<path d="M82.358 73V72.2841H82.5625C82.7955 72.2841 82.983 72.2415 83.125 72.1562C83.2699 72.0682 83.3821 71.9205 83.4616 71.7131C83.5412 71.5057 83.6009 71.223 83.6406 70.8651C83.6804 70.5071 83.7116 70.0582 83.7344 69.5185L83.875 66.4545H88.0341V73H87.2713V67.1705H84.5952L84.4716 69.7741C84.446 70.3054 84.4034 70.7727 84.3438 71.1761C84.2869 71.5795 84.1932 71.9162 84.0625 72.1861C83.9347 72.456 83.7557 72.6591 83.5256 72.7955C83.2983 72.9318 83 73 82.6307 73H82.358ZM92.5884 73.1364C92.0231 73.1364 91.5231 72.9929 91.0884 72.706C90.6566 72.419 90.3185 72.0227 90.0742 71.517C89.8299 71.0085 89.7077 70.4219 89.7077 69.7571C89.7077 69.0866 89.8299 68.4972 90.0742 67.9886C90.3185 67.4773 90.6566 67.0795 91.0884 66.7955C91.5231 66.5085 92.0231 66.3651 92.5884 66.3651C93.1538 66.3651 93.6523 66.5085 94.0842 66.7955C94.516 67.0824 94.854 67.4801 95.0984 67.9886C95.3455 68.4972 95.4691 69.0866 95.4691 69.7571C95.4691 70.4219 95.3469 71.0085 95.1026 71.517C94.8583 72.0227 94.5188 72.419 94.0842 72.706C93.6523 72.9929 93.1538 73.1364 92.5884 73.1364ZM92.5884 72.4418C93.043 72.4418 93.4279 72.3196 93.7433 72.0753C94.0586 71.831 94.2972 71.5057 94.4592 71.0994C94.6239 70.6932 94.7063 70.2457 94.7063 69.7571C94.7063 69.2685 94.6239 68.8196 94.4592 68.4105C94.2972 68.0014 94.0586 67.6733 93.7433 67.4261C93.4279 67.179 93.043 67.0554 92.5884 67.0554C92.1367 67.0554 91.7518 67.179 91.4336 67.4261C91.1183 67.6733 90.8782 68.0014 90.7134 68.4105C90.5515 68.8196 90.4705 69.2685 90.4705 69.7571C90.4705 70.2457 90.5515 70.6932 90.7134 71.0994C90.8782 71.5057 91.1183 71.831 91.4336 72.0753C91.7489 72.3196 92.1339 72.4418 92.5884 72.4418ZM101.553 69.3736V70.0895H97.7053V69.3736H101.553ZM97.8928 66.4545V73H97.1342V66.4545H97.8928ZM102.112 66.4545V73H101.353V66.4545H102.112ZM108.021 66.4545V67.1705H104.889V73H104.13V66.4545H108.021ZM109.615 75.4545V66.4545H110.352V67.7031H110.441C110.532 67.5071 110.657 67.3068 110.816 67.1023C110.975 66.8949 111.186 66.7202 111.447 66.5781C111.711 66.4361 112.044 66.3651 112.444 66.3651C112.984 66.3651 113.456 66.5071 113.859 66.7912C114.265 67.0724 114.581 67.4673 114.805 67.9759C115.032 68.4815 115.146 69.071 115.146 69.7443C115.146 70.4205 115.032 71.0128 114.805 71.5213C114.581 72.0298 114.265 72.4261 113.859 72.7102C113.456 72.9943 112.987 73.1364 112.453 73.1364C112.058 73.1364 111.727 73.0653 111.46 72.9233C111.196 72.7812 110.981 72.6065 110.816 72.3991C110.654 72.1889 110.529 71.9844 110.441 71.7855H110.373V75.4545H109.615ZM110.365 69.7315C110.365 70.2599 110.443 70.7287 110.599 71.1378C110.758 71.544 110.985 71.8636 111.281 72.0966C111.579 72.3267 111.94 72.4418 112.363 72.4418C112.798 72.4418 113.164 72.3224 113.463 72.0838C113.764 71.8423 113.993 71.517 114.149 71.108C114.308 70.6989 114.387 70.2401 114.387 69.7315C114.387 69.2287 114.309 68.7756 114.153 68.3722C114 67.9687 113.772 67.6491 113.471 67.4134C113.17 67.1747 112.801 67.0554 112.363 67.0554C111.937 67.0554 111.575 67.1705 111.277 67.4006C110.978 67.6278 110.751 67.9432 110.595 68.3466C110.441 68.7472 110.365 69.2088 110.365 69.7315ZM117.569 71.9219L121.025 66.4545H121.932V73H121.174V67.5327L117.73 73H116.81V66.4545H117.569V71.9219ZM123.159 74.8622V72.2841H123.726C123.868 72.125 123.992 71.9531 124.097 71.7685C124.202 71.5838 124.293 71.3736 124.37 71.1378C124.449 70.8991 124.516 70.6222 124.57 70.3068C124.624 69.9886 124.669 69.6179 124.706 69.1946L124.945 66.4545H128.819V72.2841H129.79V74.8622H129.032V73H123.922V74.8622H123.159ZM124.6 72.2841H128.06V67.1705H125.652L125.456 69.1946C125.388 69.8821 125.292 70.4815 125.167 70.9929C125.042 71.5043 124.853 71.9347 124.6 72.2841Z" fill="#FF7961"/>
<rect x="68.5" y="58.5" width="76" height="21" rx="10.5" stroke="#FF7961"/>
</svg>
