<svg width="112" height="28" viewBox="0 0 112 28" fill="none" xmlns="http://www.w3.org/2000/svg">
<path d="M9.29405 23.85C8.75537 23.85 8.47522 23.6687 8.23697 23.3007C7.92602 22.8203 7.65805 21.925 7.65805 20.522H3.65805C3.65805 22.323 3.98407 24.0917 4.87912 25.4743C5.84687 26.9693 7.38473 27.85 9.29405 27.85V23.85ZM7.65805 20.522C7.65805 17.4523 8.66488 13.015 10.3046 9.35649C11.1214 7.5342 12.044 6.02214 12.9805 4.99913C13.9438 3.94683 14.6856 3.658 15.162 3.658V-0.342001C13.0645 -0.342001 11.3313 0.876668 10.03 2.29824C8.70186 3.74911 7.57023 5.6773 6.65447 7.72051C4.82921 11.793 3.65805 16.7877 3.65805 20.522H7.65805ZM15.162 3.658C15.7228 3.658 15.9938 3.84451 16.2306 4.23315C16.5476 4.75339 16.798 5.69826 16.798 7.13H20.798C20.798 5.35774 20.5085 3.56661 19.6465 2.15185C18.7043 0.605484 17.1573 -0.342001 15.162 -0.342001V3.658ZM16.798 7.13C16.798 10.2568 15.7987 14.6562 14.1681 18.257C13.3557 20.0512 12.4372 21.5325 11.5039 22.5324C10.5488 23.5557 9.79896 23.85 9.29405 23.85V27.85C11.3811 27.85 13.1153 26.6683 14.4282 25.2616C15.7629 23.8315 16.8964 21.9288 17.812 19.907C19.6374 15.8758 20.798 10.9152 20.798 7.13H16.798ZM8.89805 29.29C14.1749 29.29 18.5639 26.6299 21.5779 22.8712C24.5778 19.13 26.306 14.206 26.306 9.362H22.306C22.306 13.302 20.8843 17.342 18.4572 20.3688C16.0442 23.3781 12.7292 25.29 8.89805 25.29V29.29ZM26.306 9.362C26.306 6.45654 25.5342 3.65715 23.6889 1.55727C21.8071 -0.584104 19.0301 -1.746 15.558 -1.746V2.254C18.098 2.254 19.695 3.0721 20.6842 4.19773C21.7099 5.36484 22.306 7.11945 22.306 9.362H26.306ZM15.558 -1.746C10.2842 -1.746 5.89532 0.902238 2.87986 4.65281C-0.121322 8.38562 -1.84995 13.3015 -1.84995 18.146H2.15005C2.15005 14.2065 3.57142 10.1764 5.99724 7.15919C8.40878 4.15976 11.7239 2.254 15.558 2.254V-1.746ZM-1.84995 18.146C-1.84995 21.0511 -1.07839 23.857 0.763627 25.9646C2.64312 28.1152 5.42022 29.29 8.89805 29.29V25.29C6.36388 25.29 4.76697 24.4668 3.77547 23.3324C2.74648 22.155 2.15005 20.3889 2.15005 18.146H-1.84995ZM40.6402 13.97L42.5754 14.4748L43.2289 11.97H40.6402V13.97ZM38.2642 23.078L36.329 22.5732L36.3282 22.5761L38.2642 23.078ZM34.3762 25.346V23.346H32.8623L32.4513 24.8031L34.3762 25.346ZM33.9802 26.75L32.0553 26.2071L31.3381 28.75H33.9802V26.75ZM46.2922 26.75V28.75H47.8061L48.2171 27.2929L46.2922 26.75ZM46.6882 25.346L48.6131 25.8889L49.3303 23.346H46.6882V25.346ZM44.0242 23.078L42.0927 22.5589L42.0917 22.5627L44.0242 23.078ZM46.4722 13.97V11.97H44.9388L44.5408 13.4509L46.4722 13.97ZM59.7562 19.874L61.6707 20.4525L62.4498 17.874H59.7562V19.874ZM58.4242 19.874V17.874H56.9277L56.5055 19.3097L58.4242 19.874ZM50.8642 12.566L49.4191 11.1834L46.7239 14.0004L50.5842 14.5463L50.8642 12.566ZM58.0282 5.078L56.586 3.69234L56.5831 3.69539L58.0282 5.078ZM64.1842 2.162V4.162H65.6981L66.1091 2.70492L64.1842 2.162ZM64.5802 0.757998L66.5051 1.30091L67.2223 -1.242L64.5802 -1.242V0.757998ZM56.0842 0.757998V-1.242H54.5703L54.1593 0.215076L56.0842 0.757998ZM55.6882 2.162L53.7633 1.61908L53.0461 4.162H55.6882V2.162ZM57.7042 2.702L59.7011 2.81294L59.7042 2.75751V2.702H57.7042ZM56.0122 5.078L54.5716 3.69071L54.5603 3.70245L54.5491 3.71437L56.0122 5.078ZM49.1002 12.494V14.494H49.9701L50.5633 13.8576L49.1002 12.494ZM46.9042 12.494L44.9702 11.9846L44.3092 14.494H46.9042V12.494ZM49.0282 4.43L47.0945 3.91922L47.0942 3.92059L49.0282 4.43ZM52.9162 2.162V4.162H54.4301L54.8411 2.70492L52.9162 2.162ZM53.3122 0.757998L55.2371 1.30092L55.9543 -1.242H53.3122V0.757998ZM41.0002 0.757998V-1.242H39.4863L39.0753 0.215078L41.0002 0.757998ZM40.6042 2.162L38.6793 1.61908L37.9621 4.162H40.6042V2.162ZM43.2322 4.43L45.1641 4.94747L45.1684 4.93131L45.1725 4.91507L43.2322 4.43ZM41.0722 12.494V14.494H42.607L43.0041 13.0115L41.0722 12.494ZM38.8762 12.494L37.0306 13.2645L37.5439 14.494H38.8762V12.494ZM35.7802 5.078L33.9233 5.82078L33.9288 5.83468L33.9346 5.8485L35.7802 5.078ZM37.8322 2.162V4.162H39.3461L39.7571 2.70492L37.8322 2.162ZM38.2282 0.757998L40.1531 1.30092L40.8703 -1.242H38.2282V0.757998ZM29.7322 0.757998V-1.242H28.2183L27.8073 0.215078L29.7322 0.757998ZM29.3362 2.162L27.4113 1.61908L26.6941 4.162H29.3362V2.162ZM33.8722 5.078L32.0319 5.86111L32.0335 5.86477L33.8722 5.078ZM37.0762 12.566L37.3232 14.5507L39.9604 14.2225L38.915 11.7792L37.0762 12.566ZM25.5202 19.874L27.4726 20.3079L28.0134 17.874H25.5202V19.874ZM24.2602 19.874V17.874H22.6987L22.3199 19.3889L24.2602 19.874ZM27.1042 29.11C29.6748 29.11 31.5287 27.9298 32.8603 26.3422C34.1148 24.8466 34.9545 22.9329 35.6321 21.311C36.3651 19.5567 36.9072 18.1595 37.5919 17.1331C38.2258 16.1829 38.7021 15.97 39.2002 15.97V11.97C36.8183 11.97 35.2741 13.3996 34.2644 14.9132C33.3055 16.3505 32.5808 18.2383 31.9413 19.769C31.2464 21.4321 30.6078 22.8034 29.7957 23.7716C29.0608 24.6477 28.2596 25.11 27.1042 25.11V29.11ZM39.2002 15.97H40.6402V11.97H39.2002V15.97ZM38.705 13.4652L36.329 22.5732L40.1994 23.5828L42.5754 14.4748L38.705 13.4652ZM36.3282 22.5761C36.2255 22.9723 36.1315 23.2063 36.0641 23.3371C36.0007 23.4602 35.981 23.453 36.0353 23.4075C36.0991 23.3541 36.1642 23.3312 36.1787 23.3274C36.1788 23.3274 36.1735 23.3288 36.1617 23.3308C36.1499 23.3327 36.1324 23.3352 36.1079 23.3376C36.0576 23.3424 35.9872 23.346 35.8882 23.346V27.346C36.6187 27.346 37.6721 27.254 38.6031 26.4745C39.4728 25.7463 39.9141 24.6834 40.2002 23.5799L36.3282 22.5761ZM35.8882 23.346H34.3762V27.346H35.8882V23.346ZM32.4513 24.8031L32.0553 26.2071L35.9051 27.2929L36.3011 25.8889L32.4513 24.8031ZM33.9802 28.75H46.2922V24.75H33.9802V28.75ZM48.2171 27.2929L48.6131 25.8889L44.7633 24.8031L44.3673 26.2071L48.2171 27.2929ZM46.6882 23.346H45.1762V27.346H46.6882V23.346ZM45.1762 23.346C45.1017 23.346 45.0458 23.344 45.0046 23.3412C44.9631 23.3384 44.9454 23.3354 44.9459 23.3354C44.9462 23.3355 44.9754 23.3405 45.0244 23.3577C45.0742 23.3751 45.1507 23.4073 45.2399 23.4638C45.4417 23.5919 45.6161 23.7867 45.7204 24.0155C45.8119 24.2162 45.8082 24.3527 45.8082 24.338H41.8082C41.8082 25.1928 42.1049 26.2118 43.0966 26.8412C43.8565 27.3235 44.7192 27.346 45.1762 27.346V23.346ZM45.8082 24.338C45.8082 24.2826 45.8238 24.0914 45.9567 23.5933L42.0917 22.5627C41.9366 23.1446 41.8082 23.7454 41.8082 24.338H45.8082ZM45.9557 23.5971L48.4037 14.4891L44.5408 13.4509L42.0928 22.5589L45.9557 23.5971ZM46.4722 15.97H47.9482V11.97H46.4722V15.97ZM47.9482 15.97C48.082 15.97 48.079 15.9956 48.0148 15.9601C47.9472 15.9225 47.922 15.8785 47.9318 15.8949C47.9498 15.9251 47.9992 16.026 48.0413 16.2398C48.0828 16.4506 48.1082 16.725 48.1082 17.066H52.1082C52.1082 16.075 51.9759 14.8659 51.3666 13.8451C50.6567 12.6555 49.4486 11.97 47.9482 11.97V15.97ZM48.1082 17.066C48.1082 17.8308 47.9939 18.7478 47.8544 19.8357C47.7239 20.8538 47.5682 22.0428 47.5682 23.114H51.5682C51.5682 22.3492 51.6825 21.4322 51.822 20.3443C51.9525 19.3262 52.1082 18.1372 52.1082 17.066H48.1082ZM47.5682 23.114C47.5682 24.3712 47.7417 25.8888 48.6175 27.1211C49.5961 28.498 51.138 29.11 52.9522 29.11V25.11C52.4854 25.11 52.2268 25.0348 52.0973 24.9772C51.9849 24.9272 51.9271 24.8731 51.8779 24.8039C51.7367 24.6052 51.5682 24.1248 51.5682 23.114H47.5682ZM52.9522 29.11C55.261 29.11 57.1557 28.3646 58.6421 26.7011C60.0083 25.1721 60.9005 23.0014 61.6707 20.4525L57.8417 19.2955C57.0999 21.7506 56.4081 23.1979 55.6593 24.0359C55.0307 24.7394 54.2794 25.11 52.9522 25.11V29.11ZM59.7562 17.874H58.4242V21.874H59.7562V17.874ZM56.5055 19.3097C56.0818 20.7503 55.6453 21.7602 55.2808 22.3643C55.0961 22.6703 54.9757 22.7952 54.9474 22.8204C54.8997 22.8629 55.1338 22.626 55.6162 22.626V26.626C56.5126 26.626 57.1922 26.1776 57.608 25.8072C58.0432 25.4196 58.4043 24.9302 58.7057 24.4307C59.3132 23.4238 59.8666 22.0577 60.3429 20.4383L56.5055 19.3097ZM55.6162 22.626C55.8757 22.626 56.2005 22.7095 56.4867 22.9332C56.7441 23.1344 56.8463 23.3522 56.8751 23.4232C56.9035 23.493 56.894 23.5006 56.8812 23.4005C56.8694 23.3079 56.8602 23.168 56.8602 22.97H52.8602C52.8602 23.5231 52.8992 24.264 53.1693 24.9288C53.3151 25.2878 53.5703 25.7306 54.0234 26.0848C54.5054 26.4615 55.0687 26.626 55.6162 26.626V22.626ZM56.8602 22.97C56.8602 22.4655 56.9004 21.7787 56.9469 20.9698C56.9912 20.1989 57.0402 19.3298 57.0402 18.578H53.0402C53.0402 19.1942 52.9992 19.9451 52.9535 20.7402C52.91 21.4973 52.8602 22.3225 52.8602 22.97H56.8602ZM57.0402 18.578C57.0402 17.1227 56.8902 15.3288 56.0448 13.7778C55.1202 12.0816 53.5021 10.9191 51.1442 10.5857L50.5842 14.5463C51.7903 14.7169 52.2602 15.1924 52.5326 15.6922C52.8842 16.3372 53.0402 17.2973 53.0402 18.578H57.0402ZM52.3093 13.9486L59.4733 6.4606L56.5831 3.69539L49.4191 11.1834L52.3093 13.9486ZM59.4704 6.46365C61.1183 4.74846 62.0997 4.162 63.5722 4.162V0.161999C60.4367 0.161999 58.4661 1.73554 56.586 3.69235L59.4704 6.46365ZM63.5722 4.162H64.1842V0.161999H63.5722V4.162ZM66.1091 2.70492L66.5051 1.30091L62.6553 0.215082L62.2593 1.61908L66.1091 2.70492ZM64.5802 -1.242L56.0842 -1.242V2.758H64.5802V-1.242ZM54.1593 0.215076L53.7633 1.61908L57.6131 2.70492L58.0091 1.30092L54.1593 0.215076ZM55.6882 4.162H56.9122V0.161999H55.6882V4.162ZM56.9122 4.162C57.0079 4.162 56.697 4.19009 56.3242 3.9105C56.1186 3.7563 55.9454 3.54419 55.8338 3.29322C55.7274 3.05383 55.7042 2.84109 55.7042 2.702H59.7042C59.7042 2.05201 59.4572 1.26024 58.7242 0.710497C58.0994 0.241905 57.3925 0.161999 56.9122 0.161999V4.162ZM55.7073 2.59105C55.7175 2.40791 55.7698 2.31066 55.7618 2.32692C55.7536 2.34345 55.7151 2.41318 55.6111 2.5482C55.3908 2.83435 55.0618 3.18159 54.5716 3.69071L57.4528 6.46528C57.8986 6.0024 58.3976 5.48565 58.7803 4.9888C59.1273 4.53816 59.6476 3.7758 59.7011 2.81294L55.7073 2.59105ZM54.5491 3.71437L47.6371 11.1304L50.5633 13.8576L57.4753 6.44162L54.5491 3.71437ZM49.1002 10.494H46.9042V14.494H49.1002V10.494ZM48.8382 13.0034L50.9622 4.93941L47.0942 3.92059L44.9702 11.9846L48.8382 13.0034ZM50.9619 4.94078C51.0641 4.55389 51.1579 4.32215 51.2262 4.19016C51.2909 4.06511 51.3142 4.06559 51.2675 4.10525C51.2114 4.15282 51.1518 4.17553 51.1352 4.18C51.1343 4.18022 51.1527 4.17526 51.1982 4.17054C51.2445 4.16574 51.3106 4.162 51.4042 4.162V0.161999C50.6417 0.161999 49.5986 0.275085 48.6789 1.05575C47.8239 1.78157 47.3822 2.83 47.0945 3.91922L50.9619 4.94078ZM51.4042 4.162H52.9162V0.161999H51.4042V4.162ZM54.8411 2.70492L55.2371 1.30092L51.3873 0.215079L50.9913 1.61908L54.8411 2.70492ZM53.3122 -1.242L41.0002 -1.242V2.758L53.3122 2.758V-1.242ZM39.0753 0.215078L38.6793 1.61908L42.5291 2.70492L42.9251 1.30092L39.0753 0.215078ZM40.6042 4.162H42.1162V0.161999H40.6042V4.162ZM42.1162 4.162C42.2459 4.162 42.2916 4.17132 42.2827 4.16954C42.2737 4.16774 42.1477 4.14268 41.9833 4.0331C41.7977 3.90933 41.6364 3.72598 41.5377 3.51008C41.4486 3.31532 41.4482 3.17722 41.4482 3.17H45.4482C45.4482 2.3053 45.136 1.32752 44.2021 0.704898C43.4551 0.206912 42.611 0.161999 42.1162 0.161999V4.162ZM41.4482 3.17C41.4482 3.2181 41.4386 3.35807 41.2919 3.94493L45.1725 4.91507C45.3138 4.34993 45.4482 3.7699 45.4482 3.17H41.4482ZM41.3003 3.91253L39.1403 11.9765L43.0041 13.0115L45.1641 4.94747L41.3003 3.91253ZM41.0722 10.494H38.8762V14.494H41.0722V10.494ZM40.7218 11.7235L37.6258 4.3075L33.9346 5.8485L37.0306 13.2645L40.7218 11.7235ZM37.6372 4.33521C37.5278 4.06172 37.4412 3.8383 37.3793 3.63398C37.3139 3.41826 37.3122 3.33657 37.3122 3.35H33.3122C33.3122 4.35014 33.7457 5.37697 33.9233 5.82078L37.6372 4.33521ZM37.3122 3.35C37.3122 3.37767 37.3028 3.62595 37.0638 3.88088C36.8006 4.16162 36.5324 4.162 36.5722 4.162V0.161999C35.712 0.161999 34.8138 0.432373 34.1456 1.14512C33.5016 1.83205 33.3122 2.67432 33.3122 3.35H37.3122ZM36.5722 4.162H37.8322V0.161999H36.5722V4.162ZM39.7571 2.70492L40.1531 1.30092L36.3033 0.215079L35.9073 1.61908L39.7571 2.70492ZM38.2282 -1.242L29.7322 -1.242V2.758H38.2282V-1.242ZM27.8073 0.215078L27.4113 1.61908L31.2611 2.70492L31.6571 1.30092L27.8073 0.215078ZM29.3362 4.162H29.9482V0.161999H29.3362V4.162ZM29.9482 4.162C30.6864 4.162 31.0044 4.34664 31.1938 4.50799C31.4454 4.72238 31.7112 5.10742 32.0319 5.86111L35.7125 4.29489C35.3132 3.35657 34.751 2.28362 33.7876 1.46301C32.762 0.589358 31.478 0.161999 29.9482 0.161999V4.162ZM32.0335 5.86477L35.2375 13.3528L38.915 11.7792L35.7109 4.29123L32.0335 5.86477ZM36.8292 10.5813C31.5979 11.2324 29.0206 15.0509 27.5086 18.0987C27.126 18.8697 26.7956 19.6241 26.5069 20.2884C26.2092 20.9736 25.9692 21.5314 25.737 21.999C25.4961 22.4841 25.3371 22.717 25.2528 22.8104C25.1827 22.8881 25.3892 22.626 25.8442 22.626V26.626C26.9562 26.626 27.7444 26.0197 28.2218 25.4909C28.6851 24.9777 29.0397 24.3418 29.3197 23.7779C29.6084 23.1964 29.8965 22.5249 30.1756 21.8824C30.4638 21.2191 30.7589 20.5475 31.0918 19.8763C32.4418 17.1551 34.1665 14.9436 37.3232 14.5507L36.8292 10.5813ZM25.8442 22.626C26.0868 22.626 26.3867 22.6984 26.6598 22.8933C26.9137 23.0743 27.0321 23.2808 27.0769 23.3769C27.1194 23.4683 27.1169 23.504 27.1069 23.4397C27.0979 23.3814 27.0882 23.2763 27.0882 23.114H23.0882C23.0882 23.6719 23.1425 24.4033 23.4505 25.0651C23.6168 25.4222 23.8905 25.8312 24.3367 26.1495C24.8022 26.4816 25.3316 26.626 25.8442 26.626V22.626ZM27.0882 23.114C27.0882 22.4179 27.2005 21.5321 27.4726 20.3079L23.5678 19.4401C23.2639 20.8079 23.0882 22.0101 23.0882 23.114H27.0882ZM25.5202 17.874H24.2602V21.874H25.5202V17.874ZM22.3199 19.3889C21.9473 20.8795 21.6482 22.4716 21.6482 23.87H25.6482C25.6482 22.9644 25.8531 21.7485 26.2005 20.3591L22.3199 19.3889ZM21.6482 23.87C21.6482 25.1429 21.9221 26.5746 22.9919 27.6621C24.0658 28.7537 25.5577 29.11 27.1042 29.11V25.11C26.0947 25.11 25.8586 24.8723 25.8435 24.8569C25.8243 24.8374 25.6482 24.6491 25.6482 23.87H21.6482ZM71.7667 23.85C71.228 23.85 70.9479 23.6687 70.7096 23.3007C70.3987 22.8203 70.1307 21.925 70.1307 20.522H66.1307C66.1307 22.323 66.4567 24.0917 67.3518 25.4743C68.3195 26.9693 69.8574 27.85 71.7667 27.85V23.85ZM70.1307 20.522C70.1307 17.4523 71.1375 13.015 72.7773 9.35649C73.594 7.5342 74.5166 6.02214 75.4531 4.99913C76.4164 3.94683 77.1583 3.658 77.6347 3.658V-0.342001C75.5371 -0.342001 73.804 0.876668 72.5027 2.29824C71.1745 3.74911 70.0429 5.6773 69.1271 7.72051C67.3019 11.793 66.1307 16.7877 66.1307 20.522H70.1307ZM77.6347 3.658C78.1954 3.658 78.4665 3.84451 78.7033 4.23315C79.0202 4.75339 79.2707 5.69826 79.2707 7.13H83.2707C83.2707 5.35774 82.9812 3.56661 82.1191 2.15185C81.1769 0.605484 79.63 -0.342001 77.6347 -0.342001V3.658ZM79.2707 7.13C79.2707 10.2568 78.2714 14.6562 76.6408 18.257C75.8283 20.0512 74.9098 21.5325 73.9766 22.5324C73.0215 23.5557 72.2716 23.85 71.7667 23.85V27.85C73.8538 27.85 75.5879 26.6683 76.9008 25.2616C78.2356 23.8315 79.3691 21.9288 80.2846 19.907C82.1101 15.8758 83.2707 10.9152 83.2707 7.13H79.2707ZM71.3707 29.29C76.6475 29.29 81.0365 26.6299 84.0505 22.8712C87.0504 19.13 88.7787 14.206 88.7787 9.362H84.7787C84.7787 13.302 83.357 17.342 80.9299 20.3688C78.5169 23.3781 75.2019 25.29 71.3707 25.29V29.29ZM88.7787 9.362C88.7787 6.45654 88.0069 3.65715 86.1615 1.55727C84.2797 -0.584104 81.5027 -1.746 78.0307 -1.746V2.254C80.5707 2.254 82.1677 3.0721 83.1569 4.19773C84.1825 5.36484 84.7787 7.11945 84.7787 9.362H88.7787ZM78.0307 -1.746C72.7569 -1.746 68.368 0.902238 65.3525 4.65281C62.3513 8.38562 60.6227 13.3015 60.6227 18.146L64.6227 18.146C64.6227 14.2065 66.0441 10.1764 68.4699 7.15919C70.8814 4.15976 74.1965 2.254 78.0307 2.254V-1.746ZM60.6227 18.146C60.6227 21.0511 61.3943 23.857 63.2363 25.9646C65.1158 28.1152 67.8929 29.29 71.3707 29.29V25.29C68.8365 25.29 67.2396 24.4668 66.2481 23.3324C65.2191 22.155 64.6227 20.3889 64.6227 18.146L60.6227 18.146ZM111.717 0.757998L113.662 1.2239L114.253 -1.242H111.717V0.757998ZM92.4569 0.757998V-1.242H90.9429L90.532 0.215078L92.4569 0.757998ZM92.0609 2.162L90.136 1.61908L89.4187 4.162H92.0609V2.162ZM94.4369 4.43L92.5044 3.91468L92.5043 3.91514L94.4369 4.43ZM89.4689 23.078L91.3959 23.6133L91.3987 23.6031L91.4015 23.5929L89.4689 23.078ZM85.8329 25.346V23.346H84.3189L83.908 24.8031L85.8329 25.346ZM85.4369 26.75L83.512 26.2071L82.7947 28.75H85.4369V26.75ZM97.4609 26.75V28.75H98.9748L99.3858 27.2929L97.4609 26.75ZM97.8569 25.346L99.7818 25.8889L100.499 23.346H97.8569V25.346ZM95.2289 23.078L93.2972 22.5597L93.2804 22.6222L93.2677 22.6858L95.2289 23.078ZM100.233 4.43L102.165 4.94835L102.167 4.93899L100.233 4.43ZM108.117 10.226L106.134 9.96732L105.839 12.226H108.117V10.226ZM109.449 10.226V12.226H111.026L111.394 10.6919L109.449 10.226ZM111.717 -1.242L92.4569 -1.242V2.758L111.717 2.758V-1.242ZM90.532 0.215078L90.136 1.61908L93.9858 2.70492L94.3818 1.30092L90.532 0.215078ZM92.0609 4.162H93.3209V0.161999H92.0609V4.162ZM93.3209 4.162C93.4506 4.162 93.4963 4.17132 93.4874 4.16954C93.4783 4.16774 93.3523 4.14268 93.188 4.0331C93.0023 3.90933 92.841 3.72597 92.7423 3.51008C92.6533 3.31532 92.6529 3.17722 92.6529 3.17H96.6529C96.6529 2.3053 96.3407 1.32752 95.4068 0.704898C94.6598 0.206912 93.8156 0.161999 93.3209 0.161999V4.162ZM92.6529 3.17C92.6529 3.22539 92.6372 3.41656 92.5044 3.91468L96.3693 4.94532C96.5245 4.36344 96.6529 3.7626 96.6529 3.17H92.6529ZM92.5043 3.91514L87.5363 22.5631L91.4015 23.5929L96.3695 4.94486L92.5043 3.91514ZM87.5418 22.5427C87.4295 22.9469 87.3303 23.1896 87.2576 23.3293C87.1884 23.4623 87.1653 23.4593 87.2177 23.4149C87.2815 23.3608 87.3503 23.3347 87.3727 23.3289C87.3754 23.3282 87.3575 23.333 87.3098 23.3377C87.2613 23.3424 87.192 23.346 87.0929 23.346V27.346C87.8273 27.346 88.8757 27.2526 89.803 26.4671C90.6544 25.7459 91.0952 24.6959 91.3959 23.6133L87.5418 22.5427ZM87.0929 23.346H85.8329V27.346H87.0929V23.346ZM83.908 24.8031L83.512 26.2071L87.3618 27.2929L87.7578 25.8889L83.908 24.8031ZM85.4369 28.75H97.4609V24.75H85.4369V28.75ZM99.3858 27.2929L99.7818 25.8889L95.932 24.8031L95.536 26.2071L99.3858 27.2929ZM97.8569 23.346H96.3809V27.346H97.8569V23.346ZM96.3809 23.346C96.3002 23.346 96.241 23.3439 96.1985 23.3411C96.1554 23.3382 96.1398 23.3352 96.1444 23.336C96.1489 23.3368 96.1863 23.3437 96.2454 23.3651C96.3059 23.387 96.3944 23.4262 96.4946 23.4936C96.7227 23.6473 96.8906 23.8654 96.9814 24.0872C97.0575 24.2733 97.0489 24.3868 97.0489 24.338H93.0489C93.0489 25.0854 93.26 26.1378 94.2602 26.8114C95.0329 27.3318 95.9313 27.346 96.3809 27.346V23.346ZM97.0489 24.338C97.0489 24.2488 97.0731 24.0548 97.19 23.4702L93.2677 22.6858C93.1686 23.1812 93.0489 23.7792 93.0489 24.338H97.0489ZM97.1605 23.5963L102.165 4.94834L98.3012 3.91166L93.2972 22.5597L97.1605 23.5963ZM102.167 4.93899C102.29 4.47333 102.388 4.1911 102.463 4.02221C102.538 3.85397 102.552 3.88489 102.463 3.97048C102.414 4.01689 102.351 4.06416 102.278 4.10345C102.206 4.14179 102.147 4.16026 102.115 4.1681C102.078 4.17749 102.115 4.162 102.357 4.162V0.161999C101.743 0.161999 100.626 0.189897 99.695 1.08252C98.9238 1.82167 98.5663 2.90424 98.2987 3.92101L102.167 4.93899ZM102.357 4.162H105.705V0.161999H102.357V4.162ZM105.705 4.162C106.404 4.162 106.311 4.28785 106.196 4.15744C106.173 4.13102 106.25 4.20067 106.33 4.52461C106.411 4.85468 106.477 5.37177 106.477 6.158H110.477C110.477 4.29799 110.199 2.65287 109.201 1.51656C108.105 0.270151 106.625 0.161999 105.705 0.161999V4.162ZM106.477 6.158C106.477 6.88213 106.349 8.31938 106.134 9.96732L110.1 10.4847C110.317 8.82062 110.477 7.16187 110.477 6.158H106.477ZM108.117 12.226H109.449V8.226H108.117V12.226ZM111.394 10.6919L113.662 1.2239L109.772 0.292091L107.504 9.76009L111.394 10.6919Z" fill="#FEFF8B"/>
</svg>
