<svg width="256" height="175" viewBox="0 0 256 175" fill="none" xmlns="http://www.w3.org/2000/svg">
<path fill-rule="evenodd" clip-rule="evenodd" d="M233.621 29.1034C227.68 28.2541 221.897 26.8047 216.222 24.8932C212.035 23.4831 207.95 21.8215 203.993 19.8518C201.437 18.5764 198.924 17.2044 196.434 15.7995C193.983 14.4242 191.563 12.9929 189.167 11.5228C186.132 9.6597 183.508 7.32327 181.359 4.45588C181.091 4.09891 180.782 3.77289 180.472 3.44687C180.207 3.16743 179.942 2.88798 179.702 2.58904C179.502 2.34299 179.289 1.92603 179.372 1.67803C179.455 1.43595 179.875 1.20542 180.178 1.15184C180.307 1.12746 180.436 1.10174 180.566 1.07594L180.566 1.0759C181.281 0.933515 182.009 0.788741 182.711 0.85258C183.804 0.950647 184.886 1.14935 185.969 1.34822C186.376 1.42288 186.782 1.49757 187.19 1.56697C187.576 1.63243 187.96 1.70258 188.345 1.77273C188.826 1.86042 189.307 1.9481 189.79 2.02665C190.765 2.18284 191.319 2.8797 191.878 3.58222L191.908 3.6206C192.046 3.7941 192.172 3.97478 192.299 4.15508L192.299 4.15526L192.299 4.15537C192.45 4.37127 192.601 4.58661 192.77 4.78837C192.921 4.96667 193.071 5.14675 193.221 5.32692C193.764 5.9798 194.308 6.63393 194.922 7.209C195.871 8.09915 196.906 8.89869 197.949 9.6813C198.911 10.398 199.91 11.0655 200.925 11.7052C202.367 12.6169 203.823 13.5125 205.306 14.3514C207.13 15.3779 208.964 16.3815 210.839 17.3063C211.421 17.5935 212.003 17.8825 212.585 18.1716L212.585 18.1717C215.186 19.4635 217.787 20.7559 220.457 21.8805C225.732 24.0978 231.183 25.8022 236.879 26.5866C238.408 26.7976 239.93 26.8504 241.437 26.4479C241.87 26.3342 242.336 26.2068 242.692 25.9552C243.606 25.3054 243.9 24.5495 243.081 23.6355C240.652 20.952 237.835 18.7875 234.691 17.0117C231.541 15.2351 228.21 13.88 224.809 12.6781C224.606 12.6066 224.393 12.556 224.181 12.5057C223.853 12.4276 223.526 12.35 223.24 12.1955C222.892 12.0071 222.518 11.6216 222.435 11.2654C222.325 10.7441 222.824 10.6314 223.262 10.5324L223.283 10.5277C225.647 9.96772 227.954 10.3751 230.266 10.7833L230.266 10.7834C230.56 10.8352 230.854 10.8871 231.148 10.9369C235.515 11.6777 239.481 13.534 243.396 15.4614C244.975 16.2374 246.451 17.2275 247.921 18.2137C248.239 18.4266 248.556 18.6393 248.873 18.8496C249.978 19.5805 251.04 20.402 252.04 21.2752C252.58 21.7478 253.052 22.3012 253.522 22.8524L253.523 22.8527C253.684 23.0418 253.845 23.2307 254.008 23.4159C254.39 23.8387 254.75 24.2767 255.11 24.7206C255.208 24.8432 255.336 25.0487 255.296 25.1579C255.2 25.4236 255.177 25.6937 255.153 25.9681C255.118 26.3765 255.081 26.7944 254.804 27.2212C254.581 27.5621 254.291 27.7696 254.005 27.9733C253.786 28.1299 253.57 28.2842 253.39 28.4951C253.163 28.757 252.725 28.8435 252.291 28.9291C252.119 28.963 251.947 28.9969 251.79 29.0415C251.578 29.102 251.363 29.1539 251.148 29.2059L251.147 29.206C250.945 29.2548 250.743 29.3037 250.542 29.3599C247.427 30.2291 244.261 30.0577 241.099 29.8083C239.353 29.6753 237.601 29.4995 235.843 29.3231L235.842 29.3231C235.103 29.2489 234.363 29.1746 233.621 29.1034ZM103.279 77.355C103.434 77.1511 103.586 76.9489 103.736 76.7487L103.736 76.7486C104.132 76.2208 104.518 75.7064 104.931 75.2085C105.829 74.1213 106.737 73.0416 107.673 71.9839C108.544 71.0016 109.442 70.0353 110.35 69.0885C110.807 68.6114 111.278 68.1505 111.749 67.6901C111.966 67.478 112.183 67.266 112.398 67.0525C112.657 66.7945 112.914 66.5342 113.171 66.274C113.558 65.8835 113.944 65.4929 114.335 65.1097C115.024 64.4339 115.716 63.7707 116.419 63.1152C117.157 62.4283 117.9 61.7541 118.648 61.0807C119.004 60.7604 119.362 60.4449 119.721 60.1295L119.723 60.1275C120.082 59.8113 120.441 59.4951 120.798 59.1741C121.471 58.5626 122.139 57.9443 122.808 57.3201L122.808 57.3195C123.512 56.6641 124.215 56.0088 124.913 55.3466C125.211 55.065 125.508 54.7812 125.806 54.497C126.219 54.1027 126.633 53.7077 127.05 53.3173C127.753 52.6621 128.461 52.0137 129.169 51.3652L129.17 51.365L129.171 51.3642C129.839 50.74 130.508 50.1158 131.171 49.4907C131.52 49.1595 131.868 48.828 132.216 48.4966C132.563 48.1653 132.911 47.834 133.26 47.5029L135.398 45.4677C135.747 45.1365 136.095 44.805 136.443 44.4736L136.445 44.4716C136.792 44.1409 137.139 43.8103 137.487 43.4799C137.722 43.2562 137.955 43.0323 138.187 42.8087C138.628 42.3853 139.068 41.9627 139.515 41.5438C140.226 40.8713 140.95 40.2005 141.673 39.5356C141.925 39.3023 142.179 39.0701 142.432 38.8378L142.433 38.837L142.434 38.8361C142.852 38.4533 143.27 38.0702 143.683 37.6816L143.683 37.6813C144.435 36.9784 145.188 36.2755 145.923 35.5642C146.326 35.1761 146.723 34.7807 147.12 34.3852L147.122 34.3833C147.387 34.1193 147.652 33.8553 147.919 33.5934C148.184 33.3334 148.452 33.0785 148.721 32.8235L148.721 32.8234C149.15 32.4156 149.58 32.0077 149.994 31.5794C150.928 30.6182 151.84 29.6417 152.736 28.6509C152.852 28.5233 152.969 28.3958 153.086 28.2683L153.086 28.2678C153.796 27.4919 154.509 26.7132 155.137 25.8734L155.249 25.7229L155.249 25.7225C156.309 24.3025 157.375 22.8753 158.263 21.3496C159.015 20.0484 159.61 18.628 160.073 17.195C160.459 16.0109 160.622 14.7348 160.744 13.4891C160.877 12.1724 160.977 10.8269 160.841 9.5265C160.73 8.46083 160.441 7.40902 160.154 6.36516L160.154 6.36497C160.084 6.11104 160.014 5.85759 159.948 5.60451C159.814 5.10242 159.653 4.60746 159.492 4.11222C159.339 3.64121 159.185 3.16993 159.056 2.692C158.837 1.8875 159.077 1.5649 159.877 1.46095C160.133 1.42795 160.391 1.38324 160.649 1.33848C161.29 1.22724 161.933 1.11569 162.557 1.18271C163.777 1.31346 164.986 1.54092 166.196 1.76854C166.711 1.86523 167.225 1.96196 167.74 2.05131C167.873 2.07509 168.006 2.10052 168.138 2.12589L168.138 2.12592C168.497 2.19487 168.854 2.26338 169.216 2.29707C170.072 2.36795 170.686 2.86306 171.298 3.35742L171.298 3.35774C171.416 3.45296 171.534 3.54816 171.654 3.64028C172.428 4.23359 173.201 4.83282 173.966 5.44899C174.465 5.84594 174.957 6.25266 175.45 6.65938L175.451 6.66016L175.451 6.66033C175.697 6.86383 175.944 7.06734 176.191 7.26962C176.895 7.84692 177.592 8.42929 178.288 9.01167C178.58 9.25548 178.873 9.49854 179.166 9.74176L179.169 9.74422C179.646 10.1393 180.122 10.5349 180.596 10.9346C181.028 11.2994 181.457 11.6662 181.885 12.0323L181.886 12.0329C182.148 12.2569 182.409 12.4808 182.671 12.7038C182.955 12.9431 183.237 13.1839 183.519 13.4245L183.52 13.4251L183.52 13.4254C184.017 13.849 184.513 14.2721 185.013 14.6859C185.426 15.0317 185.846 15.3704 186.267 15.7092L186.268 15.7101C186.573 15.9557 186.877 16.2014 187.18 16.4499C187.486 16.6969 187.791 16.9449 188.096 17.193L188.097 17.1943C188.516 17.5349 188.935 17.876 189.358 18.2156L189.71 18.4999C190.32 18.9928 190.93 19.4867 191.552 19.9652C192.353 20.5804 193.161 21.1847 193.972 21.7772C194.694 22.3087 195.418 22.8285 196.149 23.3372L196.562 23.6225C197.568 24.3188 198.572 25.0139 199.601 25.6704C200.659 26.3463 201.73 27.0181 202.845 27.5933C203.368 27.863 203.891 28.1358 204.414 28.4089L204.414 28.409C206.446 29.4701 208.483 30.5339 210.587 31.4237C213.705 32.7426 216.868 34.0437 220.129 34.9174C224.591 36.1117 229.092 37.1562 233.595 38.2009L233.595 38.2011C235.496 38.6421 237.397 39.0832 239.295 39.5355C239.51 39.585 239.722 39.6481 239.958 39.7184C240.1 39.7607 240.25 39.8056 240.416 39.8519C240.3 40.4313 240.186 41.002 240.074 41.5676L240.073 41.5726C239.93 42.2956 239.788 43.0103 239.643 43.7246C239.602 43.9233 239.551 44.1206 239.5 44.318C239.432 44.5812 239.364 44.8444 239.319 45.1109C239.193 45.8302 238.785 46.1893 238.076 46.3364C237.69 46.4145 237.313 46.645 236.974 46.8628C236.724 47.021 236.488 47.2033 236.252 47.3853L236.251 47.3855C236.06 47.5329 235.87 47.68 235.672 47.8142L235.617 47.8521C235.22 48.1257 234.814 48.4049 234.377 48.5913C233.74 48.8694 233.172 49.2058 232.641 49.6683C232.387 49.8891 232.064 50.0247 231.74 50.1612C231.545 50.243 231.35 50.3251 231.168 50.4261C231.077 50.4787 231.009 50.5696 230.94 50.661L230.94 50.6611C230.869 50.7553 230.798 50.85 230.701 50.9037C230.485 51.0219 230.257 51.1221 230.03 51.2223L230.029 51.2224C229.74 51.35 229.449 51.4778 229.182 51.6429C228.887 51.827 228.619 52.055 228.351 52.2827L228.35 52.2829C228.203 52.4084 228.055 52.5339 227.903 52.6518C227.788 52.7426 227.651 52.8087 227.513 52.8751C227.488 52.8873 227.462 52.8996 227.437 52.912C227.386 52.9362 227.332 52.9519 227.277 52.9675C227.205 52.9879 227.134 53.0083 227.073 53.0477C226.821 53.2053 226.574 53.3697 226.337 53.5476C226.158 53.6847 225.982 53.8266 225.806 53.9687C225.563 54.1646 225.32 54.3609 225.066 54.5455C224.723 54.7949 224.37 55.0259 224.016 55.2574L224.016 55.2576C223.896 55.336 223.776 55.4144 223.656 55.4936C223.502 55.5987 223.348 55.7038 223.189 55.8021C223.097 55.8584 223.003 55.9131 222.909 55.9678C222.815 56.0225 222.721 56.0771 222.628 56.1334C222.559 56.1772 222.494 56.2253 222.429 56.2732L222.429 56.2734C222.377 56.3116 222.326 56.3497 222.272 56.385C222.185 56.4436 222.097 56.4998 222.01 56.5557C221.896 56.6284 221.783 56.7007 221.673 56.7773C221.385 56.972 221.1 57.1698 220.814 57.3682L220.81 57.3709C220.672 57.467 220.533 57.5632 220.393 57.6593C220.387 57.6644 220.383 57.6775 220.38 57.6907C220.377 57.7038 220.373 57.7169 220.366 57.722C220.34 57.7397 220.313 57.7571 220.285 57.7744C220.252 57.7954 220.218 57.8162 220.185 57.8371C220.06 57.9143 219.934 57.9923 219.819 58.0855C219.741 58.1507 219.669 58.2264 219.598 58.3022C219.488 58.4182 219.378 58.5345 219.243 58.614C219.027 58.7407 218.799 58.8486 218.571 58.9565L218.571 58.9565C218.291 59.0889 218.012 59.2212 217.755 59.3879C217.483 59.57 217.24 59.7946 216.996 60.0202L216.996 60.0203L216.996 60.0206C216.839 60.1653 216.683 60.3103 216.517 60.445C216.437 60.5094 216.358 60.576 216.278 60.6428C215.97 60.9008 215.658 61.162 215.299 61.3176C214.669 61.5906 214.165 61.9845 213.659 62.4444C213.379 62.6987 213.037 62.8846 212.694 63.0711C212.537 63.1567 212.379 63.2425 212.227 63.335C212.17 63.3723 212.117 63.4171 212.064 63.4623C212.017 63.5013 211.971 63.5407 211.921 63.5756C211.766 63.6883 211.608 63.794 211.45 63.9003C211.395 63.9371 211.34 63.9739 211.285 64.0111C211.256 64.031 211.222 64.0454 211.188 64.0597C211.137 64.0812 211.086 64.1024 211.055 64.1416C210.573 64.6836 209.998 65.0733 209.342 65.3971C209.038 65.5463 208.789 65.7998 208.538 66.0541C208.403 66.1916 208.267 66.3293 208.123 66.4509C208.029 66.529 207.936 66.6104 207.844 66.692L207.843 66.6923C207.55 66.9502 207.256 67.2091 206.917 67.3675C206.295 67.66 205.792 68.0539 205.298 68.5155C205.017 68.7778 204.671 68.9668 204.324 69.1562C204.171 69.2396 204.018 69.323 203.871 69.4128C203.842 69.4302 203.808 69.4429 203.773 69.4556L203.773 69.4557C203.72 69.4753 203.667 69.4947 203.637 69.5306C203.155 70.0726 202.617 70.4979 201.929 70.787C201.642 70.909 201.402 71.142 201.158 71.3777L201.158 71.3779C201.031 71.501 200.903 71.6248 200.768 71.7341C200.602 71.8679 200.42 71.98 200.241 72.0904L200.241 72.0906L200.18 72.128C200.148 72.1496 200.108 72.161 200.068 72.1722C200.015 72.1868 199.964 72.2012 199.935 72.2383C199.449 72.8098 198.859 73.2157 198.172 73.5412C197.897 73.673 197.677 73.911 197.453 74.152C197.297 74.3203 197.139 74.49 196.961 74.6262C196.667 74.8505 196.347 75.0372 196.027 75.2242C195.86 75.3218 195.692 75.4195 195.528 75.5227L195.448 75.573C195.129 75.7733 194.808 75.9751 194.513 76.2065C194.285 76.3889 194.068 76.5851 193.85 76.7812C193.664 76.9494 193.478 77.1176 193.285 77.2771C193.219 77.3324 193.153 77.3885 193.087 77.4448C192.769 77.7149 192.448 77.988 192.082 78.176C191.463 78.493 190.94 78.8962 190.427 79.3612C190.185 79.5815 189.881 79.7362 189.577 79.8918C189.375 79.9946 189.173 80.0978 188.987 80.2205C188.888 80.2849 188.815 80.391 188.743 80.497C188.67 80.6031 188.598 80.7091 188.498 80.7735C188.284 80.9081 188.055 81.0206 187.826 81.133C187.553 81.2677 187.279 81.4022 187.031 81.5744C186.77 81.7548 186.538 81.9793 186.307 82.204C186.146 82.3603 185.984 82.5168 185.813 82.6586C185.545 82.8782 185.262 83.0814 184.98 83.2841L184.98 83.2844C184.851 83.3765 184.724 83.4684 184.597 83.5617C184.544 83.6006 184.491 83.6397 184.438 83.6789C184.368 83.7302 184.298 83.7816 184.228 83.8331C183.819 84.1352 183.41 84.4377 182.989 84.7173C182.749 84.8781 182.498 85.0215 182.247 85.1651C182.007 85.3022 181.766 85.4396 181.535 85.5927C181.446 85.6519 181.381 85.7474 181.316 85.8424C181.251 85.939 181.186 86.0351 181.095 86.0923C180.879 86.2307 180.652 86.3523 180.425 86.4739L180.425 86.474C180.158 86.6174 179.891 86.7607 179.641 86.9313C179.346 87.1317 179.075 87.3706 178.805 87.6086C178.671 87.7269 178.538 87.8449 178.401 87.9579C178.264 88.0714 178.115 88.1833 177.965 88.2646C177.916 88.2919 177.854 88.3035 177.793 88.3149C177.713 88.3298 177.635 88.3444 177.59 88.3927C177.097 88.9271 176.54 89.3194 175.878 89.6423C175.613 89.7715 175.397 89.996 175.179 90.2223C175.002 90.4059 174.824 90.5907 174.618 90.7265C174.412 90.8605 174.217 91.0097 174.023 91.1576L174.023 91.1578L174.023 91.1579C173.83 91.3056 173.639 91.4519 173.439 91.5805L173.359 91.6329C172.808 91.9913 172.271 92.3404 171.775 92.7886C171.5 93.0346 171.159 93.2054 170.816 93.3767C170.65 93.4596 170.484 93.5426 170.326 93.6344C170.19 93.7118 170.098 93.8294 170.003 93.9498C169.848 94.1458 169.688 94.3492 169.329 94.3994C169.055 94.4361 168.82 94.701 168.577 94.974C168.433 95.1371 168.285 95.3031 168.125 95.4251C167.77 95.6963 167.382 95.9285 166.996 96.1599C166.925 96.2026 166.853 96.2452 166.783 96.288C166.754 96.3053 166.725 96.3228 166.696 96.3402C166.665 96.3592 166.624 96.3689 166.583 96.3786C166.529 96.3913 166.476 96.404 166.447 96.4378C165.969 97.0347 165.355 97.4008 164.672 97.745C164.4 97.8819 164.181 98.1162 163.96 98.3523C163.801 98.5225 163.642 98.6937 163.46 98.83C163.15 99.0666 162.811 99.2614 162.472 99.4566L162.472 99.4566C162.321 99.543 162.171 99.6295 162.023 99.7197C162.01 99.7276 161.998 99.7353 161.985 99.7428C161.968 99.7528 161.951 99.7626 161.934 99.7724C161.868 99.8102 161.802 99.8477 161.749 99.8985C161.724 99.921 161.699 99.9435 161.674 99.966C161.649 99.9891 161.623 100.012 161.598 100.035C161.141 100.449 160.692 100.854 160.081 101.094C159.776 101.217 159.525 101.475 159.272 101.735L159.272 101.736C159.148 101.863 159.023 101.991 158.892 102.104C158.785 102.196 158.679 102.293 158.573 102.39L158.572 102.391C158.286 102.653 157.999 102.917 157.67 103.09C157.07 103.404 156.565 103.81 156.071 104.266C155.784 104.534 155.436 104.736 155.087 104.938C154.945 105.021 154.803 105.103 154.665 105.19C154.635 105.208 154.597 105.219 154.559 105.23C154.505 105.245 154.453 105.26 154.427 105.295C153.95 105.886 153.36 106.292 152.678 106.63C152.41 106.764 152.196 107 151.981 107.238L151.981 107.238C151.825 107.409 151.669 107.582 151.49 107.719C151.169 107.971 150.817 108.181 150.463 108.391L150.463 108.391C150.328 108.471 150.194 108.551 150.061 108.634C150.03 108.655 149.992 108.668 149.955 108.682C149.904 108.701 149.853 108.719 149.82 108.757C149.334 109.286 148.804 109.736 148.131 110.052C147.852 110.182 147.627 110.429 147.4 110.678C147.264 110.827 147.128 110.977 146.979 111.103C146.662 111.367 146.328 111.607 145.994 111.848L145.994 111.848C145.897 111.918 145.8 111.988 145.704 112.058C145.658 112.092 145.612 112.125 145.566 112.159C145.54 112.176 145.501 112.18 145.465 112.183C145.424 112.187 145.387 112.19 145.371 112.21C144.932 112.879 144.29 113.272 143.622 113.678C143.366 113.834 143.163 114.074 142.958 114.316L142.958 114.316C142.803 114.499 142.647 114.683 142.467 114.832C142.203 115.053 141.907 115.238 141.611 115.424C141.424 115.541 141.236 115.659 141.057 115.786C140.74 116.013 140.433 116.259 140.142 116.52C139.942 116.7 139.748 116.886 139.554 117.071L139.552 117.072C139.359 117.257 139.165 117.443 138.965 117.622C138.633 117.92 138.295 118.204 137.956 118.49L137.761 118.654C137.521 118.855 137.28 119.054 137.038 119.252C136.797 119.451 136.556 119.649 136.316 119.851C136.125 120.009 135.939 120.171 135.753 120.334L135.752 120.335C135.537 120.523 135.321 120.711 135.098 120.893C134.886 121.065 134.667 121.227 134.448 121.39L134.447 121.39C134.228 121.552 134.009 121.714 133.797 121.886C133.404 122.206 133.021 122.541 132.637 122.877C132.526 122.974 132.415 123.07 132.304 123.167C132.152 123.3 132.002 123.436 131.851 123.571C131.626 123.774 131.401 123.977 131.17 124.172C130.675 124.592 130.176 125.004 129.676 125.417C129.642 125.445 129.605 125.472 129.568 125.498C129.531 125.525 129.494 125.551 129.459 125.579C129.309 125.708 129.157 125.835 129.005 125.961C128.623 126.279 128.242 126.597 127.883 126.939C127.681 127.128 127.498 127.337 127.315 127.547L127.315 127.547C127.137 127.75 126.959 127.953 126.763 128.14C126.476 128.411 126.166 128.658 125.854 128.907C125.718 129.015 125.582 129.123 125.448 129.234C125.359 129.307 125.269 129.378 125.179 129.449L125.178 129.451L125.177 129.451C124.942 129.637 124.707 129.824 124.495 130.03C124.29 130.229 124.096 130.441 123.902 130.652L123.901 130.653C123.736 130.833 123.572 131.013 123.4 131.186C123.04 131.551 122.68 131.917 122.304 132.263C121.81 132.724 121.31 133.179 120.8 133.621C120.563 133.826 120.314 134.018 120.066 134.209L120.065 134.21C119.874 134.357 119.684 134.504 119.499 134.657L119.432 134.712C119.111 134.977 118.789 135.244 118.508 135.549C118.344 135.726 118.194 135.916 118.045 136.107L118.045 136.107C117.864 136.338 117.684 136.569 117.476 136.775C117.22 137.028 116.936 137.25 116.652 137.472C116.498 137.592 116.344 137.712 116.195 137.838C116.152 137.874 116.108 137.911 116.064 137.948L116.064 137.948C115.769 138.196 115.471 138.447 115.211 138.725C115.001 138.951 114.809 139.194 114.617 139.437L114.616 139.438C114.463 139.632 114.309 139.826 114.146 140.012C113.975 140.205 113.787 140.384 113.599 140.563C113.463 140.693 113.327 140.823 113.196 140.959C112.994 141.167 112.796 141.378 112.599 141.589C112.327 141.881 112.054 142.173 111.769 142.455C111.584 142.636 111.386 142.804 111.188 142.973C110.959 143.168 110.73 143.363 110.522 143.577C110.272 143.832 110.046 144.111 109.819 144.391C109.706 144.53 109.593 144.67 109.477 144.807C109.341 144.964 109.203 145.119 109.066 145.274C108.859 145.506 108.653 145.739 108.452 145.979C108.2 146.279 107.953 146.583 107.705 146.886L107.705 146.886C107.62 146.99 107.535 147.094 107.45 147.198C107.383 147.28 107.315 147.363 107.247 147.445C106.883 147.883 106.513 148.32 106.143 148.751C106.052 148.858 105.958 148.963 105.864 149.067C105.652 149.304 105.44 149.539 105.269 149.799C104.552 150.894 103.862 152.005 103.178 153.122C103.02 153.379 102.86 153.634 102.7 153.889L102.7 153.889C102.172 154.729 101.645 155.567 101.219 156.452C100.907 157.094 100.765 157.829 100.624 158.552L100.624 158.554C100.603 158.664 100.581 158.775 100.559 158.885C100.386 159.76 100.23 160.651 100.194 161.54C100.151 162.678 100.183 163.817 100.214 164.955L100.214 164.955L100.214 164.967C100.22 165.16 100.225 165.353 100.23 165.546C100.259 166.577 100.49 167.547 101.204 168.349C101.371 168.536 101.526 168.733 101.681 168.931C101.825 169.116 101.97 169.3 102.125 169.477C102.54 169.947 102.96 170.411 103.379 170.876L103.382 170.879C103.856 171.405 104.33 171.93 104.796 172.461C104.828 172.497 104.86 172.534 104.893 172.57C105.139 172.849 105.4 173.145 105.492 173.478C105.594 173.825 105.523 174.28 105.372 174.621C105.292 174.797 104.88 174.932 104.628 174.921C103.085 174.829 101.545 174.711 100.006 174.594C99.5665 174.561 99.1272 174.527 98.6878 174.494C98.3914 174.473 98.0953 174.445 97.7993 174.418L97.7983 174.418L97.798 174.418C97.1507 174.357 96.5041 174.296 95.8564 174.304C94.1497 174.322 93.0167 173.363 91.9597 172.21C90.8197 170.968 90.0646 169.492 89.3026 168.003L89.2481 167.897C88.9008 167.216 88.3709 166.612 87.8511 166.02C87.7696 165.927 87.6883 165.835 87.608 165.742C83.8837 161.455 80.1517 157.178 76.4002 152.911C73.262 149.347 70.1239 145.784 66.9307 142.267C64.1975 139.255 61.431 136.271 58.666 133.289L58.6646 133.288L58.654 133.276C57.6589 132.203 56.664 131.13 55.671 130.056C54.6832 128.989 53.6909 127.925 52.6985 126.861C50.6955 124.713 48.6917 122.565 46.7219 120.386C44.3072 117.716 41.9518 114.998 39.5943 112.277L39.594 112.276C39.4092 112.063 39.2245 111.85 39.0397 111.637C38.925 111.504 38.8103 111.372 38.6955 111.239C37.4839 109.841 36.2884 108.43 35.0928 107.019C34.2391 106.011 33.3853 105.003 32.5257 104C31.8202 103.176 31.1184 102.348 30.4166 101.52L30.4162 101.52C28.741 99.5445 27.066 97.5692 25.3428 95.6381C21.2026 91.0015 16.7522 86.6774 11.8538 82.8275C10.6522 81.8835 9.44985 80.9453 8.20436 80.0554C7.85891 79.807 7.37736 79.7084 6.94744 79.6292C6.27572 79.5137 5.60075 79.4115 4.92507 79.3091L4.92492 79.3091C4.18243 79.1966 3.43909 79.084 2.69828 78.9536C2.41562 78.9014 2.11423 78.7256 1.91351 78.5219C1.44855 78.051 1.66209 77.4407 2.31772 77.2921C2.62961 77.2235 2.94527 77.1663 3.26093 77.109C3.41876 77.0804 3.57659 77.0518 3.73395 77.0217C3.73941 76.9832 3.74361 76.943 3.7478 76.9028C3.752 76.8626 3.75619 76.8224 3.76166 76.7839C3.4336 76.6256 3.10703 76.4674 2.78046 76.3092L2.77859 76.3083L2.76511 76.3018C2.44371 76.1461 2.12228 75.9905 1.79942 75.8346C1.75838 75.8141 1.71431 75.795 1.66983 75.7757C1.53082 75.7153 1.38785 75.6533 1.32108 75.5431L1.30767 75.5218L1.30765 75.5217C1.14619 75.2652 0.932204 74.9252 0.994552 74.693C1.05781 74.4603 1.43074 74.2171 1.70737 74.1415C3.95928 73.5184 6.20786 73.898 8.4353 74.2988C9.48978 74.4908 10.3637 74.2946 11.2745 73.753C12.0234 73.3126 12.8103 72.9383 13.5977 72.5637L13.5978 72.5636L13.598 72.5635C14.003 72.3709 14.4081 72.1781 14.8082 71.9763C15.32 71.7184 15.8294 71.4546 16.3393 71.1905L16.3395 71.1904C17.0226 70.8366 17.7065 70.4824 18.3985 70.1412C19.0177 69.8339 19.6431 69.5403 20.2691 69.2464L20.2693 69.2463C20.8589 68.9695 21.4491 68.6924 22.0354 68.4033C22.7068 68.0723 23.3704 67.7308 24.0341 67.3893L24.0343 67.3891C24.5651 67.1159 25.0959 66.8428 25.6307 66.575C26.1665 66.309 26.7048 66.0508 27.243 65.7928L27.2432 65.7926C27.8935 65.4808 28.5435 65.1691 29.1881 64.8439C29.7534 64.5615 30.3102 64.2578 30.8675 63.9538L30.8679 63.9536C31.1184 63.817 31.369 63.6803 31.6205 63.5455C32.0357 63.3234 32.4496 63.0997 32.8635 62.876L32.8642 62.8756C33.2781 62.652 33.6919 62.4283 34.107 62.2063C34.7141 61.8815 35.3215 61.5552 35.9288 61.2289L35.9414 61.2221C36.5533 60.8934 37.1651 60.5647 37.7767 60.2374C38.0181 60.108 38.259 59.9785 38.4996 59.8492C39.0675 59.5439 39.6341 59.2393 40.2032 58.9381C40.6282 58.7114 41.0557 58.488 41.4832 58.2647C41.9108 58.0413 42.3383 57.818 42.7633 57.5913C43.114 57.406 43.4651 57.2187 43.8166 57.031L43.8171 57.0308C44.2969 56.7747 44.7777 56.518 45.26 56.2656C45.8996 55.9281 46.5414 55.5974 47.1843 55.2661C47.4212 55.144 47.6582 55.0219 47.8954 54.8993C48.24 54.7211 48.5841 54.5429 48.928 54.3648L48.9281 54.3647C49.7556 53.9361 50.5817 53.5082 51.4104 53.0837C51.9555 52.8045 52.502 52.5331 53.0494 52.2613C53.3463 52.1139 53.6435 51.9663 53.9409 51.8173C54.29 51.641 54.6385 51.4616 54.9873 51.2821L54.9877 51.2819L54.9879 51.2818C55.4974 51.0195 56.0075 50.757 56.5205 50.5034C57.0515 50.2417 57.5841 49.9848 58.1165 49.7279C58.8154 49.3907 59.514 49.0537 60.2082 48.7063C61.4303 48.1002 62.6474 47.4873 63.8509 46.8423C64.4795 46.5044 65.0999 46.1469 65.7204 45.7893L65.7207 45.7891L65.7211 45.7889C66.224 45.499 66.727 45.2091 67.2347 44.9295C68.3037 44.3379 69.382 43.7658 70.4663 43.1946C71.2173 42.7996 71.9683 42.4046 72.7372 42.0544C73.1016 41.8882 73.4754 41.7435 73.8499 41.5986L73.85 41.5986L73.8501 41.5985C74.2126 41.4583 74.5756 41.3178 74.9313 41.1573C75.3652 40.9614 75.7891 40.7445 76.2129 40.5277C76.4954 40.3831 76.778 40.2385 77.0635 40.1002C77.752 39.7628 78.4447 39.4381 79.1425 39.1202C79.2897 39.0551 79.4465 39.005 79.6029 38.9551C79.8644 38.8715 80.1245 38.7884 80.3351 38.6368C81.4657 37.8243 82.7038 38.0001 83.9275 38.1919C84.9804 38.3559 86.0283 38.5814 87.074 38.8064L87.0741 38.8064C87.3321 38.8619 87.5899 38.9174 87.8476 38.9719C88.9216 39.1969 89.0555 39.4032 89.1825 40.5091C89.2354 40.9879 89.3848 41.4684 89.5553 41.9277C89.7779 42.5282 90.0111 43.1244 90.2445 43.7213L90.2446 43.7214C90.4922 44.3545 90.7401 44.9883 90.9759 45.6284C91.1705 46.1606 91.3493 46.6981 91.528 47.2354C91.7731 47.9722 92.0181 48.7087 92.3035 49.4307C92.5678 50.0969 92.8682 50.7486 93.1685 51.4001L93.1685 51.4003C93.4195 51.9447 93.6704 52.489 93.9001 53.0415C94.1037 53.5283 94.2774 54.0278 94.4512 54.5275C94.5892 54.9245 94.7274 55.3217 94.8806 55.7128C95.0622 56.1785 95.2587 56.6376 95.4552 57.0963L95.4554 57.0968C95.6232 57.4886 95.7909 57.8803 95.949 58.2757C96.1694 58.8226 96.3772 59.3727 96.5851 59.9229C96.7061 60.2432 96.8271 60.5636 96.9507 60.8835C97.125 61.3373 97.3041 61.7888 97.4833 62.2402L97.4837 62.2412C97.6627 62.6923 97.8417 63.1435 98.0159 63.597C98.2401 64.1721 98.4583 64.7518 98.6766 65.3314L98.6772 65.333C98.7864 65.6232 98.8957 65.9135 99.0057 66.2031C99.3568 67.1353 99.702 68.0666 100.04 69.003C100.238 69.5424 100.433 70.0837 100.628 70.6259L100.628 70.6267L100.63 70.6302C100.757 70.9835 100.884 71.3373 101.013 71.6912C101.08 71.8787 101.147 72.0667 101.213 72.2549L101.214 72.2577L101.214 72.2578C101.426 72.8549 101.638 73.4531 101.876 74.0376C102.252 74.9933 102.657 75.9261 103.078 76.8924L103.078 76.8931L103.279 77.355ZM233.36 41.5577L233.36 41.5576C233.15 41.4885 232.988 41.435 232.824 41.397C231.619 41.1317 230.414 40.8683 229.209 40.6048L229.208 40.6046C227.401 40.2096 225.594 39.8146 223.787 39.4132C218.234 38.1777 212.709 36.8254 207.332 34.9382C202.646 33.294 198.096 31.3367 193.727 28.9519C190.496 27.188 187.373 25.2641 184.441 23.0591C182.012 21.2374 179.636 19.3402 177.261 17.4428C176.185 16.5841 175.11 15.7253 174.03 14.8734L174.03 14.8732C173.578 14.5191 173.127 14.165 172.551 13.7087C172.506 14.0325 172.466 14.3368 172.429 14.6276L172.428 14.6295L172.428 14.6296C172.352 15.2214 172.283 15.7568 172.18 16.2848C171.973 17.313 171.72 18.3346 171.46 19.3553C171.342 19.8038 171.181 20.2524 170.994 20.6791C170.912 20.8678 170.832 21.0574 170.752 21.2468C170.453 21.9544 170.154 22.6609 169.779 23.3227C169.443 23.9078 169.041 24.4532 168.639 24.9984C168.473 25.2238 168.307 25.4492 168.145 25.6773L167.397 26.7314C167.295 26.8795 167.197 27.0308 167.1 27.182L167.1 27.1821C166.9 27.4917 166.701 27.8006 166.463 28.0794C166.257 28.3187 166.017 28.5298 165.776 28.7415L165.776 28.7416C165.611 28.887 165.445 29.0328 165.29 29.188C165.008 29.4743 164.74 29.7868 164.489 30.1077C164.341 30.2979 164.204 30.4955 164.066 30.6927C163.893 30.9413 163.72 31.1894 163.529 31.4218C163.251 31.7582 162.931 32.0625 162.613 32.3653L162.539 32.4355C162.366 32.5959 162.187 32.7503 162.008 32.9047C161.754 33.1235 161.5 33.3422 161.265 33.5781C161.051 33.7927 160.857 34.0257 160.662 34.2585C160.497 34.4567 160.331 34.6546 160.155 34.8407C159.889 35.1225 159.597 35.3756 159.307 35.6267L159.307 35.6268L159.223 35.6995C159.047 35.8525 158.865 35.9988 158.684 36.1449L158.684 36.1451C158.452 36.3315 158.221 36.5175 158.003 36.7169C157.491 37.1759 157 37.6502 156.51 38.1245C156.16 38.4616 155.814 38.8114 155.474 39.162C155.333 39.3111 155.196 39.4667 155.06 39.6223C154.826 39.889 154.591 40.1556 154.333 40.3899C154.121 40.5807 153.883 40.7443 153.645 40.908L153.644 40.9081C153.446 41.0446 153.247 41.1812 153.063 41.3337C152.785 41.5689 152.535 41.8371 152.284 42.1067L152.284 42.1069C152.231 42.1634 152.178 42.22 152.125 42.2763C151.962 42.4487 151.803 42.6262 151.644 42.8039L151.644 42.804C151.43 43.0434 151.216 43.283 150.989 43.511C150.604 43.8985 150.201 44.2719 149.797 44.646C149.699 44.737 149.6 44.8281 149.502 44.9195C149.126 45.271 148.739 45.6149 148.352 45.9528C148.183 46.1026 148.01 46.2496 147.837 46.3968L147.836 46.3973C147.606 46.5928 147.375 46.7885 147.153 46.9913C146.812 47.2976 146.478 47.6132 146.145 47.928L146.144 47.9286C145.984 48.08 145.823 48.2312 145.663 48.3812C145.496 48.5386 145.329 48.6991 145.163 48.8597L145.163 48.8601C144.996 49.0208 144.83 49.1815 144.663 49.339C144.449 49.5412 144.233 49.7419 144.017 49.943C143.739 50.2018 143.46 50.4611 143.185 50.7247C142.82 51.0778 142.455 51.4369 142.107 51.8045C141.958 51.96 141.812 52.1198 141.667 52.2797C141.439 52.5298 141.212 52.7801 140.968 53.0147C140.627 53.3526 140.269 53.6719 139.911 53.9915L139.911 53.9916L139.908 53.9937C139.78 54.1083 139.651 54.2229 139.523 54.3385C139.42 54.4328 139.317 54.5272 139.214 54.6215L139.213 54.6228C138.922 54.8887 138.633 55.1539 138.337 55.415C138.191 55.5439 138.041 55.6692 137.892 55.7944L137.891 55.7954C137.624 56.0189 137.357 56.2422 137.11 56.4857C136.913 56.6813 136.73 56.8911 136.548 57.1009C136.365 57.3107 136.183 57.5205 135.986 57.7161C135.568 58.133 135.128 58.5251 134.688 58.9174C134.609 58.9881 134.529 59.0588 134.45 59.1297C134.228 59.3272 133.999 59.5174 133.771 59.7075C133.607 59.8436 133.443 59.9797 133.282 60.1182C133.193 60.1932 133.103 60.2679 133.013 60.3425L133.011 60.3441L133.011 60.3443C132.681 60.619 132.35 60.894 132.043 61.1872C131.826 61.3925 131.621 61.6116 131.416 61.8308L131.416 61.831C131.238 62.0213 131.06 62.2117 130.874 62.3932C130.643 62.6157 130.393 62.8212 130.143 63.0263L130.143 63.0269C130.068 63.0886 129.993 63.1502 129.918 63.2123C129.773 63.334 129.625 63.4525 129.477 63.571L129.477 63.5711C129.197 63.7947 128.917 64.0186 128.657 64.266C128.445 64.4636 128.251 64.6802 128.057 64.8969L128.056 64.8972C127.879 65.0946 127.702 65.2921 127.512 65.4753C127.319 65.6688 127.108 65.8418 126.897 66.0152L126.896 66.0153C126.784 66.1075 126.672 66.1997 126.562 66.2953C126.448 66.3921 126.333 66.4875 126.219 66.5828L126.218 66.5833C125.91 66.8394 125.603 67.0947 125.32 67.3761C125.103 67.5948 124.905 67.8327 124.707 68.0709L124.706 68.0711L124.706 68.0712C124.545 68.2656 124.383 68.4601 124.21 68.6446C123.741 69.14 123.254 69.627 122.759 70.0945C122.564 70.2793 122.359 70.4544 122.154 70.6291L122.154 70.6293C121.934 70.8172 121.714 71.0049 121.508 71.2041C121.151 71.5463 120.815 71.9096 120.497 72.2813C120.336 72.4672 120.184 72.6613 120.031 72.8558C119.836 73.106 119.639 73.3568 119.422 73.5913C119.083 73.9583 118.732 74.3133 118.381 74.6682C118.084 74.9691 117.787 75.2699 117.497 75.5781C117.285 75.8057 117.102 76.0564 116.919 76.3076C116.848 76.404 116.778 76.5005 116.706 76.5959C116.442 76.9419 116.182 77.2917 115.923 77.64L115.921 77.6419C115.876 77.703 115.83 77.7641 115.785 77.825C115.739 77.887 115.693 77.9489 115.647 78.0107C115.594 78.0812 115.54 78.1515 115.487 78.2217C115.449 78.2721 115.411 78.3225 115.372 78.3729C115.133 78.6873 114.893 79.002 114.668 79.3282C114.415 79.6949 114.182 80.0717 113.948 80.45C113.908 80.5136 113.869 80.5772 113.829 80.6409C113.801 80.6873 113.772 80.7338 113.743 80.7802C113.595 81.0168 113.436 81.2488 113.276 81.481C112.912 82.0117 112.548 82.5428 112.322 83.1287C111.874 84.2799 111.568 85.4995 111.352 86.7198C111.096 88.1767 110.926 89.6497 110.757 91.1203C110.718 91.4531 110.68 91.7858 110.641 92.1181C110.569 92.7062 110.153 93.2998 109.702 93.2782C109.118 93.248 108.534 93.2063 107.951 93.1646C107.601 93.1395 107.251 93.1145 106.901 93.092C106.725 93.0781 106.554 93.07 106.378 93.0617L106.377 93.0617L106.331 93.0595C105.92 93.041 105.509 93.0259 105.097 93.0107L105.097 93.0107L105.097 93.0107C104.139 92.9754 103.182 92.9401 102.225 92.8635C101.323 92.7898 100.416 92.6671 99.5419 92.4402C99.2293 92.3604 98.9552 92.07 98.7007 91.8004L98.7003 91.8C98.651 91.7478 98.6025 91.6964 98.5545 91.6474C98.471 91.5619 98.4291 91.4353 98.3866 91.3065C98.3593 91.2239 98.3317 91.1404 98.2926 91.0663C98.0985 90.6883 97.9008 90.3118 97.7032 89.9353L97.703 89.935C97.3077 89.1819 96.9124 88.4289 96.5456 87.6638C95.6275 85.7447 94.7415 83.812 93.8683 81.8751L93.6432 81.3767L93.6429 81.3762C93.0095 79.9742 92.3767 78.5735 91.7952 77.1512C91.4111 76.2115 91.0582 75.2594 90.705 74.3066L90.7049 74.3062C90.4602 73.6459 90.2153 72.9852 89.9598 72.3281C89.6938 71.6375 89.4184 70.9491 89.1429 70.2601L89.1427 70.2595C88.7781 69.3476 88.413 68.4348 88.0686 67.5151C87.7361 66.6341 87.4165 65.7475 87.0971 64.8614C86.7034 63.7695 86.31 62.6782 85.8929 61.5982C85.2412 59.9157 84.5644 58.2394 83.8879 56.5635C83.4947 55.5896 83.1016 54.6159 82.7136 53.6412C82.3962 52.8417 82.0806 52.0409 81.7648 51.2398C81.1905 49.7825 80.6158 48.3246 80.0303 46.8727C79.9769 46.7382 79.7296 46.5641 79.6281 46.5981C79.5349 46.6278 79.4402 46.6566 79.3448 46.6855L79.3444 46.6857C78.8764 46.8279 78.3952 46.9741 78.0244 47.2527L77.9193 47.3319C77.3753 47.7421 76.8464 48.141 76.1604 48.2935C76.109 48.306 76.0686 48.3562 76.0263 48.4087C75.9913 48.4522 75.955 48.4973 75.9101 48.5239C75.79 48.5984 75.6708 48.6741 75.5517 48.7498C75.1913 48.9788 74.8319 49.2073 74.4504 49.3984C74.2243 49.5111 73.9843 49.5992 73.7446 49.6872C73.4741 49.7864 73.2039 49.8856 72.9541 50.02C72.7509 50.1317 72.5627 50.2787 72.3759 50.4247C72.105 50.6365 71.837 50.8459 71.53 50.9418C71.4975 50.952 71.4653 50.9615 71.4334 50.9706C71.4059 50.9785 71.3787 50.9862 71.3517 50.9938C71.0629 51.075 70.8046 51.1475 70.6099 51.4216C70.5796 51.4627 70.5097 51.4699 70.4363 51.4775C70.3825 51.4831 70.3269 51.4889 70.2833 51.5082C70.1736 51.5576 70.0633 51.6067 69.9529 51.6559L69.9501 51.6571L69.9498 51.6573C69.5482 51.8361 69.1446 52.0157 68.7566 52.2161C68.542 52.3263 68.3336 52.4501 68.1251 52.574L68.125 52.5741C67.8587 52.7323 67.5924 52.8906 67.313 53.0204C67.1026 53.1173 66.8756 53.1831 66.6494 53.2486C66.3472 53.3361 66.0465 53.4232 65.7887 53.5836C65.6764 53.6526 65.5658 53.723 65.4558 53.7931C64.9627 54.1073 64.4791 54.4153 63.8857 54.5584C63.5372 54.6453 63.2114 54.8494 62.8939 55.0482L62.8938 55.0482C62.8175 55.096 62.7417 55.1435 62.6661 55.189C62.4864 55.2968 62.314 55.422 62.1418 55.5471C61.8457 55.7621 61.5502 55.9767 61.2192 56.1016C60.5619 56.3467 59.9563 56.6536 59.3805 57.0493C59.1027 57.24 58.785 57.3775 58.4673 57.515C58.3178 57.5797 58.1683 57.6445 58.023 57.7147C57.8344 57.8088 57.6458 57.9029 57.4563 58.0029C57.3989 58.0325 57.3413 58.0628 57.2834 58.0934C57.1836 58.146 57.0829 58.1991 56.9802 58.2496C56.8304 58.3186 56.6792 58.3851 56.5281 58.4517L56.5276 58.4519C56.1832 58.6036 55.8389 58.7552 55.511 58.9354C55.2478 59.0808 54.9995 59.2502 54.7514 59.4194C54.5482 59.5581 54.3452 59.6966 54.1342 59.8217C53.7782 60.031 53.4027 60.2074 53.0229 60.371C52.8461 60.4472 52.6606 60.5099 52.4749 60.5725C52.1399 60.6856 51.8047 60.7988 51.5207 60.9918C51.441 61.0453 51.3619 61.0993 51.2831 61.1532C50.774 61.5013 50.2731 61.8438 49.649 62.0012C49.2875 62.0925 48.9545 62.3078 48.6279 62.5191C48.5808 62.5495 48.5338 62.5799 48.487 62.6098C48.3191 62.7165 48.1611 62.8514 48.0042 62.9853C47.7326 63.217 47.4645 63.4458 47.1551 63.5206C46.8506 63.5935 46.6239 63.7495 46.4003 63.9032C46.2518 64.0054 46.1047 64.1065 45.9372 64.1817C45.7439 64.2672 45.5447 64.3418 45.3458 64.4163C45.0338 64.5332 44.7223 64.65 44.4341 64.8083C44.2185 64.9244 44.0214 65.0784 43.8251 65.2317C43.5686 65.432 43.3134 65.6313 43.0202 65.7437C42.3173 66.0126 41.6686 66.3254 41.0657 66.7837C40.8114 66.9784 40.5051 67.1039 40.1962 67.2304C40.0522 67.2894 39.9075 67.3487 39.7674 67.4153C39.6342 67.4778 39.5037 67.5437 39.3717 67.6103C39.3176 67.6376 39.2632 67.6651 39.2083 67.6925C39.1483 67.7219 39.0898 67.7524 39.0314 67.7828C38.9318 67.8347 38.8326 67.8864 38.7271 67.9324C38.5511 68.0102 38.3721 68.083 38.1931 68.1558C37.8669 68.2885 37.5405 68.4213 37.2325 68.5844C37.0401 68.6869 36.8583 68.8157 36.6772 68.944C36.403 69.1383 36.1304 69.3315 35.8252 69.4301C35.1223 69.6567 34.493 69.9601 33.8892 70.3821C33.5977 70.5852 33.252 70.7162 32.908 70.8466C32.793 70.8902 32.6781 70.9337 32.5655 70.9798C32.3847 71.0565 32.2002 71.1264 32.0158 71.1963C31.6885 71.3202 31.3616 71.4441 31.0566 71.6056C30.8537 71.7097 30.6646 71.8481 30.4768 71.9856C30.212 72.1795 29.9495 72.3717 29.6536 72.464C28.9506 72.6906 28.3188 72.9695 27.7184 73.4101C27.4544 73.6084 27.1335 73.7313 26.8127 73.8541L26.8124 73.8542C26.673 73.9076 26.5336 73.9609 26.3989 74.0205C26.1993 74.1065 25.9982 74.1894 25.7967 74.2724L25.7956 74.2729L25.7954 74.273C25.4969 74.396 25.1976 74.5194 24.901 74.6539C24.5457 74.815 24.2006 74.9896 23.87 75.1904C23.6764 75.3087 23.4898 75.4374 23.3036 75.5659C23.0187 75.7624 22.7346 75.9584 22.4273 76.1157C22.196 76.2336 21.9438 76.3124 21.6919 76.3912L21.6919 76.3912L21.6918 76.3912C21.4187 76.4765 21.1459 76.5618 20.9005 76.6967C20.2771 77.0374 19.6747 77.4126 19.0725 77.7878L19.0721 77.788C18.8009 77.9569 18.5298 78.1258 18.2568 78.2915C18.2388 78.3026 18.2117 78.3087 18.187 78.3143C18.1571 78.321 18.1309 78.3269 18.1291 78.3399C18.1238 78.3895 18.1128 78.4473 18.1017 78.506C18.0741 78.6516 18.0454 78.8029 18.0991 78.8493C18.5127 79.201 18.9453 79.53 19.3778 79.859L19.3782 79.8593C19.5432 79.9848 19.7082 80.1103 19.8722 80.2371C20.1348 80.4393 20.3992 80.6403 20.6637 80.8414L20.6641 80.8417C21.1456 81.2077 21.6276 81.5741 22.1008 81.9494C22.6123 82.3551 23.1103 82.7735 23.6088 83.1923L23.6089 83.1925L23.6105 83.1938C23.826 83.3749 24.0416 83.556 24.2584 83.7362C24.455 83.8985 24.6526 84.06 24.8502 84.2216L24.8521 84.2232L24.8527 84.2237C25.41 84.6793 25.9677 85.1354 26.5066 85.6085C26.999 86.0404 27.4703 86.4933 27.9426 86.9471L27.9427 86.9472C28.1405 87.1373 28.3385 87.3275 28.5382 87.5164C29.3094 88.2474 30.0748 88.9776 30.8401 89.7078L30.8434 89.711C30.9901 89.8527 31.1347 89.996 31.2792 90.1394L31.2794 90.1395C31.4961 90.3544 31.7128 90.5693 31.9368 90.7787C32.1712 91.0021 32.4108 91.2203 32.6505 91.4386C33.0964 91.8447 33.5425 92.251 33.9557 92.6909C34.2891 93.0438 34.5978 93.4238 34.9064 93.8036L34.9064 93.8037C35.1959 94.1599 35.4852 94.516 35.7946 94.8495C36.3501 95.4506 36.9239 96.0338 37.4983 96.6176L37.4988 96.6181C37.8614 96.9867 38.2242 97.3554 38.5828 97.729C38.8885 98.0444 39.1664 98.386 39.4383 98.7267C39.6628 99.0119 39.8822 99.3009 40.1017 99.5899C40.4529 100.052 40.8041 100.515 41.1757 100.962C41.4656 101.307 41.7727 101.638 42.0798 101.969L42.0798 101.969L42.0799 101.969C42.4136 102.329 42.7472 102.688 43.0586 103.066C43.3377 103.404 43.5972 103.76 43.8568 104.115L43.8568 104.116L43.857 104.116C44.1537 104.522 44.4505 104.929 44.7766 105.31C45.2095 105.816 45.6643 106.305 46.1192 106.794L46.1193 106.794C46.574 107.283 47.0288 107.772 47.4616 108.278C47.9807 108.888 48.475 109.519 48.9698 110.151L48.97 110.151C49.2995 110.571 49.6292 110.992 49.9665 111.407C50.1585 111.644 50.3746 111.863 50.5906 112.081L50.5917 112.082C50.6994 112.191 50.807 112.3 50.9117 112.411C51.0108 112.518 51.1109 112.623 51.211 112.728L51.2135 112.731L51.2138 112.731C51.4943 113.027 51.7752 113.322 52.0373 113.635C52.2983 113.943 52.5518 114.257 52.805 114.57L52.8053 114.571L52.8058 114.571C53.1448 114.991 53.483 115.409 53.8373 115.812C54.1364 116.149 54.4513 116.472 54.7662 116.795L54.7664 116.796L54.7668 116.796C55.1099 117.148 55.4529 117.5 55.7752 117.87C56.0616 118.196 56.3291 118.539 56.5964 118.881L56.5967 118.882L56.5969 118.882C56.9122 119.286 57.2272 119.689 57.5727 120.065C58.1068 120.645 58.6638 121.202 59.2207 121.759C59.592 122.13 59.9632 122.501 60.3278 122.879C60.5681 123.126 60.7886 123.393 61.0077 123.658L61.008 123.658C61.0822 123.748 61.1562 123.838 61.2307 123.926C61.3586 124.074 61.484 124.224 61.6092 124.373L61.6094 124.374C61.84 124.649 62.0702 124.924 62.3149 125.186C62.5979 125.483 62.8886 125.773 63.1793 126.064L63.1794 126.064C63.5587 126.442 63.9378 126.821 64.2992 127.214C64.6136 127.553 64.9117 127.906 65.2095 128.259L65.2098 128.259C65.5225 128.629 65.8348 128.999 66.1652 129.352C66.4878 129.697 66.8296 130.023 67.1713 130.35L67.1718 130.35C67.5137 130.677 67.8556 131.003 68.1783 131.348C68.501 131.693 68.8043 132.058 69.1075 132.423L69.1079 132.423C69.411 132.788 69.7141 133.153 70.0367 133.498C70.4708 133.959 70.9207 134.403 71.3701 134.847L71.3708 134.848C71.8727 135.344 72.3739 135.839 72.8519 136.357C73.3045 136.85 73.7331 137.364 74.1616 137.878L74.1618 137.878L74.1625 137.879C74.5909 138.393 75.0193 138.907 75.4718 139.4C75.9215 139.893 76.3954 140.365 76.8692 140.837C77.3431 141.309 77.8169 141.781 78.2667 142.274C78.8502 142.914 79.4017 143.582 79.9532 144.25C80.2519 144.612 80.5506 144.973 80.8544 145.331C81.0413 145.549 81.2442 145.753 81.4466 145.956C81.5699 146.08 81.693 146.204 81.8123 146.331C81.9646 146.491 82.1176 146.65 82.2707 146.809L82.2712 146.81C82.7734 147.333 83.2761 147.856 83.7544 148.401C84.0725 148.763 84.3757 149.14 84.6791 149.518L84.6794 149.518C84.9665 149.876 85.2538 150.233 85.5544 150.579C85.8501 150.918 86.1617 151.244 86.4732 151.569L86.4737 151.569C86.8134 151.924 87.153 152.279 87.472 152.652C87.7918 153.024 88.0918 153.415 88.392 153.807L88.3924 153.807C88.6517 154.145 88.9112 154.483 89.184 154.81C89.2466 154.88 89.6282 154.831 89.684 154.736C90.0521 154.118 90.4083 153.493 90.7646 152.867L90.7652 152.866L90.7656 152.865C91.2153 152.075 91.6651 151.285 92.1391 150.51C92.5834 149.78 93.0864 149.088 93.5887 148.397C93.6834 148.267 93.7781 148.137 93.8724 148.006C94.4284 147.239 94.9888 146.485 95.583 145.747C96.2059 144.978 96.85 144.229 97.5059 143.482C98.1255 142.778 98.7621 142.083 99.3978 141.394C100.005 140.737 100.612 140.08 101.235 139.437C101.956 138.699 102.687 137.975 103.424 137.252C103.868 136.819 104.315 136.389 104.762 135.959C104.958 135.77 105.154 135.581 105.35 135.392C105.664 135.091 105.977 134.788 106.289 134.486C106.714 134.074 107.139 133.662 107.569 133.253C108.213 132.638 108.862 132.023 109.516 131.42C109.921 131.046 110.331 130.678 110.741 130.309L110.742 130.309L110.744 130.307C111.079 130.006 111.415 129.704 111.749 129.399C112.023 129.15 112.295 128.899 112.566 128.649C112.967 128.28 113.368 127.911 113.776 127.547C114.241 127.131 114.711 126.72 115.181 126.309L115.183 126.307L115.188 126.304C115.422 126.099 115.655 125.895 115.889 125.69C116.676 124.998 117.469 124.307 118.262 123.615C118.474 123.43 118.685 123.245 118.896 123.06C119.354 122.659 119.81 122.26 120.264 121.857C120.983 121.222 121.702 120.586 122.419 119.957C123.178 119.297 123.935 118.643 124.698 117.996L125.012 117.726C125.601 117.22 126.188 116.716 126.786 116.226C127.338 115.77 127.894 115.324 128.45 114.878L128.452 114.876C128.675 114.698 128.898 114.519 129.121 114.339C129.407 114.107 129.693 113.874 129.978 113.641C130.4 113.296 130.822 112.951 131.246 112.611C131.703 112.239 132.163 111.869 132.625 111.5L132.625 111.499C132.93 111.255 133.234 111.011 133.538 110.766C133.82 110.54 134.101 110.313 134.381 110.086L134.384 110.084C134.848 109.709 135.312 109.334 135.782 108.964C136.517 108.385 137.262 107.82 138.006 107.261C138.805 106.655 139.61 106.05 140.414 105.451C140.658 105.268 140.902 105.086 141.145 104.904C141.631 104.539 142.116 104.176 142.599 103.81C142.982 103.519 143.361 103.226 143.739 102.932C144.118 102.638 144.496 102.345 144.879 102.054C145.658 101.464 146.448 100.881 147.237 100.304C147.762 99.916 148.293 99.5339 148.823 99.1518L148.824 99.151C149.09 98.9595 149.356 98.768 149.621 98.5758C149.863 98.399 150.106 98.2223 150.35 98.0453C150.844 97.6857 151.339 97.3253 151.832 96.9619L154.202 95.2133C154.546 94.9619 154.892 94.7146 155.238 94.4675C155.651 94.1726 156.063 93.878 156.471 93.5774C156.858 93.294 157.242 93.007 157.626 92.72C158.009 92.4331 158.393 92.1461 158.781 91.8627C159.175 91.5742 159.574 91.2893 159.972 91.0045C160.371 90.7196 160.769 90.4347 161.164 90.1463C161.489 89.9107 161.813 89.6738 162.136 89.4372C162.568 89.1205 163 88.8043 163.435 88.4925C163.827 88.2111 164.22 87.9313 164.614 87.6509L164.619 87.6472C165.022 87.3608 165.425 87.0737 165.829 86.7837C166.208 86.5118 166.587 86.2368 166.965 85.9618L166.967 85.9604C167.346 85.6848 167.725 85.4092 168.105 85.1367C168.366 84.9494 168.628 84.7622 168.889 84.5748C169.424 84.1918 169.96 83.808 170.494 83.4211C170.873 83.1497 171.251 82.875 171.629 82.6004L171.632 82.5976L171.636 82.5949C172.014 82.3203 172.392 82.0457 172.771 81.7742C173.565 81.204 174.365 80.6347 175.164 80.0653C175.544 79.7932 175.923 79.5194 176.301 79.2456C176.68 78.9713 177.06 78.6969 177.44 78.4243C177.828 78.1456 178.218 77.8671 178.608 77.588C179.016 77.2961 179.425 77.0036 179.835 76.7095C180.215 76.4372 180.595 76.1633 180.976 75.8894C181.356 75.6156 181.736 75.3417 182.116 75.0693C182.433 74.8422 182.752 74.6184 183.07 74.3948L183.071 74.3945C183.516 74.0818 183.961 73.7692 184.401 73.4478C184.844 73.124 185.28 72.7915 185.717 72.4589L185.717 72.4584C186.045 72.2089 186.372 71.9594 186.702 71.7136C187.204 71.3397 187.71 70.9734 188.216 70.6068L188.216 70.6066L188.217 70.6056C188.521 70.3854 188.825 70.1651 189.129 69.943C189.374 69.7623 189.618 69.5807 189.862 69.3992L189.863 69.3981C190.351 69.0353 190.839 68.6725 191.336 68.3164C191.667 68.0791 192.003 67.8482 192.339 67.6175C192.774 67.3186 193.208 67.0201 193.631 66.7083C194.034 66.4135 194.428 66.1074 194.821 65.8016L194.821 65.8015C195.184 65.5196 195.546 65.238 195.915 64.9658C196.52 64.5184 197.134 64.0784 197.746 63.6399L197.747 63.6389C197.988 63.4666 198.228 63.2945 198.467 63.1222C199.187 62.6021 199.908 62.0819 200.633 61.5685C201.023 61.2914 201.415 61.0178 201.808 60.7442C202.2 60.4705 202.593 60.1968 202.982 59.9197C203.339 59.6683 203.693 59.414 204.047 59.1594L204.049 59.1578C204.473 58.8527 204.898 58.5473 205.329 58.2465C205.821 57.8994 206.318 57.5595 206.815 57.2197C207.146 56.9931 207.478 56.7664 207.808 56.5376C208.183 56.2796 208.557 56.0184 208.931 55.7573L208.932 55.7566C209.305 55.4956 209.679 55.2347 210.054 54.9769C210.458 54.702 210.866 54.429 211.273 54.1559C211.68 53.8829 212.088 53.6099 212.492 53.3349C212.846 53.0955 213.199 52.852 213.551 52.6083C213.971 52.3181 214.391 52.0275 214.815 51.7429C215.301 51.4177 215.793 51.0981 216.285 50.7787L216.285 50.7787C216.578 50.5889 216.87 50.3992 217.16 50.2084C217.446 50.0212 217.731 49.8325 218.016 49.6437C218.572 49.2764 219.128 48.9084 219.686 48.5486C220.497 48.0291 221.313 47.5224 222.134 47.0165L222.492 46.795L222.492 46.7947C223.168 46.3762 223.845 45.9567 224.529 45.5556C225.359 45.0692 226.199 44.6022 227.043 44.1479C227.256 44.0331 227.467 43.9138 227.678 43.7946C228.311 43.4369 228.944 43.0792 229.622 42.84C230.398 42.567 231.204 42.3825 232.01 42.198L232.01 42.1979C232.386 42.1118 232.762 42.0257 233.135 41.9306C233.276 41.878 233.447 41.8237 233.831 41.7091C233.646 41.6522 233.493 41.6018 233.36 41.5577ZM107.739 162.377C107.671 162.915 107.598 163.499 107.506 164.149C107.458 165.291 107.666 167.061 108.458 168.678C108.862 169.491 109.491 170.214 110.667 170.23C111.576 170.243 112.482 170.351 113.389 170.46C113.986 170.532 114.584 170.603 115.183 170.648C116.803 170.769 118.425 170.836 120.049 170.891C120.278 170.899 120.685 170.752 120.71 170.616C120.764 170.328 120.667 169.988 120.55 169.705C120.503 169.59 120.405 169.498 120.305 169.405C120.232 169.337 120.158 169.268 120.103 169.189C119.326 168.069 119.17 166.742 119.191 165.482C119.234 163.137 119.482 160.797 120.753 158.693C120.875 158.491 120.991 158.284 121.106 158.078C121.514 157.349 121.92 156.624 122.604 156.085C122.965 155.798 122.89 155.135 122.473 154.919C122.181 154.762 121.85 154.667 121.527 154.603C120.687 154.435 119.842 154.297 118.998 154.159C118.559 154.089 118.12 154.013 117.682 153.937C116.517 153.735 115.353 153.534 114.181 153.433C113.546 153.376 112.89 153.507 112.239 153.637C112.041 153.677 111.843 153.716 111.647 153.75C111.449 153.783 111.229 153.969 111.101 154.144C110.975 154.316 110.846 154.486 110.718 154.657C110.223 155.315 109.726 155.975 109.332 156.691C108.859 157.555 108.43 158.485 108.204 159.438C107.995 160.336 107.88 161.255 107.739 162.377Z" fill="#FEFF8B"/>
</svg>
