<svg width="26" height="26" viewBox="0 0 26 26" fill="none" xmlns="http://www.w3.org/2000/svg">
<path fill-rule="evenodd" clip-rule="evenodd" d="M25.0369 0.613131C24.2194 -0.204377 22.894 -0.204377 22.0765 0.613131L12.91 9.77957L3.92353 0.793068C3.10602 -0.0244403 1.78058 -0.02444 0.963072 0.793068C0.145563 1.61058 0.145563 2.93602 0.963072 3.75353L9.94957 12.74L0.613131 22.0765C-0.204377 22.894 -0.204377 24.2194 0.613131 25.0369C1.43064 25.8544 2.75608 25.8544 3.57359 25.0369L12.91 15.7005L22.4264 25.2169C23.2439 26.0344 24.5694 26.0344 25.3869 25.2169C26.2044 24.3994 26.2044 23.0739 25.3869 22.2564L15.8705 12.74L25.0369 3.57359C25.8544 2.75608 25.8544 1.43064 25.0369 0.613131Z" fill="#3C65F7"/>
</svg>
