<svg width="502" height="604" viewBox="0 0 502 604" fill="none" xmlns="http://www.w3.org/2000/svg">
<path d="M257.095 264.501C254.016 269.284 251.706 272.893 249.493 276.593C205.137 352.029 161.069 427.554 116.52 502.809C98.7192 532.948 80.0523 562.725 61.9632 592.773C59.1728 597.465 56.19 601.255 49.8395 601.526C36.6576 602.067 23.5721 602.789 10.3901 603.15C7.59976 603.24 4.81022 602.157 0.384155 601.255C3.1745 596.112 5.00228 592.231 7.21531 588.532C45.4141 524.827 83.9009 461.212 121.907 397.416C156.161 339.937 189.935 282.278 223.996 224.708C226.69 220.197 227.556 216.497 224.573 211.715C190.319 156.762 157.028 101.268 115.461 50.7369C113.056 47.8494 110.362 45.2326 108.149 42.2549C100.066 31.4268 90.5401 25.0202 75.1451 27.276C66.0043 28.6295 65.2353 26.9152 65.0428 18.3429C64.9466 14.3726 65.0428 10.4021 65.0428 5.16855C72.2592 3.7248 78.8985 1.73982 85.6338 1.10818C92.5615 0.476538 99.681 1.6494 106.512 0.927532C123.447 -0.786916 135.089 7.24405 145.962 17.9819C165.879 37.4725 183.487 58.6773 199.075 81.2358C217.356 107.765 234.869 134.745 252.766 161.544C254.401 163.981 256.133 166.237 258.442 169.395C260.367 167.229 261.81 165.695 262.964 164.071C283.459 134.474 304.916 105.419 330.799 79.702C340.325 70.1372 349.85 60.392 360.626 52.1807C373.135 42.6159 388.049 37.3822 404.406 36.5701C407.485 36.3896 410.564 36.4798 413.739 36.4798C440.584 36.2993 445.588 39.0966 459.732 63.0086C456.749 63.911 454.152 65.1743 451.361 65.3548C438.66 66.1669 425.766 67.5204 413.161 66.979C403.828 66.5278 397.575 69.7761 392.283 75.912C376.407 94.2296 359.472 111.825 344.943 130.955C326.18 155.769 309.438 182.027 291.541 207.473C287.019 213.88 287.789 218.933 291.83 225.25C330.221 285.436 367.169 346.434 408.928 404.635C424.901 426.923 442.028 448.579 458.385 470.596C462.041 475.469 466.179 478.356 472.818 477.634C476.282 477.273 479.745 477.815 483.305 478.085C488.501 478.537 495.814 476.461 497.834 482.056C500.529 489.365 501.106 497.576 501.587 505.426C501.683 506.87 497.353 509.848 494.851 510.028C478.59 511.111 462.33 512.284 446.165 512.014C440.969 511.923 435.293 508.494 430.963 505.246C412.489 491.44 399.595 473.122 386.028 455.437C342.056 398.048 303.184 337.681 264.986 276.864C262.773 273.074 260.366 269.374 257.095 264.501Z" fill="#FEFF8B"/>
</svg>
