<svg width="2334" height="1045" viewBox="0 0 2334 1045" fill="none" xmlns="http://www.w3.org/2000/svg">
<path d="M633.84 388.7H633.83L628 317.44L633.84 388.7Z" fill="#EFEFEF"/>
<path d="M2333.63 161.49C2332.83 101.83 2280.91 59.5399 2218.54 35.9699C2155.36 12.0799 2078.66 0.549868 1973.12 0.389868C1761.57 0.0498682 1494.37 39.5999 1177.12 127.15C1148.13 135.15 1119.39 143.377 1090.91 151.83H783.57L774.11 185L766.8 210.59L759.64 235.64L755.1 191.64L750.86 150.64H638.06L624.75 172.86L505.07 372.86C453.75 397.29 405.48 422.05 360.74 446.86C255.74 505.13 167.74 565.06 105.29 623.62C44.9001 680.23 2.18006 741.62 0.71006 800.29H0.560059C0.560059 801.29 0.630059 802.34 0.670059 803.36C0.670059 803.73 0.670059 804.09 0.670059 804.46C4.67006 902.89 68.7801 965.64 138.94 996.78C211.54 1029 273.09 1045.78 385.79 1043.92C612.26 1040.2 902.65 984.17 1234.92 864.56L1232.75 759.27L1230.37 665.78C1181.79 683.267 1133.9 700.37 1086.7 717.09L1252.5 449.63C1250.68 461.458 1249.74 473.403 1249.67 485.37C1249.67 533.15 1266.31 574.14 1304.06 600.81C1338.55 625.18 1383.87 632.49 1430.6 632.49C1467.17 632.49 1506.41 626.29 1548.07 614.58L1507.07 769.66V769.75C1505.7 775.305 1503.86 780.734 1501.58 785.98H1500.08H1498.36L1496.64 786.11L1445.35 789.97L1413.6 792.37L1404.85 822.98L1397.54 848.57L1380.91 906.77H1441.44L1766.65 906.98H1807.18C1809.79 907.2 1812.44 907.31 1815.13 907.31C1870.79 907.31 1911.13 860.94 1911.13 809.53C1911.13 758.88 1872.4 710.85 1817.01 710.85C1767.89 710.85 1734.76 746.74 1725.01 786.74L1698.72 786.3L1833.03 286.04C1834.48 280.144 1836.41 274.376 1838.79 268.79H1854.51C1850.59 280.79 1847.19 293.33 1844.23 306.27L1844.18 306.47V306.67C1837.18 338.67 1834.7 360.9 1831.8 387C1831.01 394.06 1830.2 401.37 1829.25 409.38C1826.51 432.38 1823.09 457.14 1819.33 484.38L1819.24 485.05C1816.9 502.05 1814.43 519.87 1811.96 538.55C1805.63 586.46 1799.48 622.95 1792.75 650.74L1779.05 707.19H1897.5L1906.15 672.58C1917.05 628.92 1935.86 579 1963.15 523.58L1963.27 523.32C1972.43 504.41 1980.69 487.65 1988.42 471.94L1988.77 471.25C2004.57 439.16 2018.36 411.17 2032.77 379.18L2032.84 379.03L2032.91 378.88C2055.52 327.73 2067.91 280.15 2067.91 236.13C2067.91 210.28 2057.28 187.78 2039.45 172.34C2022.45 157.63 2001.13 151.14 1981.1 151.14C1976.39 151.136 1971.69 151.43 1967.02 152.02L1907.62 151.89L1872.12 151.82L1642.45 151.36L1607.92 151.29L1598.43 184.49L1591 210L1574.63 267.27L1634.18 268.27L1641.66 268.39L1584.66 481.89C1534.8 498.14 1502.84 504.56 1486.33 504.56C1460.65 504.56 1450.84 499.82 1447.94 497.56C1447.67 497.36 1443.38 495.19 1443.38 478.95C1443.38 466.34 1445.96 449.69 1451.84 427.85C1451.84 427.85 1451.84 427.85 1451.84 427.78L1490.2 286.21L1490.29 285.89L1490.37 285.56C1491.74 279.85 1493.51 274.246 1495.68 268.79H1497L1520.41 268.5L1554.41 268.08L1563.76 235.36L1571.07 209.78L1587.73 151.46L1527.08 151.53L1362.74 151.74C1602.12 94.3198 1819.53 60.2398 1980.09 60.4898C2080.87 60.6498 2143.5 55.2999 2217.09 84.4199C2259.24 101.11 2300.43 127.31 2301.45 171.14H2301.57C2301.57 226.5 2279.86 286.47 2227.79 350.03C2175.14 414.31 2098.09 480.21 2001.85 543.58L2011.36 564.7C2109.36 500.16 2189.55 431.98 2245.26 363.96C2300.97 295.94 2334.13 226.88 2333.7 162.03V161.91C2333.7 161.78 2333.7 161.65 2333.7 161.51L2333.63 161.49ZM1816.92 756.63C1843.42 756.63 1865.35 780.38 1865.35 809.63C1865.35 837.96 1843.42 861.72 1815.09 861.72C1788.59 861.72 1767.57 839.79 1767.57 811.46C1767.57 782.21 1788.59 756.63 1816.92 756.63ZM1106.54 268.8L1116.01 235.66L1121.82 215.34C1140.34 210.007 1158.98 204.737 1177.75 199.53L1191.36 195.79L1187.14 210.57L1170.5 268.8H1223.06L1086.81 495.1L1040.11 268.8H1106.54ZM180.47 820.61L174.08 846.19L169.29 865.34C167.497 864.673 165.767 863.956 164.1 863.19C113.81 840.88 88.9801 805.66 88.0201 770.29C87.7087 770.547 87.3739 770.775 87.0201 770.97C87.5101 731.88 103.61 705.61 152.44 659.83C204.44 611.09 286.93 564.27 387.24 508.62C404.64 498.96 422.64 489.293 441.24 479.62L283.44 743.32L283.29 743.56L283.15 743.8C269.23 767.73 260.61 777.38 254.99 781.63C251.65 784.15 248.15 785.97 237.66 785.97H189.12L180.47 820.61ZM546.26 812.76L537.38 847.88L530.24 876.09C497.083 881.26 463.659 884.542 430.13 885.92L434.52 868.36L440.92 842.77L455.11 786H392.28L450 689.14H613.9L620.98 778.27H555L546.26 812.76ZM887.11 762.49C887.11 762.89 887.03 763.29 886.97 763.68C886.91 764.07 886.84 764.76 886.75 765.3C886.66 765.84 886.63 766.11 886.56 766.51C886.49 766.91 886.37 767.51 886.26 768.05C886.2 768.35 886.14 768.65 886.07 768.94L885.98 769.34C885.91 769.67 885.82 770.01 885.74 770.34C885.66 770.67 885.57 771.01 885.48 771.34C885.307 772.007 885.117 772.673 884.91 773.34V773.44C884.73 774.03 884.53 774.62 884.33 775.2L884.24 775.46C884.03 776.04 883.82 776.62 883.59 777.2C883.36 777.78 883.15 778.31 882.91 778.86C882.8 779.12 882.68 779.39 882.56 779.65C882.05 780.79 881.56 781.91 880.92 783C880.67 783.49 880.4 784 880.12 784.46L880.01 784.66C879.71 785.19 879.39 785.66 879.07 786.23C878.85 786.58 878.63 786.93 878.4 787.23C878.17 787.53 878.13 787.66 877.99 787.87C786.58 817.13 700.22 841.8 620.91 859.13L581.7 859.06L590.59 823.93H635.71C660.3 823.93 668.02 823.93 668.02 799.68C668.02 798.41 667.82 795.18 667.61 791.68C667.49 789.68 667.37 787.59 667.27 785.77C667.17 783.95 667.11 782.37 667.11 781.39L656.11 643.39H424L350 767.67C338.12 788.67 331.73 803.3 331.73 813.35C331.73 825.23 339.95 831.63 357.31 831.63H396.61L390.2 857.21H218.4L224.79 831.63H237.59C273.22 831.63 293.33 817.01 322.59 766.75L517.1 441.74L578.58 339L664 196.34H709.69L718.36 280.23L725.64 350.68L767.83 758.91C771.33 732.27 790.46 708.43 815.92 702.91C824.261 700.504 833.047 700.07 841.584 701.643C850.121 703.215 858.176 706.751 865.112 711.97C872.048 717.19 877.676 723.951 881.551 731.719C885.426 739.487 887.442 748.049 887.44 756.73C887.428 758.654 887.317 760.577 887.11 762.49ZM931.91 741.22C929.712 727.074 924.555 713.551 916.775 701.535C908.994 689.518 898.766 679.278 886.758 671.484C874.75 663.691 861.233 658.518 847.089 656.305C832.946 654.091 818.495 654.887 804.68 658.64L803.4 658.95L769.75 333.39C795.503 323.483 821.72 313.71 848.4 304.07L945 720.48C940.42 728.18 936.07 735.07 931.91 741.22ZM1981 196.77C2002 196.77 2022.12 210.48 2022.12 236.07C2022.12 271.7 2012.07 312.82 1991.05 360.34C1976.99 391.51 1963.54 418.83 1947.7 451C1939.85 466.93 1931.42 484 1922.04 503.41C1893.72 560.97 1873.61 613.97 1861.72 661.49H1837C1844.31 631.34 1850.71 592.96 1857.11 544.49C1859.58 525.71 1862.06 507.76 1864.44 490.58C1866.31 477.013 1868.1 463.916 1869.81 451.29C1871.52 438.663 1873.08 426.476 1874.47 414.73C1875.47 406.53 1876.28 399.05 1877.06 392C1879.94 366.06 1882.19 345.88 1888.66 316.42C1906 240.63 1936.18 196.77 1981 196.77ZM1527.13 197.23L1519.82 222.82L1496.41 223.11C1469.91 223.11 1457.12 231.33 1446.15 274.28L1407.77 415.92C1401.38 439.68 1397.71 460.69 1397.71 478.97C1397.71 530.14 1427.88 550.24 1486.36 550.24C1513.77 550.24 1559.46 539.24 1622.51 517.35L1687.39 274.28C1696.53 235.9 1693.79 223.11 1668.2 223.11L1634.95 222.57L1642.26 196.99L1871.92 197.45L1907.42 197.52L1900.11 223.11H1839.11C1812.61 223.11 1799.82 233.11 1788.85 274.28L1652.7 781.43C1649.04 794.23 1647.21 804.27 1647.21 810.67C1647.21 824.38 1656.35 831.67 1674.63 831.67L1738.07 832.67L1727.48 861.25L1441.48 861.07L1448.79 835.48L1500.09 831.62C1526.58 831.62 1540.29 822.48 1551.26 781.36L1614.26 542.86C1543.9 572.113 1482.68 586.737 1430.59 586.73C1343.78 586.73 1295.35 558.4 1295.35 485.3C1295.35 466.11 1299 443.3 1306.35 415.85L1343.82 274.21C1346.56 262.33 1348.39 252.28 1348.39 244.06C1348.54 239.781 1347.37 235.56 1345.02 231.98C1331.02 241.42 1316.86 259.26 1297.81 289.75L1020.93 736.59L1018.29 740.9C1018.26 740.938 1018.24 740.978 1018.22 741.02C1004.54 745.74 990.95 750.407 977.45 755.02C982.783 746.573 988.143 737.397 993.53 727.49L891.73 288.68L888.39 274.28C888.21 273.46 888.03 272.66 887.84 271.87C887.5 270.38 887.14 268.94 886.77 267.53C886.65 267.06 886.53 266.61 886.4 266.15C885.953 264.49 885.483 262.883 884.99 261.33C884.863 260.89 884.723 260.45 884.57 260.01C884.08 258.51 883.57 257.01 883.04 255.65C882.9 255.26 882.75 254.87 882.6 254.49C882.233 253.55 881.853 252.63 881.46 251.73C881.31 251.37 881.16 251.02 881 250.68C880.31 249.13 879.58 247.68 878.83 246.26C878.59 245.82 878.36 245.39 878.11 244.97C878.069 244.883 878.023 244.8 877.97 244.72C877.71 244.27 877.43 243.82 877.17 243.38L876.36 242.1C876.047 241.62 875.713 241.15 875.36 240.69L875.05 240.25L874.43 239.4C874.09 238.94 873.74 238.5 873.43 238.07L872.61 237.07C872.19 236.59 871.78 236.13 871.36 235.69C870.94 235.25 870.68 234.98 870.36 234.69C870.04 234.4 869.64 233.99 869.28 233.69C868.92 233.39 868.53 233.03 868.16 232.69C867.79 232.35 867.51 232.15 867.16 231.9C866.81 231.65 866.76 231.59 866.56 231.45C866.36 231.31 866.06 231.07 865.81 230.89C865.56 230.71 865.01 230.33 864.6 230.06C864.19 229.79 863.6 229.44 863.13 229.15L862.41 228.74L861.89 228.45C861.1 228.03 860.29 227.63 859.45 227.26L858.35 226.78C854.947 225.406 851.392 224.446 847.76 223.92L846.76 223.78C845.76 223.64 844.76 223.52 843.66 223.44H843.05L841.98 223.37C841.51 223.37 841.04 223.31 840.57 223.3H840.32C839.84 223.3 839.32 223.3 838.87 223.3C838.42 223.3 837.81 223.3 837.27 223.3H810.77L818 197.52H1079.34L1072.03 223.11H1030.9C1004.4 223.11 990.71 233.11 990.71 253.26C990.71 253.33 990.71 253.43 990.71 253.56C990.71 253.69 990.71 253.77 990.71 253.9C990.75 254.26 990.81 254.75 990.89 255.37C990.98 256.08 991.11 256.96 991.27 257.99C991.33 258.36 991.39 258.76 991.46 259.17C991.85 261.53 992.46 264.54 993.17 268.17C993.36 269.17 993.58 270.17 993.82 271.17C993.98 271.9 994.14 272.64 994.32 273.4L1065.6 618.81L1278.51 265.17C1284.91 255.17 1287.65 245.98 1287.65 238.67C1287.65 228.67 1282.16 223.14 1270.29 223.14H1230.99L1238.3 197.55H1295.3L1527.13 197.23Z" fill="#EFEFEF"/>
<path d="M861.87 228.38C861.08 227.96 860.27 227.56 859.43 227.19C860.27 227.56 861.08 228 861.87 228.38Z" fill="#EFEFEF"/>
<path d="M626.86 303.52L615.31 322.89C619.523 321.07 623.753 319.253 628 317.44L626.86 303.52ZM626.86 303.52L615.31 322.89C619.523 321.07 623.753 319.253 628 317.44L626.86 303.52ZM626.86 303.52L615.31 322.89C619.523 321.07 623.753 319.253 628 317.44L626.86 303.52ZM626.86 303.52L615.31 322.89C619.523 321.07 623.753 319.253 628 317.44L626.86 303.52ZM626.86 303.52L615.31 322.89C619.523 321.07 623.753 319.253 628 317.44L626.86 303.52ZM859.43 227.19C860.27 227.56 861.08 227.96 861.87 228.38C861.08 228 860.27 227.56 859.43 227.19V227.19ZM626.86 303.52L615.31 322.89C619.523 321.07 623.753 319.253 628 317.44L626.86 303.52ZM859.43 227.19C860.27 227.56 861.08 227.96 861.87 228.38C861.08 228 860.27 227.56 859.43 227.19V227.19ZM626.86 303.52L615.31 322.89C619.523 321.07 623.753 319.253 628 317.44L626.86 303.52ZM859.43 227.19C860.27 227.56 861.08 227.96 861.87 228.38C861.08 228 860.27 227.56 859.43 227.19V227.19ZM626.86 303.52L615.31 322.89C619.523 321.07 623.753 319.253 628 317.44L626.86 303.52ZM859.43 227.19C860.27 227.56 861.08 227.96 861.87 228.38C861.08 228 860.27 227.56 859.43 227.19V227.19ZM626.86 303.52L615.31 322.89C619.523 321.07 623.753 319.253 628 317.44L626.86 303.52ZM859.43 227.19C860.27 227.56 861.08 227.96 861.87 228.38C861.08 228 860.27 227.56 859.43 227.19V227.19ZM626.86 303.52L615.31 322.89C619.523 321.07 623.753 319.253 628 317.44L626.86 303.52ZM859.43 227.19C860.27 227.56 861.08 227.96 861.87 228.38C861.08 228 860.27 227.56 859.43 227.19ZM626.86 303.52L615.31 322.89C619.523 321.07 623.753 319.253 628 317.44L626.86 303.52ZM859.43 227.19C860.27 227.56 861.08 227.96 861.87 228.38C861.08 228 860.27 227.56 859.43 227.19ZM626.86 303.52L615.31 322.89C619.523 321.07 623.753 319.253 628 317.44L626.86 303.52ZM626.86 303.52L615.31 322.89C619.523 321.07 623.753 319.253 628 317.44L626.86 303.52ZM626.86 303.52L615.31 322.89C619.523 321.07 623.753 319.253 628 317.44L626.86 303.52ZM626.86 303.52L615.31 322.89C619.523 321.07 623.753 319.253 628 317.44L626.86 303.52ZM626.86 303.52L615.31 322.89C619.523 321.07 623.753 319.253 628 317.44L626.86 303.52ZM626.86 303.52L615.31 322.89C619.523 321.07 623.753 319.253 628 317.44L626.86 303.52ZM626.86 303.52L615.31 322.89C619.523 321.07 623.753 319.253 628 317.44L626.86 303.52Z" fill="#EFEFEF"/>
<path fill-rule="evenodd" clip-rule="evenodd" d="M633.84 388.7L628 317.44C623.753 319.247 619.523 321.063 615.31 322.89L555.09 423.89L440.45 616H652.45L633.84 388.7ZM520.9 570.35L593 449.52L602.88 570.35H520.9Z" fill="#EFEFEF"/>
</svg>
