<svg width="30" height="25" viewBox="0 0 30 25" fill="none" xmlns="http://www.w3.org/2000/svg">
<path fill-rule="evenodd" clip-rule="evenodd" d="M23.0735 20.725C20.6802 23.1608 17.2571 24.6856 13.4559 24.6856C6.21964 24.6856 0.353516 19.1596 0.353516 12.3428C0.353516 5.52607 6.21964 0 13.4559 0C20.6921 0 26.5582 5.52607 26.5582 12.3428C26.5582 14.7395 25.8331 16.9766 24.5783 18.8701C24.5858 18.8768 24.5932 18.8836 24.6005 18.8906L28.6548 22.7098C29.1345 23.1616 29.1345 23.8943 28.6548 24.3462C28.1751 24.7981 27.3973 24.7981 26.9176 24.3462L23.0735 20.725ZM24.1016 12.343C24.1016 17.8816 19.3354 22.3716 13.4559 22.3716C7.57647 22.3716 2.81024 17.8816 2.81024 12.343C2.81024 6.80442 7.57647 2.3145 13.4559 2.3145C19.3354 2.3145 24.1016 6.80442 24.1016 12.343Z" fill="white"/>
</svg>
