<svg width="785" height="435" viewBox="0 0 785 435" fill="none" xmlns="http://www.w3.org/2000/svg">
<g filter="url(#filter0_f_1798_5090)">
<path d="M504.528 167.092C472.235 138.947 455.887 105.289 467.921 90.9573C479.871 76.7249 515.434 86.7619 548.544 113.281C545.769 70.821 557.981 35.7914 576.535 34.1742C595.273 32.5411 613.535 65.5887 617.922 108.502C646.187 75.7458 680.227 59.0748 694.663 71.1955C708.998 83.2327 698.711 119.227 671.758 152.54C714.208 149.77 749.226 161.981 750.843 180.533C752.512 199.678 717.973 218.327 673.698 222.186C673.168 222.232 672.639 222.276 672.11 222.318C673.302 223.27 674.491 224.243 675.675 225.238C709.711 253.816 727.284 288.915 714.926 303.633C702.782 318.095 666.258 307.498 632.7 280.012C634.413 320.523 622.407 353.278 604.479 354.84C586.735 356.387 569.417 326.833 563.905 287.252C535.844 319.238 502.44 335.372 488.176 323.396C473.458 311.037 484.694 273.428 513.272 239.392C514.272 238.202 515.279 237.032 516.293 235.882C515.322 235.982 514.345 236.075 513.363 236.161C469.088 240.019 431.844 227.627 430.175 208.481C428.542 189.74 461.603 171.474 504.528 167.092Z" fill="#3C65F7"/>
</g>
<mask id="path-2-outside-1_1798_5090" maskUnits="userSpaceOnUse" x="0" y="176" width="630" height="259" fill="black">
<rect fill="white" y="176" width="630" height="259"/>
<path d="M217.91 407.239C209.094 407.239 204.271 399.895 203.359 388.647L184.469 192H169.269L54.6571 385.654C44.9288 402.374 38.2406 407.239 26.3842 407.239H22.1281L20 415.751H77.1538L79.2818 407.239H66.2094C60.4332 407.239 57.6972 405.111 57.6972 401.158C57.6972 397.814 59.8252 392.95 63.7774 385.958L88.4021 344.613H165.62L169.269 390.518C169.269 391.734 169.573 395.686 169.573 396.598C169.573 404.807 166.229 407.239 157.716 407.239H143.124L140.168 418.925L236.519 419.095L222.47 407.239H217.91ZM93.8743 335.492L155.892 231.521L164.404 335.492H93.8743Z"/>
<path d="M225.878 400.246C238.343 400.246 245.943 391.734 245.943 381.094C245.943 367.408 231.663 362.232 222.239 362.232C210.991 362.232 202.586 374.691 202.586 385.939C202.586 403.268 216.15 419.095 236.519 419.095C246.551 419.095 255.063 415.751 262.056 409.063C269.048 402.07 277.56 391.126 286.984 375.622L379.099 226.961C389.74 209.937 395.82 204.768 404.636 204.768H414.668L417.1 196.256H359.339L356.906 204.768H369.979C373.931 204.768 375.755 206.592 375.755 209.937C375.755 212.369 374.843 215.409 372.715 218.753L301.881 336.404L278.168 221.489C277.256 217.537 276.952 215.105 276.952 214.801C276.952 208.113 281.512 204.768 290.328 204.768H304.009L306.441 196.256H219.494L217.062 204.768H225.878C235.303 204.768 240.167 209.329 242.903 221.793L277.864 372.582C263.576 398.726 249.895 411.799 236.823 411.799C226.182 411.799 219.798 406.023 218.582 398.726C221.318 399.638 223.75 400.246 225.878 400.246Z"/>
<path d="M492.606 196.256L490.174 204.768H502.335C510.847 204.768 511.759 209.025 508.719 221.793L487.134 302.659C466.158 309.956 450.957 313.604 441.837 313.604C422.38 313.604 412.348 306.916 412.348 289.891C412.348 283.811 413.564 276.819 415.692 268.914L428.46 221.793C432.108 207.504 436.365 204.768 445.181 204.768H456.125L458.557 196.256H378.299L375.867 204.768H387.115C392.891 204.768 395.931 207.2 395.931 211.761C395.931 214.497 395.323 217.841 394.411 221.793L381.947 268.914C379.515 278.035 378.299 285.635 378.299 292.019C378.299 316.34 394.411 325.764 423.292 325.764C440.621 325.764 460.989 320.9 484.398 311.172L463.421 390.518C459.773 404.199 455.213 407.239 446.397 407.239H429.676L427.244 415.751H516.015L518.447 407.239H504.463C498.383 407.239 495.342 404.807 495.342 400.246C495.342 398.118 495.95 394.774 497.166 390.518L542.464 221.793C546.112 208.113 550.368 204.768 559.184 204.768L573.169 204.768L575.601 196.256L492.606 196.256Z"/>
<path d="M559.676 352.821C563.628 337.012 570.316 319.38 579.741 300.227C589.165 280.771 597.373 263.138 604.365 247.634C611.358 231.825 614.702 218.145 614.702 206.288C614.702 197.776 608.013 193.216 601.021 193.216C586.125 193.216 576.093 207.808 570.316 233.041C567.58 245.506 565.452 257.97 563.932 270.738C562.412 283.507 560.284 297.795 558.156 313.908C556.028 330.02 553.9 342.789 551.468 352.821H559.676ZM558.764 401.158C558.764 391.43 551.468 383.526 542.651 383.526C533.227 383.526 526.235 392.038 526.235 401.766C526.235 411.191 533.227 418.487 542.043 418.487C551.468 418.487 558.764 410.583 558.764 401.158Z"/>
</mask>
<path d="M217.91 407.239C209.094 407.239 204.271 399.895 203.359 388.647L184.469 192H169.269L54.6571 385.654C44.9288 402.374 38.2406 407.239 26.3842 407.239H22.1281L20 415.751H77.1538L79.2818 407.239H66.2094C60.4332 407.239 57.6972 405.111 57.6972 401.158C57.6972 397.814 59.8252 392.95 63.7774 385.958L88.4021 344.613H165.62L169.269 390.518C169.269 391.734 169.573 395.686 169.573 396.598C169.573 404.807 166.229 407.239 157.716 407.239H143.124L140.168 418.925L236.519 419.095L222.47 407.239H217.91ZM93.8743 335.492L155.892 231.521L164.404 335.492H93.8743Z" fill="#FEFF8B"/>
<path d="M225.878 400.246C238.343 400.246 245.943 391.734 245.943 381.094C245.943 367.408 231.663 362.232 222.239 362.232C210.991 362.232 202.586 374.691 202.586 385.939C202.586 403.268 216.15 419.095 236.519 419.095C246.551 419.095 255.063 415.751 262.056 409.063C269.048 402.07 277.56 391.126 286.984 375.622L379.099 226.961C389.74 209.937 395.82 204.768 404.636 204.768H414.668L417.1 196.256H359.339L356.906 204.768H369.979C373.931 204.768 375.755 206.592 375.755 209.937C375.755 212.369 374.843 215.409 372.715 218.753L301.881 336.404L278.168 221.489C277.256 217.537 276.952 215.105 276.952 214.801C276.952 208.113 281.512 204.768 290.328 204.768H304.009L306.441 196.256H219.494L217.062 204.768H225.878C235.303 204.768 240.167 209.329 242.903 221.793L277.864 372.582C263.576 398.726 249.895 411.799 236.823 411.799C226.182 411.799 219.798 406.023 218.582 398.726C221.318 399.638 223.75 400.246 225.878 400.246Z" fill="#FEFF8B"/>
<path d="M492.606 196.256L490.174 204.768H502.335C510.847 204.768 511.759 209.025 508.719 221.793L487.134 302.659C466.158 309.956 450.957 313.604 441.837 313.604C422.38 313.604 412.348 306.916 412.348 289.891C412.348 283.811 413.564 276.819 415.692 268.914L428.46 221.793C432.108 207.504 436.365 204.768 445.181 204.768H456.125L458.557 196.256H378.299L375.867 204.768H387.115C392.891 204.768 395.931 207.2 395.931 211.761C395.931 214.497 395.323 217.841 394.411 221.793L381.947 268.914C379.515 278.035 378.299 285.635 378.299 292.019C378.299 316.34 394.411 325.764 423.292 325.764C440.621 325.764 460.989 320.9 484.398 311.172L463.421 390.518C459.773 404.199 455.213 407.239 446.397 407.239H429.676L427.244 415.751H516.015L518.447 407.239H504.463C498.383 407.239 495.342 404.807 495.342 400.246C495.342 398.118 495.95 394.774 497.166 390.518L542.464 221.793C546.112 208.113 550.368 204.768 559.184 204.768L573.169 204.768L575.601 196.256L492.606 196.256Z" fill="#FEFF8B"/>
<path d="M559.676 352.821C563.628 337.012 570.316 319.38 579.741 300.227C589.165 280.771 597.373 263.138 604.365 247.634C611.358 231.825 614.702 218.145 614.702 206.288C614.702 197.776 608.013 193.216 601.021 193.216C586.125 193.216 576.093 207.808 570.316 233.041C567.58 245.506 565.452 257.97 563.932 270.738C562.412 283.507 560.284 297.795 558.156 313.908C556.028 330.02 553.9 342.789 551.468 352.821H559.676ZM558.764 401.158C558.764 391.43 551.468 383.526 542.651 383.526C533.227 383.526 526.235 392.038 526.235 401.766C526.235 411.191 533.227 418.487 542.043 418.487C551.468 418.487 558.764 410.583 558.764 401.158Z" fill="#FEFF8B"/>
<path d="M203.359 388.647L218.51 387.418L218.5 387.306L218.49 387.193L203.359 388.647ZM184.469 192L199.6 190.547L198.279 176.8H184.469V192ZM169.269 192V176.8H160.602L156.187 184.258L169.269 192ZM54.6571 385.654L41.5759 377.912L41.5471 377.961L41.5186 378.01L54.6571 385.654ZM22.1281 407.239V392.038H10.2599L7.38145 403.552L22.1281 407.239ZM20 415.751L5.25338 412.064L0.531597 430.951H20V415.751ZM77.1538 415.751V430.951H89.0219L91.9004 419.438L77.1538 415.751ZM79.2818 407.239L94.0285 410.925L98.7502 392.038H79.2818V407.239ZM63.7774 385.958L50.7177 378.18L50.6293 378.328L50.5444 378.478L63.7774 385.958ZM88.4021 344.613V329.412H79.7631L75.3425 336.835L88.4021 344.613ZM165.62 344.613L180.773 343.409L179.661 329.412H165.62V344.613ZM169.269 390.518H184.469V389.915L184.421 389.314L169.269 390.518ZM143.124 407.239V392.038H131.29L128.388 403.511L143.124 407.239ZM140.168 418.925L125.431 415.197L120.652 434.091L140.141 434.125L140.168 418.925ZM222.47 407.239L232.274 395.622L228.027 392.038H222.47V407.239ZM93.8743 335.492L80.8198 327.706L67.1081 350.693H93.8743V335.492ZM155.892 231.521L171.042 230.281L167.167 182.948L142.838 223.734L155.892 231.521ZM164.404 335.492V350.693H180.9L179.554 334.252L164.404 335.492ZM245.943 381.094H261.144H245.943ZM262.056 409.063L272.562 420.047L272.685 419.93L272.804 419.811L262.056 409.063ZM286.984 375.622L274.063 367.615L274.029 367.671L273.995 367.726L286.984 375.622ZM379.099 226.961L366.209 218.905L366.194 218.93L366.178 218.955L379.099 226.961ZM414.668 204.768V219.969H426.134L429.284 208.944L414.668 204.768ZM417.1 196.256L431.716 200.432L437.252 181.056H417.1V196.256ZM359.339 196.256V181.056H347.873L344.723 192.08L359.339 196.256ZM356.906 204.768L342.291 200.592L336.755 219.969H356.906V204.768ZM372.715 218.753L359.891 210.592L359.79 210.751L359.693 210.912L372.715 218.753ZM301.881 336.404L286.994 339.476L294.851 377.551L314.903 344.245L301.881 336.404ZM278.168 221.489L293.055 218.417L293.019 218.244L292.979 218.071L278.168 221.489ZM304.009 204.768V219.969H315.475L318.625 208.944L304.009 204.768ZM306.441 196.256L321.057 200.432L326.593 181.056H306.441V196.256ZM219.494 196.256V181.056H208.029L204.879 192.08L219.494 196.256ZM217.062 204.768L202.447 200.593L196.91 219.969H217.062V204.768ZM242.903 221.793L228.056 225.052L228.075 225.139L228.095 225.226L242.903 221.793ZM277.864 372.582L291.203 379.871L293.98 374.79L292.672 369.148L277.864 372.582ZM218.582 398.726L223.389 384.306L199.438 376.322L203.589 401.225L218.582 398.726ZM492.606 196.256V181.056H481.141L477.991 192.08L492.606 196.256ZM490.174 204.768L475.559 200.593L470.023 219.969H490.174V204.768ZM508.719 221.793L523.405 225.713L523.458 225.514L523.506 225.314L508.719 221.793ZM487.134 302.659L492.128 317.016L499.742 314.368L501.82 306.579L487.134 302.659ZM415.692 268.914L401.021 264.939L401.017 264.951L401.014 264.963L415.692 268.914ZM428.46 221.793L443.132 225.768L443.161 225.661L443.188 225.553L428.46 221.793ZM456.125 204.768V219.969H467.591L470.741 208.944L456.125 204.768ZM458.557 196.256L473.173 200.432L478.709 181.056H458.557V196.256ZM378.299 196.256V181.056H366.833L363.683 192.08L378.299 196.256ZM375.867 204.768L361.251 200.593L355.715 219.969H375.867V204.768ZM394.411 221.793L409.106 225.68L409.168 225.446L409.223 225.211L394.411 221.793ZM381.947 268.914L396.634 272.831L396.638 272.816L396.642 272.801L381.947 268.914ZM484.398 311.172L499.094 315.057L506.95 285.339L478.565 297.135L484.398 311.172ZM463.421 390.518L478.109 394.435L478.113 394.419L478.117 394.403L463.421 390.518ZM429.676 407.239V392.038H418.211L415.061 403.063L429.676 407.239ZM427.244 415.751L412.629 411.575L407.093 430.951H427.244V415.751ZM516.015 415.751V430.951H527.481L530.631 419.927L516.015 415.751ZM518.447 407.239L533.063 411.415L538.599 392.038H518.447V407.239ZM497.166 390.518L511.782 394.694L511.816 394.577L511.847 394.459L497.166 390.518ZM542.464 221.793L557.144 225.734L557.148 225.722L557.151 225.71L542.464 221.793ZM573.169 204.768V219.969H584.634L587.784 208.944L573.169 204.768ZM575.601 196.256L590.216 200.432L595.753 181.056H575.601V196.256ZM559.676 352.821V368.021H571.544L574.423 356.508L559.676 352.821ZM579.741 300.227L593.379 306.938L593.4 306.896L593.421 306.854L579.741 300.227ZM604.365 247.634L618.222 253.883L618.245 253.833L618.267 253.782L604.365 247.634ZM570.316 233.041L555.499 229.649L555.484 229.716L555.469 229.782L570.316 233.041ZM563.932 270.738L579.026 272.535V272.535L563.932 270.738ZM551.468 352.821L536.695 349.24L532.142 368.021H551.468V352.821ZM217.91 392.038C217.873 392.038 218.303 392.046 218.914 392.355C219.515 392.66 219.81 393.013 219.848 393.064C219.85 393.067 219.583 392.701 219.27 391.713C218.959 390.73 218.664 389.317 218.51 387.418L188.208 389.875C188.793 397.087 190.733 404.887 195.493 411.258C200.726 418.264 208.612 422.439 217.91 422.439V392.038ZM218.49 387.193L199.6 190.547L169.338 193.453L188.228 390.1L218.49 387.193ZM184.469 176.8H169.269V207.2H184.469V176.8ZM156.187 184.258L41.5759 377.912L67.7382 393.396L182.35 199.742L156.187 184.258ZM41.5186 378.01C36.8868 385.971 34.0178 389.18 32.1479 390.594C31.0383 391.434 29.8748 392.038 26.3842 392.038V422.439C34.75 422.439 42.8587 420.612 50.4895 414.839C57.3598 409.641 62.6991 402.058 67.7956 393.298L41.5186 378.01ZM26.3842 392.038H22.1281V422.439H26.3842V392.038ZM7.38145 403.552L5.25338 412.064L34.7466 419.438L36.8747 410.925L7.38145 403.552ZM20 430.951H77.1538V400.55H20V430.951ZM91.9004 419.438L94.0285 410.925L64.5352 403.552L62.4071 412.064L91.9004 419.438ZM79.2818 392.038H66.2094V422.439H79.2818V392.038ZM66.2094 392.038C64.7491 392.038 66.4038 391.692 68.7474 393.402C70.0753 394.371 71.2572 395.752 72.029 397.433C72.7643 399.035 72.8976 400.401 72.8976 401.158H42.4967C42.4967 407.049 44.7976 413.56 50.827 417.959C55.9827 421.722 61.8936 422.439 66.2094 422.439V392.038ZM72.8976 401.158C72.8976 402.407 72.5753 402.512 73.324 400.682C73.9929 399.047 75.1517 396.726 77.0103 393.437L50.5444 378.478C48.4509 382.182 46.5696 385.79 45.1865 389.171C43.883 392.357 42.4967 396.566 42.4967 401.158H72.8976ZM76.837 393.736L101.462 352.391L75.3425 336.835L50.7177 378.18L76.837 393.736ZM88.4021 359.813H165.62V329.412H88.4021V359.813ZM150.468 345.817L154.116 391.722L184.421 389.314L180.773 343.409L150.468 345.817ZM154.068 390.518C154.068 391.258 154.108 392.09 154.136 392.631C154.168 393.267 154.21 393.969 154.248 394.592C154.288 395.248 154.322 395.806 154.348 396.27C154.381 396.881 154.372 396.866 154.372 396.598H184.773C184.773 395.875 184.726 395.023 184.703 394.599C184.671 394.027 184.629 393.351 184.593 392.753C184.555 392.121 184.521 391.55 184.497 391.074C184.467 390.504 184.469 390.386 184.469 390.518H154.068ZM154.372 396.598C154.372 397.74 154.24 397.709 154.453 397.051C154.731 396.189 155.449 394.741 156.925 393.472C158.302 392.288 159.512 391.973 159.671 391.936C159.746 391.918 159.234 392.038 157.716 392.038V422.439C162.502 422.439 170.408 421.974 176.748 416.521C183.738 410.51 184.773 402.173 184.773 396.598H154.372ZM157.716 392.038H143.124V422.439H157.716V392.038ZM128.388 403.511L125.431 415.197L154.904 422.653L157.86 410.966L128.388 403.511ZM140.141 434.125L236.492 434.295L236.546 403.895L140.194 403.724L140.141 434.125ZM246.323 407.479L232.274 395.622L212.667 418.855L226.715 430.711L246.323 407.479ZM222.47 392.038H217.91V422.439H222.47V392.038ZM106.929 343.279L168.947 239.308L142.838 223.734L80.8198 327.706L106.929 343.279ZM140.742 232.762L149.255 336.733L179.554 334.252L171.042 230.281L140.742 232.762ZM164.404 320.292H93.8743V350.693H164.404V320.292ZM225.878 415.447C235.696 415.447 244.724 412.018 251.333 405.409C257.887 398.855 261.144 390.085 261.144 381.094H230.743C230.743 382.743 230.199 383.55 229.837 383.912C229.53 384.219 228.525 385.046 225.878 385.046V415.447ZM261.144 381.094C261.144 367.952 253.899 358.841 245.753 353.686C238.139 348.868 229.268 347.032 222.239 347.032V377.433C223.27 377.433 224.633 377.583 226.061 377.958C227.491 378.333 228.664 378.848 229.497 379.376C230.313 379.892 230.576 380.27 230.626 380.351C230.65 380.39 230.665 380.42 230.68 380.476C230.696 380.532 230.743 380.719 230.743 381.094H261.144ZM222.239 347.032C210.641 347.032 201.685 353.46 196.185 360.55C190.704 367.614 187.385 376.789 187.385 385.939H217.786C217.786 383.841 218.67 381.163 220.204 379.185C220.913 378.272 221.544 377.791 221.921 377.577C222.098 377.477 222.201 377.445 222.231 377.436C222.247 377.432 222.252 377.432 222.248 377.432C222.246 377.432 222.244 377.433 222.242 377.433C222.24 377.433 222.239 377.433 222.239 377.433V347.032ZM187.385 385.939C187.385 411.218 207.317 434.295 236.519 434.295V403.895C224.983 403.895 217.786 395.318 217.786 385.939H187.385ZM236.519 434.295C250.306 434.295 262.628 429.55 272.562 420.047L251.549 398.078C247.499 401.952 242.796 403.895 236.519 403.895V434.295ZM272.804 419.811C280.92 411.695 290.15 399.679 299.973 383.517L273.995 367.726C264.97 382.574 257.176 392.446 251.307 398.314L272.804 419.811ZM299.905 383.628L392.02 234.967L366.178 218.955L274.063 367.615L299.905 383.628ZM391.989 235.017C397.205 226.672 400.385 222.803 402.498 220.975C403.382 220.21 403.795 220.062 403.82 220.052C403.852 220.04 403.895 220.026 403.982 220.011C404.077 219.995 404.28 219.969 404.636 219.969V189.568C396.439 189.568 389.216 192.266 382.605 197.986C376.814 202.998 371.634 210.226 366.209 218.905L391.989 235.017ZM404.636 219.969H414.668V189.568H404.636V219.969ZM429.284 208.944L431.716 200.432L402.485 192.08L400.053 200.593L429.284 208.944ZM417.1 181.056H359.339V211.457H417.1V181.056ZM344.723 192.08L342.291 200.592L371.522 208.944L373.954 200.432L344.723 192.08ZM356.906 219.969H369.979V189.568H356.906V219.969ZM369.979 219.969C369.899 219.969 366.982 219.976 364.058 217.285C360.895 214.375 360.555 210.963 360.555 209.937H390.956C390.956 205.566 389.704 199.57 384.641 194.912C379.816 190.473 374.011 189.568 369.979 189.568V219.969ZM360.555 209.937C360.555 209.278 360.672 209.017 360.613 209.196C360.558 209.361 360.371 209.838 359.891 210.592L385.539 226.914C388.756 221.859 390.956 216.016 390.956 209.937H360.555ZM359.693 210.912L288.858 328.564L314.903 344.245L385.737 226.593L359.693 210.912ZM316.768 333.333L293.055 218.417L263.281 224.561L286.994 339.476L316.768 333.333ZM292.979 218.071C292.592 216.394 292.349 215.104 292.212 214.278C292.142 213.86 292.105 213.594 292.09 213.48C292.082 213.418 292.086 213.443 292.095 213.535C292.1 213.58 292.11 213.687 292.12 213.836C292.126 213.924 292.152 214.301 292.152 214.801H261.752C261.752 216.459 262.09 218.467 262.224 219.276C262.467 220.729 262.832 222.632 263.357 224.907L292.979 218.071ZM292.152 214.801C292.152 214.846 292.143 215.586 291.66 216.658C291.141 217.81 290.321 218.791 289.421 219.462C288.604 220.071 288.056 220.18 288.216 220.14C288.389 220.096 289.038 219.969 290.328 219.969V189.568C284.42 189.568 277.248 190.616 271.247 195.091C264.435 200.172 261.752 207.638 261.752 214.801H292.152ZM290.328 219.969H304.009V189.568H290.328V219.969ZM318.625 208.944L321.057 200.432L291.825 192.08L289.393 200.593L318.625 208.944ZM306.441 181.056H219.494V211.457H306.441V181.056ZM204.879 192.08L202.447 200.593L231.678 208.944L234.11 200.432L204.879 192.08ZM217.062 219.969H225.878V189.568H217.062V219.969ZM225.878 219.969C227.049 219.969 227.379 220.116 227.222 220.062C226.953 219.97 226.54 219.74 226.226 219.43C225.981 219.188 226.165 219.258 226.569 220.149C226.988 221.074 227.52 222.611 228.056 225.052L257.75 218.534C256.155 211.27 253.428 203.559 247.572 197.783C241.119 191.42 233.165 189.568 225.878 189.568V219.969ZM228.095 225.226L263.056 376.015L292.672 369.148L257.711 218.36L228.095 225.226ZM264.526 365.292C257.753 377.685 251.64 385.984 246.386 391.005C241.114 396.042 237.996 396.598 236.823 396.598V426.999C248.722 426.999 258.98 421.019 267.389 412.984C275.815 404.932 283.687 393.623 291.203 379.871L264.526 365.292ZM236.823 396.598C234.266 396.598 233.409 395.93 233.407 395.928C233.38 395.907 233.436 395.947 233.501 396.056C233.563 396.16 233.577 396.233 233.576 396.227L203.589 401.225C206.236 417.11 220.105 426.999 236.823 426.999V396.598ZM213.775 413.147C216.823 414.163 221.186 415.447 225.878 415.447V385.046C226.22 385.046 226.213 385.09 225.707 384.979C225.208 384.87 224.473 384.667 223.389 384.306L213.775 413.147ZM477.991 192.08L475.559 200.593L504.79 208.944L507.222 200.432L477.991 192.08ZM490.174 219.969H502.335V189.568H490.174V219.969ZM502.335 219.969C503.517 219.969 502.497 220.172 500.722 219.312C499.693 218.813 498.52 218.01 497.47 216.812C496.426 215.622 495.815 214.399 495.48 213.422C494.911 211.763 495.195 210.98 495.069 212.305C494.959 213.455 494.636 215.316 493.932 218.272L523.506 225.314C524.322 221.886 525.024 218.427 525.333 215.187C525.625 212.123 525.719 207.882 524.238 203.563C522.502 198.501 518.956 194.366 513.98 191.954C509.735 189.897 505.409 189.568 502.335 189.568V219.969ZM494.032 217.873L472.448 298.739L501.82 306.579L523.405 225.713L494.032 217.873ZM482.14 288.303C461.149 295.604 448.126 298.403 441.837 298.403V328.804C453.789 328.804 471.166 324.307 492.128 317.016L482.14 288.303ZM441.837 298.403C433.294 298.403 430.029 296.826 429.064 296.083C428.978 296.017 427.548 295.294 427.548 289.891H397.147C397.147 301.513 400.733 312.645 410.528 320.18C419.443 327.038 430.923 328.804 441.837 328.804V298.403ZM427.548 289.891C427.548 285.691 428.41 280.144 430.37 272.866L401.014 264.963C398.717 273.493 397.147 281.931 397.147 289.891H427.548ZM430.363 272.89L443.132 225.768L413.789 217.817L401.021 264.939L430.363 272.89ZM443.188 225.553C443.975 222.473 444.652 220.601 445.164 219.495C445.661 218.422 445.797 218.524 445.305 218.987C444.683 219.573 443.941 219.921 443.5 220.046C443.291 220.105 443.645 219.969 445.181 219.969V189.568C439.406 189.568 431.311 190.404 424.46 196.858C418.482 202.489 415.667 210.453 413.732 218.033L443.188 225.553ZM445.181 219.969H456.125V189.568H445.181V219.969ZM470.741 208.944L473.173 200.432L443.942 192.08L441.51 200.593L470.741 208.944ZM458.557 181.056H378.299V211.457H458.557V181.056ZM363.683 192.08L361.251 200.593L390.482 208.944L392.914 200.432L363.683 192.08ZM375.867 219.969H387.115V189.568H375.867V219.969ZM387.115 219.969C388.208 219.969 386.489 220.249 384.231 218.454C383.015 217.488 382.029 216.202 381.41 214.769C380.822 213.405 380.731 212.299 380.731 211.761H411.132C411.132 205.834 408.966 199.28 403.148 194.655C397.925 190.504 391.798 189.568 387.115 189.568V219.969ZM380.731 211.761C380.731 212.618 380.496 214.491 379.6 218.375L409.223 225.211C410.15 221.191 411.132 216.376 411.132 211.761H380.731ZM379.716 217.906L367.252 265.027L396.642 272.801L409.106 225.68L379.716 217.906ZM367.26 264.998C364.642 274.812 363.098 283.821 363.098 292.019H393.499C393.499 287.449 394.387 281.257 396.634 272.831L367.26 264.998ZM363.098 292.019C363.098 307.916 368.635 321.554 381.194 330.427C392.669 338.533 407.745 340.965 423.292 340.965V310.564C409.958 310.564 402.537 308.283 398.736 305.597C396.019 303.678 393.499 300.442 393.499 292.019H363.098ZM423.292 340.965C443.325 340.965 465.756 335.38 490.231 325.208L478.565 297.135C456.222 306.42 437.917 310.564 423.292 310.564V340.965ZM469.702 307.287L448.726 386.633L478.117 394.403L499.094 315.057L469.702 307.287ZM448.734 386.602C447.97 389.468 447.302 391.211 446.802 392.234C446.322 393.217 446.173 393.172 446.583 392.797C447.095 392.328 447.699 392.046 448.04 391.948C448.195 391.903 447.818 392.038 446.397 392.038V422.439C452.448 422.439 460.348 421.412 467.111 415.22C473.144 409.697 476.108 401.939 478.109 394.435L448.734 386.602ZM446.397 392.038H429.676V422.439H446.397V392.038ZM415.061 403.063L412.629 411.575L441.86 419.927L444.292 411.415L415.061 403.063ZM427.244 430.951H516.015V400.55H427.244V430.951ZM530.631 419.927L533.063 411.415L503.831 403.063L501.399 411.575L530.631 419.927ZM518.447 392.038H504.463V422.439H518.447V392.038ZM504.463 392.038C503.066 392.038 504.687 391.696 506.934 393.438C508.169 394.395 509.194 395.695 509.84 397.174C510.453 398.575 510.543 399.71 510.543 400.246H480.142C480.142 406.198 482.333 412.834 488.311 417.467C493.598 421.565 499.779 422.439 504.463 422.439V392.038ZM510.543 400.246C510.543 400.469 510.529 400.108 510.742 398.961C510.94 397.901 511.273 396.477 511.782 394.694L482.551 386.342C481.239 390.934 480.142 395.936 480.142 400.246H510.543ZM511.847 394.459L557.144 225.734L527.783 217.852L482.486 386.577L511.847 394.459ZM557.151 225.71C557.933 222.778 558.609 220.943 559.137 219.818C559.652 218.72 559.841 218.701 559.475 219.056C558.99 219.527 558.351 219.873 557.878 220.02C557.597 220.107 557.855 219.969 559.184 219.969V189.568C552.845 189.568 544.935 190.8 538.297 197.245C532.55 202.825 529.731 210.546 527.777 217.876L557.151 225.71ZM559.184 219.969H573.169V189.568H559.184V219.969ZM587.784 208.944L590.216 200.432L560.985 192.08L558.553 200.593L587.784 208.944ZM575.601 181.056L492.606 181.056V211.457H575.601V181.056ZM574.423 356.508C578.054 341.982 584.308 325.374 593.379 306.938L566.102 293.516C556.325 313.386 549.202 332.042 544.929 349.134L574.423 356.508ZM593.421 306.854C602.906 287.272 611.173 269.513 618.222 253.883L590.509 241.385C583.573 256.763 575.424 274.27 566.06 293.601L593.421 306.854ZM618.267 253.782C625.794 236.765 629.902 220.935 629.902 206.288H599.501C599.501 215.354 596.922 226.885 590.464 241.485L618.267 253.782ZM629.902 206.288C629.902 197.691 626.366 190.204 620.432 185.068C614.778 180.172 607.686 178.016 601.021 178.016V208.417C601.348 208.417 601.097 208.54 600.535 208.053C600.22 207.78 599.912 207.391 599.702 206.929C599.49 206.462 599.501 206.188 599.501 206.288H629.902ZM601.021 178.016C587.722 178.016 577.34 184.859 570.08 194.557C563.168 203.79 558.603 216.091 555.499 229.649L585.134 236.433C587.806 224.759 591.145 217.147 594.417 212.776C597.342 208.869 599.424 208.417 601.021 208.417V178.016ZM555.469 229.782C552.631 242.713 550.419 255.666 548.838 268.942L579.026 272.535C580.486 260.274 582.53 248.298 585.163 236.3L555.469 229.782ZM548.838 268.942C547.328 281.627 545.266 295.414 543.086 311.917L573.226 315.898C575.302 300.177 577.496 285.387 579.026 272.535L548.838 268.942ZM543.086 311.917C540.981 327.855 538.936 339.995 536.695 349.24L566.24 356.402C568.863 345.582 571.074 332.186 573.226 315.898L543.086 311.917ZM551.468 368.021H559.676V337.62H551.468V368.021ZM573.964 401.158C573.964 384.307 561.081 368.325 542.651 368.325V398.726C542.362 398.726 542.453 398.577 542.809 398.965C543.173 399.363 543.563 400.11 543.563 401.158H573.964ZM542.651 368.325C522.989 368.325 511.034 385.613 511.034 401.766H541.435C541.435 400.486 541.911 399.508 542.349 399.008C542.547 398.78 542.679 398.716 542.684 398.714C542.687 398.712 542.674 398.718 542.652 398.723C542.628 398.729 542.624 398.726 542.651 398.726V368.325ZM511.034 401.766C511.034 418.832 524.098 433.687 542.043 433.687V403.287C541.993 403.287 541.969 403.282 541.965 403.281C541.96 403.28 541.96 403.279 541.959 403.279C541.959 403.279 541.95 403.275 541.934 403.264C541.918 403.252 541.891 403.231 541.857 403.195C541.744 403.076 541.435 402.665 541.435 401.766H511.034ZM542.043 433.687C560.562 433.687 573.964 418.261 573.964 401.158H543.563C543.563 401.923 543.272 402.515 542.927 402.877C542.622 403.198 542.35 403.287 542.043 403.287V433.687Z" fill="#3C65F7" mask="url(#path-2-outside-1_1798_5090)"/>
<defs>
<filter id="filter0_f_1798_5090" x="396.117" y="0.116211" width="388.785" height="388.782" filterUnits="userSpaceOnUse" color-interpolation-filters="sRGB">
<feFlood flood-opacity="0" result="BackgroundImageFix"/>
<feBlend mode="normal" in="SourceGraphic" in2="BackgroundImageFix" result="shape"/>
<feGaussianBlur stdDeviation="17" result="effect1_foregroundBlur_1798_5090"/>
</filter>
</defs>
</svg>
