<svg width="20" height="20" viewBox="0 0 20 20" fill="none" xmlns="http://www.w3.org/2000/svg">
<rect width="20" height="20" rx="10" fill="#3C65F7"/>
<path d="M9.84248 3.53679C7.93451 3.53679 6.3678 5.1035 6.3678 7.01147C6.3678 8.91945 7.93451 10.4862 9.84248 10.4862C11.7505 10.4862 13.3172 8.91945 13.3172 7.01147C13.3172 5.1035 11.7505 3.53679 9.84248 3.53679ZM9.84248 5.52232C10.6762 5.52232 11.3316 6.1777 11.3316 7.01147C11.3316 7.84524 10.6762 8.50062 9.84248 8.50062C9.00871 8.50062 8.35333 7.84524 8.35333 7.01147C8.35333 6.1777 9.00871 5.52232 9.84248 5.52232ZM7.3373 10.8623C6.87969 10.8662 6.48414 11.1842 6.37943 11.634C6.2786 12.08 6.49577 12.5376 6.90296 12.7431C7.24034 12.9177 7.601 13.0534 7.97329 13.1697L6.60048 14.814C6.36004 15.0855 6.29024 15.4655 6.41045 15.8029C6.53067 16.1441 6.8254 16.3885 7.18218 16.4505C7.53895 16.5087 7.8996 16.3691 8.12065 16.086L9.84248 14.0229L11.5643 16.086C11.7854 16.3691 12.146 16.5087 12.5028 16.4505C12.8596 16.3885 13.1543 16.1441 13.2745 15.8029C13.3947 15.4655 13.3249 15.0855 13.0845 14.814L11.7117 13.1697C12.084 13.0534 12.4446 12.9177 12.7781 12.7431C13.2667 12.4911 13.4568 11.8939 13.2047 11.4052C12.9565 10.9166 12.3554 10.7266 11.8668 10.9787C11.2502 11.2967 10.5715 11.4789 9.84248 11.4789C9.11342 11.4789 8.43477 11.2967 7.81817 10.9787C7.6708 10.9011 7.50405 10.8584 7.3373 10.8623Z" fill="#EFEFEF"/>
</svg>
