<svg width="90" height="90" viewBox="0 0 90 90" fill="none" xmlns="http://www.w3.org/2000/svg">
<rect x="0.204102" y="0.306122" width="89.3878" height="89.3878" rx="44.6939" fill="#3C65F7"/>
<path d="M44.1942 16.1133C35.6667 16.1133 28.6645 23.1156 28.6645 31.643C28.6645 40.1705 35.6667 47.1728 44.1942 47.1728C52.7217 47.1728 59.7239 40.1705 59.7239 31.643C59.7239 23.1156 52.7217 16.1133 44.1942 16.1133ZM44.1942 24.9875C47.9207 24.9875 50.8498 27.9166 50.8498 31.643C50.8498 35.3695 47.9207 38.2986 44.1942 38.2986C40.4678 38.2986 37.5386 35.3695 37.5386 31.643C37.5386 27.9166 40.4678 24.9875 44.1942 24.9875ZM32.9976 48.854C30.9524 48.8713 29.1845 50.2926 28.7165 52.3031C28.2659 54.2963 29.2365 56.3415 31.0564 57.2601C32.5643 58.0401 34.1762 58.6467 35.8401 59.1667L29.7044 66.5156C28.6298 67.7288 28.3179 69.4274 28.8552 70.9353C29.3925 72.4605 30.7097 73.5525 32.3043 73.8298C33.8989 74.0898 35.5108 73.4658 36.4987 72.2005L44.1942 62.9798L51.8897 72.2005C52.8777 73.4658 54.4896 74.0898 56.0842 73.8298C57.6787 73.5525 58.996 72.4605 59.5333 70.9353C60.0706 69.4274 59.7586 67.7288 58.684 66.5156L52.5484 59.1667C54.2123 58.6467 55.8242 58.0401 57.3147 57.2601C59.4986 56.1335 60.3479 53.4644 59.2213 51.2805C58.112 49.0966 55.4255 48.2474 53.2417 49.374C50.4858 50.7952 47.4527 51.6098 44.1942 51.6098C40.9358 51.6098 37.9026 50.7952 35.1468 49.374C34.4881 49.0273 33.7429 48.8367 32.9976 48.854Z" fill="#EFEFEF"/>
</svg>
