<svg width="261" height="150" viewBox="0 0 261 150" fill="none" xmlns="http://www.w3.org/2000/svg">
<rect x="20.1816" y="31.0431" width="178.264" height="52" rx="26" transform="rotate(22.8369 20.1816 31.0431)" fill="#F7F2EC"/>
<rect x="66.2627" y="12.4189" width="112.264" height="52" rx="26" transform="rotate(-6.35121 66.2627 12.4189)" fill="#F7F2EC"/>
<path d="M30.1931 58.5631L31.3309 55.8611L44.9038 61.5769L43.7659 64.2789L38.519 62.0693L32.8826 75.4536L29.8245 74.1658L35.4609 60.7815L30.1931 58.5631ZM46.3581 75.9621L58.3745 67.2496L61.7468 68.6698L54.9725 84.7561L51.904 83.4639L56.8347 71.7552L44.8453 80.4913L41.4416 79.058L48.2158 62.9716L51.2844 64.2639L46.3581 75.9621ZM69.8421 86.4558L80.1791 76.4319L82.8811 77.5698L69.3728 90.8203L67.0478 89.8412L67.2241 70.9764L69.8947 72.101L69.8421 86.4558ZM69.0255 71.7349L62.2512 87.8213L59.1826 86.5291L65.9569 70.4427L69.0255 71.7349ZM74.2531 92.8755L81.0274 76.7892L84.075 78.0726L77.3007 94.1589L74.2531 92.8755ZM88.1134 99.0946C86.6053 98.4595 85.4348 97.5597 84.6018 96.3951C83.7687 95.2305 83.3032 93.896 83.2052 92.3915C83.1072 90.887 83.408 89.304 84.1078 87.6423C84.8105 85.9736 85.7357 84.6452 86.8834 83.6571C88.0311 82.669 89.3125 82.0661 90.7277 81.8482C92.1429 81.6304 93.6045 81.839 95.1126 82.4741C96.6207 83.1092 97.7912 84.009 98.6243 85.1736C99.4573 86.3382 99.9213 87.6762 100.016 89.1877C100.111 90.6991 99.8077 92.2892 99.105 93.9579C98.4052 95.6196 97.4829 96.941 96.3382 97.9221C95.1934 98.9032 93.9135 99.5026 92.4983 99.7205C91.0831 99.9383 89.6215 99.7297 88.1134 99.0946ZM89.2309 96.4703C90.2083 96.8819 91.127 96.9647 91.9869 96.7185C92.8469 96.4723 93.6112 95.9846 94.2801 95.2552C94.9559 94.5287 95.5114 93.6488 95.9466 92.6155C96.3788 91.5891 96.6186 90.5804 96.6661 89.5893C96.7235 88.5942 96.5412 87.6996 96.1194 86.9054C95.6976 86.1113 94.998 85.5084 94.0205 85.0968C93.036 84.6822 92.1089 84.6 91.2391 84.8502C90.3762 85.1033 89.6054 85.5966 88.9266 86.3301C88.2578 87.0595 87.7072 87.9374 87.275 88.9637C86.8399 89.997 86.5951 91.0078 86.5406 91.9959C86.4932 92.987 86.6818 93.8761 87.1066 94.6633C87.5383 95.4534 88.2464 96.0557 89.2309 96.4703ZM103.86 111.792L115.199 84.8664L118.33 86.1851L106.991 113.111L103.86 111.792ZM106.03 106.64C104.892 106.16 103.937 105.528 103.166 104.743C102.398 103.951 101.83 103.046 101.462 102.028C101.093 101.01 100.938 99.9128 100.998 98.7376C101.064 97.5653 101.357 96.3613 101.878 95.1255C102.404 93.8757 103.063 92.8176 103.856 91.9511C104.655 91.0876 105.548 90.4319 106.534 89.984C107.52 89.5361 108.564 89.3102 109.667 89.3062C110.77 89.3022 111.891 89.5398 113.029 90.0191L113.804 90.3455L106.805 106.966L106.03 106.64ZM107.141 104L107.581 104.186L112.358 92.8435L111.918 92.6583C111.164 92.3407 110.443 92.2179 109.755 92.2899C109.07 92.3549 108.43 92.5748 107.837 92.9496C107.246 93.3174 106.713 93.8038 106.236 94.4086C105.767 95.0164 105.371 95.7008 105.051 96.4618C104.622 97.4812 104.39 98.4893 104.357 99.4863C104.326 100.476 104.532 101.373 104.975 102.176C105.421 102.972 106.143 103.58 107.141 104ZM109.161 107.958L108.376 107.627L115.375 91.007L116.16 91.3378C117.299 91.817 118.252 92.4526 119.02 93.2446C119.788 94.0366 120.352 94.9402 120.714 95.9556C121.082 96.9739 121.234 98.0692 121.167 99.2414C121.108 100.417 120.815 101.629 120.289 102.879C119.769 104.115 119.109 105.164 118.309 106.028C117.517 106.894 116.628 107.551 115.642 107.999C114.663 108.45 113.622 108.678 112.519 108.682C111.418 108.679 110.299 108.437 109.161 107.958ZM110.273 105.319C111.027 105.637 111.745 105.766 112.427 105.708C113.112 105.643 113.75 105.427 114.34 105.059C114.934 104.684 115.464 104.197 115.93 103.596C116.4 102.988 116.795 102.304 117.116 101.543C117.542 100.53 117.772 99.5255 117.805 98.5285C117.849 97.5275 117.649 96.6255 117.206 95.8225C116.767 95.0126 116.047 94.3974 115.049 93.9769L114.599 93.7873L109.822 105.129L110.273 105.319ZM127.209 115.558C125.624 114.891 124.401 113.977 123.542 112.818C122.692 111.655 122.216 110.324 122.115 108.827C122.024 107.325 122.33 105.74 123.033 104.071C123.727 102.424 124.645 101.101 125.789 100.103C126.94 99.1076 128.219 98.4912 129.626 98.2536C131.04 98.0188 132.494 98.216 133.988 98.8453C134.896 99.2275 135.712 99.7481 136.437 100.407C137.163 101.066 137.729 101.859 138.136 102.787C138.542 103.714 138.725 104.773 138.684 105.964C138.646 107.149 138.319 108.47 137.705 109.929L137.237 111.039L124.45 105.654L125.438 103.309L135.157 107.401C135.504 106.577 135.643 105.777 135.576 105.001C135.511 104.217 135.253 103.513 134.801 102.887C134.357 102.264 133.729 101.782 132.92 101.441C132.04 101.07 131.181 100.963 130.342 101.12C129.513 101.272 128.775 101.619 128.128 102.16C127.491 102.698 127.003 103.368 126.665 104.171L125.893 106.003C125.441 107.079 125.244 108.073 125.303 108.986C125.37 109.901 125.662 110.702 126.178 111.388C126.698 112.067 127.415 112.6 128.329 112.985C128.923 113.235 129.499 113.379 130.059 113.417C130.621 113.448 131.152 113.368 131.652 113.176C132.152 112.984 132.603 112.676 133.003 112.252L135.742 114.035C135.137 114.807 134.389 115.393 133.498 115.79C132.617 116.184 131.64 116.368 130.565 116.343C129.5 116.314 128.382 116.052 127.209 115.558ZM142.638 116.507L154.654 107.795L158.027 109.215L151.252 125.301L148.184 124.009L153.115 112.3L141.125 121.037L137.721 119.603L144.496 103.517L147.564 104.809L142.638 116.507ZM155.607 101.784L158.184 102.869C157.687 104.049 156.863 104.833 155.714 105.22C154.574 105.603 153.296 105.497 151.879 104.9C150.468 104.306 149.502 103.467 148.98 102.384C148.461 101.294 148.45 100.159 148.946 98.9795L151.512 100.06C151.292 100.584 151.25 101.113 151.387 101.647C151.526 102.174 151.969 102.595 152.717 102.91C153.45 103.219 154.057 103.24 154.539 102.974C155.028 102.712 155.384 102.315 155.607 101.784Z" fill="#F7F2EC"/>
<path d="M89.616 51.1071L88.7335 43.1788L90.1453 43.0216C90.4698 42.6501 90.7307 42.2209 90.9281 41.7339C91.133 41.2462 91.2868 40.6764 91.3896 40.0247C91.4999 39.3721 91.5683 38.6175 91.5949 37.7608C91.6207 36.8966 91.618 35.9136 91.5868 34.8118L91.4086 28.28L103.199 26.9676L104.805 41.3899L107.47 41.0933L108.353 49.0216L105.055 49.3886L104.498 44.3855L92.4021 45.7318L92.959 50.735L89.616 51.1071ZM93.7593 42.6194L101.507 41.757L100.223 30.2259L94.7572 30.8344L94.7943 34.4548C94.8239 36.2961 94.7816 37.9016 94.6672 39.2711C94.552 40.6331 94.2494 41.7492 93.7593 42.6194ZM116.187 43.4731C115.088 43.5954 114.072 43.5028 113.138 43.1951C112.203 42.8799 111.433 42.3596 110.826 41.6344C110.227 40.9084 109.864 39.9769 109.738 38.84C109.629 37.8612 109.727 37.0346 110.033 36.3602C110.339 35.6859 110.792 35.1286 111.391 34.6884C111.99 34.2483 112.674 33.8901 113.444 33.6138C114.213 33.3376 115.003 33.1049 115.813 32.9156C116.838 32.6795 117.671 32.4878 118.31 32.3404C118.948 32.1855 119.404 32.0014 119.678 31.788C119.951 31.5746 120.065 31.2646 120.02 30.8581L120.011 30.779C119.901 29.7927 119.538 29.0595 118.92 28.5794C118.31 28.0984 117.459 27.9187 116.368 28.0402C115.231 28.1668 114.363 28.5187 113.764 29.0961C113.172 29.6651 112.785 30.2684 112.605 30.9059L109.351 30.5363C109.61 29.4403 110.065 28.5284 110.716 27.8004C111.373 27.0641 112.16 26.4963 113.076 26.097C113.991 25.6903 114.972 25.4286 116.018 25.3121C116.711 25.235 117.454 25.2362 118.248 25.3155C119.049 25.3864 119.812 25.5988 120.537 25.9525C121.27 26.3054 121.899 26.8566 122.425 27.6061C122.95 28.3481 123.282 29.3515 123.423 30.6165L124.705 42.1362L121.408 42.5033L121.144 40.1316L121.008 40.1467C120.838 40.6077 120.559 41.0733 120.169 41.5435C119.779 42.0138 119.257 42.4263 118.603 42.7812C117.949 43.136 117.144 43.3667 116.187 43.4731ZM116.62 40.6808C117.553 40.5769 118.331 40.3036 118.953 39.8609C119.582 39.4174 120.036 38.879 120.316 38.2456C120.603 37.6039 120.708 36.9404 120.632 36.2553L120.383 34.0191C120.276 34.153 120.055 34.2919 119.721 34.4358C119.393 34.5714 119.015 34.7012 118.586 34.8251C118.157 34.9414 117.739 35.0528 117.332 35.1591C116.923 35.2579 116.582 35.3416 116.308 35.4103C115.662 35.566 115.079 35.772 114.558 36.0281C114.046 36.2833 113.648 36.6134 113.365 37.0184C113.089 37.415 112.985 37.9145 113.052 38.5168C113.145 39.3526 113.524 39.9507 114.189 40.3111C114.853 40.664 115.664 40.7873 116.62 40.6808ZM139.833 30.1964L140.158 33.1215L130.762 34.1674L130.436 31.2422L139.833 30.1964ZM130.582 23.9199L132.512 41.2673L129.203 41.6356L127.272 24.2882L130.582 23.9199ZM141.39 22.7168L143.321 40.0643L140.023 40.4313L138.092 23.0839L141.39 22.7168ZM158.183 38.4099L156.573 23.9425L152.417 24.4051C151.431 24.5149 150.688 24.83 150.19 25.3504C149.691 25.8709 149.483 26.5038 149.566 27.2492C149.648 27.9871 149.967 28.5538 150.522 28.9494C151.083 29.3367 151.823 29.4792 152.742 29.3769L158.106 28.7798L158.41 31.5129L153.046 32.1101C151.766 32.2525 150.636 32.1649 149.655 31.8472C148.681 31.5211 147.898 30.9946 147.307 30.2677C146.723 29.54 146.371 28.6415 146.252 27.5724C146.131 26.4806 146.282 25.511 146.706 24.6634C147.137 23.8075 147.81 23.1075 148.725 22.5636C149.647 22.0188 150.771 21.6726 152.096 21.5251L159.426 20.7093L161.357 38.0567L158.183 38.4099ZM146.799 39.6771L150.714 30.3687L154.17 29.984L150.255 39.2924L146.799 39.6771Z" fill="#F7F2EC"/>
<rect x="178.631" y="35.7805" width="111.264" height="52" rx="26" transform="rotate(42.3969 178.631 35.7805)" fill="#F7F2EC"/>
<path d="M175.116 74.8712L189.356 70.6846L192.058 73.1518L180.289 86.0419L177.83 83.7969L186.396 74.4147L172.174 78.6326L169.447 76.1425L181.216 63.2524L183.674 65.4974L175.116 74.8712ZM199.271 89.5707L197.287 91.7442L190.305 85.3693L192.289 83.1958L199.271 89.5707ZM197.89 78.477L186.121 91.367L183.663 89.122L195.431 76.232L197.89 78.477ZM205.921 85.8096L194.152 98.6996L191.702 96.4623L203.471 83.5722L205.921 85.8096ZM213.118 102.213L211.134 104.387L204.152 98.0118L206.136 95.8382L213.118 102.213ZM211.737 91.1194L199.968 104.009L197.509 101.764L209.278 88.8744L211.737 91.1194ZM219.768 98.452L207.999 111.342L205.549 109.105L217.318 96.2147L219.768 98.452ZM214.847 118.117C214.03 117.371 213.429 116.546 213.045 115.641C212.666 114.731 212.549 113.808 212.694 112.874C212.845 111.945 213.306 111.058 214.077 110.213C214.741 109.486 215.428 109.015 216.136 108.8C216.845 108.586 217.562 108.559 218.288 108.719C219.014 108.879 219.735 109.157 220.45 109.553C221.165 109.95 221.861 110.39 222.537 110.874C223.391 111.49 224.084 111.989 224.616 112.372C225.153 112.75 225.592 112.971 225.933 113.036C226.274 113.101 226.582 112.983 226.858 112.681L226.912 112.622C227.581 111.889 227.892 111.132 227.846 110.351C227.805 109.576 227.379 108.817 226.568 108.077C225.723 107.305 224.887 106.885 224.058 106.815C223.239 106.745 222.531 106.853 221.933 107.137L220.065 104.447C221.06 103.919 222.045 103.66 223.022 103.669C224.009 103.678 224.954 103.895 225.858 104.32C226.768 104.74 227.611 105.305 228.389 106.015C228.904 106.485 229.393 107.045 229.857 107.694C230.331 108.343 230.675 109.056 230.887 109.835C231.105 110.619 231.106 111.455 230.889 112.344C230.677 113.228 230.142 114.14 229.284 115.08L221.468 123.64L219.018 121.402L220.627 119.64L220.526 119.548C220.068 119.724 219.533 119.821 218.923 119.838C218.312 119.855 217.658 119.735 216.96 119.477C216.261 119.219 215.557 118.766 214.847 118.117ZM217.231 116.601C217.925 117.235 218.643 117.639 219.386 117.814C220.134 117.995 220.838 117.981 221.499 117.774C222.171 117.567 222.739 117.209 223.204 116.7L224.721 115.038C224.55 115.046 224.3 114.971 223.971 114.815C223.653 114.658 223.306 114.459 222.93 114.218C222.56 113.973 222.2 113.732 221.852 113.495C221.508 113.254 221.22 113.052 220.988 112.891C220.445 112.508 219.905 112.206 219.37 111.983C218.84 111.766 218.329 111.685 217.838 111.739C217.358 111.793 216.914 112.044 216.505 112.492C215.938 113.113 215.739 113.792 215.906 114.53C216.079 115.262 216.521 115.952 217.231 116.601Z" fill="#F7F2EC"/>
</svg>
