<svg width="90" height="90" viewBox="0 0 90 90" fill="none" xmlns="http://www.w3.org/2000/svg">
<rect x="0.408142" y="0.306122" width="89.3878" height="89.3878" rx="44.6939" fill="#3C65F7"/>
<path d="M45.1079 15.2055C28.6521 15.2055 15.312 28.5456 15.312 45.0014C15.312 57.6253 23.1728 68.4048 34.2568 72.756C33.9882 70.3924 33.7554 66.7754 34.3463 64.1969C34.9014 61.887 37.838 49.3884 37.838 49.3884C37.838 49.3884 36.9606 47.5978 36.9606 44.9656C36.9606 40.8293 39.36 37.7315 42.3504 37.7315C44.8931 37.7315 46.1107 39.6475 46.1107 41.9216C46.1107 44.4821 44.4812 48.3141 43.6575 51.8416C42.9413 54.814 45.1437 57.2314 48.0625 57.2314C53.3627 57.2314 57.4274 51.6446 57.4274 43.5868C57.4274 36.4602 52.3062 31.4643 44.9826 31.4643C36.513 31.4643 31.535 37.821 31.535 44.3926C31.535 46.9532 32.5199 49.7108 33.7554 51.197C33.9882 51.5014 34.024 51.7521 33.9524 52.0565C33.7375 52.9876 33.2182 55.0289 33.1287 55.4407C33.0033 55.9779 32.6989 56.1033 32.1259 55.8347C28.4014 54.0978 26.0736 48.6543 26.0736 44.2852C26.0736 34.8844 32.9138 26.2536 45.7705 26.2536C56.1023 26.2536 64.1422 33.6131 64.1422 43.4615C64.1422 53.7217 57.6602 61.9944 48.6713 61.9944C45.6451 61.9944 42.8159 60.4187 41.849 58.5743C41.849 58.5743 40.3449 64.2685 39.9868 65.6652C39.3063 68.2437 37.4978 71.4847 36.2802 73.4723C39.0735 74.3318 42.0281 74.7973 45.1079 74.7973C61.5637 74.7973 74.9039 61.4572 74.9039 45.0014C74.9039 28.5456 61.5637 15.2055 45.1079 15.2055Z" fill="#EFEFEF"/>
</svg>
