<svg width="20" height="20" viewBox="0 0 20 20" fill="none" xmlns="http://www.w3.org/2000/svg">
<rect width="20" height="20" rx="10" fill="#3C65F7"/>
<path d="M10.0014 3.33366C6.31949 3.33366 3.33472 6.31844 3.33472 10.0003C3.33472 12.8248 5.09353 15.2367 7.5735 16.2103C7.5134 15.6814 7.46132 14.8721 7.59353 14.2952C7.71773 13.7784 8.37478 10.9819 8.37478 10.9819C8.37478 10.9819 8.17847 10.5813 8.17847 9.99232C8.17847 9.06684 8.71533 8.37373 9.3844 8.37373C9.95331 8.37373 10.2257 8.80241 10.2257 9.31123C10.2257 9.88414 9.86116 10.7415 9.67686 11.5308C9.51661 12.1958 10.0094 12.7367 10.6624 12.7367C11.8483 12.7367 12.7578 11.4867 12.7578 9.68382C12.7578 8.08927 11.612 6.97148 9.97334 6.97148C8.07831 6.97148 6.96452 8.39376 6.96452 9.86411C6.96452 10.437 7.18488 11.054 7.46132 11.3865C7.5134 11.4547 7.52141 11.5107 7.50539 11.5789C7.45731 11.7872 7.34113 12.2439 7.3211 12.3361C7.29305 12.4563 7.22494 12.4843 7.09674 12.4242C6.2634 12.0356 5.74257 10.8176 5.74257 9.84007C5.74257 7.73671 7.27302 5.80562 10.1496 5.80562C12.4613 5.80562 14.2602 7.45225 14.2602 9.65578C14.2602 11.9515 12.8099 13.8024 10.7987 13.8024C10.1216 13.8024 9.48856 13.4498 9.27222 13.0372C9.27222 13.0372 8.93568 14.3112 8.85555 14.6237C8.70331 15.2007 8.29866 15.9258 8.02622 16.3705C8.65122 16.5628 9.31228 16.667 10.0014 16.667C13.6833 16.667 16.668 13.6822 16.668 10.0003C16.668 6.31844 13.6833 3.33366 10.0014 3.33366Z" fill="#EFEFEF"/>
</svg>
