<svg width="90" height="90" viewBox="0 0 90 90" fill="none" xmlns="http://www.w3.org/2000/svg">
<rect x="-0.000732422" width="89.9997" height="89.9997" rx="44.9998" fill="#3C65F7"/>
<path d="M16.7716 43.5204C16.7716 43.5204 40.3838 33.8596 48.5729 30.458C51.7119 29.0973 62.3579 24.743 62.3579 24.743C62.3579 24.743 67.2713 22.8384 66.8619 27.4643C66.7252 29.3693 65.6333 36.0365 64.5414 43.2481C62.9037 53.4533 61.1293 64.6104 61.1293 64.6104C61.1293 64.6104 60.8566 67.74 58.5364 68.2844C56.2159 68.8287 52.3944 66.3794 51.7119 65.8351C51.1661 65.4267 41.4757 59.3038 37.9273 56.3106C36.9717 55.4942 35.8798 53.8613 38.0636 51.9563C42.977 47.4664 48.846 41.8874 52.3944 38.3498C54.0321 36.7169 55.6701 32.9069 48.846 37.5332C39.1555 44.2004 29.6014 50.4596 29.6014 50.4596C29.6014 50.4596 27.418 51.8203 23.3234 50.5956C19.2289 49.371 14.4518 47.7384 14.4518 47.7384C14.4518 47.7384 11.1765 45.697 16.7724 43.5204H16.7716Z" stroke="#F7F2EC" stroke-width="3.14999"/>
</svg>
