<svg width="700" height="220" viewBox="0 0 700 220" fill="none" xmlns="http://www.w3.org/2000/svg">
<rect x="360" width="340" height="100" rx="8" fill="#FF7961"/>
<rect width="340" height="100" rx="8" fill="#FF7961"/>
<rect y="120" width="340" height="100" rx="8" fill="#FF7961"/>
<rect x="360" y="120" width="340" height="100" rx="8" fill="#FF7961"/>
<path d="M31.3778 26.9091V40H29.7926V28.3153H23.196V40H21.6108V26.9091H31.3778ZM34.3709 43.6818V30.1818H35.8283V31.7415H36.0073C36.1181 31.571 36.2715 31.3537 36.4675 31.0895C36.6678 30.821 36.9533 30.5824 37.324 30.3736C37.699 30.1605 38.2061 30.054 38.8453 30.054C39.6721 30.054 40.4007 30.2607 41.0314 30.674C41.6621 31.0874 42.1543 31.6733 42.508 32.4318C42.8617 33.1903 43.0385 34.0852 43.0385 35.1165C43.0385 36.1562 42.8617 37.0575 42.508 37.8203C42.1543 38.5788 41.6642 39.1669 41.0378 39.5845C40.4114 39.9979 39.6891 40.2045 38.8709 40.2045C38.2402 40.2045 37.7353 40.1001 37.356 39.8913C36.9767 39.6783 36.6848 39.4375 36.4803 39.169C36.2757 38.8963 36.1181 38.6705 36.0073 38.4915H35.8794V43.6818H34.3709ZM35.8539 35.0909C35.8539 35.8324 35.9625 36.4865 36.1799 37.0533C36.3972 37.6158 36.7147 38.0568 37.1323 38.3764C37.5499 38.6918 38.0613 38.8494 38.6664 38.8494C39.2971 38.8494 39.8233 38.6832 40.2452 38.3509C40.6713 38.0142 40.9909 37.5625 41.204 36.9957C41.4213 36.4247 41.53 35.7898 41.53 35.0909C41.53 34.4006 41.4235 33.7784 41.2104 33.2244C41.0016 32.6662 40.6841 32.2251 40.258 31.9013C39.8361 31.5732 39.3056 31.4091 38.6664 31.4091C38.0527 31.4091 37.5371 31.5646 37.1195 31.8757C36.7019 32.1825 36.3865 32.6129 36.1735 33.1669C35.9604 33.7166 35.8539 34.358 35.8539 35.0909ZM46.6436 33.7358H49.4561C50.6067 33.7358 51.4867 34.0277 52.0961 34.6115C52.7054 35.1953 53.0101 35.9347 53.0101 36.8295C53.0101 37.4176 52.8738 37.9524 52.601 38.4339C52.3283 38.9112 51.9277 39.2926 51.3993 39.5781C50.8709 39.8594 50.2232 40 49.4561 40H45.3397V30.1818H46.8482V38.5938H49.4561C50.0527 38.5938 50.5428 38.4361 50.9263 38.1207C51.3098 37.8054 51.5016 37.4006 51.5016 36.9062C51.5016 36.3864 51.3098 35.9624 50.9263 35.6342C50.5428 35.3061 50.0527 35.142 49.4561 35.142H46.6436V33.7358ZM54.5698 40V30.1818H56.0783V40H54.5698ZM64.8993 30.1818V31.5881H60.3482V40H58.8397V30.1818H64.8993ZM73.6724 34.4006V35.8068H68.252V34.4006H73.6724ZM68.6099 30.1818V40H67.1014V30.1818H68.6099ZM74.823 30.1818V40H73.3145V30.1818H74.823ZM78.198 43.6818C77.9423 43.6818 77.7143 43.6605 77.514 43.6179C77.3137 43.5795 77.1752 43.5412 77.0985 43.5028L77.4821 42.1733C77.8485 42.267 78.1724 42.3011 78.4537 42.2756C78.7349 42.25 78.9842 42.1243 79.2015 41.8984C79.4231 41.6768 79.6255 41.3168 79.8088 40.8182L80.09 40.0511L76.4593 30.1818H78.0957L80.8059 38.0057H80.9082L83.6184 30.1818H85.2548L81.0872 41.4318C80.8997 41.9389 80.6674 42.3587 80.3904 42.6911C80.1135 43.0277 79.7917 43.277 79.4252 43.4389C79.063 43.6009 78.6539 43.6818 78.198 43.6818ZM92.3084 40V30.1818H96.3226C97.3794 30.1818 98.2189 30.4205 98.8411 30.8977C99.4632 31.375 99.7743 32.0057 99.7743 32.7898C99.7743 33.3864 99.5975 33.8487 99.2438 34.1768C98.8901 34.5007 98.4363 34.7202 97.8823 34.8352C98.2445 34.8864 98.5961 35.0142 98.937 35.2188C99.2821 35.4233 99.5676 35.7045 99.7935 36.0625C100.019 36.4162 100.132 36.8509 100.132 37.3665C100.132 37.8693 100.004 38.3189 99.7488 38.7152C99.4931 39.1115 99.1266 39.4247 98.6493 39.6548C98.1721 39.8849 97.601 40 96.9363 40H92.3084ZM93.7402 38.6193H96.9363C97.4561 38.6193 97.8631 38.4957 98.1571 38.2486C98.4512 38.0014 98.5982 37.6648 98.5982 37.2386C98.5982 36.7315 98.4512 36.3331 98.1571 36.0433C97.8631 35.7493 97.4561 35.6023 96.9363 35.6023H93.7402V38.6193ZM93.7402 34.2983H96.3226C96.7275 34.2983 97.0748 34.2429 97.3645 34.1321C97.6543 34.017 97.8759 33.8551 98.0293 33.6463C98.187 33.4332 98.2658 33.1818 98.2658 32.892C98.2658 32.4787 98.0932 32.1548 97.748 31.9205C97.4029 31.6818 96.9277 31.5625 96.3226 31.5625H93.7402V34.2983ZM111.467 40.2045C110.581 40.2045 109.803 39.9936 109.134 39.5717C108.469 39.1499 107.949 38.5597 107.574 37.8011C107.203 37.0426 107.018 36.1562 107.018 35.142C107.018 34.1193 107.203 33.2266 107.574 32.4638C107.949 31.701 108.469 31.1087 109.134 30.6868C109.803 30.2649 110.581 30.054 111.467 30.054C112.353 30.054 113.129 30.2649 113.794 30.6868C114.463 31.1087 114.983 31.701 115.353 32.4638C115.728 33.2266 115.916 34.1193 115.916 35.142C115.916 36.1562 115.728 37.0426 115.353 37.8011C114.983 38.5597 114.463 39.1499 113.794 39.5717C113.129 39.9936 112.353 40.2045 111.467 40.2045ZM111.467 38.8494C112.14 38.8494 112.694 38.6768 113.129 38.3317C113.564 37.9865 113.885 37.5327 114.094 36.9702C114.303 36.4077 114.407 35.7983 114.407 35.142C114.407 34.4858 114.303 33.8743 114.094 33.3075C113.885 32.7408 113.564 32.2827 113.129 31.9332C112.694 31.5838 112.14 31.4091 111.467 31.4091C110.794 31.4091 110.24 31.5838 109.805 31.9332C109.37 32.2827 109.049 32.7408 108.84 33.3075C108.631 33.8743 108.527 34.4858 108.527 35.142C108.527 35.7983 108.631 36.4077 108.84 36.9702C109.049 37.5327 109.37 37.9865 109.805 38.3317C110.24 38.6768 110.794 38.8494 111.467 38.8494ZM118.219 40V30.1818H119.727V34.4517H120.724L124.253 30.1818H126.196L122.233 34.9119L126.247 40H124.304L121.082 35.858H119.727V40H118.219ZM134.458 34.4006V35.8068H129.037V34.4006H134.458ZM129.395 30.1818V40H127.887V30.1818H129.395ZM135.608 30.1818V40H134.1V30.1818H135.608ZM142.352 40.2045C141.465 40.2045 140.688 39.9936 140.019 39.5717C139.354 39.1499 138.834 38.5597 138.459 37.8011C138.088 37.0426 137.903 36.1562 137.903 35.142C137.903 34.1193 138.088 33.2266 138.459 32.4638C138.834 31.701 139.354 31.1087 140.019 30.6868C140.688 30.2649 141.465 30.054 142.352 30.054C143.238 30.054 144.014 30.2649 144.678 30.6868C145.347 31.1087 145.867 31.701 146.238 32.4638C146.613 33.2266 146.801 34.1193 146.801 35.142C146.801 36.1562 146.613 37.0426 146.238 37.8011C145.867 38.5597 145.347 39.1499 144.678 39.5717C144.014 39.9936 143.238 40.2045 142.352 40.2045ZM142.352 38.8494C143.025 38.8494 143.579 38.6768 144.014 38.3317C144.448 37.9865 144.77 37.5327 144.979 36.9702C145.188 36.4077 145.292 35.7983 145.292 35.142C145.292 34.4858 145.188 33.8743 144.979 33.3075C144.77 32.7408 144.448 32.2827 144.014 31.9332C143.579 31.5838 143.025 31.4091 142.352 31.4091C141.678 31.4091 141.124 31.5838 140.69 31.9332C140.255 32.2827 139.933 32.7408 139.725 33.3075C139.516 33.8743 139.411 34.4858 139.411 35.142C139.411 35.7983 139.516 36.4077 139.725 36.9702C139.933 37.5327 140.255 37.9865 140.69 38.3317C141.124 38.6768 141.678 38.8494 142.352 38.8494Z" fill="#F7F2EC"/>
<path d="M31.3778 146.909V160H29.7926V148.315H23.196V160H21.6108V146.909H31.3778ZM38.3596 160.205C37.4732 160.205 36.6955 159.994 36.0265 159.572C35.3617 159.15 34.8418 158.56 34.4668 157.801C34.0961 157.043 33.9107 156.156 33.9107 155.142C33.9107 154.119 34.0961 153.227 34.4668 152.464C34.8418 151.701 35.3617 151.109 36.0265 150.687C36.6955 150.265 37.4732 150.054 38.3596 150.054C39.2459 150.054 40.0215 150.265 40.6863 150.687C41.3553 151.109 41.8752 151.701 42.2459 152.464C42.6209 153.227 42.8084 154.119 42.8084 155.142C42.8084 156.156 42.6209 157.043 42.2459 157.801C41.8752 158.56 41.3553 159.15 40.6863 159.572C40.0215 159.994 39.2459 160.205 38.3596 160.205ZM38.3596 158.849C39.0328 158.849 39.5868 158.677 40.0215 158.332C40.4561 157.987 40.7779 157.533 40.9867 156.97C41.1955 156.408 41.2999 155.798 41.2999 155.142C41.2999 154.486 41.1955 153.874 40.9867 153.308C40.7779 152.741 40.4561 152.283 40.0215 151.933C39.5868 151.584 39.0328 151.409 38.3596 151.409C37.6863 151.409 37.1323 151.584 36.6976 151.933C36.263 152.283 35.9412 152.741 35.7324 153.308C35.5236 153.874 35.4192 154.486 35.4192 155.142C35.4192 155.798 35.5236 156.408 35.7324 156.97C35.9412 157.533 36.263 157.987 36.6976 158.332C37.1323 158.677 37.6863 158.849 38.3596 158.849ZM52.3981 146.5L53.1651 147.42C52.8668 147.71 52.5217 147.913 52.1296 148.028C51.7376 148.143 51.2944 148.213 50.8001 148.239C50.3058 148.264 49.756 148.29 49.1509 148.315C48.4691 148.341 47.9045 148.507 47.457 148.814C47.0096 149.121 46.6644 149.564 46.4215 150.143C46.1786 150.723 46.0231 151.435 45.9549 152.278H46.0827C46.4151 151.665 46.8754 151.213 47.4634 150.923C48.0515 150.634 48.6822 150.489 49.3555 150.489C50.1225 150.489 50.8129 150.668 51.4265 151.026C52.0401 151.384 52.5259 151.914 52.8839 152.617C53.2418 153.32 53.4208 154.188 53.4208 155.219C53.4208 156.246 53.2376 157.132 52.8711 157.878C52.5089 158.624 51.9996 159.199 51.3434 159.604C50.6914 160.004 49.9265 160.205 49.0487 160.205C48.1708 160.205 47.4016 159.998 46.7411 159.585C46.0806 159.167 45.5671 158.549 45.2006 157.731C44.8342 156.908 44.6509 155.892 44.6509 154.682V153.634C44.6509 151.447 45.0217 149.79 45.7631 148.661C46.5089 147.531 47.6296 146.947 49.1254 146.909C49.6538 146.892 50.1246 146.888 50.538 146.896C50.9513 146.905 51.3114 146.886 51.6183 146.839C51.9251 146.792 52.185 146.679 52.3981 146.5ZM49.0487 158.849C49.641 158.849 50.1502 158.7 50.5763 158.402C51.0067 158.104 51.337 157.684 51.5671 157.143C51.7972 156.597 51.9123 155.956 51.9123 155.219C51.9123 154.503 51.7951 153.893 51.5607 153.391C51.3306 152.888 51.0004 152.504 50.57 152.24C50.1396 151.976 49.6239 151.844 49.0231 151.844C48.5842 151.844 48.19 151.918 47.8406 152.067C47.4911 152.217 47.1928 152.436 46.9457 152.726C46.6985 153.016 46.5067 153.369 46.3704 153.787C46.2383 154.205 46.168 154.682 46.1594 155.219C46.1594 156.318 46.4173 157.198 46.9329 157.859C47.4485 158.519 48.1538 158.849 49.0487 158.849ZM59.8448 160.205C58.8988 160.205 58.0827 159.996 57.3967 159.578C56.7148 159.156 56.1886 158.568 55.8178 157.814C55.4513 157.055 55.2681 156.173 55.2681 155.168C55.2681 154.162 55.4513 153.276 55.8178 152.509C56.1886 151.737 56.7042 151.136 57.3647 150.706C58.0295 150.271 58.805 150.054 59.6914 150.054C60.2028 150.054 60.7077 150.139 61.2063 150.31C61.7049 150.48 62.1587 150.757 62.5678 151.141C62.9769 151.52 63.3029 152.023 63.5458 152.649C63.7887 153.276 63.9102 154.047 63.9102 154.963V155.602H56.342V154.298H62.3761C62.3761 153.744 62.2653 153.25 62.0437 152.815C61.8263 152.381 61.5153 152.038 61.1104 151.786C60.7099 151.535 60.2369 151.409 59.6914 151.409C59.0906 151.409 58.5707 151.558 58.1317 151.857C57.6971 152.151 57.3626 152.534 57.1282 153.007C56.8938 153.48 56.7766 153.987 56.7766 154.528V155.398C56.7766 156.139 56.9045 156.768 57.1602 157.283C57.4201 157.795 57.7802 158.185 58.2404 158.453C58.7006 158.717 59.2354 158.849 59.8448 158.849C60.2411 158.849 60.5991 158.794 60.9187 158.683C61.2425 158.568 61.5217 158.398 61.756 158.172C61.9904 157.942 62.1715 157.656 62.2994 157.315L63.7567 157.724C63.6033 158.219 63.3455 158.653 62.9833 159.028C62.6211 159.399 62.1737 159.689 61.641 159.898C61.1083 160.102 60.5096 160.205 59.8448 160.205ZM72.2646 150.182V151.588H67.7134V160H66.2049V150.182H72.2646ZM75.4382 163.682C75.1825 163.682 74.9545 163.661 74.7543 163.618C74.554 163.58 74.4155 163.541 74.3388 163.503L74.7223 162.173C75.0888 162.267 75.4126 162.301 75.6939 162.276C75.9751 162.25 76.2244 162.124 76.4418 161.898C76.6634 161.677 76.8658 161.317 77.049 160.818L77.3303 160.051L73.6996 150.182H75.3359L78.0462 158.006H78.1484L80.8587 150.182H82.495L78.3274 161.432C78.1399 161.939 77.9077 162.359 77.6307 162.691C77.3537 163.028 77.032 163.277 76.6655 163.439C76.3033 163.601 75.8942 163.682 75.4382 163.682ZM89.5487 160V150.182H91.0572V154.452H92.0543L95.5827 150.182H97.5259L93.5629 154.912L97.5771 160H95.6339L92.4123 155.858H91.0572V160H89.5487ZM103.231 162.812V158.594H104.049C104.249 158.385 104.422 158.159 104.567 157.916C104.712 157.673 104.837 157.386 104.944 157.053C105.055 156.717 105.148 156.308 105.225 155.826C105.302 155.34 105.37 154.754 105.43 154.068L105.762 150.182H112.001V158.594H113.509V162.812H112.001V160H104.739V162.812H103.231ZM105.762 158.594H110.492V151.588H107.168L106.913 154.068C106.806 155.095 106.674 155.992 106.516 156.759C106.359 157.526 106.107 158.138 105.762 158.594ZM115.512 160V150.182H119.526C120.583 150.182 121.422 150.42 122.044 150.898C122.666 151.375 122.977 152.006 122.977 152.79C122.977 153.386 122.801 153.849 122.447 154.177C122.093 154.501 121.639 154.72 121.085 154.835C121.448 154.886 121.799 155.014 122.14 155.219C122.485 155.423 122.771 155.705 122.997 156.062C123.222 156.416 123.335 156.851 123.335 157.366C123.335 157.869 123.208 158.319 122.952 158.715C122.696 159.112 122.33 159.425 121.852 159.655C121.375 159.885 120.804 160 120.139 160H115.512ZM116.943 158.619H120.139C120.659 158.619 121.066 158.496 121.36 158.249C121.654 158.001 121.801 157.665 121.801 157.239C121.801 156.732 121.654 156.333 121.36 156.043C121.066 155.749 120.659 155.602 120.139 155.602H116.943V158.619ZM116.943 154.298H119.526C119.931 154.298 120.278 154.243 120.568 154.132C120.857 154.017 121.079 153.855 121.232 153.646C121.39 153.433 121.469 153.182 121.469 152.892C121.469 152.479 121.296 152.155 120.951 151.92C120.606 151.682 120.131 151.562 119.526 151.562H116.943V154.298ZM129.735 160.205C128.789 160.205 127.973 159.996 127.287 159.578C126.605 159.156 126.079 158.568 125.708 157.814C125.342 157.055 125.159 156.173 125.159 155.168C125.159 154.162 125.342 153.276 125.708 152.509C126.079 151.737 126.595 151.136 127.255 150.706C127.92 150.271 128.696 150.054 129.582 150.054C130.093 150.054 130.598 150.139 131.097 150.31C131.596 150.48 132.049 150.757 132.458 151.141C132.868 151.52 133.194 152.023 133.436 152.649C133.679 153.276 133.801 154.047 133.801 154.963V155.602H126.233V154.298H132.267C132.267 153.744 132.156 153.25 131.934 152.815C131.717 152.381 131.406 152.038 131.001 151.786C130.6 151.535 130.127 151.409 129.582 151.409C128.981 151.409 128.461 151.558 128.022 151.857C127.588 152.151 127.253 152.534 127.019 153.007C126.784 153.48 126.667 153.987 126.667 154.528V155.398C126.667 156.139 126.795 156.768 127.051 157.283C127.311 157.795 127.671 158.185 128.131 158.453C128.591 158.717 129.126 158.849 129.735 158.849C130.132 158.849 130.49 158.794 130.809 158.683C131.133 158.568 131.412 158.398 131.647 158.172C131.881 157.942 132.062 157.656 132.19 157.315L133.647 157.724C133.494 158.219 133.236 158.653 132.874 159.028C132.512 159.399 132.064 159.689 131.532 159.898C130.999 160.102 130.4 160.205 129.735 160.205ZM136.096 163.682V150.182H137.553V151.741H137.732C137.843 151.571 137.996 151.354 138.192 151.089C138.392 150.821 138.678 150.582 139.049 150.374C139.424 150.161 139.931 150.054 140.57 150.054C141.397 150.054 142.125 150.261 142.756 150.674C143.387 151.087 143.879 151.673 144.233 152.432C144.586 153.19 144.763 154.085 144.763 155.116C144.763 156.156 144.586 157.058 144.233 157.82C143.879 158.579 143.389 159.167 142.762 159.585C142.136 159.998 141.414 160.205 140.596 160.205C139.965 160.205 139.46 160.1 139.081 159.891C138.701 159.678 138.409 159.437 138.205 159.169C138 158.896 137.843 158.67 137.732 158.491H137.604V163.682H136.096ZM137.578 155.091C137.578 155.832 137.687 156.487 137.904 157.053C138.122 157.616 138.439 158.057 138.857 158.376C139.275 158.692 139.786 158.849 140.391 158.849C141.022 158.849 141.548 158.683 141.97 158.351C142.396 158.014 142.716 157.562 142.929 156.996C143.146 156.425 143.255 155.79 143.255 155.091C143.255 154.401 143.148 153.778 142.935 153.224C142.726 152.666 142.409 152.225 141.983 151.901C141.561 151.573 141.03 151.409 140.391 151.409C139.777 151.409 139.262 151.565 138.844 151.876C138.426 152.183 138.111 152.613 137.898 153.167C137.685 153.717 137.578 154.358 137.578 155.091ZM148.573 157.776L153.303 150.182H155.042V160H153.533V152.406L148.828 160H147.064V150.182H148.573V157.776Z" fill="#F7F2EC"/>
<path d="M381.585 40V26.9091H383.17V32.7386H390.151V26.9091H391.736V40H390.151V34.1449H383.17V40H381.585ZM397.594 40.2301C396.972 40.2301 396.407 40.1129 395.9 39.8786C395.393 39.6399 394.99 39.2969 394.692 38.8494C394.394 38.3977 394.245 37.8523 394.245 37.2131C394.245 36.6506 394.355 36.1946 394.577 35.8452C394.799 35.4915 395.095 35.2145 395.466 35.0142C395.836 34.8139 396.245 34.6648 396.693 34.5668C397.145 34.4645 397.598 34.3835 398.054 34.3239C398.651 34.2472 399.135 34.1896 399.505 34.1513C399.88 34.1087 400.153 34.0384 400.324 33.9403C400.498 33.8423 400.586 33.6719 400.586 33.429V33.3778C400.586 32.7472 400.413 32.2571 400.068 31.9077C399.727 31.5582 399.209 31.3835 398.515 31.3835C397.794 31.3835 397.23 31.5412 396.821 31.8565C396.412 32.1719 396.124 32.5085 395.958 32.8665L394.526 32.3551C394.782 31.7585 395.123 31.294 395.549 30.9616C395.979 30.625 396.448 30.3906 396.955 30.2585C397.466 30.1222 397.969 30.054 398.463 30.054C398.779 30.054 399.141 30.0923 399.55 30.169C399.963 30.2415 400.362 30.3928 400.745 30.6229C401.133 30.853 401.455 31.2003 401.711 31.6648C401.966 32.1293 402.094 32.7514 402.094 33.5312V40H400.586V38.6705H400.509C400.407 38.8835 400.236 39.1115 399.998 39.3544C399.759 39.5973 399.441 39.804 399.045 39.9744C398.649 40.1449 398.165 40.2301 397.594 40.2301ZM397.824 38.875C398.421 38.875 398.924 38.7578 399.333 38.5234C399.746 38.2891 400.057 37.9865 400.266 37.6158C400.479 37.245 400.586 36.8551 400.586 36.446V35.0653C400.522 35.142 400.381 35.2124 400.164 35.2763C399.951 35.3359 399.703 35.3892 399.422 35.4361C399.145 35.4787 398.875 35.517 398.61 35.5511C398.35 35.581 398.14 35.6065 397.978 35.6278C397.586 35.679 397.219 35.7621 396.878 35.8771C396.542 35.9879 396.269 36.1562 396.06 36.3821C395.855 36.6037 395.753 36.9062 395.753 37.2898C395.753 37.8139 395.947 38.2102 396.335 38.4787C396.727 38.7429 397.223 38.875 397.824 38.875ZM406.356 37.7756L411.086 30.1818H412.825V40H411.316V32.4062L406.612 40H404.847V30.1818H406.356V37.7756ZM410.089 26.9091H411.495C411.495 27.5994 411.257 28.1641 410.779 28.603C410.302 29.0419 409.654 29.2614 408.836 29.2614C408.031 29.2614 407.389 29.0419 406.912 28.603C406.439 28.1641 406.203 27.5994 406.203 26.9091H407.609C407.609 27.2415 407.7 27.5334 407.884 27.7848C408.071 28.0362 408.389 28.1619 408.836 28.1619C409.284 28.1619 409.603 28.0362 409.795 27.7848C409.991 27.5334 410.089 27.2415 410.089 26.9091ZM414.539 42.8125V38.5938H415.358C415.558 38.3849 415.73 38.1591 415.875 37.9162C416.02 37.6733 416.146 37.3857 416.252 37.0533C416.363 36.7166 416.457 36.3075 416.534 35.826C416.61 35.3402 416.679 34.7543 416.738 34.0682L417.071 30.1818H423.309V38.5938H424.818V42.8125H423.309V40H416.048V42.8125H414.539ZM417.071 38.5938H421.801V31.5881H418.477L418.221 34.0682C418.115 35.0952 417.983 35.9922 417.825 36.7592C417.667 37.5263 417.416 38.1378 417.071 38.5938ZM427.792 43.6818C427.536 43.6818 427.308 43.6605 427.108 43.6179C426.907 43.5795 426.769 43.5412 426.692 43.5028L427.076 42.1733C427.442 42.267 427.766 42.3011 428.047 42.2756C428.329 42.25 428.578 42.1243 428.795 41.8984C429.017 41.6768 429.219 41.3168 429.403 40.8182L429.684 40.0511L426.053 30.1818H427.689L430.4 38.0057H430.502L433.212 30.1818H434.849L430.681 41.4318C430.493 41.9389 430.261 42.3587 429.984 42.6911C429.707 43.0277 429.385 43.277 429.019 43.4389C428.657 43.6009 428.248 43.6818 427.792 43.6818ZM443.411 37.7756L448.141 30.1818H449.879V40H448.371V32.4062L443.666 40H441.902V30.1818H443.411V37.7756ZM456.631 40.2045C455.711 40.2045 454.918 39.9872 454.253 39.5526C453.588 39.1179 453.077 38.5192 452.719 37.7564C452.361 36.9936 452.182 36.1222 452.182 35.142C452.182 34.1449 452.365 33.2649 452.732 32.5021C453.103 31.7351 453.618 31.1364 454.279 30.706C454.944 30.2713 455.719 30.054 456.605 30.054C457.296 30.054 457.918 30.1818 458.472 30.4375C459.026 30.6932 459.48 31.0511 459.833 31.5114C460.187 31.9716 460.407 32.5085 460.492 33.1222H458.983C458.868 32.6747 458.613 32.2784 458.216 31.9332C457.824 31.5838 457.296 31.4091 456.631 31.4091C456.043 31.4091 455.527 31.5625 455.084 31.8693C454.645 32.1719 454.302 32.6001 454.055 33.1541C453.812 33.7038 453.691 34.3494 453.691 35.0909C453.691 35.8494 453.81 36.5099 454.049 37.0724C454.292 37.6349 454.632 38.0717 455.071 38.3828C455.515 38.6939 456.034 38.8494 456.631 38.8494C457.023 38.8494 457.379 38.7812 457.699 38.6449C458.018 38.5085 458.289 38.3125 458.51 38.0568C458.732 37.8011 458.89 37.4943 458.983 37.1364H460.492C460.407 37.7159 460.196 38.2379 459.859 38.7024C459.527 39.1626 459.086 39.5291 458.536 39.8018C457.99 40.0703 457.355 40.2045 456.631 40.2045ZM461.924 31.5881V30.1818H469.901V31.5881H466.679V40H465.171V31.5881H461.924ZM475.58 40.2045C474.694 40.2045 473.916 39.9936 473.247 39.5717C472.582 39.1499 472.062 38.5597 471.688 37.8011C471.317 37.0426 471.131 36.1562 471.131 35.142C471.131 34.1193 471.317 33.2266 471.688 32.4638C472.062 31.701 472.582 31.1087 473.247 30.6868C473.916 30.2649 474.694 30.054 475.58 30.054C476.467 30.054 477.242 30.2649 477.907 30.6868C478.576 31.1087 479.096 31.701 479.467 32.4638C479.842 33.2266 480.029 34.1193 480.029 35.142C480.029 36.1562 479.842 37.0426 479.467 37.8011C479.096 38.5597 478.576 39.1499 477.907 39.5717C477.242 39.9936 476.467 40.2045 475.58 40.2045ZM475.58 38.8494C476.254 38.8494 476.808 38.6768 477.242 38.3317C477.677 37.9865 477.999 37.5327 478.207 36.9702C478.416 36.4077 478.521 35.7983 478.521 35.142C478.521 34.4858 478.416 33.8743 478.207 33.3075C477.999 32.7408 477.677 32.2827 477.242 31.9332C476.808 31.5838 476.254 31.4091 475.58 31.4091C474.907 31.4091 474.353 31.5838 473.918 31.9332C473.484 32.2827 473.162 32.7408 472.953 33.3075C472.744 33.8743 472.64 34.4858 472.64 35.142C472.64 35.7983 472.744 36.4077 472.953 36.9702C473.162 37.5327 473.484 37.9865 473.918 38.3317C474.353 38.6768 474.907 38.8494 475.58 38.8494ZM489.9 30.1818V40H488.392V30.1818H489.9ZM489.312 34.8608V36.267C488.971 36.3949 488.632 36.5078 488.296 36.6058C487.959 36.6996 487.605 36.7741 487.235 36.8295C486.864 36.8807 486.457 36.9062 486.014 36.9062C484.901 36.9062 484.009 36.6058 483.335 36.005C482.666 35.4041 482.332 34.5028 482.332 33.3011V30.1562H483.84V33.3011C483.84 33.804 483.936 34.2173 484.128 34.5412C484.32 34.8651 484.58 35.1058 484.908 35.2635C485.236 35.4212 485.605 35.5 486.014 35.5C486.653 35.5 487.23 35.4425 487.746 35.3274C488.266 35.2081 488.788 35.0526 489.312 34.8608ZM499.239 34.4006V35.8068H493.818V34.4006H499.239ZM494.176 30.1818V40H492.668V30.1818H494.176ZM500.389 30.1818V40H498.881V30.1818H500.389ZM504.653 37.7756L509.383 30.1818H511.122V40H509.613V32.4062L504.909 40H503.144V30.1818H504.653V37.7756ZM513.885 40V30.1818H515.393V34.4517H516.39L519.919 30.1818H521.862L517.899 34.9119L521.913 40H519.97L516.748 35.858H515.393V40H513.885ZM381.381 66V56.1818H385.395C386.452 56.1818 387.291 56.4205 387.913 56.8977C388.536 57.375 388.847 58.0057 388.847 58.7898C388.847 59.3864 388.67 59.8487 388.316 60.1768C387.962 60.5007 387.509 60.7202 386.955 60.8352C387.317 60.8864 387.668 61.0142 388.009 61.2188C388.354 61.4233 388.64 61.7045 388.866 62.0625C389.092 62.4162 389.205 62.8509 389.205 63.3665C389.205 63.8693 389.077 64.3189 388.821 64.7152C388.565 65.1115 388.199 65.4247 387.722 65.6548C387.244 65.8849 386.673 66 386.009 66H381.381ZM382.812 64.6193H386.009C386.528 64.6193 386.935 64.4957 387.229 64.2486C387.523 64.0014 387.67 63.6648 387.67 63.2386C387.67 62.7315 387.523 62.3331 387.229 62.0433C386.935 61.7493 386.528 61.6023 386.009 61.6023H382.812V64.6193ZM382.812 60.2983H385.395C385.8 60.2983 386.147 60.2429 386.437 60.1321C386.727 60.017 386.948 59.8551 387.102 59.6463C387.259 59.4332 387.338 59.1818 387.338 58.892C387.338 58.4787 387.165 58.1548 386.82 57.9205C386.475 57.6818 386 57.5625 385.395 57.5625H382.812V60.2983ZM395.477 66.2045C394.59 66.2045 393.813 65.9936 393.144 65.5717C392.479 65.1499 391.959 64.5597 391.584 63.8011C391.213 63.0426 391.028 62.1562 391.028 61.142C391.028 60.1193 391.213 59.2266 391.584 58.4638C391.959 57.701 392.479 57.1087 393.144 56.6868C393.813 56.2649 394.59 56.054 395.477 56.054C396.363 56.054 397.139 56.2649 397.803 56.6868C398.472 57.1087 398.992 57.701 399.363 58.4638C399.738 59.2266 399.926 60.1193 399.926 61.142C399.926 62.1562 399.738 63.0426 399.363 63.8011C398.992 64.5597 398.472 65.1499 397.803 65.5717C397.139 65.9936 396.363 66.2045 395.477 66.2045ZM395.477 64.8494C396.15 64.8494 396.704 64.6768 397.139 64.3317C397.573 63.9865 397.895 63.5327 398.104 62.9702C398.313 62.4077 398.417 61.7983 398.417 61.142C398.417 60.4858 398.313 59.8743 398.104 59.3075C397.895 58.7408 397.573 58.2827 397.139 57.9332C396.704 57.5838 396.15 57.4091 395.477 57.4091C394.803 57.4091 394.249 57.5838 393.815 57.9332C393.38 58.2827 393.058 58.7408 392.85 59.3075C392.641 59.8743 392.536 60.4858 392.536 61.142C392.536 61.7983 392.641 62.4077 392.85 62.9702C393.058 63.5327 393.38 63.9865 393.815 64.3317C394.249 64.6768 394.803 64.8494 395.477 64.8494ZM401.615 63.4943H403.225C403.26 63.9375 403.46 64.2741 403.826 64.5043C404.197 64.7344 404.679 64.8494 405.271 64.8494C405.876 64.8494 406.394 64.7259 406.824 64.4787C407.255 64.2273 407.47 63.8224 407.47 63.2642C407.47 62.9361 407.389 62.6506 407.227 62.4077C407.065 62.1605 406.837 61.9687 406.543 61.8324C406.249 61.696 405.902 61.6278 405.501 61.6278H403.814V60.2727H405.501C406.102 60.2727 406.545 60.1364 406.831 59.8636C407.12 59.5909 407.265 59.25 407.265 58.8409C407.265 58.402 407.11 58.0504 406.799 57.7862C406.488 57.5178 406.047 57.3835 405.475 57.3835C404.9 57.3835 404.421 57.5135 404.037 57.7734C403.654 58.0291 403.451 58.3594 403.43 58.7642H401.845C401.862 58.2358 402.024 57.7692 402.331 57.3643C402.637 56.9553 403.055 56.6357 403.583 56.4055C404.112 56.1712 404.717 56.054 405.399 56.054C406.089 56.054 406.688 56.1754 407.195 56.4183C407.706 56.657 408.1 56.983 408.377 57.3963C408.659 57.8054 408.799 58.2699 408.799 58.7898C408.799 59.3438 408.644 59.7912 408.333 60.1321C408.022 60.473 407.632 60.7159 407.163 60.8608V60.9631C407.534 60.9886 407.855 61.108 408.128 61.321C408.405 61.5298 408.62 61.8047 408.774 62.1456C408.927 62.4822 409.004 62.8551 409.004 63.2642C409.004 63.8608 408.844 64.3807 408.525 64.8239C408.205 65.2628 407.766 65.6037 407.208 65.8466C406.65 66.0852 406.012 66.2045 405.297 66.2045C404.602 66.2045 403.98 66.0916 403.43 65.8658C402.88 65.6357 402.444 65.3182 402.12 64.9134C401.8 64.5043 401.632 64.0312 401.615 63.4943ZM417.183 56.1818V57.5881H412.631V66H411.123V56.1818H417.183ZM422.863 66.2045C421.977 66.2045 421.199 65.9936 420.53 65.5717C419.866 65.1499 419.346 64.5597 418.971 63.8011C418.6 63.0426 418.415 62.1562 418.415 61.142C418.415 60.1193 418.6 59.2266 418.971 58.4638C419.346 57.701 419.866 57.1087 420.53 56.6868C421.199 56.2649 421.977 56.054 422.863 56.054C423.75 56.054 424.525 56.2649 425.19 56.6868C425.859 57.1087 426.379 57.701 426.75 58.4638C427.125 59.2266 427.312 60.1193 427.312 61.142C427.312 62.1562 427.125 63.0426 426.75 63.8011C426.379 64.5597 425.859 65.1499 425.19 65.5717C424.525 65.9936 423.75 66.2045 422.863 66.2045ZM422.863 64.8494C423.537 64.8494 424.091 64.6768 424.525 64.3317C424.96 63.9865 425.282 63.5327 425.491 62.9702C425.699 62.4077 425.804 61.7983 425.804 61.142C425.804 60.4858 425.699 59.8743 425.491 59.3075C425.282 58.7408 424.96 58.2827 424.525 57.9332C424.091 57.5838 423.537 57.4091 422.863 57.4091C422.19 57.4091 421.636 57.5838 421.202 57.9332C420.767 58.2827 420.445 58.7408 420.236 59.3075C420.028 59.8743 419.923 60.4858 419.923 61.142C419.923 61.7983 420.028 62.4077 420.236 62.9702C420.445 63.5327 420.767 63.9865 421.202 64.3317C421.636 64.6768 422.19 64.8494 422.863 64.8494ZM429.615 69.6818V56.1818H431.072V57.7415H431.251C431.362 57.571 431.516 57.3537 431.712 57.0895C431.912 56.821 432.197 56.5824 432.568 56.3736C432.943 56.1605 433.45 56.054 434.089 56.054C434.916 56.054 435.645 56.2607 436.276 56.674C436.906 57.0874 437.398 57.6733 437.752 58.4318C438.106 59.1903 438.283 60.0852 438.283 61.1165C438.283 62.1562 438.106 63.0575 437.752 63.8203C437.398 64.5788 436.908 65.1669 436.282 65.5845C435.656 65.9979 434.933 66.2045 434.115 66.2045C433.484 66.2045 432.979 66.1001 432.6 65.8913C432.221 65.6783 431.929 65.4375 431.724 65.169C431.52 64.8963 431.362 64.6705 431.251 64.4915H431.124V69.6818H429.615ZM431.098 61.0909C431.098 61.8324 431.207 62.4865 431.424 63.0533C431.641 63.6158 431.959 64.0568 432.376 64.3764C432.794 64.6918 433.305 64.8494 433.911 64.8494C434.541 64.8494 435.067 64.6832 435.489 64.3509C435.915 64.0142 436.235 63.5625 436.448 62.9957C436.665 62.4247 436.774 61.7898 436.774 61.0909C436.774 60.4006 436.668 59.7784 436.455 59.2244C436.246 58.6662 435.928 58.2251 435.502 57.9013C435.08 57.5732 434.55 57.4091 433.911 57.4091C433.297 57.4091 432.781 57.5646 432.364 57.8757C431.946 58.1825 431.631 58.6129 431.418 59.1669C431.205 59.7166 431.098 60.358 431.098 61.0909ZM443.473 66.2301C442.851 66.2301 442.286 66.1129 441.779 65.8786C441.272 65.6399 440.869 65.2969 440.571 64.8494C440.273 64.3977 440.124 63.8523 440.124 63.2131C440.124 62.6506 440.234 62.1946 440.456 61.8452C440.678 61.4915 440.974 61.2145 441.344 61.0142C441.715 60.8139 442.124 60.6648 442.572 60.5668C443.023 60.4645 443.477 60.3835 443.933 60.3239C444.53 60.2472 445.013 60.1896 445.384 60.1513C445.759 60.1087 446.032 60.0384 446.202 59.9403C446.377 59.8423 446.464 59.6719 446.464 59.429V59.3778C446.464 58.7472 446.292 58.2571 445.947 57.9077C445.606 57.5582 445.088 57.3835 444.393 57.3835C443.673 57.3835 443.109 57.5412 442.7 57.8565C442.29 58.1719 442.003 58.5085 441.837 58.8665L440.405 58.3551C440.661 57.7585 441.001 57.294 441.428 56.9616C441.858 56.625 442.327 56.3906 442.834 56.2585C443.345 56.1222 443.848 56.054 444.342 56.054C444.658 56.054 445.02 56.0923 445.429 56.169C445.842 56.2415 446.241 56.3928 446.624 56.6229C447.012 56.853 447.334 57.2003 447.589 57.6648C447.845 58.1293 447.973 58.7514 447.973 59.5312V66H446.464V64.6705H446.388C446.286 64.8835 446.115 65.1115 445.876 65.3544C445.638 65.5973 445.32 65.804 444.924 65.9744C444.528 66.1449 444.044 66.2301 443.473 66.2301ZM443.703 64.875C444.3 64.875 444.803 64.7578 445.212 64.5234C445.625 64.2891 445.936 63.9865 446.145 63.6158C446.358 63.245 446.464 62.8551 446.464 62.446V61.0653C446.401 61.142 446.26 61.2124 446.043 61.2763C445.83 61.3359 445.582 61.3892 445.301 61.4361C445.024 61.4787 444.754 61.517 444.489 61.5511C444.229 61.581 444.018 61.6065 443.857 61.6278C443.464 61.679 443.098 61.7621 442.757 61.8771C442.42 61.9879 442.148 62.1562 441.939 62.3821C441.734 62.6037 441.632 62.9062 441.632 63.2898C441.632 63.8139 441.826 64.2102 442.214 64.4787C442.606 64.7429 443.102 64.875 443.703 64.875ZM457.297 60.4006V61.8068H451.877V60.4006H457.297ZM452.235 56.1818V66H450.726V56.1818H452.235ZM458.448 56.1818V66H456.939V56.1818H458.448ZM462.711 63.7756L467.442 56.1818H469.18V66H467.672V58.4062L462.967 66H461.203V56.1818H462.711V63.7756ZM477.849 66V57.5625H475.241C474.653 57.5625 474.191 57.6989 473.854 57.9716C473.518 58.2443 473.349 58.6193 473.349 59.0966C473.349 59.5653 473.501 59.9339 473.803 60.2024C474.11 60.4709 474.53 60.6051 475.062 60.6051H478.233V62.0114H475.062C474.398 62.0114 473.825 61.8942 473.343 61.6598C472.862 61.4254 472.491 61.0909 472.231 60.6562C471.971 60.2173 471.841 59.6974 471.841 59.0966C471.841 58.4915 471.977 57.9716 472.25 57.5369C472.523 57.1023 472.913 56.7678 473.42 56.5334C473.931 56.299 474.538 56.1818 475.241 56.1818H479.281V66H477.849ZM471.304 66L474.091 61.1165H475.727L472.94 66H471.304Z" fill="#F7F2EC"/>
<path d="M391.378 146.909V160H389.793V148.315H383.196V160H381.611V146.909H391.378ZM398.36 160.205C397.473 160.205 396.695 159.994 396.026 159.572C395.362 159.15 394.842 158.56 394.467 157.801C394.096 157.043 393.911 156.156 393.911 155.142C393.911 154.119 394.096 153.227 394.467 152.464C394.842 151.701 395.362 151.109 396.026 150.687C396.695 150.265 397.473 150.054 398.36 150.054C399.246 150.054 400.021 150.265 400.686 150.687C401.355 151.109 401.875 151.701 402.246 152.464C402.621 153.227 402.808 154.119 402.808 155.142C402.808 156.156 402.621 157.043 402.246 157.801C401.875 158.56 401.355 159.15 400.686 159.572C400.021 159.994 399.246 160.205 398.36 160.205ZM398.36 158.849C399.033 158.849 399.587 158.677 400.021 158.332C400.456 157.987 400.778 157.533 400.987 156.97C401.195 156.408 401.3 155.798 401.3 155.142C401.3 154.486 401.195 153.874 400.987 153.308C400.778 152.741 400.456 152.283 400.021 151.933C399.587 151.584 399.033 151.409 398.36 151.409C397.686 151.409 397.132 151.584 396.698 151.933C396.263 152.283 395.941 152.741 395.732 153.308C395.524 153.874 395.419 154.486 395.419 155.142C395.419 155.798 395.524 156.408 395.732 156.97C395.941 157.533 396.263 157.987 396.698 158.332C397.132 158.677 397.686 158.849 398.36 158.849ZM404.498 157.494H406.108C406.142 157.937 406.343 158.274 406.709 158.504C407.08 158.734 407.561 158.849 408.154 158.849C408.759 158.849 409.277 158.726 409.707 158.479C410.137 158.227 410.353 157.822 410.353 157.264C410.353 156.936 410.272 156.651 410.11 156.408C409.948 156.161 409.72 155.969 409.426 155.832C409.132 155.696 408.784 155.628 408.384 155.628H406.696V154.273H408.384C408.985 154.273 409.428 154.136 409.713 153.864C410.003 153.591 410.148 153.25 410.148 152.841C410.148 152.402 409.993 152.05 409.681 151.786C409.37 151.518 408.929 151.384 408.358 151.384C407.783 151.384 407.304 151.513 406.92 151.773C406.537 152.029 406.334 152.359 406.313 152.764H404.728C404.745 152.236 404.907 151.769 405.213 151.364C405.52 150.955 405.938 150.636 406.466 150.406C406.995 150.171 407.6 150.054 408.282 150.054C408.972 150.054 409.571 150.175 410.078 150.418C410.589 150.657 410.983 150.983 411.26 151.396C411.542 151.805 411.682 152.27 411.682 152.79C411.682 153.344 411.527 153.791 411.216 154.132C410.904 154.473 410.515 154.716 410.046 154.861V154.963C410.417 154.989 410.738 155.108 411.011 155.321C411.288 155.53 411.503 155.805 411.657 156.146C411.81 156.482 411.887 156.855 411.887 157.264C411.887 157.861 411.727 158.381 411.407 158.824C411.088 159.263 410.649 159.604 410.091 159.847C409.532 160.085 408.895 160.205 408.179 160.205C407.485 160.205 406.863 160.092 406.313 159.866C405.763 159.636 405.326 159.318 405.002 158.913C404.683 158.504 404.515 158.031 404.498 157.494ZM414.006 160V150.182H418.02C419.077 150.182 419.916 150.42 420.538 150.898C421.161 151.375 421.472 152.006 421.472 152.79C421.472 153.386 421.295 153.849 420.941 154.177C420.587 154.501 420.134 154.72 419.58 154.835C419.942 154.886 420.293 155.014 420.634 155.219C420.979 155.423 421.265 155.705 421.491 156.062C421.717 156.416 421.83 156.851 421.83 157.366C421.83 157.869 421.702 158.319 421.446 158.715C421.19 159.112 420.824 159.425 420.347 159.655C419.869 159.885 419.298 160 418.634 160H414.006ZM415.438 158.619H418.634C419.153 158.619 419.56 158.496 419.854 158.249C420.148 158.001 420.295 157.665 420.295 157.239C420.295 156.732 420.148 156.333 419.854 156.043C419.56 155.749 419.153 155.602 418.634 155.602H415.438V158.619ZM415.438 154.298H418.02C418.425 154.298 418.772 154.243 419.062 154.132C419.352 154.017 419.573 153.855 419.727 153.646C419.884 153.433 419.963 153.182 419.963 152.892C419.963 152.479 419.79 152.155 419.445 151.92C419.1 151.682 418.625 151.562 418.02 151.562H415.438V154.298ZM428.102 160.205C427.215 160.205 426.438 159.994 425.769 159.572C425.104 159.15 424.584 158.56 424.209 157.801C423.838 157.043 423.653 156.156 423.653 155.142C423.653 154.119 423.838 153.227 424.209 152.464C424.584 151.701 425.104 151.109 425.769 150.687C426.438 150.265 427.215 150.054 428.102 150.054C428.988 150.054 429.764 150.265 430.428 150.687C431.097 151.109 431.617 151.701 431.988 152.464C432.363 153.227 432.551 154.119 432.551 155.142C432.551 156.156 432.363 157.043 431.988 157.801C431.617 158.56 431.097 159.15 430.428 159.572C429.764 159.994 428.988 160.205 428.102 160.205ZM428.102 158.849C428.775 158.849 429.329 158.677 429.764 158.332C430.198 157.987 430.52 157.533 430.729 156.97C430.938 156.408 431.042 155.798 431.042 155.142C431.042 154.486 430.938 153.874 430.729 153.308C430.52 152.741 430.198 152.283 429.764 151.933C429.329 151.584 428.775 151.409 428.102 151.409C427.428 151.409 426.874 151.584 426.44 151.933C426.005 152.283 425.683 152.741 425.475 153.308C425.266 153.874 425.161 154.486 425.161 155.142C425.161 155.798 425.266 156.408 425.475 156.97C425.683 157.533 426.005 157.987 426.44 158.332C426.874 158.677 427.428 158.849 428.102 158.849ZM441.424 154.401V155.807H436.004V154.401H441.424ZM436.362 150.182V160H434.853V150.182H436.362ZM442.575 150.182V160H441.066V150.182H442.575ZM450.034 154.477V155.884H444.844V154.477H450.034ZM446.123 150.182V160H444.614V150.182H446.123ZM453.051 160.205C452.165 160.205 451.387 159.994 450.718 159.572C450.054 159.15 449.534 158.56 449.159 157.801C448.788 157.043 448.603 156.156 448.603 155.142C448.603 154.119 448.788 153.227 449.159 152.464C449.534 151.701 450.054 151.109 450.718 150.687C451.387 150.265 452.165 150.054 453.051 150.054C453.938 150.054 454.713 150.265 455.378 150.687C456.047 151.109 456.567 151.701 456.938 152.464C457.313 153.227 457.5 154.119 457.5 155.142C457.5 156.156 457.313 157.043 456.938 157.801C456.567 158.56 456.047 159.15 455.378 159.572C454.713 159.994 453.938 160.205 453.051 160.205ZM453.051 158.849C453.725 158.849 454.279 158.677 454.713 158.332C455.148 157.987 455.47 157.533 455.679 156.97C455.887 156.408 455.992 155.798 455.992 155.142C455.992 154.486 455.887 153.874 455.679 153.308C455.47 152.741 455.148 152.283 454.713 151.933C454.279 151.584 453.725 151.409 453.051 151.409C452.378 151.409 451.824 151.584 451.39 151.933C450.955 152.283 450.633 152.741 450.424 153.308C450.216 153.874 450.111 154.486 450.111 155.142C450.111 155.798 450.216 156.408 450.424 156.97C450.633 157.533 450.955 157.987 451.39 158.332C451.824 158.677 452.378 158.849 453.051 158.849ZM470.387 157.955L473.813 150.182H475.245L471 160H469.773L465.605 150.182H467.012L470.387 157.955ZM466.526 150.182V160H465.017V150.182H466.526ZM474.248 160V150.182H475.756V160H474.248ZM481.407 160.23C480.784 160.23 480.22 160.113 479.713 159.879C479.206 159.64 478.803 159.297 478.505 158.849C478.206 158.398 478.057 157.852 478.057 157.213C478.057 156.651 478.168 156.195 478.39 155.845C478.611 155.491 478.907 155.214 479.278 155.014C479.649 154.814 480.058 154.665 480.505 154.567C480.957 154.464 481.411 154.384 481.867 154.324C482.463 154.247 482.947 154.19 483.318 154.151C483.693 154.109 483.966 154.038 484.136 153.94C484.311 153.842 484.398 153.672 484.398 153.429V153.378C484.398 152.747 484.225 152.257 483.88 151.908C483.539 151.558 483.022 151.384 482.327 151.384C481.607 151.384 481.042 151.541 480.633 151.857C480.224 152.172 479.936 152.509 479.77 152.866L478.338 152.355C478.594 151.759 478.935 151.294 479.361 150.962C479.792 150.625 480.26 150.391 480.767 150.259C481.279 150.122 481.782 150.054 482.276 150.054C482.591 150.054 482.953 150.092 483.363 150.169C483.776 150.241 484.174 150.393 484.558 150.623C484.946 150.853 485.267 151.2 485.523 151.665C485.779 152.129 485.907 152.751 485.907 153.531V160H484.398V158.67H484.321C484.219 158.884 484.049 159.112 483.81 159.354C483.571 159.597 483.254 159.804 482.858 159.974C482.461 160.145 481.978 160.23 481.407 160.23ZM481.637 158.875C482.233 158.875 482.736 158.758 483.145 158.523C483.559 158.289 483.87 157.987 484.078 157.616C484.292 157.245 484.398 156.855 484.398 156.446V155.065C484.334 155.142 484.194 155.212 483.976 155.276C483.763 155.336 483.516 155.389 483.235 155.436C482.958 155.479 482.687 155.517 482.423 155.551C482.163 155.581 481.952 155.607 481.79 155.628C481.398 155.679 481.032 155.762 480.691 155.877C480.354 155.988 480.081 156.156 479.873 156.382C479.668 156.604 479.566 156.906 479.566 157.29C479.566 157.814 479.76 158.21 480.147 158.479C480.539 158.743 481.036 158.875 481.637 158.875ZM494.029 157.955L497.455 150.182H498.887L494.643 160H493.416L489.248 150.182H490.654L494.029 157.955ZM490.169 150.182V160H488.66V150.182H490.169ZM497.89 160V150.182H499.399V160H497.89ZM506.276 160.205C505.33 160.205 504.514 159.996 503.828 159.578C503.146 159.156 502.62 158.568 502.249 157.814C501.883 157.055 501.7 156.173 501.7 155.168C501.7 154.162 501.883 153.276 502.249 152.509C502.62 151.737 503.136 151.136 503.796 150.706C504.461 150.271 505.237 150.054 506.123 150.054C506.634 150.054 507.139 150.139 507.638 150.31C508.137 150.48 508.59 150.757 508.999 151.141C509.409 151.52 509.735 152.023 509.977 152.649C510.22 153.276 510.342 154.047 510.342 154.963V155.602H502.774V154.298H508.808C508.808 153.744 508.697 153.25 508.475 152.815C508.258 152.381 507.947 152.038 507.542 151.786C507.142 151.535 506.669 151.409 506.123 151.409C505.522 151.409 505.002 151.558 504.563 151.857C504.129 152.151 503.794 152.534 503.56 153.007C503.325 153.48 503.208 153.987 503.208 154.528V155.398C503.208 156.139 503.336 156.768 503.592 157.283C503.852 157.795 504.212 158.185 504.672 158.453C505.132 158.717 505.667 158.849 506.276 158.849C506.673 158.849 507.031 158.794 507.35 158.683C507.674 158.568 507.953 158.398 508.188 158.172C508.422 157.942 508.603 157.656 508.731 157.315L510.188 157.724C510.035 158.219 509.777 158.653 509.415 159.028C509.053 159.399 508.605 159.689 508.073 159.898C507.54 160.102 506.941 160.205 506.276 160.205Z" fill="#F7F2EC"/>
</svg>
