<svg width="241" height="22" viewBox="0 0 241 22" fill="none" xmlns="http://www.w3.org/2000/svg">
<rect x="0.5" y="0.5" width="53" height="21" rx="10.5" fill="#FF7961"/>
<path d="M14.6009 9.17045V8.45455H19.7145V9.17045H17.5497V15H16.7912V9.17045H14.6009ZM23.6243 15.1364C23.0135 15.1364 22.4851 14.9943 22.0391 14.7102C21.593 14.4233 21.2479 14.027 21.0036 13.5213C20.7621 13.0128 20.6413 12.4276 20.6413 11.7656C20.6413 11.1065 20.7621 10.5213 21.0036 10.0099C21.2479 9.49574 21.5845 9.09375 22.0135 8.80398C22.4453 8.51136 22.9439 8.36506 23.5092 8.36506C23.8643 8.36506 24.2067 8.4304 24.5362 8.56108C24.8658 8.68892 25.1612 8.88636 25.4226 9.15341C25.6868 9.41761 25.8956 9.75142 26.049 10.1548C26.2024 10.5554 26.2791 11.0298 26.2791 11.5781V11.9531H21.1655V11.2841H25.5036C25.5036 10.8636 25.4183 10.4858 25.2479 10.1506C25.0803 9.8125 24.8459 9.54545 24.5447 9.34943C24.2464 9.15341 23.9013 9.0554 23.5092 9.0554C23.0945 9.0554 22.7294 9.16619 22.4141 9.38778C22.0987 9.60937 21.8516 9.90199 21.6726 10.2656C21.4964 10.6293 21.407 11.027 21.4041 11.4588V11.8594C21.4041 12.3793 21.4936 12.8338 21.6726 13.223C21.8544 13.6094 22.1115 13.9091 22.4439 14.1222C22.7763 14.3352 23.1697 14.4418 23.6243 14.4418C23.9339 14.4418 24.2053 14.3935 24.4382 14.2969C24.674 14.2003 24.8714 14.071 25.0305 13.9091C25.1925 13.7443 25.3146 13.5639 25.397 13.3679L26.1172 13.6023C26.0178 13.8778 25.8544 14.1321 25.6271 14.3651C25.4027 14.598 25.1214 14.7855 24.7834 14.9276C24.4482 15.0668 24.0618 15.1364 23.6243 15.1364ZM30.5075 15.1364C29.9222 15.1364 29.4123 14.9901 28.9776 14.6974C28.5458 14.4048 28.2106 14.0043 27.9719 13.4957C27.7333 12.9872 27.614 12.4077 27.614 11.7571C27.614 11.1009 27.7347 10.517 27.9762 10.0057C28.2205 9.49432 28.5586 9.09375 28.9904 8.80398C29.4222 8.51136 29.9237 8.36506 30.4947 8.36506C30.9322 8.36506 31.3285 8.45028 31.6836 8.62074C32.0387 8.78835 32.3313 9.02557 32.5614 9.33239C32.7944 9.63636 32.9407 9.99148 33.0004 10.3977H32.2333C32.1538 10.0284 31.962 9.71307 31.658 9.4517C31.3569 9.1875 30.9734 9.0554 30.5075 9.0554C30.0898 9.0554 29.7205 9.16903 29.3995 9.39631C29.0785 9.62074 28.8271 9.93466 28.6452 10.3381C28.4663 10.7386 28.3768 11.2031 28.3768 11.7315C28.3768 12.2628 28.4648 12.733 28.641 13.142C28.8171 13.5483 29.0643 13.8665 29.3825 14.0966C29.7035 14.3267 30.0785 14.4418 30.5075 14.4418C30.7972 14.4418 31.0614 14.3878 31.3001 14.2798C31.5415 14.169 31.7433 14.0128 31.9052 13.8111C32.07 13.6094 32.1808 13.3693 32.2376 13.0909H33.0046C32.9478 13.4858 32.8072 13.8381 32.5827 14.1477C32.3612 14.4545 32.0728 14.696 31.7177 14.8722C31.3654 15.0483 30.962 15.1364 30.5075 15.1364ZM34.0891 9.17045V8.45455H39.2028V9.17045H37.038V15H36.2795V9.17045H34.0891Z" fill="#F7F2EC"/>
<rect x="0.5" y="0.5" width="53" height="21" rx="10.5" stroke="#FF7961"/>
<path d="M77.8295 8.45455V15H77.0668V8.45455H77.8295ZM77.5483 11.6889V12.4134C77.2898 12.5071 77.044 12.5866 76.8111 12.652C76.5781 12.7145 76.3438 12.7628 76.108 12.7969C75.875 12.831 75.6264 12.848 75.3622 12.848C74.6264 12.8452 74.0483 12.6562 73.6278 12.2812C73.2102 11.9062 73.0014 11.3352 73.0014 10.5682V8.43324H73.7599V10.5682C73.7599 10.9318 73.8253 11.2287 73.956 11.4588C74.0866 11.6889 74.2713 11.8594 74.5099 11.9702C74.7486 12.0781 75.0298 12.1321 75.3537 12.1321C75.7514 12.1321 76.1264 12.0923 76.4787 12.0128C76.831 11.9332 77.1875 11.8253 77.5483 11.6889ZM79.8537 15V8.45455H84.8097V15H84.0469V9.17045H80.6165V15H79.8537Z" fill="#FF7961"/>
<rect x="58.5" y="0.5" width="41" height="21" rx="10.5" stroke="#FF7961"/>
<path d="M123.714 6L124.111 6.48153C123.932 6.65483 123.717 6.77415 123.467 6.83949C123.22 6.90199 122.943 6.9375 122.636 6.94602C122.332 6.95455 122.004 6.96733 121.652 6.98438C121.146 7.00994 120.73 7.14205 120.403 7.38068C120.077 7.61648 119.828 7.95739 119.658 8.40341C119.49 8.84659 119.385 9.38778 119.342 10.027H119.428C119.646 9.58097 119.955 9.24148 120.352 9.00852C120.753 8.77557 121.193 8.65909 121.673 8.65909C122.176 8.65909 122.628 8.78267 123.028 9.02983C123.432 9.27415 123.75 9.63352 123.983 10.108C124.219 10.5795 124.337 11.1548 124.337 11.8338C124.337 12.5043 124.219 13.0881 123.983 13.5852C123.747 14.0795 123.418 14.4616 122.994 14.7315C122.571 15.0014 122.075 15.1364 121.507 15.1364C120.936 15.1364 120.436 15.0028 120.007 14.7358C119.581 14.4659 119.25 14.0696 119.014 13.5469C118.781 13.0213 118.665 12.375 118.665 11.608V10.9219C118.665 9.39631 118.906 8.24858 119.389 7.47869C119.872 6.70881 120.615 6.30682 121.618 6.27273C121.942 6.26136 122.236 6.25852 122.5 6.2642C122.764 6.26705 122.997 6.25426 123.199 6.22585C123.401 6.1946 123.572 6.11932 123.714 6ZM121.507 14.4418C121.93 14.4418 122.297 14.3352 122.607 14.1222C122.916 13.9062 123.155 13.6023 123.322 13.2102C123.493 12.8182 123.578 12.3594 123.578 11.8338C123.578 11.3111 123.491 10.8651 123.318 10.4957C123.148 10.1264 122.909 9.84375 122.602 9.64773C122.295 9.4517 121.936 9.35369 121.524 9.35369C121.2 9.35369 120.909 9.41619 120.651 9.54119C120.395 9.66335 120.176 9.83807 119.994 10.0653C119.812 10.2926 119.673 10.5597 119.577 10.8665C119.48 11.1733 119.43 11.5099 119.428 11.8764C119.428 12.669 119.612 13.2955 119.982 13.7557C120.354 14.2131 120.862 14.4418 121.507 14.4418ZM126.637 10.9815H128.554C129.29 10.9815 129.858 11.1605 130.259 11.5185C130.659 11.8764 130.86 12.3608 130.86 12.9716C130.86 13.3778 130.769 13.733 130.587 14.0369C130.408 14.3409 130.147 14.5781 129.803 14.7486C129.459 14.9162 129.043 15 128.554 15H126.006V8.45455H126.769V14.2841H128.554C129.017 14.2841 129.39 14.1733 129.671 13.9517C129.955 13.7301 130.097 13.4148 130.097 13.0057C130.097 12.5881 129.955 12.2656 129.671 12.0384C129.39 11.8111 129.017 11.6974 128.554 11.6974H126.637V10.9815ZM131.963 15V8.45455H132.722V15H131.963ZM134.339 9.17045V8.45455H139.453V9.17045H137.288V15H136.529V9.17045H134.339ZM143.26 15.1364C142.695 15.1364 142.195 14.9929 141.76 14.706C141.328 14.419 140.99 14.0227 140.746 13.517C140.502 13.0085 140.38 12.4219 140.38 11.7571C140.38 11.0866 140.502 10.4972 140.746 9.98864C140.99 9.47727 141.328 9.07955 141.76 8.79545C142.195 8.50852 142.695 8.36506 143.26 8.36506C143.826 8.36506 144.324 8.50852 144.756 8.79545C145.188 9.08239 145.526 9.48011 145.77 9.98864C146.017 10.4972 146.141 11.0866 146.141 11.7571C146.141 12.4219 146.019 13.0085 145.775 13.517C145.53 14.0227 145.191 14.419 144.756 14.706C144.324 14.9929 143.826 15.1364 143.26 15.1364ZM143.26 14.4418C143.715 14.4418 144.1 14.3196 144.415 14.0753C144.73 13.831 144.969 13.5057 145.131 13.0994C145.296 12.6932 145.378 12.2457 145.378 11.7571C145.378 11.2685 145.296 10.8196 145.131 10.4105C144.969 10.0014 144.73 9.6733 144.415 9.42614C144.1 9.17898 143.715 9.0554 143.26 9.0554C142.809 9.0554 142.424 9.17898 142.105 9.42614C141.79 9.6733 141.55 10.0014 141.385 10.4105C141.223 10.8196 141.142 11.2685 141.142 11.7571C141.142 12.2457 141.223 12.6932 141.385 13.0994C141.55 13.5057 141.79 13.831 142.105 14.0753C142.421 14.3196 142.806 14.4418 143.26 14.4418ZM147.806 15V8.45455H150.384C151.08 8.45455 151.629 8.60511 152.029 8.90625C152.433 9.20739 152.634 9.61364 152.634 10.125C152.634 10.5142 152.522 10.8253 152.298 11.0582C152.073 11.2912 151.772 11.456 151.394 11.5526C151.647 11.5952 151.881 11.6875 152.097 11.8295C152.316 11.9716 152.494 12.1591 152.63 12.392C152.766 12.625 152.835 12.9034 152.835 13.2273C152.835 13.5682 152.749 13.8722 152.579 14.1392C152.408 14.4062 152.168 14.6165 151.859 14.7699C151.549 14.9233 151.183 15 150.759 15H147.806ZM148.531 14.2969H150.759C151.16 14.2969 151.477 14.1946 151.71 13.9901C151.942 13.7827 152.059 13.5071 152.059 13.1634C152.059 12.7969 151.948 12.5043 151.727 12.2855C151.508 12.0639 151.214 11.9531 150.844 11.9531H148.531V14.2969ZM148.531 11.2798H150.431C150.727 11.2798 150.982 11.2344 151.198 11.1435C151.414 11.0526 151.58 10.9247 151.697 10.7599C151.816 10.5923 151.874 10.3963 151.871 10.1719C151.871 9.85085 151.741 9.60227 151.479 9.42614C151.218 9.24716 150.853 9.15767 150.384 9.15767H148.531V11.2798ZM155.137 10.9815H157.054C157.79 10.9815 158.358 11.1605 158.759 11.5185C159.159 11.8764 159.36 12.3608 159.36 12.9716C159.36 13.3778 159.269 13.733 159.087 14.0369C158.908 14.3409 158.647 14.5781 158.303 14.7486C157.959 14.9162 157.543 15 157.054 15H154.506V8.45455H155.269V14.2841H157.054C157.517 14.2841 157.89 14.1733 158.171 13.9517C158.455 13.7301 158.597 13.4148 158.597 13.0057C158.597 12.5881 158.455 12.2656 158.171 12.0384C157.89 11.8111 157.517 11.6974 157.054 11.6974H155.137V10.9815ZM160.463 15V8.45455H161.222V15H160.463ZM165.886 15.1364C165.275 15.1364 164.747 14.9943 164.301 14.7102C163.855 14.4233 163.51 14.027 163.265 13.5213C163.024 13.0128 162.903 12.4276 162.903 11.7656C162.903 11.1065 163.024 10.5213 163.265 10.0099C163.51 9.49574 163.846 9.09375 164.275 8.80398C164.707 8.51136 165.206 8.36506 165.771 8.36506C166.126 8.36506 166.468 8.4304 166.798 8.56108C167.127 8.68892 167.423 8.88636 167.684 9.15341C167.949 9.41761 168.157 9.75142 168.311 10.1548C168.464 10.5554 168.541 11.0298 168.541 11.5781V11.9531H163.427V11.2841H167.765C167.765 10.8636 167.68 10.4858 167.51 10.1506C167.342 9.8125 167.108 9.54545 166.806 9.34943C166.508 9.15341 166.163 9.0554 165.771 9.0554C165.356 9.0554 164.991 9.16619 164.676 9.38778C164.36 9.60937 164.113 9.90199 163.934 10.2656C163.758 10.6293 163.669 11.027 163.666 11.4588V11.8594C163.666 12.3793 163.755 12.8338 163.934 13.223C164.116 13.6094 164.373 13.9091 164.706 14.1222C165.038 14.3352 165.431 14.4418 165.886 14.4418C166.196 14.4418 166.467 14.3935 166.7 14.2969C166.936 14.2003 167.133 14.071 167.292 13.9091C167.454 13.7443 167.576 13.5639 167.659 13.3679L168.379 13.6023C168.279 13.8778 168.116 14.1321 167.889 14.3651C167.664 14.598 167.383 14.7855 167.045 14.9276C166.71 15.0668 166.324 15.1364 165.886 15.1364ZM176.144 15.1364C175.559 15.1364 175.049 14.9901 174.614 14.6974C174.183 14.4048 173.847 14.0043 173.609 13.4957C173.37 12.9872 173.251 12.4077 173.251 11.7571C173.251 11.1009 173.371 10.517 173.613 10.0057C173.857 9.49432 174.195 9.09375 174.627 8.80398C175.059 8.51136 175.56 8.36506 176.131 8.36506C176.569 8.36506 176.965 8.45028 177.32 8.62074C177.675 8.78835 177.968 9.02557 178.198 9.33239C178.431 9.63636 178.577 9.99148 178.637 10.3977H177.87C177.79 10.0284 177.599 9.71307 177.295 9.4517C176.994 9.1875 176.61 9.0554 176.144 9.0554C175.727 9.0554 175.357 9.16903 175.036 9.39631C174.715 9.62074 174.464 9.93466 174.282 10.3381C174.103 10.7386 174.013 11.2031 174.013 11.7315C174.013 12.2628 174.102 12.733 174.278 13.142C174.454 13.5483 174.701 13.8665 175.019 14.0966C175.34 14.3267 175.715 14.4418 176.144 14.4418C176.434 14.4418 176.698 14.3878 176.937 14.2798C177.178 14.169 177.38 14.0128 177.542 13.8111C177.707 13.6094 177.817 13.3693 177.874 13.0909H178.641C178.585 13.4858 178.444 13.8381 178.219 14.1477C177.998 14.4545 177.71 14.696 177.354 14.8722C177.002 15.0483 176.599 15.1364 176.144 15.1364ZM181.026 13.9219L184.482 8.45455H185.389V15H184.631V9.53267L181.188 15H180.267V8.45455H181.026V13.9219ZM186.476 9.17045V8.45455H191.589V9.17045H189.425V15H188.666V9.17045H186.476ZM193.721 17.4545C193.571 17.4545 193.43 17.4403 193.299 17.4119C193.169 17.3835 193.065 17.3523 192.988 17.3182L193.193 16.6491C193.451 16.7287 193.681 16.7571 193.883 16.7344C194.085 16.7145 194.264 16.6236 194.42 16.4616C194.576 16.3026 194.716 16.0582 194.838 15.7287L195.076 15.0639L192.669 8.45455H193.491L195.434 13.9986H195.494L197.437 8.45455H198.26L195.49 16.0355C195.373 16.3509 195.23 16.6136 195.059 16.8239C194.889 17.0369 194.691 17.1946 194.467 17.2969C194.245 17.402 193.997 17.4545 193.721 17.4545ZM201.373 15.1491C200.978 15.1491 200.617 15.0724 200.29 14.919C199.963 14.7628 199.703 14.5384 199.51 14.2457C199.317 13.9503 199.221 13.5923 199.221 13.1719C199.221 12.848 199.282 12.5753 199.404 12.3537C199.526 12.1321 199.699 11.9503 199.924 11.8082C200.148 11.6662 200.414 11.554 200.721 11.4716C201.027 11.3892 201.365 11.3253 201.735 11.2798C202.101 11.2344 202.411 11.1946 202.664 11.1605C202.919 11.1264 203.114 11.0724 203.248 10.9986C203.381 10.9247 203.448 10.8054 203.448 10.6406V10.4872C203.448 10.0412 203.314 9.69034 203.047 9.43466C202.783 9.17614 202.402 9.04688 201.905 9.04688C201.434 9.04688 201.049 9.15057 200.75 9.35795C200.455 9.56534 200.248 9.80966 200.128 10.0909L199.408 9.83097C199.556 9.47301 199.76 9.1875 200.022 8.97443C200.283 8.75852 200.576 8.60369 200.9 8.50994C201.223 8.41335 201.551 8.36506 201.884 8.36506C202.134 8.36506 202.394 8.39773 202.664 8.46307C202.936 8.52841 203.189 8.64205 203.422 8.80398C203.655 8.96307 203.844 9.18608 203.989 9.47301C204.134 9.7571 204.206 10.1179 204.206 10.5554V15H203.448V13.9645H203.401C203.31 14.1577 203.175 14.3452 202.996 14.527C202.817 14.7088 202.593 14.858 202.323 14.9744C202.053 15.0909 201.736 15.1491 201.373 15.1491ZM201.475 14.4545C201.878 14.4545 202.228 14.3651 202.523 14.1861C202.819 14.0071 203.046 13.7699 203.205 13.4744C203.367 13.1761 203.448 12.848 203.448 12.4901V11.544C203.391 11.598 203.296 11.6463 203.162 11.6889C203.032 11.7315 202.88 11.7699 202.706 11.804C202.536 11.8352 202.365 11.8622 202.195 11.8849C202.025 11.9077 201.871 11.9276 201.735 11.9446C201.365 11.9901 201.05 12.0611 200.789 12.1577C200.527 12.2543 200.327 12.3878 200.188 12.5582C200.049 12.7259 199.979 12.9418 199.979 13.206C199.979 13.6037 200.121 13.9119 200.405 14.1307C200.689 14.3466 201.046 14.4545 201.475 14.4545ZM211.189 8.45455V14.2798H211.883V17.1179H211.125V15H206.233V8.45455H206.995V14.2841H210.426V8.45455H211.189ZM214.26 13.9219L217.716 8.45455H218.624V15H217.865V9.53267L214.422 15H213.501V8.45455H214.26V13.9219ZM221.385 13.9219L224.841 8.45455H225.749V15H224.99V9.53267L221.547 15H220.626V8.45455H221.385V13.9219Z" fill="#FF7961"/>
<rect x="104.5" y="0.5" width="136" height="21" rx="10.5" stroke="#FF7961"/>
</svg>
