<svg width="39" height="46" viewBox="0 0 39 46" fill="none" xmlns="http://www.w3.org/2000/svg">
<path d="M0 3.18882C1.16817 2.43951 2.3082 2.2416 3.51859 2.28401C4.64454 2.32642 5.77049 2.29816 7.03718 2.29816C7.00903 1.83161 6.99506 1.36502 6.96691 0.898467C7.1358 0.757087 7.23422 0.615707 7.38904 0.545017C9.00759 -0.133608 10.7107 0.0925931 12.3996 0.00776492C14.4122 -0.0912013 15.4678 0.75708 16.4671 2.48192C18.2405 5.52159 20.3938 8.33508 22.3783 11.2475C22.5472 11.4879 22.6598 11.7565 22.9272 12.2655C25.7702 8.3068 28.8243 5.64883 33.7503 6.14366C37.3956 6.51125 37.7755 6.39819 39 7.59992C38.5637 8.27855 37.8601 8.26437 37.2127 8.22195C35.383 8.08057 34.0741 8.88647 33.0045 10.2861C31.203 12.633 29.4154 14.9658 27.5857 17.2844C27.079 17.9348 27.1212 18.4438 27.5575 19.1224C31.8784 25.8521 34.9184 33.218 37.9444 40.5981C38.0711 40.9091 38.1838 41.2343 38.2542 41.5594C38.2964 41.7715 38.2683 41.9977 38.2683 42.4077C37.3675 42.4926 36.4808 42.6057 35.6082 42.6764C34.1445 42.7753 32.6667 42.8319 31.2029 42.9167C30.5555 42.9591 30.091 42.7329 29.9644 42.0401C29.5281 39.7922 28.3458 38.6894 25.9391 39.2691C24.3206 39.665 23.4479 38.7036 22.702 37.417C21.4775 35.3104 20.1827 33.2463 18.7471 30.8852C18.2686 31.5921 17.9026 32.0587 17.607 32.5535C15.327 36.286 13.0329 40.0184 10.781 43.7791C9.99284 45.094 9.06389 45.8716 7.38904 45.7726C5.81271 45.6878 4.22232 45.9705 2.64599 45.9988C1.37929 46.027 1.01335 45.5746 1.22446 44.3305C1.32298 43.7225 1.53417 43.1146 1.82974 42.5632C3.29347 39.7922 4.81339 37.0635 6.2912 34.3066C6.61491 33.7128 7.03715 33.3452 7.71272 33.2321C8.66978 33.0625 9.28902 32.497 9.7957 31.6628C11.0061 29.6694 12.2588 27.69 13.5818 25.7672C14.2292 24.82 14.2151 24.1273 13.5254 23.1942C9.90833 18.2176 6.34752 13.2127 2.80078 8.19369C1.98447 7.03438 1.21035 5.83265 0.47848 4.61677C0.225142 4.19263 0.154818 3.68365 0 3.18882Z" fill="#F7683C"/>
</svg>
