<svg width="137" height="155" viewBox="0 0 137 155" fill="none" xmlns="http://www.w3.org/2000/svg">
<g clip-path="url(#clip0_2092_3816)">
<path fill-rule="evenodd" clip-rule="evenodd" d="M38.6398 47.7996C38.4348 47.5032 38.2274 47.2031 38.0167 46.8975C38.0305 46.8903 38.0435 46.8833 38.056 46.8767C38.148 46.8279 38.2062 46.797 38.268 46.7829C39.1688 46.4108 40.0717 46.0435 40.9745 45.6763C43.1656 44.785 45.3566 43.8937 47.5194 42.9333C50.0809 41.7875 52.6188 40.5918 55.1332 39.3461C58.1815 37.8336 61.1767 36.2248 64.1477 34.57C66.0845 33.4925 67.9953 32.3718 69.8801 31.2078C71.327 30.312 72.745 29.3775 74.1649 28.4418C74.3428 28.3246 74.5206 28.2074 74.6986 28.0903C75.1353 27.8016 75.5594 27.494 75.9835 27.1863C76.2873 26.966 76.591 26.7456 76.8994 26.5322C78.3321 25.5432 79.722 24.498 81.0965 23.4323C83.072 21.9012 85.0182 20.3311 86.8976 18.683C87.9316 17.7776 88.9645 16.8705 89.9961 15.9617L90.0028 15.9556C90.2853 15.6998 90.5656 15.446 90.9942 15.7783C91.1282 15.4642 91.2579 15.155 91.386 14.8495C91.6376 14.2498 91.8831 13.6646 92.143 13.0861C92.2798 12.7803 92.4069 12.4703 92.5341 12.1602C92.7992 11.5138 93.0645 10.8671 93.4176 10.2579C93.551 10.0285 93.649 9.77933 93.7472 9.52993C93.8114 9.36679 93.8757 9.20353 93.9499 9.0456C93.973 9.00953 93.9882 8.96893 93.9943 8.92652C94.0004 8.88411 93.9974 8.84088 93.9855 8.79974C93.9735 8.75859 93.9529 8.72047 93.925 8.68796C93.8971 8.65544 93.8625 8.62927 93.8237 8.6112C93.7248 8.55267 93.6215 8.50204 93.5146 8.45978C92.5104 8.02851 91.5049 7.5996 90.4995 7.17067C89.4025 6.70276 88.3056 6.23484 87.2103 5.76386C87.103 5.70894 86.9836 5.68174 86.8631 5.68472C86.7425 5.68769 86.6246 5.72076 86.5201 5.78091C85.1309 6.4707 83.8012 7.26577 82.469 8.06234C82.3897 8.10976 82.3104 8.15719 82.2311 8.2046C81.4238 8.68653 80.6025 9.14852 79.7818 9.61018C79.6035 9.71051 79.4252 9.81081 79.2471 9.9113C77.6024 10.8387 75.9856 11.8172 74.3702 12.7948C74.3007 12.8368 74.2313 12.8788 74.1619 12.9208C72.6384 13.8413 71.102 14.7418 69.5657 15.6422C69.0259 15.9586 68.4862 16.275 67.947 16.5922C65.9541 17.7652 63.9307 18.8805 61.8947 19.9742C59.6402 21.1863 57.3528 22.3302 55.0413 23.4363C52.242 24.7794 49.3957 26.0097 46.5501 27.2397C46.086 27.4402 45.622 27.6408 45.1582 27.8419C43.9029 28.3867 42.6353 28.9039 41.3677 29.4211C40.3383 29.8411 39.3089 30.2611 38.2861 30.6959C35.1853 32.0135 32.0422 33.2201 28.8688 34.3493C28.0841 34.6284 27.3084 34.932 26.5465 35.268C25.6258 35.6742 24.7264 36.1814 24.6048 37.5011C24.3104 40.6132 23.0653 43.5593 21.0386 45.9393C20.5181 46.5553 20.3159 47.0427 20.4502 47.6496C20.5983 48.3039 20.842 48.9329 21.1736 49.5161C21.2141 49.5887 21.2546 49.6613 21.2951 49.7339C22.0258 51.0439 22.757 52.3547 23.5627 53.6168C25.5544 56.7554 27.4318 59.961 29.1948 63.2334C30.5095 65.6669 31.7651 68.13 32.9617 70.6227C33.2361 71.1951 33.5132 71.7658 33.7902 72.3364C34.3875 73.5669 34.9845 74.7966 35.5535 76.0401C36.3678 77.8177 37.1655 79.6025 37.9632 81.3873C38.4828 82.5498 39.0024 83.7123 39.5265 84.8729C40.458 86.9489 41.4042 89.0163 42.3652 91.075C42.8853 92.1881 43.4142 93.2977 43.943 94.4072C44.6362 95.8616 45.3292 97.3157 46.0022 98.7768C46.5829 100.04 47.1375 101.315 47.6922 102.591C48.0738 103.468 48.4554 104.345 48.8454 105.219C48.8878 105.314 48.9298 105.409 48.9718 105.504C49.3003 106.246 49.6293 106.989 50.1308 107.644C50.3087 107.892 50.5509 108.087 50.8315 108.208L59.1522 111.759C59.3971 111.863 59.5098 111.916 59.5862 111.883C59.6633 111.85 59.7035 111.731 59.8055 111.492C60.9833 108.715 62.1667 105.942 63.3556 103.172C63.4588 102.926 63.4982 102.657 63.4701 102.392C63.3891 101.294 63.0928 100.248 62.7887 99.1981C62.124 96.93 61.4044 94.6799 60.6085 92.4525C59.9823 90.6868 59.33 88.9311 58.6516 87.1853C57.7907 84.9669 56.8143 82.7983 55.8377 80.6293C55.5745 80.0447 55.3112 79.4601 55.0503 78.8745C54.9772 78.7106 54.9041 78.5466 54.831 78.3827C53.5827 75.5818 52.3341 72.7806 50.9922 70.0227C49.8324 67.6377 48.6146 65.2808 47.3821 62.9314C47.1667 62.5207 46.9517 62.1098 46.7366 61.6989C45.4958 59.3285 44.2551 56.9581 42.9525 54.619C42.0316 52.9647 41.067 51.3402 40.0004 49.7767C39.5541 49.1222 39.1034 48.4703 38.6398 47.7996ZM84.8301 54.698C84.5201 54.181 84.2087 53.6614 83.8973 53.1368C83.9466 53.11 83.9888 53.0861 84.0275 53.0643C84.0909 53.0284 84.1445 52.9981 84.2032 52.9696C86.9652 51.7545 89.7058 50.4931 92.4253 49.1855C92.9499 48.9333 93.4765 48.6843 94.0033 48.4353C95.2908 47.8267 96.5789 47.2178 97.8383 46.5608C97.9868 46.4836 98.1354 46.4064 98.284 46.3292C100.588 45.1322 102.893 43.935 105.13 42.6098C105.385 42.4589 105.639 42.3083 105.894 42.1578C107.564 41.1705 109.233 40.1838 110.848 39.1091C111.052 38.9731 111.257 38.8387 111.463 38.7042C112.17 38.241 112.877 37.7779 113.54 37.249C113.601 37.2008 113.66 37.1462 113.72 37.0911C113.904 36.9212 114.094 36.746 114.346 36.7365C114.637 36.7278 114.708 36.5609 114.789 36.3681C114.794 36.3557 114.799 36.3433 114.804 36.3308L118.06 28.7007C118.17 28.4427 118.235 28.3315 118.205 28.2568C118.175 28.1799 118.046 28.1418 117.767 28.0224C117.078 27.7277 116.388 27.4344 115.699 27.141C113.914 26.3818 112.13 25.6226 110.354 24.841C109.926 24.6523 109.593 24.6899 109.242 24.9252C109.077 25.0365 108.915 25.1528 108.753 25.2692C108.48 25.4654 108.207 25.6615 107.917 25.8325C107.739 25.9383 107.56 26.0443 107.382 26.1503C106.151 26.8819 104.923 27.6119 103.642 28.262C101.603 29.3018 99.5376 30.2818 97.4237 31.1537C93.673 32.7011 89.8865 34.1573 86.0787 35.5608C83.1479 36.6418 80.2265 37.7463 77.3244 38.9028C76.9931 39.0348 76.6603 39.1641 76.3273 39.2934C74.9465 39.8297 73.563 40.367 72.2736 41.1072C71.5382 41.5292 70.9439 42.0758 70.596 42.9126C69.3821 45.8324 68.1342 48.736 66.8866 51.6387C66.701 52.0705 66.5154 52.5024 66.33 52.9342C66.1256 53.3891 66.0699 53.8967 66.1707 54.385C66.4004 55.5442 66.9337 56.5766 67.4728 57.6114C67.9146 58.4551 68.3631 59.295 68.8114 60.1346C69.522 61.4656 70.2322 62.7958 70.9153 64.1391C72.282 66.8286 73.5695 69.5556 74.7026 72.3534C75.4921 74.3022 76.2668 76.2562 76.9864 78.2315C77.3025 79.102 77.6221 79.9715 77.9417 80.841C78.3864 82.0506 78.8311 83.2603 79.2665 84.4735C79.4719 85.0464 79.6788 85.6186 79.8856 86.1908C80.3861 87.5753 80.8864 88.9596 81.3664 90.3513C81.8266 91.6816 82.3079 93.0069 82.7892 94.3323C83.1487 95.3224 83.5082 96.3126 83.8591 97.3049C84.658 99.5739 85.5171 101.82 86.5151 104.013C86.5575 104.128 86.6228 104.234 86.707 104.323C86.7912 104.412 86.8926 104.484 87.0051 104.533L96.3304 108.512C96.701 108.67 96.7103 108.667 96.8651 108.304L100.867 98.9256C100.939 98.7907 100.976 98.6399 100.974 98.4871C100.908 97.5312 100.819 96.5758 100.598 95.6454C99.9991 93.1251 99.3599 90.6139 98.6448 88.1243C98.049 86.0451 97.4008 83.9828 96.7527 81.9209C96.5552 81.2925 96.3577 80.6641 96.1617 80.0354C95.3543 77.4443 94.4107 74.8974 93.4418 72.364C92.4538 69.7786 91.4116 67.2149 90.2349 64.7077C89.1935 62.4951 88.0985 60.3194 86.8899 58.1941C86.2237 57.0226 85.5308 55.8668 84.8301 54.698Z" fill="#3C65F7"/>
</g>
<defs>
<clipPath id="clip0_2092_3816">
<rect width="137" height="155" fill="white"/>
</clipPath>
</defs>
</svg>
