<svg width="567" height="436" viewBox="0 0 567 436" fill="none" xmlns="http://www.w3.org/2000/svg">
<g filter="url(#filter0_f_1556_2035)">
<rect x="64.9551" y="423.301" width="289.604" height="506.808" rx="24.9137" transform="rotate(-105 64.9551 423.301)" fill="#F7F2EC"/>
</g>
<path d="M177.829 246.802L160.276 233.079L156.78 234.016L161.387 251.207L154.26 253.117L143.719 213.777L150.846 211.868L155.179 228.042L156.966 227.563L166.616 207.642L175.394 205.29L164.662 227.395L186.608 244.449L177.829 246.802ZM199.791 241.555C197.921 242.056 196.148 242.174 194.471 241.91C192.804 241.629 191.358 240.946 190.134 239.86C188.922 238.771 188.058 237.26 187.54 235.326C187.093 233.662 187.032 232.203 187.355 230.949C187.678 229.696 188.283 228.601 189.171 227.663C190.059 226.725 191.124 225.911 192.367 225.221C193.619 224.515 194.942 223.893 196.335 223.355C198.015 222.713 199.375 222.177 200.413 221.748C201.447 221.306 202.167 220.866 202.571 220.428C202.984 219.974 203.102 219.414 202.924 218.748L202.893 218.633C202.505 217.186 201.776 216.181 200.705 215.617C199.634 215.052 198.292 214.987 196.679 215.419C194.975 215.875 193.724 216.609 192.924 217.619C192.137 218.626 191.706 219.682 191.632 220.786L184.892 221.604C184.924 219.674 185.368 217.949 186.223 216.429C187.075 214.897 188.272 213.602 189.814 212.544C191.353 211.473 193.153 210.661 195.215 210.108C196.636 209.728 198.096 209.515 199.594 209.47C201.091 209.426 202.526 209.632 203.897 210.088C205.265 210.531 206.476 211.311 207.53 212.429C208.597 213.543 209.393 215.08 209.918 217.039L215.209 236.786L208.525 238.577L207.439 234.524L207.208 234.585C207.005 235.518 206.616 236.446 206.04 237.369C205.473 238.276 204.671 239.101 203.636 239.846C202.609 240.574 201.327 241.143 199.791 241.555ZM200.227 235.962C201.623 235.588 202.759 234.988 203.636 234.163C204.51 233.325 205.098 232.371 205.402 231.302C205.718 230.229 205.731 229.148 205.439 228.06L204.508 224.583C204.338 224.82 204.011 225.086 203.527 225.381C203.056 225.672 202.516 225.961 201.907 226.247C201.297 226.534 200.691 226.806 200.087 227.064C199.484 227.322 198.96 227.545 198.516 227.732C197.517 228.151 196.65 228.63 195.916 229.17C195.183 229.71 194.656 230.331 194.336 231.035C194.014 231.725 193.972 232.518 194.213 233.415C194.556 234.695 195.282 235.537 196.392 235.94C197.502 236.342 198.78 236.35 200.227 235.962ZM225.166 245.976L214.296 205.407L221.134 203.575L222.441 208.454L222.845 208.346C223.011 207.533 223.313 206.635 223.75 205.654C224.183 204.659 224.88 203.724 225.84 202.85C226.796 201.962 228.138 201.287 229.867 200.823C232.147 200.213 234.358 200.244 236.502 200.919C238.654 201.578 240.572 202.896 242.255 204.874C243.948 206.836 245.233 209.457 246.112 212.735C246.98 215.975 247.186 218.871 246.73 221.422C246.275 223.973 245.291 226.09 243.779 227.772C242.267 229.453 240.352 230.605 238.034 231.226C236.344 231.679 234.866 231.773 233.601 231.508C232.336 231.243 231.257 230.804 230.366 230.192C229.484 229.564 228.761 228.941 228.198 228.323L227.909 228.4L232.12 244.113L225.166 245.976ZM225.068 218.333C225.579 220.241 226.296 221.84 227.218 223.13C228.153 224.417 229.241 225.326 230.481 225.858C231.731 226.374 233.093 226.435 234.565 226.04C236.102 225.629 237.279 224.874 238.097 223.777C238.911 222.666 239.389 221.324 239.529 219.749C239.679 218.157 239.507 216.44 239.013 214.596C238.523 212.765 237.824 211.209 236.918 209.928C236.012 208.647 234.933 207.742 233.679 207.213C232.426 206.685 231.024 206.628 229.475 207.043C227.989 207.441 226.833 208.17 226.005 209.229C225.177 210.288 224.683 211.594 224.522 213.146C224.375 214.696 224.556 216.424 225.068 218.333ZM246.381 202.925L244.852 197.22L270.669 190.302L272.197 196.007L262.651 198.565L269.028 222.365L262.305 224.166L255.927 200.367L246.381 202.925ZM295.921 215.777C293.039 216.549 290.372 216.584 287.92 215.882C285.467 215.181 283.353 213.846 281.576 211.879C279.813 209.909 278.523 207.399 277.707 204.352C276.89 201.304 276.751 198.479 277.289 195.878C277.84 193.274 279.002 191.055 280.776 189.221C282.549 187.387 284.876 186.084 287.758 185.312C290.639 184.54 293.306 184.504 295.758 185.206C298.211 185.908 300.321 187.25 302.088 189.234C303.867 191.214 305.165 193.727 305.982 196.775C306.799 199.823 306.93 202.643 306.375 205.234C305.833 207.823 304.676 210.034 302.902 211.868C301.129 213.702 298.802 215.005 295.921 215.777ZM294.466 210.196C296.029 209.777 297.22 208.998 298.04 207.859C298.857 206.707 299.326 205.332 299.447 203.735C299.581 202.134 299.407 200.438 298.927 198.645C298.443 196.839 297.743 195.277 296.827 193.958C295.92 192.622 294.825 191.66 293.542 191.07C292.258 190.481 290.835 190.396 289.273 190.814C287.672 191.243 286.457 192.035 285.628 193.191C284.811 194.343 284.337 195.726 284.207 197.339C284.086 198.936 284.267 200.638 284.751 202.443C285.231 204.236 285.923 205.794 286.827 207.117C287.743 208.436 288.843 209.39 290.126 209.979C291.419 210.553 292.866 210.625 294.466 210.196ZM332.545 173.723L340.451 203.227L333.766 205.018L325.86 175.514L332.545 173.723ZM332.986 187.892L334.509 193.578C333.843 194.114 333.066 194.644 332.177 195.171C331.298 195.681 330.348 196.155 329.326 196.594C328.317 197.029 327.288 197.387 326.238 197.668C322.293 198.725 318.938 198.677 316.173 197.524C313.416 196.355 311.534 193.888 310.525 190.123L307.89 180.288L314.536 178.507L317.171 188.342C317.511 189.61 318.008 190.568 318.662 191.216C319.316 191.864 320.146 192.246 321.151 192.361C322.153 192.463 323.339 192.33 324.709 191.963C326.246 191.551 327.664 191.007 328.965 190.329C330.266 189.651 331.606 188.839 332.986 187.892ZM347.447 201.353L339.542 171.848L346.495 169.985L349.686 181.894L352.222 181.215L357.905 166.927L366.28 164.683L359.231 182.095L374.301 194.157L365.888 196.411L354.821 187.456L351.421 188.367L354.401 199.489L347.447 201.353ZM382.426 181.892L388.855 158.634L396.001 156.72L403.907 186.224L397.184 188.026L391.795 167.914L385.409 191.181L378.244 193.101L370.338 163.596L377.042 161.8L382.426 181.892Z" fill="#F96247"/>
<path d="M186.508 285.721L185.294 281.194L186.172 280.958C186.327 280.677 186.448 280.385 186.533 280.082C186.619 279.78 186.671 279.435 186.69 279.048C186.712 278.655 186.695 278.188 186.639 277.65C186.581 277.106 186.486 276.458 186.353 275.704L185.592 271.438L192.288 269.644L194.707 278.672L196.326 278.238L197.539 282.766L195.92 283.199L195.111 280.181L187.318 282.269L188.127 285.288L186.508 285.721ZM188.011 280.466L193.088 279.105L191.073 271.587L187.506 272.542L187.944 275.278C188.125 276.411 188.242 277.411 188.293 278.28C188.344 279.148 188.25 279.877 188.011 280.466ZM197.946 279.421L197.542 277.912L197.926 277.809C198.241 277.724 198.488 277.592 198.665 277.412C198.841 277.228 198.951 276.961 198.994 276.611C199.041 276.255 199.023 275.785 198.94 275.199C198.86 274.608 198.717 273.867 198.513 272.975L197.455 268.259L204.48 266.377L207.303 276.914L205.684 277.348L203.265 268.32L199.396 269.356L200.239 273.16C200.434 274.034 200.56 274.816 200.618 275.507C200.679 276.192 200.65 276.788 200.531 277.295C200.416 277.801 200.195 278.218 199.866 278.546C199.537 278.875 199.08 279.117 198.495 279.274L197.946 279.421ZM216.613 274.419L214.186 265.364L211.387 266.114C210.756 266.283 210.299 266.562 210.016 266.952C209.734 267.341 209.661 267.792 209.798 268.304C209.933 268.808 210.201 269.16 210.603 269.361C211.01 269.561 211.499 269.584 212.07 269.431L215.473 268.519L215.877 270.028L212.475 270.94C211.761 271.131 211.112 271.17 210.528 271.057C209.944 270.944 209.45 270.692 209.046 270.3C208.641 269.904 208.352 269.383 208.179 268.738C208.005 268.089 208.002 267.492 208.169 266.947C208.337 266.402 208.659 265.931 209.136 265.533C209.618 265.135 210.236 264.834 210.99 264.632L215.326 263.47L218.15 274.008L216.613 274.419ZM209.588 276.302L211.175 270.259L212.931 269.789L211.344 275.831L209.588 276.302ZM230.895 270.828C229.907 271.093 228.994 271.087 228.155 270.812C227.317 270.537 226.596 270.041 225.992 269.325C225.389 268.61 224.946 267.726 224.664 266.674C224.377 265.604 224.321 264.607 224.495 263.683C224.672 262.753 225.053 261.962 225.639 261.31C226.227 260.652 226.997 260.196 227.948 259.941C228.689 259.743 229.394 259.701 230.062 259.816C230.73 259.931 231.32 260.185 231.832 260.577C232.344 260.969 232.734 261.482 233.002 262.117L231.383 262.55C231.13 262.103 230.742 261.751 230.217 261.495C229.696 261.233 229.079 261.197 228.365 261.388C227.734 261.557 227.225 261.87 226.838 262.327C226.453 262.778 226.208 263.336 226.102 264.002C226 264.662 226.055 265.39 226.268 266.185C226.487 266.999 226.805 267.674 227.222 268.209C227.645 268.743 228.136 269.114 228.697 269.321C229.262 269.528 229.865 269.545 230.505 269.374C230.926 269.261 231.288 269.085 231.592 268.847C231.896 268.609 232.13 268.321 232.294 267.982C232.458 267.644 232.539 267.27 232.537 266.859L234.156 266.425C234.231 267.071 234.155 267.692 233.927 268.288C233.703 268.877 233.335 269.397 232.823 269.848C232.315 270.293 231.672 270.62 230.895 270.828ZM238.405 272.815L234.523 258.327L236.087 257.907L236.535 259.581L236.728 259.53C236.797 259.315 236.9 259.038 237.034 258.698C237.172 258.352 237.41 258.014 237.747 257.683C238.089 257.347 238.602 257.086 239.288 256.903C240.175 256.665 241.017 256.677 241.813 256.939C242.609 257.202 243.305 257.689 243.903 258.401C244.501 259.114 244.948 260.023 245.244 261.13C245.543 262.246 245.613 263.264 245.453 264.185C245.291 265.1 244.934 265.872 244.382 266.501C243.829 267.125 243.113 267.554 242.235 267.789C241.558 267.971 240.986 268.004 240.519 267.889C240.05 267.769 239.668 267.595 239.371 267.366C239.073 267.132 238.839 266.935 238.669 266.774L238.531 266.811L240.024 272.382L238.405 272.815ZM237.526 263.169C237.739 263.965 238.044 264.635 238.44 265.181C238.835 265.722 239.303 266.104 239.843 266.327C240.382 266.546 240.976 266.568 241.626 266.394C242.302 266.212 242.819 265.883 243.177 265.405C243.537 264.921 243.75 264.344 243.816 263.675C243.885 262.999 243.819 262.287 243.618 261.537C243.42 260.796 243.126 260.159 242.738 259.625C242.354 259.086 241.886 258.704 241.336 258.479C240.788 258.248 240.172 258.225 239.486 258.409C238.827 258.585 238.319 258.9 237.96 259.354C237.6 259.804 237.385 260.356 237.316 261.012C237.245 261.663 237.315 262.382 237.526 263.169ZM253.458 264.782C252.507 265.037 251.612 265.034 250.772 264.774C249.937 264.512 249.21 264.028 248.589 263.322C247.973 262.615 247.519 261.717 247.228 260.628C246.933 259.531 246.876 258.519 247.054 257.594C247.237 256.667 247.625 255.882 248.217 255.238C248.814 254.593 249.588 254.143 250.539 253.888C251.49 253.633 252.383 253.636 253.218 253.898C254.058 254.158 254.786 254.645 255.403 255.357C256.025 256.068 256.483 256.972 256.777 258.069C257.069 259.158 257.122 260.163 256.938 261.085C256.758 262.006 256.37 262.789 255.773 263.434C255.181 264.078 254.409 264.527 253.458 264.782ZM253.068 263.328C253.791 263.134 254.336 262.79 254.703 262.294C255.07 261.799 255.285 261.219 255.348 260.555C255.41 259.892 255.347 259.208 255.158 258.503C254.969 257.799 254.681 257.173 254.294 256.624C253.907 256.076 253.43 255.677 252.863 255.427C252.296 255.177 251.651 255.149 250.929 255.342C250.206 255.536 249.662 255.883 249.296 256.383C248.93 256.883 248.716 257.467 248.655 258.135C248.594 258.804 248.658 259.49 248.847 260.194C249.035 260.899 249.323 261.523 249.708 262.066C250.094 262.61 250.57 263.005 251.136 263.25C251.702 263.495 252.346 263.521 253.068 263.328ZM265.945 249.907L268.768 260.445L267.149 260.878L264.326 250.341L265.945 249.907ZM266.659 255.098L267.063 256.607C266.734 256.843 266.403 257.061 266.07 257.263C265.736 257.461 265.378 257.642 264.996 257.808C264.612 257.97 264.183 258.114 263.707 258.242C262.514 258.562 261.469 258.496 260.574 258.045C259.683 257.592 259.065 256.721 258.719 255.431L257.815 252.056L259.434 251.622L260.338 254.998C260.483 255.537 260.704 255.953 261.003 256.246C261.302 256.538 261.651 256.722 262.048 256.797C262.446 256.872 262.864 256.85 263.303 256.733C263.989 256.549 264.592 256.321 265.112 256.049C265.636 255.772 266.152 255.455 266.659 255.098ZM277.181 251.749L277.585 253.259L271.768 254.817L271.363 253.308L277.181 251.749ZM270.534 248.677L273.358 259.215L271.739 259.649L268.915 249.111L270.534 248.677ZM277.202 246.891L280.026 257.428L278.407 257.862L275.583 247.325L277.202 246.891ZM282.581 249.538L285.599 248.729C286.834 248.398 287.862 248.458 288.684 248.91C289.506 249.361 290.046 250.067 290.303 251.027C290.472 251.658 290.48 252.272 290.325 252.867C290.17 253.457 289.85 253.982 289.365 254.44C288.878 254.894 288.224 255.231 287.401 255.452L282.983 256.636L280.159 246.098L281.778 245.665L284.197 254.693L286.996 253.943C287.636 253.771 288.117 253.461 288.438 253.012C288.759 252.564 288.848 252.074 288.706 251.543C288.557 250.985 288.229 250.586 287.723 250.344C287.217 250.102 286.644 250.067 286.003 250.238L282.985 251.047L282.581 249.538ZM292.889 253.981L290.065 243.444L291.684 243.01L294.508 253.548L292.889 253.981ZM295.855 241.893L299.534 245.524L300.904 240.54L302.77 240.04L300.78 246.22L305.594 250.577L303.728 251.077L300.108 247.665L298.679 252.43L296.813 252.93L298.749 246.764L293.989 242.393L295.855 241.893ZM313.337 248.502L310.514 237.965L314.822 236.81C315.956 236.507 316.926 236.521 317.731 236.855C318.536 237.188 319.051 237.775 319.277 238.617C319.448 239.257 319.392 239.804 319.106 240.258C318.82 240.707 318.396 241.073 317.834 241.356C318.238 241.307 318.652 241.343 319.077 241.465C319.506 241.585 319.893 241.805 320.239 242.124C320.583 242.438 320.829 242.872 320.977 243.426C321.122 243.965 321.114 244.485 320.953 244.984C320.793 245.482 320.49 245.924 320.044 246.308C319.598 246.692 319.018 246.98 318.304 247.171L313.337 248.502ZM314.477 246.609L317.907 245.69C318.465 245.54 318.866 245.29 319.111 244.941C319.355 244.591 319.416 244.187 319.294 243.73C319.148 243.186 318.876 242.8 318.477 242.574C318.077 242.343 317.598 242.302 317.04 242.451L313.61 243.371L314.477 246.609ZM313.235 241.971L316.006 241.228C316.441 241.112 316.797 240.953 317.076 240.75C317.354 240.544 317.546 240.306 317.65 240.038C317.758 239.764 317.771 239.471 317.687 239.16C317.568 238.717 317.29 238.419 316.852 238.267C316.413 238.11 315.869 238.118 315.219 238.292L312.448 239.035L313.235 241.971ZM328.525 244.668C327.574 244.923 326.678 244.92 325.839 244.66C325.004 244.398 324.276 243.914 323.656 243.208C323.04 242.501 322.586 241.603 322.294 240.514C322 239.416 321.942 238.405 322.121 237.48C322.304 236.553 322.692 235.768 323.284 235.124C323.881 234.479 324.655 234.029 325.606 233.774C326.557 233.519 327.45 233.522 328.285 233.784C329.124 234.044 329.853 234.531 330.47 235.243C331.092 235.953 331.55 236.858 331.844 237.955C332.135 239.044 332.189 240.049 332.005 240.971C331.825 241.892 331.437 242.675 330.84 243.32C330.248 243.964 329.476 244.413 328.525 244.668ZM328.135 243.214C328.858 243.02 329.403 242.675 329.77 242.18C330.137 241.685 330.352 241.105 330.414 240.441C330.477 239.777 330.414 239.093 330.225 238.389C330.036 237.685 329.748 237.059 329.361 236.51C328.974 235.962 328.497 235.563 327.93 235.313C327.363 235.063 326.718 235.035 325.996 235.228C325.273 235.422 324.729 235.769 324.363 236.269C323.997 236.769 323.783 237.353 323.722 238.021C323.661 238.69 323.725 239.376 323.913 240.08C324.102 240.785 324.389 241.409 324.775 241.952C325.161 242.496 325.637 242.89 326.203 243.136C326.768 243.381 327.413 243.407 328.135 243.214ZM335.712 242.507L332.889 231.97L341.176 229.749L343.999 240.286L342.38 240.72L339.961 231.692L334.912 233.045L337.331 242.073L335.712 242.507ZM348.015 243.446L344.133 228.957L345.697 228.538L346.145 230.212L346.338 230.16C346.407 229.945 346.51 229.668 346.644 229.328C346.782 228.982 347.019 228.644 347.357 228.313C347.699 227.977 348.212 227.717 348.898 227.533C349.785 227.295 350.627 227.307 351.423 227.57C352.218 227.832 352.915 228.319 353.513 229.031C354.111 229.744 354.558 230.653 354.854 231.76C355.153 232.876 355.223 233.894 355.063 234.815C354.901 235.731 354.544 236.503 353.992 237.131C353.439 237.755 352.723 238.184 351.845 238.42C351.168 238.601 350.596 238.634 350.129 238.519C349.66 238.399 349.278 238.225 348.981 237.996C348.683 237.762 348.449 237.565 348.279 237.404L348.141 237.441L349.634 243.012L348.015 243.446ZM347.136 233.799C347.349 234.595 347.654 235.266 348.05 235.811C348.445 236.352 348.913 236.735 349.453 236.957C349.992 237.176 350.586 237.198 351.235 237.024C351.912 236.843 352.429 236.513 352.787 236.035C353.147 235.551 353.36 234.974 353.426 234.305C353.495 233.629 353.429 232.917 353.228 232.167C353.029 231.426 352.736 230.789 352.348 230.255C351.964 229.716 351.496 229.334 350.946 229.109C350.398 228.878 349.782 228.855 349.096 229.039C348.437 229.215 347.929 229.53 347.57 229.984C347.21 230.434 346.995 230.986 346.926 231.642C346.855 232.293 346.925 233.012 347.136 233.799ZM363.068 235.412C362.117 235.667 361.221 235.664 360.382 235.404C359.547 235.142 358.82 234.658 358.199 233.952C357.583 233.245 357.129 232.347 356.837 231.258C356.543 230.161 356.486 229.149 356.664 228.224C356.847 227.297 357.235 226.512 357.827 225.868C358.424 225.223 359.198 224.773 360.149 224.518C361.1 224.263 361.993 224.267 362.828 224.528C363.667 224.789 364.396 225.275 365.013 225.987C365.635 226.698 366.093 227.602 366.387 228.699C366.679 229.788 366.732 230.793 366.548 231.715C366.368 232.636 365.98 233.419 365.383 234.064C364.791 234.708 364.019 235.157 363.068 235.412ZM362.678 233.958C363.401 233.764 363.946 233.42 364.313 232.924C364.68 232.429 364.895 231.849 364.958 231.185C365.02 230.522 364.957 229.838 364.768 229.133C364.579 228.429 364.291 227.803 363.904 227.254C363.517 226.706 363.04 226.307 362.473 226.057C361.906 225.807 361.261 225.779 360.539 225.972C359.816 226.166 359.272 226.513 358.906 227.013C358.54 227.513 358.326 228.097 358.265 228.765C358.204 229.434 358.268 230.12 358.457 230.824C358.645 231.529 358.933 232.153 359.318 232.696C359.704 233.24 360.18 233.635 360.746 233.88C361.312 234.126 361.956 234.151 362.678 233.958ZM374.595 232.324C373.607 232.588 372.694 232.583 371.856 232.308C371.017 232.032 370.296 231.537 369.693 230.821C369.089 230.105 368.646 229.222 368.364 228.17C368.078 227.099 368.021 226.102 368.195 225.178C368.373 224.248 368.754 223.458 369.339 222.806C369.927 222.148 370.697 221.692 371.649 221.437C372.389 221.238 373.094 221.197 373.762 221.312C374.43 221.427 375.02 221.68 375.532 222.073C376.044 222.465 376.434 222.978 376.702 223.612L375.083 224.046C374.831 223.599 374.442 223.247 373.918 222.991C373.397 222.728 372.779 222.693 372.066 222.884C371.435 223.053 370.925 223.366 370.538 223.823C370.154 224.274 369.909 224.832 369.803 225.497C369.7 226.157 369.756 226.885 369.969 227.681C370.187 228.495 370.505 229.17 370.923 229.705C371.345 230.239 371.837 230.609 372.397 230.817C372.962 231.023 373.565 231.041 374.205 230.869C374.626 230.756 374.988 230.581 375.292 230.343C375.596 230.104 375.83 229.816 375.994 229.478C376.159 229.14 376.24 228.765 376.237 228.354L377.856 227.92C377.932 228.567 377.855 229.188 377.628 229.783C377.403 230.373 377.035 230.893 376.524 231.344C376.015 231.789 375.373 232.115 374.595 232.324ZM385.386 229.432C384.435 229.687 383.54 229.684 382.7 229.424C381.865 229.162 381.138 228.678 380.517 227.972C379.901 227.265 379.447 226.367 379.156 225.278C378.862 224.18 378.804 223.169 378.982 222.244C379.165 221.317 379.553 220.532 380.145 219.888C380.742 219.243 381.516 218.793 382.467 218.538C383.418 218.283 384.312 218.286 385.146 218.548C385.986 218.808 386.714 219.295 387.331 220.007C387.953 220.717 388.411 221.622 388.705 222.719C388.997 223.808 389.05 224.813 388.866 225.735C388.686 226.656 388.298 227.439 387.701 228.084C387.109 228.728 386.338 229.177 385.386 229.432ZM384.997 227.978C385.719 227.784 386.264 227.44 386.631 226.944C386.999 226.449 387.213 225.869 387.276 225.205C387.338 224.542 387.275 223.857 387.086 223.153C386.897 222.449 386.609 221.823 386.222 221.274C385.835 220.726 385.358 220.327 384.791 220.077C384.224 219.827 383.579 219.799 382.857 219.992C382.134 220.186 381.59 220.533 381.224 221.033C380.858 221.533 380.644 222.117 380.583 222.785C380.522 223.454 380.586 224.14 380.775 224.844C380.963 225.549 381.251 226.173 381.637 226.716C382.022 227.26 382.498 227.655 383.064 227.9C383.63 228.145 384.274 228.171 384.997 227.978ZM392.574 227.271L389.75 216.734L394.058 215.579C395.193 215.275 396.162 215.29 396.967 215.623C397.772 215.957 398.287 216.544 398.513 217.386C398.684 218.026 398.628 218.573 398.342 219.027C398.056 219.476 397.632 219.842 397.07 220.125C397.474 220.076 397.888 220.112 398.313 220.233C398.742 220.354 399.129 220.573 399.475 220.892C399.819 221.207 400.065 221.641 400.213 222.195C400.358 222.734 400.35 223.254 400.189 223.752C400.029 224.251 399.726 224.693 399.28 225.077C398.834 225.461 398.254 225.749 397.54 225.94L392.574 227.271ZM393.713 225.377L397.143 224.458C397.701 224.309 398.103 224.059 398.347 223.709C398.592 223.359 398.653 222.956 398.53 222.499C398.384 221.954 398.112 221.569 397.713 221.342C397.313 221.111 396.834 221.071 396.276 221.22L392.846 222.139L393.713 225.377ZM392.471 220.74L395.242 219.997C395.677 219.881 396.033 219.721 396.313 219.519C396.59 219.312 396.782 219.075 396.886 218.807C396.994 218.533 397.007 218.24 396.923 217.929C396.804 217.485 396.526 217.188 396.088 217.035C395.649 216.878 395.105 216.887 394.455 217.061L391.684 217.804L392.471 220.74Z" fill="#F96247"/>
<defs>
<filter id="filter0_f_1556_2035" x="-22.0797" y="0.312897" width="588.654" height="435.069" filterUnits="userSpaceOnUse" color-interpolation-filters="sRGB">
<feFlood flood-opacity="0" result="BackgroundImageFix"/>
<feBlend mode="normal" in="SourceGraphic" in2="BackgroundImageFix" result="shape"/>
<feGaussianBlur stdDeviation="8.83672" result="effect1_foregroundBlur_1556_2035"/>
</filter>
</defs>
</svg>
