<svg width="1280" height="761" viewBox="0 0 1280 761" fill="none" xmlns="http://www.w3.org/2000/svg">
<path fill-rule="evenodd" clip-rule="evenodd" d="M240 760.42C323.479 760.42 397.004 692.9 440 590.451C482.997 692.9 556.522 760.42 640.001 760.42C723.479 760.42 797.003 692.901 840 590.454C882.997 692.901 956.521 760.42 1040 760.42C1172.55 760.42 1280 590.194 1280 380.21C1280 170.226 1172.55 0 1040 0C956.521 0 882.997 67.5193 840 169.966C797.003 67.5193 723.479 0 640.001 0C556.522 0 482.997 67.5203 440 169.969C397.004 67.5203 323.479 0 240 0C107.452 0 0 170.226 0 380.21C0 590.194 107.452 760.42 240 760.42Z" fill="#F96247"/>
</svg>
