<svg width="182" height="182" viewBox="0 0 182 182" fill="none" xmlns="http://www.w3.org/2000/svg">
<path fill-rule="evenodd" clip-rule="evenodd" d="M9.28267 164.004C-2.39704 156.64 -2.29648 140.518 7.46663 130.755L47.7115 90.5104C36.8249 91.2899 25.6735 87.5179 17.35 79.1944C2.12848 63.9728 2.12848 39.2939 17.35 24.0724C32.5715 8.85085 57.2505 8.85085 72.472 24.0724C80.7955 32.3959 84.5675 43.5473 83.788 54.4339L130.755 7.46683C140.518 -2.29628 156.64 -2.39684 164.003 9.28286C175.207 27.0539 181.289 47.7689 181.289 69.1111C181.289 98.8626 169.47 127.395 148.433 148.433C127.395 169.47 98.8623 181.289 69.1109 181.289C47.7688 181.289 27.0537 175.207 9.28267 164.004Z" fill="#F7F2EC"/>
</svg>
