<svg width="234" height="238" viewBox="0 0 234 238" fill="none" xmlns="http://www.w3.org/2000/svg">
<mask id="path-1-inside-1_925_900" fill="white">
<path fill-rule="evenodd" clip-rule="evenodd" d="M38.887 77.7736C17.4105 77.7734 0.000388147 60.3633 0.000388147 38.8868C0.000388147 17.4102 17.4106 0 38.8872 0C60.325 0 77.7111 17.3474 77.7738 38.7706C77.8364 17.3474 95.2225 0 116.66 0C138.137 0 155.547 17.4102 155.547 38.8868C155.547 17.4102 172.957 0 194.434 0C215.911 0 233.321 17.4102 233.321 38.8868C233.321 60.3633 215.911 77.7736 194.434 77.7736C215.911 77.7736 233.321 95.1838 233.321 116.66C233.321 138.137 215.911 155.547 194.434 155.547H201.037C218.867 155.547 233.321 170.001 233.321 187.83V237.356H0L0 187.83C0 170.001 14.4538 155.547 32.2834 155.547L38.887 155.547C17.4102 155.547 0 138.137 0 116.66C0 95.1838 17.4102 77.7736 38.8868 77.7736C38.8868 77.7736 38.8869 77.7736 38.887 77.7736Z"/>
</mask>
<path d="M38.887 80.7736C40.5438 80.7736 41.887 79.4304 41.887 77.7736C41.887 76.1167 40.5438 74.7736 38.887 74.7736V80.7736ZM77.7738 38.7706L74.7738 38.7793C74.7786 40.4328 76.1203 41.7706 77.7738 41.7706C79.4272 41.7706 80.7689 40.4328 80.7738 38.7793L77.7738 38.7706ZM152.547 38.8868C152.547 40.5436 153.89 41.8868 155.547 41.8868C157.204 41.8868 158.547 40.5436 158.547 38.8868H152.547ZM194.434 74.7736C192.777 74.7736 191.434 76.1167 191.434 77.7736C191.434 79.4304 192.777 80.7736 194.434 80.7736V74.7736ZM194.434 152.547C192.777 152.547 191.434 153.89 191.434 155.547C191.434 157.204 192.777 158.547 194.434 158.547V152.547ZM201.037 155.547V158.547V155.547ZM233.321 237.356V240.356C234.977 240.356 236.321 239.013 236.321 237.356H233.321ZM0 237.356H-3C-3 239.013 -1.65685 240.356 0 240.356L0 237.356ZM32.2834 155.547V158.547H32.2834L32.2834 155.547ZM38.887 158.547C40.5438 158.547 41.887 157.204 41.887 155.547C41.887 153.89 40.5438 152.547 38.887 152.547L38.887 158.547ZM38.887 74.7736C19.0673 74.7735 3.00039 58.7064 3.00039 38.8868H-2.99961C-2.99961 62.0201 15.7536 80.7734 38.887 80.7736L38.887 74.7736ZM3.00039 38.8868C3.00039 19.0671 19.0674 3 38.8872 3V-3C15.7537 -3 -2.99961 15.7533 -2.99961 38.8868H3.00039ZM38.8872 3C58.6711 3 74.7159 19.0091 74.7738 38.7793L80.7738 38.7618C80.7062 15.6857 61.9789 -3 38.8872 -3V3ZM80.7738 38.7793C80.8316 19.0091 96.8765 3 116.66 3V-3C93.5686 -3 74.8413 15.6857 74.7738 38.7618L80.7738 38.7793ZM116.66 3C136.48 3 152.547 19.0671 152.547 38.8868H158.547C158.547 15.7533 139.794 -3 116.66 -3V3ZM194.434 -3C171.301 -3 152.547 15.7533 152.547 38.8868L158.547 38.8868C158.547 19.0671 174.614 3 194.434 3V-3ZM236.321 38.8868C236.321 15.7533 217.567 -3 194.434 -3V3C214.254 3 230.321 19.0671 230.321 38.8868H236.321ZM194.434 80.7736C217.567 80.7736 236.321 62.0202 236.321 38.8868H230.321C230.321 58.7065 214.254 74.7736 194.434 74.7736V80.7736ZM194.434 80.7736C214.254 80.7736 230.321 96.8406 230.321 116.66H236.321C236.321 93.5269 217.567 74.7736 194.434 74.7736V80.7736ZM230.321 116.66C230.321 136.48 214.254 152.547 194.434 152.547V158.547C217.567 158.547 236.321 139.794 236.321 116.66H230.321ZM194.434 158.547H201.037L201.037 152.547H194.434L194.434 158.547ZM201.037 158.547C217.21 158.547 230.321 171.658 230.321 187.83H236.321C236.321 168.344 220.524 152.547 201.037 152.547V158.547ZM230.321 187.83V237.356H236.321V187.83H230.321ZM233.321 234.356H0L0 240.356H233.321V234.356ZM3 237.356L3 187.83H-3L-3 237.356H3ZM3 187.83C3 171.658 16.1106 158.547 32.2834 158.547V152.547C12.7969 152.547 -3 168.344 -3 187.83H3ZM32.2834 158.547L38.887 158.547L38.887 152.547L32.2833 152.547L32.2834 158.547ZM38.887 152.547C19.067 152.547 3 136.48 3 116.66H-3C-3 139.794 15.7534 158.547 38.887 158.547L38.887 152.547ZM3 116.66C3 96.8406 19.0671 80.7736 38.8868 80.7736V74.7736C15.7533 74.7736 -3 93.5269 -3 116.66H3ZM38.8868 80.7736C38.9059 80.7736 38.9229 80.7734 38.9373 80.7731C38.9516 80.7729 38.9638 80.7726 38.9733 80.7723C38.9827 80.772 38.9903 80.7718 38.9949 80.7716C38.9973 80.7715 38.9992 80.7714 39.0004 80.7714C39.0009 80.7714 39.0014 80.7714 39.0017 80.7714C39.0019 80.7713 39.002 80.7713 39.0021 80.7713C39.0021 80.7713 39.0021 80.7713 39.0021 80.7713C39.0021 80.7713 39.0022 80.7713 39.0022 80.7713H39.0022H39.0022C39.0028 80.7713 38.9992 80.7715 38.995 80.7716C38.9904 80.7718 38.9828 80.772 38.9734 80.7723C38.9639 80.7726 38.9517 80.7729 38.9374 80.7731C38.9231 80.7734 38.9061 80.7736 38.887 80.7736V74.7736C38.8678 74.7736 38.8508 74.7737 38.8365 74.774C38.8222 74.7742 38.8099 74.7745 38.8004 74.7748C38.791 74.7751 38.7834 74.7753 38.7788 74.7755C38.7764 74.7756 38.7745 74.7757 38.7734 74.7757C38.7728 74.7757 38.7723 74.7757 38.772 74.7757C38.7719 74.7758 38.7718 74.7758 38.7717 74.7758C38.7716 74.7758 38.7716 74.7758 38.7716 74.7758C38.7716 74.7758 38.7716 74.7758 38.7716 74.7758C38.7716 74.7758 38.7716 74.7758 38.7716 74.7758C38.771 74.7758 38.7746 74.7757 38.7787 74.7755C38.7833 74.7753 38.7909 74.7751 38.8003 74.7748C38.8098 74.7745 38.822 74.7742 38.8363 74.774C38.8506 74.7737 38.8676 74.7736 38.8868 74.7736V80.7736Z" fill="#F96247" mask="url(#path-1-inside-1_925_900)"/>
</svg>
