<svg width="249" height="127" viewBox="0 0 249 127" fill="none" xmlns="http://www.w3.org/2000/svg">
<path d="M82.4253 97.9373C82.248 97.2838 81.6548 96.8301 80.9777 96.8301C80.3005 96.8301 79.7074 97.2838 79.53 97.9373C77.2442 106.36 74.1722 113.243 70.641 117.985C67.0945 122.747 63.2594 125.135 59.4411 125.135C54.8046 125.135 50.139 121.594 46.0536 114.675C42.0096 107.825 38.7742 98.0336 36.8951 86.4471C36.8211 85.9914 36.5415 85.5951 36.1369 85.3727C35.7324 85.1504 35.2479 85.1267 34.8236 85.3085C31.9374 86.5453 28.7573 87.2308 25.4132 87.2308C12.2063 87.2308 1.5 76.5245 1.5 63.3176C1.5 50.1107 12.2063 39.4044 25.4132 39.4044C28.7573 39.4044 31.9374 40.09 34.8236 41.3268C35.2479 41.5086 35.7324 41.4849 36.1369 41.2625C36.5415 41.0402 36.8211 40.6439 36.8951 40.1882C38.7742 28.6016 42.0096 18.8102 46.0536 11.9606C50.139 5.04081 54.8046 1.5 59.4411 1.5C63.2594 1.5 67.0945 3.8886 70.641 8.65068C74.1722 13.3922 77.2442 20.275 79.53 28.698C79.7074 29.3515 80.3005 29.8051 80.9777 29.8051C81.6548 29.8051 82.248 29.3515 82.4253 28.698C84.7112 20.275 87.7831 13.3922 91.3143 8.65068C94.8608 3.8886 98.6959 1.5 102.514 1.5C106.333 1.5 110.168 3.8886 113.714 8.65068C117.245 13.3922 120.317 20.275 122.603 28.698C122.781 29.3515 123.374 29.8051 124.051 29.8051C124.728 29.8051 125.321 29.3515 125.499 28.698C127.784 20.275 130.856 13.3922 134.388 8.65068C137.934 3.8886 141.769 1.5 145.587 1.5C149.406 1.5 153.241 3.8886 156.787 8.65068C160.319 13.3922 163.391 20.275 165.676 28.698C165.854 29.3515 166.447 29.8051 167.124 29.8051C167.801 29.8051 168.394 29.3515 168.572 28.698C170.858 20.275 173.93 13.3922 177.461 8.65068C181.007 3.8886 184.842 1.5 188.661 1.5C193.297 1.5 197.963 5.04081 202.048 11.9606C206.092 18.8102 209.328 28.6016 211.207 40.1882C211.281 40.6439 211.56 41.0402 211.965 41.2625C212.369 41.4849 212.854 41.5086 213.278 41.3268C216.164 40.09 219.344 39.4044 222.689 39.4044C235.895 39.4044 246.602 50.1107 246.602 63.3176C246.602 76.5245 235.895 87.2308 222.689 87.2308C219.344 87.2308 216.164 86.5453 213.278 85.3085C212.854 85.1267 212.369 85.1504 211.965 85.3727C211.56 85.5951 211.281 85.9914 211.207 86.4471C209.328 98.0336 206.092 107.825 202.048 114.675C197.963 121.594 193.297 125.135 188.661 125.135C184.842 125.135 181.007 122.747 177.461 117.985C173.93 113.243 170.858 106.36 168.572 97.9373C168.394 97.2838 167.801 96.8301 167.124 96.8301C166.447 96.8301 165.854 97.2838 165.676 97.9373C163.391 106.36 160.319 113.243 156.787 117.985C153.241 122.747 149.406 125.135 145.587 125.135C141.769 125.135 137.934 122.747 134.388 117.985C130.856 113.243 127.784 106.36 125.499 97.9373C125.321 97.2838 124.728 96.8301 124.051 96.8301C123.374 96.8301 122.781 97.2838 122.603 97.9373C120.317 106.36 117.245 113.243 113.714 117.985C110.168 122.747 106.333 125.135 102.514 125.135C98.6959 125.135 94.8608 122.747 91.3143 117.985C87.7831 113.243 84.7112 106.36 82.4253 97.9373Z" stroke="#F96247" stroke-width="3" stroke-linejoin="round"/>
</svg>
