<svg width="206" height="144" viewBox="0 0 206 144" fill="none" xmlns="http://www.w3.org/2000/svg">
<path d="M55.2698 111.306C55.0924 110.652 54.4993 110.199 53.8221 110.199C53.145 110.199 52.5519 110.652 52.3745 111.306C49.7739 120.888 46.2755 128.733 42.2438 134.147C38.1967 139.581 33.7869 142.352 29.3575 142.352C25.8381 142.352 22.3415 140.611 19.0096 137.158C15.6736 133.701 12.6003 128.62 9.9874 122.218C4.76472 109.423 1.5 91.6426 1.5 71.926C1.5 52.2093 4.76472 34.429 9.9874 21.6335C12.6003 15.232 15.6736 10.1509 19.0096 6.6939C22.3415 3.24123 25.8381 1.5 29.3575 1.5C33.7869 1.5 38.1967 4.27077 42.2438 9.70498C46.2755 15.1186 49.7739 22.9635 52.3745 32.5462C52.5519 33.1997 53.145 33.6534 53.8221 33.6534C54.4993 33.6534 55.0924 33.1997 55.2698 32.5462C57.8704 22.9635 61.3688 15.1186 65.4005 9.70498C69.4476 4.27077 73.8574 1.5 78.2868 1.5C82.7162 1.5 87.1259 4.27077 91.173 9.70498C95.2047 15.1186 98.7031 22.9635 101.304 32.5462C101.481 33.1997 102.074 33.6534 102.751 33.6534C103.428 33.6534 104.022 33.1997 104.199 32.5462C106.8 22.9635 110.298 15.1186 114.33 9.70498C118.377 4.27077 122.787 1.5 127.216 1.5C131.645 1.5 136.055 4.27077 140.102 9.70498C144.134 15.1186 147.632 22.9635 150.233 32.5462C150.41 33.1997 151.003 33.6534 151.681 33.6534C152.358 33.6534 152.951 33.1997 153.128 32.5462C155.729 22.9635 159.227 15.1186 163.259 9.70498C167.306 4.27077 171.716 1.5 176.145 1.5C179.665 1.5 183.161 3.24123 186.493 6.6939C189.829 10.1509 192.902 15.232 195.515 21.6335C200.738 34.429 204.003 52.2093 204.003 71.926C204.003 91.6426 200.738 109.423 195.515 122.218C192.902 128.62 189.829 133.701 186.493 137.158C183.161 140.611 179.665 142.352 176.145 142.352C171.716 142.352 167.306 139.581 163.259 134.147C159.227 128.733 155.729 120.888 153.128 111.306C152.951 110.652 152.358 110.199 151.681 110.199C151.003 110.199 150.41 110.652 150.233 111.306C147.632 120.888 144.134 128.733 140.102 134.147C136.055 139.581 131.645 142.352 127.216 142.352C122.787 142.352 118.377 139.581 114.33 134.147C110.298 128.733 106.8 120.888 104.199 111.306C104.022 110.652 103.428 110.199 102.751 110.199C102.074 110.199 101.481 110.652 101.304 111.306C98.7031 120.888 95.2047 128.733 91.173 134.147C87.1259 139.581 82.7162 142.352 78.2868 142.352C73.8574 142.352 69.4476 139.581 65.4005 134.147C61.3688 128.733 57.8704 120.888 55.2698 111.306Z" stroke="#F96247" stroke-width="3" stroke-linejoin="round"/>
</svg>
