<svg width="70" height="70" viewBox="0 0 70 70" fill="none" xmlns="http://www.w3.org/2000/svg">
<circle cx="35" cy="35" r="34.25" fill="#FEFF8B" stroke="#231F1C" stroke-width="1.5"/>
<path d="M21.4767 32.0465L21.0885 30.5976L19.9956 30.8904L19.9769 32.0217L21.4767 32.0465ZM21.4671 32.6288L19.9673 32.6041L19.9345 34.5924L21.8553 34.0777L21.4671 32.6288ZM23.1093 33.3483L21.6093 33.3501L21.6093 33.3516L23.1093 33.3483ZM23.1204 38.3353L23.5086 39.7842L24.623 39.4857L24.6204 38.332L23.1204 38.3353ZM17.4794 39.8469L15.9794 39.8444L15.9762 41.8026L17.8676 41.2957L17.4794 39.8469ZM17.4876 34.8546L18.9876 34.8571L18.9876 34.8528L17.4876 34.8546ZM19.1489 33.25L19.5371 34.6989L20.63 34.406L20.6487 33.2747L19.1489 33.25ZM19.1585 32.6676L20.6583 32.6924L20.6911 30.7041L18.7703 31.2188L19.1585 32.6676ZM13.6914 34.1326L13.3031 32.6837L12.2102 32.9765L12.1916 34.1078L13.6914 34.1326ZM13.6818 34.7149L12.182 34.6901L12.1491 36.6785L14.07 36.1638L13.6818 34.7149ZM15.3239 35.4344L16.8239 35.4351L16.8239 35.4221L16.8237 35.4092L15.3239 35.4344ZM15.3184 46.9274L13.8184 46.9267L13.8184 46.9292L15.3184 46.9274ZM13.6712 48.5076L13.283 47.0587L12.1901 47.3515L12.1714 48.4828L13.6712 48.5076ZM13.6616 49.0899L12.1618 49.0652L12.129 51.0535L14.0498 50.5388L13.6616 49.0899ZM19.1094 47.6302L19.4976 49.0791L20.5905 48.7862L20.6092 47.6549L19.1094 47.6302ZM19.119 47.0479L20.6188 47.0726L20.6516 45.0843L18.7308 45.599L19.119 47.0479ZM17.482 46.3477L18.9818 46.3724L18.982 46.3615L18.982 46.3507L17.482 46.3477ZM17.4933 40.6714L17.105 39.2225L15.9956 39.5198L15.9933 40.6684L17.4933 40.6714ZM23.115 39.165L24.615 39.168L24.6188 37.2092L22.7267 37.7161L23.115 39.165ZM23.1037 44.8414L21.6037 44.8384L21.6037 44.8432L23.1037 44.8414ZM21.4566 46.4215L21.0683 44.9726L20.0122 45.2556L19.9584 46.3477L21.4566 46.4215ZM21.4276 47.009L19.9295 46.9353L19.8283 48.9905L21.8159 48.4579L21.4276 47.009ZM26.8755 45.5493L27.2637 46.9982L28.3199 46.7152L28.3736 45.623L26.8755 45.5493ZM26.9044 44.9618L28.4026 45.0355L28.5038 42.9803L26.5162 43.5129L26.9044 44.9618ZM25.2674 44.2616L26.7672 44.2864L26.7674 44.2731L26.7674 44.2598L25.2674 44.2616ZM25.2536 32.7737L23.7536 32.7755L23.7536 32.7755L25.2536 32.7737ZM26.9343 31.1639L27.3225 32.6128L28.4154 32.3199L28.4341 31.1886L26.9343 31.1639ZM26.9439 30.5816L28.4437 30.6063L28.4765 28.618L26.5556 29.1327L26.9439 30.5816ZM19.9769 32.0217L19.9673 32.6041L22.9669 32.6536L22.9765 32.0712L19.9769 32.0217ZM21.8553 34.0777L22.744 33.8396L21.9675 30.9418L21.0789 31.1799L21.8553 34.0777ZM22.744 33.8396C22.7805 33.8298 22.5571 33.9039 22.2402 33.7708C22.0688 33.6988 21.9136 33.5827 21.7947 33.4338C21.6811 33.2916 21.6289 33.1553 21.6055 33.068L24.5033 32.2915C24.3707 31.7966 24.0314 31.2691 23.4015 31.0047C22.8512 30.7736 22.3174 30.8481 21.9675 30.9418L22.744 33.8396ZM21.6055 33.068C21.5968 33.0355 21.5945 33.0184 21.5953 33.0234C21.5959 33.0272 21.5979 33.0422 21.6003 33.0711C21.6052 33.1302 21.6091 33.221 21.6093 33.3501L24.6093 33.3465C24.6089 33.0243 24.5942 32.631 24.5033 32.2915L21.6055 33.068ZM21.6093 33.3516L21.6204 38.3387L24.6204 38.332L24.6093 33.345L21.6093 33.3516ZM22.7322 36.8865L17.0912 38.398L17.8676 41.2957L23.5086 39.7842L22.7322 36.8865ZM18.9794 39.8493L18.9876 34.8571L15.9876 34.8522L15.9794 39.8444L18.9794 39.8493ZM18.9876 34.8528C18.9874 34.6699 18.9984 34.5739 19.0057 34.5333C19.0124 34.4954 19.0079 34.5526 18.9513 34.6474C18.9223 34.696 18.8842 34.7465 18.8372 34.7942C18.7905 34.8415 18.7439 34.877 18.7039 34.9022C18.6299 34.949 18.5918 34.9522 18.6485 34.937L17.872 32.0392C17.4078 32.1636 16.782 32.4287 16.3755 33.1093C16.0319 33.6848 15.987 34.3407 15.9876 34.8564L18.9876 34.8528ZM18.6485 34.937L19.5371 34.6989L18.7607 31.8011L17.872 32.0392L18.6485 34.937ZM20.6487 33.2747L20.6583 32.6924L17.6587 32.6429L17.6491 33.2252L20.6487 33.2747ZM18.7703 31.2188L13.3031 32.6837L14.0796 35.5814L19.5467 34.1165L18.7703 31.2188ZM12.1916 34.1078L12.182 34.6901L15.1815 34.7396L15.1912 34.1573L12.1916 34.1078ZM14.07 36.1638L14.9586 35.9257L14.1822 33.0279L13.2935 33.266L14.07 36.1638ZM14.9586 35.9257C14.9952 35.9159 14.7718 35.9899 14.4548 35.8568C14.2835 35.7849 14.1282 35.6688 14.0094 35.5199C13.8957 35.3776 13.8435 35.2414 13.8201 35.154L16.7179 34.3776C16.5853 33.8827 16.246 33.3552 15.6162 33.0908C15.0659 32.8597 14.532 32.9341 14.1822 33.0279L14.9586 35.9257ZM13.8201 35.154C13.8079 35.1083 13.8046 35.0825 13.8056 35.0891C13.8061 35.0927 13.8083 35.1094 13.8111 35.1427C13.8166 35.2104 13.8217 35.3136 13.8241 35.4596L16.8237 35.4092C16.8185 35.0992 16.8036 34.6975 16.7179 34.3776L13.8201 35.154ZM13.8239 35.4337L13.8184 46.9267L16.8184 46.9282L16.8239 35.4351L13.8239 35.4337ZM13.8184 46.9292C13.8186 47.1231 13.8086 47.2214 13.8017 47.2632C13.7953 47.3017 13.801 47.2308 13.8669 47.1206C13.9009 47.0637 13.9447 47.0068 13.9976 46.9547C14.0498 46.9033 14.1001 46.8672 14.1393 46.8435C14.2085 46.8017 14.2361 46.8033 14.1523 46.8258L14.9288 49.7235C15.3619 49.6075 16.0223 49.3618 16.442 48.6598C16.7912 48.0755 16.8189 47.4054 16.8184 46.9256L13.8184 46.9292ZM14.1523 46.8258L13.283 47.0587L14.0594 49.9565L14.9288 49.7235L14.1523 46.8258ZM12.1714 48.4828L12.1618 49.0652L15.1614 49.1147L15.171 48.5323L12.1714 48.4828ZM14.0498 50.5388L19.4976 49.0791L18.7212 46.1813L13.2734 47.641L14.0498 50.5388ZM20.6092 47.6549L20.6188 47.0726L17.6192 47.0231L17.6096 47.6054L20.6092 47.6549ZM18.7308 45.599L17.8615 45.8319L18.6379 48.7297L19.5073 48.4967L18.7308 45.599ZM17.8615 45.8319C17.8021 45.8478 18.0169 45.7706 18.3319 45.8984C18.5051 45.9687 18.6646 46.085 18.7874 46.2374C18.9044 46.3825 18.9573 46.5216 18.9807 46.6087L16.0829 47.3852C16.2162 47.8827 16.56 48.4169 17.2036 48.6782C17.7566 48.9027 18.2916 48.8225 18.6379 48.7297L17.8615 45.8319ZM18.9807 46.6087C18.9893 46.6411 18.9917 46.6584 18.9911 46.6547C18.9907 46.6523 18.9889 46.6393 18.987 46.6141C18.9829 46.5626 18.98 46.4826 18.9818 46.3724L15.9822 46.3229C15.9769 46.6486 15.9909 47.0419 16.0829 47.3852L18.9807 46.6087ZM18.982 46.3507L18.9933 40.6743L15.9933 40.6684L15.982 46.3447L18.982 46.3507ZM17.8815 42.1202L23.5032 40.6139L22.7267 37.7161L17.105 39.2225L17.8815 42.1202ZM21.615 39.1621L21.6037 44.8384L24.6037 44.8443L24.615 39.168L21.615 39.1621ZM21.6037 44.8432C21.6039 45.0251 21.5927 45.117 21.5862 45.1524C21.5803 45.1843 21.5872 45.1199 21.6492 45.0195C21.6808 44.9684 21.7212 44.917 21.7697 44.8696C21.8177 44.8226 21.8645 44.7886 21.9027 44.7653C21.972 44.723 22.0039 44.722 21.9377 44.7397L22.7141 47.6375C23.1512 47.5204 23.7843 47.2715 24.2014 46.5964C24.5585 46.0184 24.6043 45.3563 24.6037 44.8396L21.6037 44.8432ZM21.9377 44.7397L21.0683 44.9726L21.8448 47.8704L22.7141 47.6375L21.9377 44.7397ZM19.9584 46.3477L19.9295 46.9353L22.9258 47.0828L22.9548 46.4953L19.9584 46.3477ZM21.8159 48.4579L27.2637 46.9982L26.4872 44.1004L21.0394 45.5601L21.8159 48.4579ZM28.3736 45.623L28.4026 45.0355L25.4062 44.888L25.3773 45.4755L28.3736 45.623ZM26.5162 43.5129L25.6275 43.751L26.404 46.6488L27.2926 46.4107L26.5162 43.5129ZM25.6275 43.751C25.591 43.7608 25.8144 43.6867 26.1313 43.8198C26.3027 43.8918 26.4579 44.0079 26.5768 44.1567C26.6904 44.299 26.7426 44.4353 26.766 44.5226L23.8682 45.2991C24.0008 45.794 24.3401 46.3214 24.97 46.5859C25.5203 46.8169 26.0541 46.7425 26.404 46.6488L25.6275 43.751ZM26.766 44.5226C26.7747 44.555 26.777 44.5723 26.7765 44.5686C26.7761 44.5662 26.7743 44.5533 26.7723 44.528C26.7683 44.4765 26.7654 44.3965 26.7672 44.2864L23.7676 44.2369C23.7622 44.5625 23.7763 44.9558 23.8682 45.2991L26.766 44.5226ZM26.7674 44.2598L26.7536 32.7719L23.7536 32.7755L23.7674 44.2634L26.7674 44.2598ZM26.7536 32.7719C26.7534 32.5946 26.765 32.5031 26.7719 32.4669C26.7781 32.4341 26.7724 32.4906 26.7159 32.5822C26.6872 32.6287 26.6503 32.6762 26.6056 32.7206C26.5612 32.7647 26.5174 32.7976 26.4803 32.8207C26.4115 32.8637 26.3779 32.8659 26.4338 32.8509L25.6574 29.9531C25.194 30.0773 24.5739 30.3402 24.1624 31.0075C23.8066 31.5844 23.753 32.2432 23.7536 32.7755L26.7536 32.7719ZM26.4338 32.8509L27.3225 32.6128L26.546 29.715L25.6574 29.9531L26.4338 32.8509ZM28.4341 31.1886L28.4437 30.6063L25.4441 30.5568L25.4345 31.1391L28.4341 31.1886ZM26.5556 29.1327L21.0885 30.5976L21.865 33.4954L27.3321 32.0305L26.5556 29.1327ZM30.8003 33.6272L29.3262 33.3493L29.3246 33.3582L29.323 33.3671L30.8003 33.6272ZM37.4116 38.7507L38.8835 39.0398L38.8851 39.0312L38.8867 39.0225L37.4116 38.7507ZM36.2724 41.6855L35.0061 40.8814L36.2724 41.6855ZM34.3438 43.838L33.9657 42.3864L33.9555 42.3891L34.3438 43.838ZM39.5801 37.8798L38.1275 37.5054L38.1229 37.5235L38.1186 37.5417L39.5801 37.8798ZM37.4991 28.9542L36.604 30.1579L36.6179 30.1682L36.632 30.1782L37.4991 28.9542ZM29.0346 33.0651L27.6315 32.5347L27.6305 32.5374L29.0346 33.0651ZM30.6921 43.3464L29.7971 44.5501L29.8109 44.5604L29.825 44.5704L30.6921 43.3464ZM33.9458 41.812C33.6858 41.8817 33.4928 41.84 33.2608 41.6343C32.9733 41.3794 32.6324 40.8514 32.3963 39.9703L29.4986 40.7467C29.8267 41.9713 30.3967 43.1042 31.2703 43.8789C32.1993 44.7027 33.4175 45.0594 34.7223 44.7098L33.9458 41.812ZM32.3963 39.9703C31.948 38.2972 31.9119 35.9641 32.2775 33.8874L29.323 33.3671C28.9004 35.7669 28.9116 38.5561 29.4986 40.7467L32.3963 39.9703ZM32.2743 33.9051C32.4606 32.9167 32.7614 32.1099 33.1823 31.4254L30.6269 29.8538C29.9807 30.9046 29.5675 32.0698 29.3262 33.3493L32.2743 33.9051ZM33.1823 31.4254C33.5625 30.8073 33.9412 30.5701 34.2646 30.4835L33.4882 27.5857C32.2661 27.9131 31.314 28.7366 30.6269 29.8538L33.1823 31.4254ZM34.2646 30.4835C34.5557 30.4055 34.7382 30.4556 34.956 30.6561C35.2437 30.9208 35.5866 31.4762 35.84 32.4218L38.7378 31.6453C38.4062 30.408 37.8543 29.2464 36.9877 28.4487C36.0512 27.5867 34.8198 27.2289 33.4882 27.5857L34.2646 30.4835ZM35.84 32.4218C36.2827 34.074 36.3189 36.4036 35.9364 38.4788L38.8867 39.0225C39.3312 36.6108 39.32 33.8182 38.7378 31.6453L35.84 32.4218ZM35.9397 38.4615C35.7532 39.411 35.4357 40.205 35.0061 40.8814L37.5386 42.4897C38.1866 41.4694 38.632 40.3197 38.8835 39.0398L35.9397 38.4615ZM35.0061 40.8814C34.6089 41.5069 34.2408 41.7329 33.9458 41.812L34.7223 44.7098C35.9341 44.3851 36.8583 43.5609 37.5386 42.4897L35.0061 40.8814ZM34.7218 45.2896C38.1894 44.3864 40.3246 41.3167 41.0415 38.2178L38.1186 37.5417C37.5692 39.9171 36.0336 41.8478 33.9657 42.3865L34.7218 45.2896ZM41.0326 38.2542C41.5848 36.1118 41.5584 33.8265 41.0105 31.7817L38.1127 32.5582C38.5277 34.1067 38.5499 35.8666 38.1275 37.5054L41.0326 38.2542ZM41.0105 31.7817C40.5598 30.0997 39.713 28.6844 38.3662 27.7302L36.632 30.1782C37.2785 30.6363 37.7973 31.3811 38.1127 32.5582L41.0105 31.7817ZM38.3941 27.7505C36.9661 26.6887 35.2623 26.5099 33.4926 26.984L34.2691 29.8818C35.3585 29.5899 36.0669 29.7585 36.604 30.1579L38.3941 27.7505ZM33.4926 26.984C30.6858 27.7361 28.6067 29.9549 27.6315 32.5347L30.4377 33.5954C31.1346 31.7517 32.5554 30.341 34.2691 29.8818L33.4926 26.984ZM27.6305 32.5374C26.7058 34.9982 26.5028 37.912 27.1948 40.4944L30.0925 39.7179C29.5732 37.7798 29.7196 35.5064 30.4387 33.5927L27.6305 32.5374ZM27.1948 40.4944C27.6464 42.18 28.4901 43.5783 29.7971 44.5501L31.5871 42.1427C30.929 41.6533 30.407 40.8914 30.0925 39.7179L27.1948 40.4944ZM29.825 44.5704C31.2568 45.5847 32.9437 45.7661 34.732 45.2869L33.9555 42.3891C32.8461 42.6864 32.1208 42.5203 31.5592 42.1224L29.825 44.5704ZM41.3058 26.7333L40.9176 25.2844L39.8885 25.5601L39.8099 26.6226L41.3058 26.7333ZM40.9027 32.1833L39.4067 32.0727L39.2509 34.1788L41.2909 33.6322L40.9027 32.1833ZM41.4243 32.0436L41.8125 33.4925L42.7685 33.2363L42.9091 32.2566L41.4243 32.0436ZM43.5565 26.71L43.1682 25.2611L43.1445 25.2675L43.121 25.2746L43.5565 26.71ZM45.4691 27.357L43.9696 27.3206L43.9691 27.3384L43.9691 27.3563L45.4691 27.357ZM45.4635 38.8501L43.9635 38.8493L43.9635 38.8519L45.4635 38.8501ZM43.7971 40.4354L43.4088 38.9865L42.3159 39.2793L42.2973 40.4106L43.7971 40.4354ZM43.7875 41.0177L42.2877 40.993L42.2549 42.9813L44.1757 42.4666L43.7875 41.0177ZM49.2546 39.5528L49.6428 41.0017L50.7357 40.7089L50.7544 39.5776L49.2546 39.5528ZM49.2642 38.9705L50.764 38.9952L50.7968 37.0069L48.876 37.5216L49.2642 38.9705ZM47.6272 38.2703L49.127 38.2951L49.1272 38.283L49.1272 38.271L47.6272 38.2703ZM47.6328 26.7772L49.1328 26.778L49.1328 26.7687L49.1327 26.7595L47.6328 26.7772ZM51.6631 29.3001L50.1754 29.492L50.3948 31.1929L52.0513 30.749L51.6631 29.3001ZM52.1847 29.1603L52.5729 30.6092L53.7589 30.2914L53.6817 29.066L52.1847 29.1603ZM51.8537 23.907L53.3508 23.8127L53.2356 21.9838L51.4655 22.4581L51.8537 23.907ZM39.8099 26.6226L39.4067 32.0727L42.3986 32.294L42.8017 26.8439L39.8099 26.6226ZM41.2909 33.6322L41.8125 33.4925L41.036 30.5947L40.5144 30.7345L41.2909 33.6322ZM42.9091 32.2566C43.2376 29.9672 43.4586 28.9286 43.676 28.4116C43.7639 28.2027 43.8064 28.1949 43.7689 28.2255C43.7458 28.2443 43.7618 28.2152 43.992 28.1454L43.121 25.2746C42.7671 25.382 42.3049 25.5483 41.8729 25.9005C41.4266 26.2645 41.1295 26.7283 40.9107 27.2485C40.5147 28.19 40.2536 29.641 39.9395 31.8305L42.9091 32.2566ZM43.9447 28.1589L45.2004 27.8224L44.424 24.9246L43.1682 25.2611L43.9447 28.1589ZM45.2004 27.8224C45.199 27.8228 44.96 27.892 44.6354 27.7566C44.4616 27.684 44.3013 27.5668 44.1764 27.4129C44.0559 27.2644 43.997 27.1176 43.9691 27.0135L46.8669 26.2371C46.735 25.7447 46.3947 25.24 45.7906 24.9879C45.2621 24.7674 44.7538 24.8362 44.424 24.9246L45.2004 27.8224ZM43.9691 27.0135C43.9605 26.9813 43.9585 26.9653 43.9594 26.9716C43.9601 26.9765 43.9624 26.9932 43.9647 27.0236C43.9695 27.0852 43.9729 27.1828 43.9696 27.3206L46.9687 27.3934C46.9784 26.9939 46.9591 26.5811 46.8669 26.2371L43.9691 27.0135ZM43.9691 27.3563L43.9635 38.8493L46.9635 38.8508L46.9691 27.3577L43.9691 27.3563ZM43.9635 38.8519C43.9638 39.0338 43.9525 39.1257 43.946 39.1611C43.9401 39.193 43.947 39.1286 44.0091 39.0282C44.0407 38.9771 44.081 38.9257 44.1295 38.8783C44.1775 38.8313 44.2243 38.7973 44.2625 38.774C44.3318 38.7317 44.3637 38.7307 44.2975 38.7484L45.074 41.6462C45.511 41.5291 46.1441 41.2802 46.5612 40.6051C46.9183 40.0271 46.9642 39.365 46.9635 38.8483L43.9635 38.8519ZM44.2975 38.7484L43.4088 38.9865L44.1853 41.8843L45.074 41.6462L44.2975 38.7484ZM42.2973 40.4106L42.2877 40.993L45.2873 41.0425L45.2969 40.4601L42.2973 40.4106ZM44.1757 42.4666L49.6428 41.0017L48.8664 38.1039L43.3992 39.5688L44.1757 42.4666ZM50.7544 39.5776L50.764 38.9952L47.7644 38.9457L47.7548 39.5281L50.7544 39.5776ZM48.876 37.5216L47.9873 37.7597L48.7638 40.6575L49.6524 40.4194L48.876 37.5216ZM47.9873 37.7597C47.9508 37.7695 48.1742 37.6954 48.4912 37.8285C48.6625 37.9005 48.8177 38.0166 48.9366 38.1654C49.0502 38.3077 49.1024 38.444 49.1258 38.5313L46.2281 39.3078C46.3607 39.8027 46.6999 40.3302 47.3298 40.5946C47.8801 40.8256 48.4139 40.7512 48.7638 40.6575L47.9873 37.7597ZM49.1258 38.5313C49.1345 38.5638 49.1369 38.581 49.1363 38.5773C49.1359 38.5749 49.1341 38.562 49.1322 38.5367C49.1281 38.4852 49.1252 38.4052 49.127 38.2951L46.1274 38.2456C46.122 38.5712 46.1361 38.9646 46.2281 39.3078L49.1258 38.5313ZM49.1272 38.271L49.1328 26.778L46.1328 26.7765L46.1272 38.2696L49.1272 38.271ZM49.1327 26.7595C49.1302 26.5515 49.1385 26.4384 49.1462 26.383C49.1539 26.3271 49.153 26.392 49.0931 26.504C49.0611 26.5636 49.0167 26.6285 48.9581 26.6912C48.8996 26.7536 48.8396 26.8006 48.7867 26.8342C48.6914 26.8948 48.6338 26.9024 48.6971 26.8855L47.9206 23.9877C47.5037 24.0994 46.8435 24.3504 46.4487 25.0871C46.1437 25.6564 46.1272 26.3117 46.1329 26.795L49.1327 26.7595ZM48.6971 26.8855L49.9721 26.5438L49.1956 23.6461L47.9206 23.9877L48.6971 26.8855ZM49.9721 26.5438C50.0623 26.5197 50.0358 26.5402 49.9413 26.5295C49.8891 26.5237 49.8237 26.5091 49.7535 26.4796C49.6829 26.4499 49.6251 26.4126 49.5819 26.3768C49.501 26.3097 49.5027 26.2746 49.5512 26.3722C49.5993 26.4691 49.6675 26.6435 49.7458 26.9358L52.6436 26.1593C52.446 25.4219 52.1412 24.6016 51.4966 24.0672C50.7023 23.4087 49.8056 23.4826 49.1956 23.6461L49.9721 26.5438ZM49.7458 26.9358C49.8476 27.3156 50.0036 28.16 50.1754 29.492L53.1508 29.1082C52.9766 27.7583 52.8006 26.7454 52.6436 26.1593L49.7458 26.9358ZM52.0513 30.749L52.5729 30.6092L51.7964 27.7114L51.2748 27.8512L52.0513 30.749ZM53.6817 29.066L53.3508 23.8127L50.3567 24.0013L50.6876 29.2546L53.6817 29.066ZM51.4655 22.4581L40.9176 25.2844L41.694 28.1822L52.242 25.3559L51.4655 22.4581ZM56.1598 33.4165L56.5481 34.8654L57.6793 34.5623L57.6596 33.3913L56.1598 33.4165ZM56.5393 29.7328L58.0108 30.0241L58.0126 30.015L56.5393 29.7328ZM57.2086 25.9714L58.6891 26.2131L58.6907 26.2024L57.2086 25.9714ZM54.7965 25.6238L53.2974 25.679L53.2981 25.6924L54.7965 25.6238ZM55.0327 28.128L56.5173 27.9138L56.5173 27.9138L55.0327 28.128ZM55.6382 33.5563L54.1387 33.5922L54.1844 35.4988L56.0265 35.0052L55.6382 33.5563ZM57.6596 33.3913C57.6438 32.4499 57.7533 31.3243 58.0108 30.0241L55.0679 29.4414C54.7798 30.8963 54.6398 32.2394 54.66 33.4417L57.6596 33.3913ZM58.0126 30.015C58.2827 28.6046 58.5065 27.3309 58.689 26.2131L55.7282 25.7296C55.5501 26.8205 55.3311 28.0672 55.0661 29.4506L58.0126 30.015ZM58.6907 26.2024C58.886 24.9499 58.8835 23.7992 58.6104 22.7798L55.7126 23.5563C55.8432 24.0437 55.8816 24.7456 55.7265 25.7403L58.6907 26.2024ZM58.6104 22.7798C58.427 22.0955 57.9797 21.5619 57.3826 21.2721C56.8182 20.9983 56.2055 20.9809 55.6813 21.1214L56.4578 24.0192C56.3779 24.0406 56.2387 24.0516 56.073 23.9712C55.9862 23.9291 55.9017 23.8654 55.8328 23.7814C55.7634 23.6969 55.7281 23.6143 55.7126 23.5563L58.6104 22.7798ZM55.6813 21.1214C54.6503 21.3977 54.0024 22.1462 53.662 22.9965C53.3429 23.7937 53.2627 24.7328 53.2975 25.679L56.2955 25.5687C56.2677 24.8131 56.3507 24.3523 56.4471 24.1115C56.4905 24.0032 56.5216 23.9774 56.5123 23.9865C56.5075 23.9912 56.4974 23.9996 56.4832 24.0077C56.4766 24.0115 56.4706 24.0144 56.4656 24.0164C56.4632 24.0174 56.4613 24.0181 56.4599 24.0185C56.4592 24.0188 56.4587 24.0189 56.4583 24.019C56.458 24.0191 56.4578 24.0192 56.4578 24.0192L55.6813 21.1214ZM53.2981 25.6924C53.3386 26.5782 53.42 27.4551 53.548 28.3423L56.5173 27.9138C56.4037 27.1265 56.3311 26.3468 56.2949 25.5553L53.2981 25.6924ZM53.548 28.3423C53.6677 29.1713 53.7692 30.0661 53.9134 31.1648L56.8879 30.7745C56.7539 29.7529 56.6393 28.7593 56.5173 27.9138L53.548 28.3423ZM53.9134 31.1648C54.0503 32.2076 54.1243 32.9932 54.1387 33.5922L57.1378 33.5203C57.1196 32.7615 57.0293 31.8518 56.8879 30.7745L53.9134 31.1648ZM56.0265 35.0052L56.5481 34.8654L55.7716 31.9676L55.25 32.1074L56.0265 35.0052ZM58.3738 36.1155C58.0262 34.8183 56.6891 33.813 55.2126 34.2087L55.989 37.1065C55.8214 37.1514 55.6814 37.1064 55.6051 37.0577C55.5299 37.0098 55.4907 36.9465 55.476 36.8919L58.3738 36.1155ZM55.2126 34.2087C53.6378 34.6306 53.0896 36.2538 53.4193 37.4844L56.3171 36.708C56.3258 36.7405 56.3294 36.7949 56.2939 36.8672C56.253 36.9502 56.1514 37.063 55.989 37.1065L55.2126 34.2087ZM53.4193 37.4844C53.7749 38.8116 55.1152 39.7217 56.5457 39.3384L55.7692 36.4407C55.9024 36.405 56.0422 36.4308 56.1464 36.4946C56.2487 36.5573 56.2999 36.6439 56.3171 36.708L53.4193 37.4844ZM56.5457 39.3384C58.0114 38.9457 58.7304 37.4463 58.3738 36.1155L55.476 36.8919C55.4554 36.815 55.4638 36.7258 55.5088 36.6433C55.5564 36.5559 55.6487 36.4729 55.7692 36.4407L56.5457 39.3384Z" fill="#231F1C"/>
</svg>
