<svg width="70" height="70" viewBox="0 0 70 70" fill="none" xmlns="http://www.w3.org/2000/svg">
<circle cx="35" cy="35" r="34.25" fill="#FEFF8B" stroke="#231F1C" stroke-width="1.5"/>
<path d="M18.633 33.968L19.8641 34.825L19.8641 34.825L18.633 33.968ZM22.5133 32.7626L21.9751 34.1627L22.0083 34.1755L22.042 34.1867L22.5133 32.7626ZM24.5635 36.3958L23.073 36.5648L23.2693 38.2955L24.9517 37.8447L24.5635 36.3958ZM25.0851 36.256L25.4733 37.7049L26.6332 37.3941L26.5838 36.1944L25.0851 36.256ZM24.8635 30.8698L26.3622 30.8082L26.2852 28.936L24.4752 29.4209L24.8635 30.8698ZM24.4385 30.9837L24.0502 29.5348L23.1225 29.7834L22.9601 30.7301L24.4385 30.9837ZM24.1071 32.9153L23.1428 34.0642L25.1438 35.7438L25.5855 33.1689L24.1071 32.9153ZM17.1027 34.1295L15.8967 33.2377L15.8967 33.2377L17.1027 34.1295ZM23.6787 45.2257L22.4306 44.3936L23.6787 45.2257ZM16.9351 42.6223L18.4255 42.4533L18.2293 40.7226L16.5469 41.1734L16.9351 42.6223ZM16.4328 42.7569L16.0446 41.308L14.8868 41.6182L14.934 42.816L16.4328 42.7569ZM16.6613 48.5553L15.1625 48.6144L15.2364 50.49L17.0496 50.0042L16.6613 48.5553ZM17.0863 48.4414L17.4746 49.8903L18.4361 49.6327L18.5723 48.6465L17.0863 48.4414ZM17.3891 46.2484L18.4825 45.2215L16.3326 42.9322L15.9031 46.0433L17.3891 46.2484ZM25.745 44.0508L24.3652 43.4626L24.3641 43.4651L25.745 44.0508ZM25.8821 41.2395L24.43 41.616L24.4332 41.6278L25.8821 41.2395ZM21.01 38.2797L20.7601 39.7587L20.7916 39.764L20.8234 39.768L21.01 38.2797ZM19.7603 36.0885C19.5833 35.4281 19.6929 35.071 19.8641 34.825L17.402 33.1109C16.6163 34.2395 16.5114 35.5548 16.8625 36.8649L19.7603 36.0885ZM19.8641 34.825C20.1834 34.3664 20.4925 34.1737 20.7795 34.0968L20.0031 31.199C18.8992 31.4948 18.0396 32.1951 17.402 33.1109L19.8641 34.825ZM20.7795 34.0968C21.1863 33.9878 21.5257 33.99 21.9751 34.1627L23.0515 31.3625C21.9773 30.9496 20.9872 30.9353 20.0031 31.199L20.7795 34.0968ZM22.042 34.1867C22.1516 34.2229 22.6108 34.5176 22.9006 35.599L25.7984 34.8226C25.3841 33.2766 24.4653 31.8286 22.9845 31.3386L22.042 34.1867ZM22.9006 35.599C22.9788 35.8907 23.0327 36.2091 23.073 36.5648L26.0539 36.2268C26.0031 35.7786 25.9273 35.3036 25.7984 34.8226L22.9006 35.599ZM24.9517 37.8447L25.4733 37.7049L24.6968 34.8071L24.1752 34.9469L24.9517 37.8447ZM26.5838 36.1944L26.3622 30.8082L23.3647 30.9315L23.5863 36.3177L26.5838 36.1944ZM24.4752 29.4209L24.0502 29.5348L24.8267 32.4326L25.2517 32.3187L24.4752 29.4209ZM22.9601 30.7301L22.6287 32.6617L25.5855 33.1689L25.9169 31.2373L22.9601 30.7301ZM25.0714 31.7664C23.5581 30.4962 21.7535 30.1295 19.8336 30.644L20.6101 33.5417C21.6267 33.2693 22.4122 33.451 23.1428 34.0642L25.0714 31.7664ZM19.8336 30.644C18.2166 31.0772 16.8685 31.9235 15.8967 33.2377L18.3088 35.0214C18.8264 34.3215 19.5612 33.8228 20.6101 33.5417L19.8336 30.644ZM15.8967 33.2377C14.8068 34.7115 14.6687 36.4824 15.1598 38.315L18.0576 37.5386C17.7308 36.3189 17.9092 35.5617 18.3088 35.0214L15.8967 33.2377ZM15.1598 38.315C15.537 39.7229 16.3481 40.6504 17.3533 41.2372C18.2822 41.7794 19.3332 42.0009 20.1408 42.1548C21.0553 42.3291 21.6405 42.4196 22.1044 42.6132C22.4615 42.7622 22.5333 42.8828 22.5797 43.0562L25.4775 42.2797C25.1228 40.9558 24.2011 40.2375 23.2599 39.8447C22.4256 39.4965 21.4078 39.3423 20.7023 39.2078C19.8897 39.053 19.3035 38.9018 18.8656 38.6463C18.504 38.4352 18.2187 38.1398 18.0576 37.5386L15.1598 38.315ZM22.5797 43.0562C22.7421 43.6623 22.6478 44.0678 22.4306 44.3936L24.9267 46.0577C25.6843 44.9214 25.8327 43.6054 25.4775 42.2797L22.5797 43.0562ZM22.4306 44.3936C22.1596 44.8 21.7957 45.0676 21.2334 45.2183L22.0099 48.1161C23.2249 47.7905 24.2229 47.1134 24.9267 46.0577L22.4306 44.3936ZM21.2334 45.2183C20.3485 45.4554 19.879 45.3257 19.6028 45.1458C19.2918 44.9431 18.8988 44.4646 18.6069 43.3753L15.7092 44.1517C16.1005 45.6124 16.79 46.8937 17.9652 47.6594C19.1753 48.4478 20.5959 48.4949 22.0099 48.1161L21.2334 45.2183ZM18.6069 43.3753C18.5226 43.0604 18.4607 42.7633 18.4255 42.4533L15.4446 42.7913C15.5006 43.2851 15.5968 43.7325 15.7092 44.1517L18.6069 43.3753ZM16.5469 41.1734L16.0446 41.308L16.821 44.2058L17.3233 44.0712L16.5469 41.1734ZM14.934 42.816L15.1625 48.6144L18.1602 48.4963L17.9316 42.6978L14.934 42.816ZM17.0496 50.0042L17.4746 49.8903L16.6981 46.9926L16.2731 47.1064L17.0496 50.0042ZM18.5723 48.6465L18.875 46.4535L15.9031 46.0433L15.6004 48.2363L18.5723 48.6465ZM16.2956 47.2752C17.8145 48.8926 19.8319 49.2794 21.981 48.7036L21.2045 45.8058C19.9148 46.1513 19.1075 45.887 18.4825 45.2215L16.2956 47.2752ZM21.981 48.7036C24.1557 48.1208 26.1591 46.916 27.1259 44.6365L24.3641 43.4651C23.8843 44.5962 22.8548 45.3636 21.2045 45.8058L21.981 48.7036ZM27.1249 44.639C27.6432 43.4232 27.6794 42.1518 27.331 40.8513L24.4332 41.6278C24.6334 42.375 24.5843 42.9486 24.3652 43.4626L27.1249 44.639ZM27.3341 40.8631C26.8878 39.1417 25.7532 38.1448 24.5256 37.5874C23.3768 37.0658 22.09 36.9033 21.1966 36.7913L20.8234 39.768C21.7725 39.887 22.6131 40.0138 23.2853 40.319C23.8788 40.5885 24.259 40.9561 24.4301 41.616L27.3341 40.8631ZM21.2599 36.8006C20.7173 36.709 20.3193 36.5721 20.0641 36.4182C19.835 36.2801 19.7823 36.1706 19.7603 36.0885L16.8625 36.8649C17.4055 38.8916 19.427 39.5335 20.7601 39.7587L21.2599 36.8006ZM29.5646 33.9583L28.0906 33.6804L28.0889 33.6893L28.0873 33.6982L29.5646 33.9583ZM36.1759 39.0818L37.6478 39.3709L37.6495 39.3623L37.6511 39.3536L36.1759 39.0818ZM35.0367 42.0166L33.7705 41.2125L35.0367 42.0166ZM33.1081 44.1691L32.73 42.7175L32.7199 42.7203L33.1081 44.1691ZM38.3444 38.2109L36.8919 37.8365L36.8872 37.8546L36.883 37.8728L38.3444 38.2109ZM36.2634 29.2853L35.3684 30.4891L35.3822 30.4993L35.3963 30.5093L36.2634 29.2853ZM27.7989 33.3962L26.3958 32.8658L26.3948 32.8685L27.7989 33.3962ZM29.4564 43.6775L28.5614 44.8812L28.5752 44.8915L28.5893 44.9015L29.4564 43.6775ZM32.7101 42.1431C32.4502 42.2128 32.2571 42.1711 32.0251 41.9654C31.7376 41.7105 31.3968 41.1825 31.1607 40.3014L28.2629 41.0778C28.591 42.3024 29.1611 43.4353 30.0346 44.21C30.9637 45.0338 32.1818 45.3905 33.4866 45.0409L32.7101 42.1431ZM31.1607 40.3014C30.7124 38.6283 30.6762 36.2952 31.0419 34.2185L28.0873 33.6982C27.6648 36.098 27.6759 38.8872 28.2629 41.0778L31.1607 40.3014ZM31.0386 34.2362C31.225 33.2478 31.5257 32.441 31.9467 31.7565L29.3913 30.1849C28.745 31.2357 28.3318 32.4009 28.0906 33.6804L31.0386 34.2362ZM31.9467 31.7565C32.3268 31.1384 32.7056 30.9012 33.029 30.8146L32.2525 27.9168C31.0304 28.2442 30.0783 29.0677 29.3913 30.1849L31.9467 31.7565ZM33.029 30.8146C33.3201 30.7366 33.5025 30.7867 33.7203 30.9872C34.008 31.2519 34.3509 31.8073 34.6043 32.7529L37.5021 31.9764C37.1705 30.7391 36.6186 29.5775 35.752 28.7798C34.8155 27.9179 33.5842 27.56 32.2525 27.9168L33.029 30.8146ZM34.6043 32.7529C35.047 34.4051 35.0832 36.7348 34.7007 38.8099L37.6511 39.3536C38.0955 36.9419 38.0843 34.1493 37.5021 31.9764L34.6043 32.7529ZM34.704 38.7926C34.5175 39.7421 34.2 40.5361 33.7705 41.2125L36.3029 42.8208C36.9509 41.8005 37.3964 40.6508 37.6478 39.3709L34.704 38.7926ZM33.7705 41.2125C33.3732 41.838 33.0051 42.0641 32.7101 42.1431L33.4866 45.0409C34.6984 44.7162 35.6226 43.892 36.3029 42.8208L33.7705 41.2125ZM33.4862 45.6207C36.9537 44.7175 39.089 41.6478 39.8058 38.5489L36.883 37.8728C36.3335 40.2482 34.7979 42.1789 32.73 42.7176L33.4862 45.6207ZM39.7969 38.5853C40.3491 36.4429 40.3227 34.1576 39.7748 32.1128L36.8771 32.8893C37.292 34.4378 37.3143 36.1977 36.8919 37.8365L39.7969 38.5853ZM39.7748 32.1128C39.3241 30.4308 38.4773 29.0155 37.1305 28.0613L35.3963 30.5093C36.0428 30.9674 36.5617 31.7122 36.8771 32.8893L39.7748 32.1128ZM37.1584 28.0816C35.7304 27.0199 34.0266 26.841 32.2569 27.3151L33.0334 30.2129C34.1229 29.921 34.8312 30.0896 35.3684 30.4891L37.1584 28.0816ZM32.2569 27.3151C29.4501 28.0672 27.371 30.286 26.3958 32.8658L29.202 33.9265C29.899 32.0828 31.3197 30.6721 33.0334 30.2129L32.2569 27.3151ZM26.3948 32.8685C25.4701 35.3293 25.2671 38.2431 25.9591 40.8255L28.8569 40.049C28.3375 38.1109 28.4839 35.8375 29.2031 33.9238L26.3948 32.8685ZM25.9591 40.8255C26.4108 42.5111 27.2544 43.9094 28.5614 44.8812L30.3514 42.4738C29.6933 41.9844 29.1713 41.2225 28.8569 40.049L25.9591 40.8255ZM28.5893 44.9015C30.0211 45.9158 31.708 46.0972 33.4963 45.618L32.7199 42.7203C31.6104 43.0175 30.8851 42.8514 30.3235 42.4535L28.5893 44.9015ZM42.8521 27.4785L44.0832 28.3355L44.0832 28.3355L42.8521 27.4785ZM46.7324 26.2731L46.1941 27.6732L46.2273 27.686L46.2611 27.6972L46.7324 26.2731ZM48.7826 29.9063L47.2921 30.0753L47.4884 31.806L49.1708 31.3552L48.7826 29.9063ZM49.3042 29.7665L49.6924 31.2154L50.8522 30.9046L50.8029 29.7049L49.3042 29.7665ZM49.0826 24.3804L50.5813 24.3187L50.5043 22.4465L48.6943 22.9315L49.0826 24.3804ZM48.6575 24.4942L48.2693 23.0453L47.3415 23.2939L47.1791 24.2406L48.6575 24.4942ZM48.3262 26.4258L47.3618 27.5747L49.3629 29.2543L49.8046 26.6794L48.3262 26.4258ZM41.3218 27.6401L40.1157 26.7482L40.1157 26.7482L41.3218 27.6401ZM47.8977 38.7362L46.6497 37.9041L47.8977 38.7362ZM41.1542 36.1328L42.6446 35.9638L42.4484 34.2331L40.7659 34.6839L41.1542 36.1328ZM40.6519 36.2674L40.2637 34.8185L39.1058 35.1288L39.1531 36.3265L40.6519 36.2674ZM40.8804 42.0658L39.3816 42.1249L39.4555 44.0006L41.2686 43.5147L40.8804 42.0658ZM41.3054 41.952L41.6937 43.4009L42.6552 43.1432L42.7913 42.1571L41.3054 41.952ZM41.6081 39.7589L42.7016 38.732L40.5516 36.4427L40.1222 39.5538L41.6081 39.7589ZM49.9641 37.5613L48.5842 36.9731L48.5832 36.9756L49.9641 37.5613ZM50.1011 34.7501L48.6491 35.1265L48.6523 35.1383L50.1011 34.7501ZM45.2291 31.7902L44.9792 33.2692L45.0107 33.2746L45.0425 33.2785L45.2291 31.7902ZM43.9793 29.599C43.8024 28.9386 43.9119 28.5815 44.0832 28.3355L41.621 26.6215C40.8354 27.75 40.7305 29.0653 41.0816 30.3754L43.9793 29.599ZM44.0832 28.3355C44.4024 27.8769 44.7116 27.6842 44.9986 27.6073L44.2221 24.7095C43.1182 25.0053 42.2586 25.7056 41.621 26.6215L44.0832 28.3355ZM44.9986 27.6073C45.4054 27.4983 45.7448 27.5005 46.1941 27.6732L47.2706 24.873C46.1964 24.4601 45.2063 24.4458 44.2221 24.7095L44.9986 27.6073ZM46.2611 27.6972C46.3707 27.7334 46.8299 28.0281 47.1197 29.1095L50.0175 28.3331C49.6032 26.7871 48.6844 25.3391 47.2036 24.8491L46.2611 27.6972ZM47.1197 29.1095C47.1978 29.4012 47.2518 29.7196 47.2921 30.0753L50.273 29.7373C50.2222 29.2892 50.1463 28.8141 50.0175 28.3331L47.1197 29.1095ZM49.1708 31.3552L49.6924 31.2154L48.9159 28.3176L48.3943 28.4574L49.1708 31.3552ZM50.8029 29.7049L50.5813 24.3187L47.5838 24.442L47.8054 29.8282L50.8029 29.7049ZM48.6943 22.9315L48.2693 23.0453L49.0458 25.9431L49.4708 25.8292L48.6943 22.9315ZM47.1791 24.2406L46.8478 26.1722L49.8046 26.6794L50.136 24.7479L47.1791 24.2406ZM49.2905 25.2769C47.7772 24.0067 45.9725 23.6401 44.0527 24.1545L44.8292 27.0523C45.8457 26.7799 46.6313 26.9616 47.3618 27.5747L49.2905 25.2769ZM44.0527 24.1545C42.4357 24.5878 41.0876 25.434 40.1157 26.7482L42.5278 28.5319C43.0455 27.832 43.7802 27.3333 44.8292 27.0523L44.0527 24.1545ZM40.1157 26.7482C39.0259 28.222 38.8878 29.9929 39.3789 31.8255L42.2766 31.0491C41.9498 29.8294 42.1283 29.0723 42.5278 28.5319L40.1157 26.7482ZM39.3789 31.8255C39.7561 33.2334 40.5672 34.161 41.5724 34.7477C42.5013 35.2899 43.5523 35.5115 44.3598 35.6653C45.2744 35.8396 45.8596 35.9301 46.3235 36.1237C46.6806 36.2728 46.7524 36.3934 46.7988 36.5667L49.6966 35.7902C49.3418 34.4663 48.4201 33.748 47.479 33.3552C46.6447 33.007 45.6269 32.8528 44.9214 32.7183C44.1088 32.5635 43.5225 32.4123 43.0847 32.1568C42.7231 31.9457 42.4377 31.6503 42.2766 31.0491L39.3789 31.8255ZM46.7988 36.5667C46.9612 37.1728 46.8669 37.5783 46.6497 37.9041L49.1458 39.5682C49.9034 38.4319 50.0518 37.1159 49.6966 35.7902L46.7988 36.5667ZM46.6497 37.9041C46.3787 38.3105 46.0148 38.5781 45.4525 38.7288L46.229 41.6266C47.444 41.301 48.442 40.6239 49.1458 39.5682L46.6497 37.9041ZM45.4525 38.7288C44.5676 38.9659 44.098 38.8362 43.8219 38.6563C43.5108 38.4537 43.1179 37.9752 42.826 36.8858L39.9282 37.6622C40.3196 39.1229 41.009 40.4042 42.1843 41.1699C43.3944 41.9583 44.815 42.0054 46.229 41.6266L45.4525 38.7288ZM42.826 36.8858C42.7416 36.5709 42.6798 36.2738 42.6446 35.9638L39.6637 36.3018C39.7197 36.7956 39.8159 37.243 39.9282 37.6622L42.826 36.8858ZM40.7659 34.6839L40.2637 34.8185L41.0401 37.7163L41.5424 37.5817L40.7659 34.6839ZM39.1531 36.3265L39.3816 42.1249L42.3793 42.0068L42.1507 36.2083L39.1531 36.3265ZM41.2686 43.5147L41.6937 43.4009L40.9172 40.5031L40.4922 40.617L41.2686 43.5147ZM42.7913 42.1571L43.094 39.964L40.1222 39.5538L39.8195 41.7469L42.7913 42.1571ZM40.5147 40.7857C42.0336 42.4031 44.051 42.7899 46.2 42.2141L45.4236 39.3163C44.1339 39.6619 43.3266 39.3976 42.7016 38.732L40.5147 40.7857ZM46.2 42.2141C48.3748 41.6313 50.3782 40.4265 51.345 38.147L48.5832 36.9756C48.1034 38.1068 47.0739 38.8741 45.4236 39.3163L46.2 42.2141ZM51.3439 38.1496C51.8622 36.9337 51.8985 35.6623 51.55 34.3618L48.6523 35.1383C48.8525 35.8856 48.8033 36.4591 48.5842 36.9731L51.3439 38.1496ZM51.5531 34.3736C51.1069 32.6522 49.9723 31.6553 48.7447 31.0979C47.5959 30.5763 46.3091 30.4138 45.4156 30.3018L45.0425 33.2785C45.9916 33.3975 46.8322 33.5243 47.5044 33.8295C48.0979 34.099 48.4781 34.4666 48.6491 35.1265L51.5531 34.3736ZM45.479 30.3112C44.9363 30.2195 44.5383 30.0826 44.2832 29.9288C44.0541 29.7906 44.0013 29.6811 43.9793 29.599L41.0816 30.3754C41.6246 32.4021 43.6461 33.044 44.9792 33.2692L45.479 30.3112ZM53.9809 34.0004L54.3691 35.4493L55.5004 35.1461L55.4807 33.9751L53.9809 34.0004ZM54.3604 30.3166L55.8318 30.608L55.8336 30.5988L54.3604 30.3166ZM55.0297 26.5552L56.5101 26.797L56.5118 26.7863L55.0297 26.5552ZM52.6175 26.2077L51.1185 26.2628L51.1191 26.2763L52.6175 26.2077ZM52.8537 28.7119L54.3383 28.4977L54.3383 28.4977L52.8537 28.7119ZM53.4593 34.1401L51.9597 34.1761L52.0054 36.0826L53.8475 35.589L53.4593 34.1401ZM55.4807 33.9751C55.4648 33.0338 55.5744 31.9082 55.8318 30.608L52.8889 30.0253C52.6009 31.4802 52.4609 32.8232 52.4811 34.0256L55.4807 33.9751ZM55.8336 30.5988C56.1038 29.1885 56.3275 27.9147 56.5101 26.797L53.5493 26.3135C53.3711 27.4043 53.1522 28.6511 52.8872 30.0344L55.8336 30.5988ZM56.5118 26.7863C56.707 25.5338 56.7045 24.3831 56.4314 23.3637L53.5336 24.1402C53.6642 24.6276 53.7026 25.3295 53.5476 26.3242L56.5118 26.7863ZM56.4314 23.3637C56.248 22.6794 55.8007 22.1457 55.2036 21.856C54.6392 21.5822 54.0266 21.5648 53.5024 21.7053L54.2788 24.6031C54.1989 24.6245 54.0598 24.6355 53.894 24.5551C53.8073 24.513 53.7228 24.4493 53.6538 24.3653C53.5844 24.2808 53.5492 24.1982 53.5336 24.1402L56.4314 23.3637ZM53.5024 21.7053C52.4713 21.9815 51.8235 22.73 51.4831 23.5804C51.1639 24.3775 51.0837 25.3167 51.1185 26.2628L54.1165 26.1526C54.0887 25.397 54.1718 24.9362 54.2682 24.6954C54.3115 24.5871 54.3426 24.5612 54.3333 24.5704C54.3285 24.5751 54.3185 24.5835 54.3043 24.5916C54.2977 24.5954 54.2916 24.5982 54.2867 24.6002C54.2843 24.6012 54.2823 24.6019 54.2809 24.6024C54.2803 24.6026 54.2797 24.6028 54.2794 24.6029C54.279 24.603 54.2788 24.6031 54.2788 24.6031L53.5024 21.7053ZM51.1191 26.2763C51.1596 27.162 51.2411 28.039 51.3691 28.9261L54.3383 28.4977C54.2247 27.7103 54.1522 26.9307 54.116 26.1392L51.1191 26.2763ZM51.3691 28.9261C51.4887 29.7552 51.5903 30.6499 51.7344 31.7487L54.7089 31.3583C54.5749 30.3368 54.4603 29.3431 54.3383 28.4977L51.3691 28.9261ZM51.7344 31.7487C51.8713 32.7915 51.9453 33.5771 51.9597 34.1761L54.9588 34.1042C54.9406 33.3453 54.8503 32.4357 54.7089 31.3583L51.7344 31.7487ZM53.8475 35.589L54.3691 35.4493L53.5926 32.5515L53.071 32.6912L53.8475 35.589ZM56.1948 36.6993C55.8473 35.4022 54.5101 34.3969 53.0336 34.7925L53.8101 37.6903C53.6425 37.7352 53.5025 37.6902 53.4262 37.6416C53.3509 37.5937 53.3117 37.5304 53.2971 37.4758L56.1948 36.6993ZM53.0336 34.7925C51.4589 35.2145 50.9106 36.8377 51.2403 38.0683L54.1381 37.2918C54.1468 37.3244 54.1504 37.3787 54.1149 37.451C54.0741 37.534 53.9724 37.6468 53.8101 37.6903L53.0336 34.7925ZM51.2403 38.0683C51.596 39.3955 52.9363 40.3056 54.3667 39.9223L53.5903 37.0245C53.7234 36.9888 53.8632 37.0146 53.9674 37.0785C54.0697 37.1411 54.1209 37.2277 54.1381 37.2918L51.2403 38.0683ZM54.3667 39.9223C55.8324 39.5296 56.5514 38.0301 56.1948 36.6993L53.2971 37.4758C53.2765 37.3989 53.2849 37.3097 53.3298 37.2272C53.3774 37.1398 53.4698 37.0568 53.5903 37.0245L54.3667 39.9223Z" fill="#231F1C"/>
</svg>
