<svg width="20" height="20" viewBox="0 0 20 20" fill="none" xmlns="http://www.w3.org/2000/svg">
<rect width="20" height="20" rx="10" fill="#3C65F7"/>
<path d="M10.6199 3.7041L8.82041 3.7205C8.45558 3.7205 8.14815 4.03203 8.14815 4.39686C8.14815 5.67169 7.53328 6.31116 6.87741 6.72928C6.54538 6.93423 6.20515 7.0695 5.951 7.14739C5.82393 7.18838 5.71735 7.21298 5.64767 7.22937C5.61077 7.23757 5.57798 7.24167 5.55748 7.24577C5.54929 7.24577 5.54109 7.24987 5.53289 7.25397C5.53289 7.25397 5.52879 7.25397 5.52469 7.25397C5.52059 7.25397 5.51649 7.25397 5.50829 7.25397C5.5001 7.25807 5.44681 7.27446 5.44681 7.27446L5.44271 7.27856H5.43451C5.16397 7.38104 5 7.63519 5 7.90983V9.32814C5 9.69296 5.30744 10.0004 5.67226 10.0004H7.09877V12.505C7.09877 12.714 7.09467 13.6159 7.50868 14.5095C7.92679 15.4072 8.8737 16.2967 10.4601 16.2967C11.6201 16.2967 12.526 16.0794 13.1491 15.854C13.4647 15.7392 13.7066 15.6203 13.8788 15.5261C13.9648 15.481 14.0304 15.44 14.0837 15.4113C14.1329 15.3785 14.1206 15.399 14.2108 15.3211L14.2149 15.3129L14.219 15.3088C14.3625 15.1817 14.4444 14.9932 14.4444 14.8046V13.2346C14.4444 12.9928 14.3051 12.7673 14.1042 12.6485L14.1001 12.6444L14.0919 12.6403C13.8829 12.5296 13.6164 12.5296 13.4033 12.6689L13.4565 12.6403C13.4443 12.6444 12.6695 13.1485 11.9522 13.1485C11.5463 13.1485 11.4726 13.0297 11.3906 12.8944C11.3496 12.8288 11.325 12.7509 11.3127 12.6894C11.2963 12.628 11.2963 12.5255 11.2963 12.6239V10.0004H12.7187C13.0835 10.0004 13.3951 9.69706 13.3951 9.32814V7.54501C13.3951 7.17608 13.0835 6.86865 12.7187 6.86865L11.2963 6.85635V4.37636C11.2963 4.01154 10.9889 3.7041 10.624 3.7041H10.6199ZM10.2469 4.75758V7.89753L12.3457 7.91803V8.95102H10.2469V12.6239C10.2469 12.7468 10.2551 12.7837 10.2879 12.9231C10.3166 13.0666 10.3781 13.2469 10.4929 13.4396C10.7224 13.8167 11.2348 14.1979 11.9522 14.1979C12.7843 14.1979 13.0917 13.9233 13.3951 13.7429V14.5955C13.3869 14.5996 13.3869 14.5996 13.3787 14.6078C13.2475 14.6775 13.0548 14.7718 12.7925 14.8661C12.2719 15.0547 11.489 15.2473 10.4601 15.2473C9.23032 15.2473 8.75892 14.7062 8.45968 14.0668C8.16454 13.4314 8.14815 12.6976 8.14815 12.505V8.95102H6.04938V8.20497C6.11907 8.18857 6.17646 8.17628 6.26254 8.14758C6.58227 8.0492 7.00448 7.88524 7.4349 7.61469C8.21783 7.12279 8.95158 6.15539 9.09505 4.76988L10.2469 4.75758Z" fill="#EFEFEF"/>
</svg>
