<svg width="90" height="90" viewBox="0 0 90 90" fill="none" xmlns="http://www.w3.org/2000/svg">
<rect y="0.306122" width="89.3878" height="89.3878" rx="44.6939" fill="#3C65F7"/>
<path d="M41.0457 25.1401C37.7099 25.1091 35.1923 25.264 33.0839 26.3328C32.2185 26.7665 31.6048 27.3242 31.1328 27.9748C30.881 28.3001 30.645 28.5944 30.5348 29.276C30.4719 29.6013 30.4247 30.1434 30.7709 30.7321C31.117 31.3362 31.8566 31.7389 32.3601 31.8164C32.7377 31.8628 33.5402 32.1881 33.6818 32.374C34.0122 32.8387 34.1381 33.1795 34.1853 33.3654C34.2325 33.5513 34.2168 33.4274 34.2168 33.4274V33.6132C34.2168 33.6132 34.3427 35.565 34.264 37.5787C34.2168 38.5701 34.1224 39.608 33.965 40.305C33.8077 41.0021 33.4143 41.1725 33.9808 40.8472C33.5874 41.0795 33.729 41.1725 33.2412 40.9246C32.7377 40.6923 31.4317 39.608 29.7166 36.5719C28.0015 33.5203 26.7585 31.9403 26.4753 31.5995C26.3651 31.2897 26.0976 30.6546 25.185 29.9575C24.0049 29.0591 22.7933 29.0436 22.7933 29.0436L22.6832 29.0281H13.8875C13.8875 29.0281 13.384 29.0436 12.8018 29.1675C12.2196 29.2915 11.3856 29.4309 10.5989 30.3913H10.5832C9.7807 31.3981 9.92231 32.3121 9.98525 32.8697C10.0639 33.4428 10.237 33.8921 10.237 33.8921L10.2685 33.985L10.3157 34.0779C10.3157 34.0779 17.0344 48.1896 25.0591 56.7867C32.5961 64.8726 41.3289 64.7177 41.3289 64.7177H46.2853L46.3955 64.7022C46.3955 64.7022 47.9847 64.7797 49.3221 63.3081C49.9987 62.5491 50.1561 61.8365 50.2348 61.3098C50.3292 60.7677 50.3292 60.3339 50.3292 60.3339V60.4579C50.3292 60.4579 50.3921 59.4355 50.6753 58.3667C50.8169 57.84 51.0215 57.3133 51.2103 57.019C51.3047 56.8486 51.3047 56.8951 51.3362 56.8486C51.6824 57.0965 52.2488 57.6696 52.8467 58.3977C54.074 59.8383 55.4587 61.8365 57.3941 63.2151C58.7945 64.191 60.1162 64.6247 61.1232 64.7796C61.7998 64.8881 62.2876 64.8726 62.618 64.8416L69.4626 64.7177H69.5256C69.5256 64.7177 70.9417 64.6867 72.3578 63.8038C73.0502 63.37 73.8526 62.58 74.1201 61.4492C74.4033 60.3185 74.0886 59.0947 73.4278 57.9639C73.6481 58.3512 73.3806 57.84 73.176 57.4373C72.9715 57.0345 72.6568 56.4924 72.1847 55.8108C71.2721 54.4786 69.7616 52.6043 67.2598 50.2188C66.0797 49.1035 65.3244 48.4839 64.8523 48.0502C64.994 47.8488 65.0097 47.8333 65.5447 47.2137C66.3943 46.2378 67.6374 44.7972 69.2109 42.6441C71.099 40.0417 72.468 37.9195 73.3491 36.1536C74.2303 34.4032 74.9383 32.9472 74.1516 31.1503C73.7267 30.1744 72.9715 29.8026 72.4208 29.5703C71.8543 29.3379 71.3508 29.245 70.8788 29.1675C69.9504 29.0281 69.1322 29.0281 69.1322 29.0281L61.1547 29.0901C60.9187 29.0436 60.006 28.8732 58.8259 29.6168C57.6616 30.3293 57.3941 31.0883 57.3311 31.3207C57.1423 31.584 55.8206 33.4274 53.9796 36.6493C52.1229 39.9023 50.8641 40.7852 50.7068 40.8627C50.6596 40.8162 50.754 40.8317 50.5337 40.7078C50.4393 40.6303 50.3449 40.5684 50.2662 39.7319C50.2033 38.8954 50.282 37.5787 50.282 36.0297C50.282 32.6993 50.5809 30.9644 50.4078 29.3069C50.3292 28.4705 49.983 27.4481 49.2277 26.7665C48.4725 26.1005 47.6543 25.8526 46.8046 25.6358C45.4671 25.3105 43.6576 25.171 41.0457 25.1401ZM41.0142 29.1056C43.4531 29.1366 45.1682 29.3224 45.7976 29.4773C46.3325 29.6168 46.4112 29.6787 46.3955 29.6477C46.3955 29.6787 46.3955 29.6632 46.3955 29.7097C46.4584 30.3758 46.2539 32.5134 46.2539 36.0297C46.2539 37.4084 46.1437 38.7405 46.2539 40.0727C46.364 41.4048 46.8518 43.0313 48.2836 43.9917H48.2994C48.1263 43.8833 50.1089 45.3394 51.9971 44.6733C53.8852 43.9917 55.38 42.2878 57.5042 38.5856C59.3609 35.3017 60.7298 33.4583 60.7298 33.4583L60.8557 33.2725L60.9501 33.0866C60.9501 33.0866 60.9187 33.0711 60.9501 33.0556L69.1322 32.9936C69.1322 32.9936 69.6986 32.9936 70.2494 33.0866C70.2651 33.0866 70.2808 33.0866 70.2966 33.0866C70.2179 33.1176 70.2808 33.3189 69.7301 34.4187C69.0221 35.8283 67.7475 37.8421 65.938 40.336C64.4432 42.3652 63.3261 43.6819 62.4921 44.6423C61.6582 45.5872 61.0288 46.0364 60.6197 47.2757C60.4151 47.8798 60.4623 48.7782 60.7613 49.3823C61.0445 49.971 61.3907 50.2963 61.7369 50.6216C62.4292 51.2721 63.2474 51.9072 64.4432 53.069C66.7877 55.2996 68.1094 56.9416 68.849 58.0259C69.2266 58.5835 69.4469 58.9708 69.5885 59.2496C69.7301 59.5284 69.6357 59.42 69.9504 59.9467C70.2179 60.4269 70.1707 60.4888 70.1707 60.4579C69.9032 60.6128 69.2266 60.7522 69.2109 60.7522L62.3663 60.8761L62.1774 60.9226C62.1774 60.9226 62.1932 60.9381 61.7683 60.8761C61.3278 60.7987 60.6354 60.6128 59.7543 59.9932C58.6686 59.2341 57.2997 57.4682 55.9465 55.8573C55.2856 55.0673 54.609 54.2927 53.7593 53.6731C52.9097 53.0535 51.5722 52.4804 50.2033 52.9296C49.0232 53.3014 48.2522 54.1533 47.7644 54.9433C47.2766 55.7488 46.9934 56.5853 46.7731 57.3443C46.364 58.8779 46.3011 60.2565 46.3011 60.2565V60.3804C46.3011 60.3804 46.3011 60.4734 46.2696 60.6128C46.1909 60.6437 46.0808 60.7212 46.0178 60.7522H41.203C41.203 60.7522 34.5472 61.093 28.0173 54.1223C21.0311 46.6096 14.8158 34.047 14.2966 32.9936H22.4C22.4786 33.0246 22.7619 33.133 22.7304 33.1176C22.5416 32.9627 22.8248 33.3034 22.8248 33.3034L22.9507 33.5978L23.171 33.8456C23.171 33.8456 24.414 35.3327 26.1921 38.4927C28.096 41.885 29.7009 43.6509 31.4947 44.5029C33.2884 45.3549 35.1766 44.7507 35.9791 44.3015C37.4739 43.4496 37.647 42.2568 37.8987 41.157C38.1505 40.0572 38.2291 38.8799 38.2763 37.7337C38.3707 35.534 38.2449 33.6597 38.2449 33.5203C38.2291 33.4738 38.2291 32.9317 38.0718 32.343C37.8987 31.7389 37.584 30.9489 36.9861 30.1124C36.7343 29.7717 36.4983 29.942 36.2308 29.6942C37.348 29.3844 38.5438 29.0746 41.0142 29.1056Z" fill="#EFEFEF"/>
</svg>
