<svg width="90" height="90" viewBox="0 0 90 90" fill="none" xmlns="http://www.w3.org/2000/svg">
<rect width="90" height="90" rx="45" fill="#3C65F7"/>
<path d="M40.3262 24.0049C36.9676 23.9737 34.4328 24.1296 32.3099 25.2058C31.4385 25.6425 30.8207 26.2039 30.3454 26.859C30.0919 27.1865 29.8543 27.4828 29.7434 28.1691C29.68 28.4966 29.6325 29.0425 29.981 29.6351C30.3296 30.2434 31.0742 30.6489 31.5811 30.7269C31.9613 30.7737 32.7693 31.1012 32.9119 31.2884C33.2446 31.7562 33.3713 32.0994 33.4189 32.2865C33.4664 32.4737 33.4505 32.3489 33.4505 32.3489V32.5361C33.4505 32.5361 33.5773 34.5012 33.4981 36.5287C33.4505 37.5269 33.3555 38.5719 33.1971 39.2737C33.0386 39.9755 32.6426 40.1471 33.2129 39.8196C32.8168 40.0535 32.9594 40.1471 32.4683 39.8975C31.9613 39.6636 30.6464 38.5719 28.9196 35.515C27.1927 32.4425 25.9412 30.8517 25.656 30.5085C25.5451 30.1966 25.2758 29.5572 24.3569 28.8553C23.1687 27.9507 21.9489 27.9351 21.9489 27.9351L21.838 27.9195H12.982C12.982 27.9195 12.475 27.9351 11.8889 28.0599C11.3027 28.1847 10.463 28.325 9.67091 29.292H9.65507C8.84709 30.3058 8.98968 31.226 9.05305 31.7874C9.13226 32.3645 9.30653 32.8168 9.30653 32.8168L9.33821 32.9104L9.38574 33.004C9.38574 33.004 16.1505 47.2122 24.2302 55.8682C31.8188 64.0095 40.6114 63.8536 40.6114 63.8536H45.6018L45.7127 63.838C45.7127 63.838 47.3128 63.9159 48.6594 62.4343C49.3406 61.6701 49.499 60.9526 49.5782 60.4224C49.6733 59.8765 49.6733 59.4398 49.6733 59.4398V59.5646C49.6733 59.5646 49.7367 58.5352 50.0218 57.459C50.1644 56.9288 50.3704 56.3985 50.5605 56.1022C50.6555 55.9306 50.6555 55.9774 50.6872 55.9306C51.0357 56.1801 51.6061 56.7572 52.2081 57.4902C53.4438 58.9407 54.838 60.9526 56.7866 62.3407C58.1966 63.3233 59.5273 63.76 60.5413 63.9159C61.2225 64.0251 61.7136 64.0095 62.0463 63.9783L68.9378 63.8536H69.0012C69.0012 63.8536 70.427 63.8224 71.8528 62.9334C72.5499 62.4967 73.3579 61.7013 73.6272 60.5627C73.9124 59.4242 73.5955 58.1921 72.9301 57.0535C73.1519 57.4434 72.8826 56.9288 72.6766 56.5233C72.4707 56.1178 72.1538 55.5719 71.6786 54.8856C70.7597 53.5444 69.2388 51.6572 66.7198 49.2554C65.5317 48.1324 64.7712 47.5086 64.2959 47.0719C64.4385 46.8691 64.4544 46.8535 64.993 46.2297C65.8485 45.2471 67.1001 43.7966 68.6843 41.6287C70.5854 39.0086 71.9637 36.8719 72.8509 35.0939C73.7381 33.3315 74.451 31.8654 73.6589 30.0562C73.2311 29.0737 72.4707 28.6994 71.9162 28.4654C71.3459 28.2315 70.8389 28.1379 70.3636 28.0599C69.4289 27.9195 68.6051 27.9195 68.6051 27.9195L60.5729 27.9819C60.3353 27.9351 59.4164 27.7636 58.2283 28.5122C57.0559 29.2296 56.7866 29.9939 56.7232 30.2278C56.5331 30.4929 55.2023 32.3489 53.3488 35.5929C51.4793 38.8682 50.2119 39.7572 50.0535 39.8352C50.006 39.7884 50.101 39.804 49.8792 39.6792C49.7842 39.6012 49.6891 39.5388 49.6099 38.6966C49.5465 37.8544 49.6258 36.5287 49.6258 34.9691C49.6258 31.6159 49.9268 29.8691 49.7525 28.2003C49.6733 27.3581 49.3248 26.3287 48.5643 25.6425C47.8039 24.9718 46.9801 24.7223 46.1246 24.5039C44.7779 24.1764 42.9561 24.036 40.3262 24.0049ZM40.2945 27.9975C42.7501 28.0287 44.4769 28.2159 45.1106 28.3718C45.6493 28.5122 45.7285 28.5746 45.7127 28.5434C45.7127 28.5746 45.7127 28.559 45.7127 28.6058C45.776 29.2764 45.5701 31.4287 45.5701 34.9691C45.5701 36.3572 45.4592 37.6985 45.5701 39.0397C45.681 40.381 46.1721 42.0186 47.6138 42.9856H47.6296C47.4553 42.8764 49.4515 44.3425 51.3526 43.6719C53.2537 42.9856 54.7587 41.27 56.8975 37.5425C58.7669 34.2361 60.1452 32.3801 60.1452 32.3801L60.2719 32.1929L60.367 32.0058C60.367 32.0058 60.3353 31.9902 60.367 31.9746L68.6051 31.9122C68.6051 31.9122 69.1754 31.9122 69.7299 32.0058C69.7458 32.0058 69.7616 32.0058 69.7775 32.0058C69.6982 32.037 69.7616 32.2397 69.2071 33.3471C68.4942 34.7663 67.211 36.7939 65.3891 39.3049C63.884 41.348 62.7592 42.6737 61.9196 43.6407C61.0799 44.592 60.4462 45.0443 60.0343 46.2921C59.8283 46.9003 59.8759 47.8049 60.1769 48.4132C60.462 49.0058 60.8106 49.3333 61.1591 49.6609C61.8562 50.3159 62.68 50.9554 63.884 52.1251C66.2446 54.371 67.5753 56.0242 68.3199 57.1159C68.7002 57.6774 68.922 58.0673 69.0645 58.348C69.2071 58.6288 69.1121 58.5196 69.4289 59.0499C69.6982 59.5334 69.6507 59.5957 69.6507 59.5646C69.3814 59.7205 68.7002 59.8609 68.6843 59.8609L61.7928 59.9857L61.6027 60.0324C61.6027 60.0324 61.6186 60.048 61.1908 59.9857C60.7472 59.9077 60.0501 59.7205 59.163 59.0967C58.0698 58.3324 56.6915 56.5545 55.3291 54.9324C54.6637 54.137 53.9825 53.3572 53.127 52.7333C52.2715 52.1095 50.9248 51.5324 49.5465 51.9847C48.3584 52.359 47.5821 53.2168 47.091 54.0122C46.5998 54.8233 46.3147 55.6655 46.0929 56.4297C45.681 57.9737 45.6176 59.3618 45.6176 59.3618V59.4866C45.6176 59.4866 45.6176 59.5802 45.5859 59.7205C45.5067 59.7517 45.3958 59.8297 45.3324 59.8609H40.4846C40.4846 59.8609 33.7832 60.204 27.2086 53.1856C20.1745 45.6214 13.9167 32.9728 13.3939 31.9122H21.5528C21.632 31.9434 21.9172 32.0526 21.8855 32.037C21.6954 31.881 21.9805 32.2241 21.9805 32.2241L22.1073 32.5205L22.3291 32.77C22.3291 32.77 23.5806 34.2673 25.3709 37.4489C27.2878 40.8645 28.9037 42.6425 30.7098 43.5003C32.5158 44.3581 34.4169 43.7498 35.2249 43.2976C36.7299 42.4397 36.9042 41.2388 37.1577 40.1315C37.4112 39.0241 37.4904 37.8388 37.5379 36.6847C37.633 34.47 37.5062 32.5829 37.5062 32.4425C37.4904 32.3957 37.4904 31.8498 37.332 31.2572C37.1577 30.6489 36.8408 29.8535 36.2388 29.0113C35.9853 28.6682 35.7477 28.8397 35.4784 28.5902C36.6032 28.2783 37.8072 27.9663 40.2945 27.9975Z" fill="#EFEFEF"/>
</svg>
