<svg width="489" height="577" viewBox="0 0 489 577" fill="none" xmlns="http://www.w3.org/2000/svg">
<g filter="url(#filter0_f_1556_2030)">
<path d="M336.481 98.2599C350.046 84.6406 373.272 90.8638 378.21 109.441L489.416 527.782C494.338 546.295 477.395 563.205 458.891 558.247L42.2062 446.597C23.7023 441.639 17.4839 418.523 31.0028 404.95L336.481 98.2599Z" fill="#F7F2EC"/>
</g>
<path d="M227.394 293.962L228.995 287.988L260.382 296.398L258.782 302.372L246.622 299.114L237.682 332.48L230.613 330.586L239.554 297.22L227.394 293.962ZM264.213 340.206C261.255 339.414 258.865 338.115 257.043 336.309C255.238 334.494 254.062 332.298 253.517 329.723C252.975 327.135 253.118 324.297 253.945 321.211C254.758 318.176 256.048 315.667 257.815 313.683C259.598 311.691 261.704 310.334 264.135 309.612C266.569 308.878 269.194 308.889 272.012 309.644C273.83 310.131 275.467 310.885 276.923 311.907C278.395 312.919 279.589 314.199 280.505 315.749C281.434 317.302 282.005 319.115 282.218 321.19C282.434 323.252 282.195 325.576 281.502 328.163L280.931 330.295L256.747 323.815L258.003 319.128L275.521 323.822C275.865 322.487 275.894 321.225 275.609 320.037C275.327 318.836 274.761 317.799 273.91 316.926C273.073 316.056 271.988 315.443 270.656 315.086C269.235 314.705 267.894 314.716 266.633 315.12C265.375 315.51 264.296 316.182 263.396 317.135C262.511 318.078 261.886 319.208 261.52 320.523L260.424 324.615C259.964 326.331 259.883 327.887 260.181 329.285C260.483 330.67 261.109 331.84 262.061 332.795C263.017 333.737 264.25 334.41 265.761 334.815C266.773 335.086 267.726 335.191 268.621 335.129C269.52 335.054 270.345 334.815 271.098 334.413C271.851 334.011 272.493 333.435 273.023 332.685L279.32 335.154C278.45 336.761 277.268 338.049 275.772 339.021C274.293 339.984 272.569 340.579 270.6 340.806C268.634 341.02 266.506 340.821 264.213 340.206ZM296.086 348.747C293.14 347.957 290.784 346.633 289.018 344.773C287.264 342.917 286.123 340.697 285.594 338.112C285.081 335.518 285.225 332.729 286.024 329.745C286.827 326.748 288.112 324.258 289.879 322.275C291.649 320.279 293.756 318.922 296.199 318.204C298.659 317.477 301.329 317.499 304.21 318.271C306.605 318.913 308.606 319.922 310.213 321.3C311.837 322.669 312.985 324.301 313.657 326.196C314.333 328.079 314.463 330.104 314.047 332.271L307.401 330.491C307.513 328.997 307.19 327.641 306.432 326.422C305.69 325.194 304.481 324.355 302.803 323.906C301.382 323.525 300.03 323.575 298.749 324.055C297.471 324.522 296.34 325.386 295.358 326.646C294.388 327.91 293.637 329.534 293.105 331.519C292.566 333.529 292.397 335.337 292.599 336.942C292.804 338.534 293.333 339.863 294.186 340.929C295.056 341.985 296.214 342.708 297.662 343.095C298.686 343.37 299.653 343.423 300.563 343.255C301.489 343.078 302.327 342.691 303.076 342.096C303.826 341.501 304.446 340.7 304.935 339.692L311.581 341.472C310.856 343.515 309.745 345.201 308.25 346.53C306.758 347.846 304.975 348.713 302.9 349.131C300.829 349.537 298.557 349.409 296.086 348.747ZM318.824 328.713L320.353 323.008L346.17 329.926L344.641 335.631L335.094 333.073L328.717 356.873L321.994 355.071L328.371 331.271L318.824 328.713ZM353.839 342.275L362.541 344.606C366.306 345.615 368.974 347.312 370.545 349.695C372.116 352.079 372.51 354.758 371.726 357.732C371.196 359.663 370.262 361.252 368.926 362.499C367.602 363.751 365.942 364.568 363.945 364.953C361.964 365.328 359.719 365.179 357.209 364.507L343.801 360.914L351.707 331.41L358.41 333.206L352.033 357.005L358.737 358.802C360.248 359.207 361.593 359.155 362.773 358.648C363.955 358.127 364.709 357.259 365.035 356.042C365.378 354.762 365.171 353.588 364.414 352.52C363.657 351.453 362.523 350.716 361.012 350.311L352.311 347.98L353.839 342.275ZM372.729 368.666L380.635 339.161L387.589 341.024L379.683 370.529L372.729 368.666Z" fill="#F96247"/>
<path d="M222.875 360.838L225.698 350.3L233.986 352.521L231.162 363.058L229.543 362.625L231.962 353.596L226.913 352.244L224.494 361.272L222.875 360.838ZM238.341 365.217C237.39 364.962 236.616 364.512 236.019 363.867C235.427 363.223 235.038 362.44 234.854 361.518C234.674 360.598 234.73 359.593 235.022 358.504C235.316 357.407 235.772 356.502 236.389 355.79C237.011 355.079 237.739 354.593 238.574 354.331C239.413 354.071 240.309 354.068 241.26 354.323C242.211 354.578 242.983 355.027 243.575 355.671C244.172 356.317 244.559 357.102 244.738 358.027C244.921 358.954 244.866 359.966 244.571 361.063C244.28 362.152 243.824 363.049 243.203 363.755C242.587 364.463 241.859 364.947 241.02 365.207C240.185 365.469 239.292 365.472 238.341 365.217ZM238.731 363.763C239.453 363.956 240.097 363.931 240.663 363.685C241.229 363.44 241.705 363.045 242.091 362.501C242.476 361.958 242.764 361.334 242.952 360.629C243.141 359.925 243.205 359.239 243.144 358.57C243.083 357.902 242.869 357.318 242.503 356.818C242.137 356.318 241.593 355.971 240.87 355.777C240.148 355.584 239.503 355.612 238.936 355.862C238.369 356.112 237.892 356.511 237.505 357.059C237.118 357.608 236.83 358.234 236.641 358.938C236.452 359.643 236.389 360.327 236.451 360.99C236.514 361.654 236.729 362.234 237.096 362.729C237.463 363.225 238.008 363.569 238.731 363.763ZM251.079 368.395L253.903 357.858L262.19 360.078L259.366 370.616L257.747 370.182L260.166 361.154L255.117 359.801L252.698 368.829L251.079 368.395ZM261.264 375.359L265.147 360.871L266.711 361.29L266.262 362.964L266.454 363.015C266.622 362.864 266.849 362.675 267.136 362.448C267.428 362.217 267.803 362.043 268.261 361.926C268.725 361.805 269.3 361.836 269.986 362.02C270.873 362.258 271.595 362.689 272.153 363.314C272.711 363.939 273.071 364.71 273.233 365.625C273.394 366.541 273.327 367.553 273.03 368.659C272.731 369.775 272.282 370.692 271.683 371.409C271.085 372.121 270.39 372.611 269.598 372.879C268.807 373.143 267.972 373.157 267.094 372.922C266.417 372.74 265.905 372.483 265.558 372.15C265.212 371.812 264.968 371.47 264.826 371.123C264.685 370.771 264.581 370.483 264.513 370.26L264.376 370.223L262.883 375.793L261.264 375.359ZM265.326 366.566C265.113 367.362 265.042 368.095 265.112 368.766C265.184 369.432 265.397 369.996 265.754 370.46C266.111 370.918 266.615 371.234 267.264 371.408C267.941 371.59 268.554 371.563 269.102 371.327C269.656 371.089 270.129 370.696 270.521 370.149C270.918 369.598 271.217 368.948 271.418 368.198C271.617 367.457 271.681 366.759 271.612 366.103C271.549 365.444 271.335 364.879 270.97 364.409C270.612 363.935 270.09 363.607 269.404 363.423C268.745 363.247 268.147 363.265 267.609 363.479C267.073 363.688 266.611 364.059 266.223 364.593C265.836 365.121 265.537 365.779 265.326 366.566ZM278.317 375.929C277.366 375.674 276.592 375.224 275.995 374.579C275.403 373.935 275.015 373.152 274.831 372.23C274.651 371.309 274.707 370.305 274.998 369.216C275.293 368.119 275.748 367.214 276.366 366.502C276.987 365.791 277.716 365.305 278.55 365.043C279.39 364.783 280.285 364.78 281.236 365.035C282.188 365.29 282.959 365.739 283.552 366.383C284.148 367.028 284.536 367.813 284.714 368.739C284.898 369.665 284.842 370.677 284.548 371.775C284.256 372.863 283.8 373.761 283.18 374.467C282.564 375.175 281.836 375.658 280.996 375.919C280.162 376.18 279.269 376.184 278.317 375.929ZM278.707 374.475C279.43 374.668 280.074 374.642 280.64 374.397C281.205 374.151 281.681 373.757 282.067 373.213C282.453 372.669 282.74 372.045 282.929 371.341C283.118 370.637 283.181 369.95 283.12 369.282C283.059 368.614 282.846 368.03 282.48 367.53C282.114 367.03 281.569 366.683 280.847 366.489C280.124 366.296 279.479 366.324 278.912 366.574C278.345 366.824 277.868 367.223 277.481 367.771C277.094 368.319 276.806 368.946 276.617 369.65C276.429 370.354 276.366 371.038 276.428 371.702C276.49 372.366 276.705 372.945 277.072 373.441C277.44 373.936 277.984 374.281 278.707 374.475ZM287.881 375.697L295.141 368.908L297.007 369.408L294.184 379.945L292.565 379.511L294.749 371.361L287.516 378.158L285.622 377.651L288.446 367.114L290.065 367.547L287.881 375.697ZM295.012 365.108L296.522 365.513C296.323 366.254 295.905 366.791 295.266 367.125C294.628 367.459 293.869 367.508 292.991 367.273C292.127 367.041 291.502 366.621 291.116 366.013C290.734 365.406 290.643 364.732 290.841 363.991L292.351 364.395C292.255 364.752 292.269 365.092 292.394 365.414C292.523 365.738 292.827 365.964 293.307 366.093C293.788 366.221 294.167 366.178 294.445 365.964C294.728 365.75 294.917 365.465 295.012 365.108ZM295.215 383.457L296.429 378.929L297.307 379.164C297.582 378.998 297.832 378.805 298.057 378.586C298.283 378.367 298.5 378.094 298.71 377.768C298.926 377.439 299.144 377.027 299.365 376.532C299.587 376.033 299.829 375.423 300.09 374.704L301.564 370.629L308.26 372.423L305.841 381.451L307.46 381.885L306.247 386.412L304.628 385.979L305.437 382.96L297.643 380.872L296.834 383.89L295.215 383.457ZM299.145 379.657L304.222 381.017L306.237 373.498L302.669 372.542L301.682 375.131C301.272 376.202 300.872 377.127 300.482 377.905C300.093 378.683 299.647 379.267 299.145 379.657ZM313.564 385.373C312.548 385.101 311.733 384.642 311.116 383.997C310.506 383.348 310.11 382.565 309.929 381.649C309.754 380.73 309.811 379.73 310.1 378.651C310.389 377.572 310.841 376.673 311.455 375.955C312.075 375.234 312.801 374.738 313.633 374.466C314.472 374.19 315.367 374.18 316.318 374.435C316.867 374.582 317.384 374.819 317.87 375.145C318.357 375.471 318.764 375.899 319.093 376.428C319.423 376.953 319.628 377.586 319.709 378.329C319.789 379.071 319.698 379.933 319.434 380.917L319.25 381.603L311.128 379.426L311.503 378.027L317.979 379.762C318.138 379.168 318.161 378.605 318.049 378.075C317.94 377.546 317.705 377.088 317.343 376.702C316.985 376.317 316.514 376.046 315.928 375.889C315.284 375.716 314.683 375.727 314.126 375.921C313.575 376.112 313.105 376.427 312.718 376.867C312.33 377.307 312.059 377.818 311.903 378.399L311.653 379.332C311.44 380.128 311.396 380.839 311.522 381.466C311.654 382.089 311.929 382.612 312.345 383.032C312.763 383.448 313.299 383.743 313.953 383.919C314.379 384.033 314.779 384.076 315.154 384.049C315.534 384.019 315.883 383.916 316.199 383.741C316.517 383.562 316.794 383.307 317.029 382.978L318.475 383.836C318.169 384.323 317.767 384.715 317.27 385.013C316.775 385.307 316.211 385.489 315.58 385.56C314.949 385.627 314.277 385.564 313.564 385.373ZM329.111 382.863L328.707 384.372L322.889 382.813L323.294 381.304L329.111 382.863ZM324.891 376.879L322.068 387.416L320.448 386.983L323.272 376.445L324.891 376.879ZM331.559 378.666L328.736 389.203L327.117 388.769L329.94 378.232L331.559 378.666ZM340.355 385.875L339.951 387.385L334.133 385.826L334.538 384.317L340.355 385.875ZM336.135 379.892L333.311 390.429L331.692 389.995L334.516 379.458L336.135 379.892ZM342.803 381.679L339.98 392.216L338.361 391.782L341.184 381.245L342.803 381.679ZM346.137 386.66L349.156 387.469C350.391 387.8 351.251 388.366 351.737 389.168C352.223 389.97 352.338 390.851 352.081 391.811C351.911 392.443 351.611 392.977 351.18 393.416C350.75 393.849 350.211 394.144 349.561 394.298C348.913 394.448 348.178 394.413 347.354 394.192L342.936 393.008L345.76 382.471L347.379 382.905L344.96 391.933L347.759 392.683C348.399 392.854 348.97 392.826 349.473 392.598C349.975 392.37 350.297 391.99 350.439 391.46C350.589 390.902 350.505 390.392 350.188 389.929C349.871 389.467 349.392 389.15 348.751 388.978L345.733 388.169L346.137 386.66ZM352.843 395.663L355.666 385.125L357.285 385.559L354.462 396.096L352.843 395.663ZM363.776 396.239L369.689 388.883L371.225 389.294L363.847 398.611L362.529 398.258L360.88 386.522L362.389 386.927L363.776 396.239ZM361.868 386.787L359.044 397.324L357.425 396.891L360.249 386.353L361.868 386.787ZM367.332 399.545L370.155 389.008L371.774 389.441L368.951 399.979L367.332 399.545ZM239.276 387.726L245.189 380.37L246.725 380.781L239.347 390.098L238.03 389.745L236.38 378.009L237.889 378.414L239.276 387.726ZM237.368 378.274L234.545 388.811L232.926 388.378L235.749 377.84L237.368 378.274ZM242.832 391.032L245.655 380.495L247.274 380.928L244.451 391.466L242.832 391.032ZM250.449 393.338C249.781 393.159 249.209 392.871 248.732 392.473C248.257 392.071 247.923 391.587 247.732 391.021C247.541 390.451 247.538 389.822 247.722 389.136C247.884 388.533 248.134 388.075 248.472 387.764C248.812 387.448 249.209 387.236 249.665 387.128C250.12 387.019 250.602 386.977 251.11 387C251.625 387.02 252.135 387.064 252.641 387.131C253.304 387.22 253.839 387.298 254.248 387.363C254.663 387.425 254.976 387.428 255.187 387.372C255.403 387.317 255.546 387.159 255.616 386.899L255.63 386.844C255.812 386.167 255.767 385.591 255.497 385.117C255.232 384.644 254.726 384.307 253.981 384.108C253.208 383.901 252.557 383.907 252.027 384.128C251.497 384.349 251.092 384.628 250.81 384.964L249.421 384.003C249.867 383.437 250.366 383.036 250.919 382.802C251.478 382.564 252.048 382.448 252.631 382.452C253.219 382.452 253.778 382.524 254.308 382.666C254.647 382.757 255.025 382.902 255.442 383.102C255.864 383.299 256.249 383.576 256.594 383.933C256.944 384.291 257.189 384.757 257.33 385.329C257.471 385.901 257.429 386.605 257.205 387.442L255.345 394.385L253.726 393.951L254.108 392.524L254.026 392.502C253.855 392.701 253.606 392.897 253.28 393.089C252.954 393.281 252.554 393.412 252.08 393.48C251.606 393.549 251.062 393.502 250.449 393.338ZM251.086 391.949C251.726 392.121 252.299 392.14 252.806 392.006C253.317 391.873 253.738 391.638 254.068 391.3C254.404 390.964 254.63 390.576 254.748 390.137L255.145 388.655C255.054 388.719 254.883 388.754 254.631 388.76C254.386 388.763 254.105 388.749 253.79 388.718C253.48 388.684 253.179 388.648 252.885 388.608C252.598 388.565 252.364 388.532 252.184 388.509C251.749 388.451 251.331 388.434 250.933 388.46C250.539 388.482 250.198 388.584 249.909 388.767C249.626 388.946 249.429 389.241 249.319 389.653C249.168 390.215 249.262 390.696 249.601 391.096C249.946 391.492 250.441 391.777 251.086 391.949ZM259.285 385.764L259.69 384.255L268.251 386.549L267.847 388.058L264.389 387.132L261.97 396.16L260.351 395.726L262.77 386.698L259.285 385.764ZM271.601 398.976C270.586 398.704 269.77 398.245 269.154 397.6C268.544 396.951 268.148 396.168 267.967 395.252C267.792 394.333 267.849 393.333 268.138 392.254C268.427 391.175 268.879 390.276 269.493 389.558C270.112 388.837 270.839 388.34 271.671 388.068C272.51 387.793 273.405 387.783 274.356 388.038C274.905 388.185 275.422 388.422 275.908 388.748C276.394 389.074 276.802 389.502 277.131 390.031C277.461 390.556 277.666 391.189 277.746 391.931C277.827 392.674 277.735 393.536 277.472 394.52L277.288 395.206L269.166 393.029L269.541 391.63L276.017 393.365C276.176 392.77 276.199 392.208 276.086 391.678C275.978 391.149 275.743 390.691 275.381 390.305C275.023 389.92 274.552 389.649 273.966 389.492C273.321 389.319 272.72 389.33 272.164 389.524C271.613 389.714 271.143 390.03 270.756 390.47C270.368 390.91 270.096 391.421 269.941 392.002L269.691 392.935C269.478 393.731 269.434 394.442 269.56 395.069C269.692 395.692 269.966 396.214 270.383 396.635C270.801 397.051 271.337 397.346 271.991 397.522C272.417 397.636 272.817 397.679 273.191 397.652C273.572 397.622 273.921 397.519 274.237 397.344C274.555 397.164 274.831 396.91 275.067 396.581L276.513 397.439C276.206 397.926 275.805 398.318 275.308 398.616C274.813 398.91 274.249 399.092 273.617 399.163C272.987 399.23 272.315 399.167 271.601 398.976ZM277.427 404.537L281.31 390.048L282.874 390.467L282.425 392.141L282.617 392.193C282.785 392.042 283.013 391.852 283.299 391.625C283.591 391.395 283.966 391.221 284.424 391.103C284.888 390.982 285.463 391.014 286.149 391.198C287.036 391.435 287.759 391.867 288.317 392.492C288.875 393.117 289.234 393.887 289.396 394.803C289.557 395.719 289.49 396.73 289.193 397.837C288.894 398.953 288.445 399.869 287.846 400.586C287.248 401.299 286.553 401.789 285.761 402.057C284.97 402.32 284.135 402.334 283.257 402.099C282.58 401.918 282.068 401.66 281.721 401.327C281.375 400.99 281.131 400.647 280.989 400.3C280.848 399.949 280.744 399.661 280.676 399.437L280.539 399.4L279.046 404.971L277.427 404.537ZM281.49 395.743C281.276 396.539 281.205 397.272 281.275 397.943C281.347 398.609 281.561 399.174 281.917 399.637C282.274 400.096 282.778 400.412 283.427 400.586C284.104 400.767 284.717 400.74 285.265 400.505C285.819 400.266 286.292 399.873 286.684 399.326C287.081 398.776 287.381 398.126 287.582 397.376C287.78 396.635 287.845 395.936 287.775 395.28C287.712 394.621 287.498 394.057 287.134 393.587C286.775 393.113 286.253 392.784 285.567 392.601C284.908 392.424 284.31 392.443 283.773 392.657C283.236 392.866 282.774 393.237 282.386 393.77C281.999 394.299 281.7 394.957 281.49 395.743ZM292.517 401.786L299.778 394.997L301.644 395.497L298.82 406.034L297.201 405.6L299.385 397.45L292.152 404.247L290.258 403.74L293.082 393.202L294.701 393.636L292.517 401.786ZM304.82 407.906C304.152 407.727 303.58 407.439 303.103 407.042C302.628 406.64 302.294 406.156 302.103 405.59C301.912 405.019 301.909 404.391 302.093 403.705C302.255 403.101 302.505 402.644 302.843 402.333C303.183 402.017 303.58 401.805 304.036 401.696C304.491 401.588 304.973 401.545 305.481 401.569C305.996 401.589 306.506 401.633 307.013 401.7C307.675 401.789 308.211 401.866 308.619 401.932C309.034 401.994 309.347 401.997 309.558 401.941C309.774 401.886 309.917 401.728 309.987 401.467L310.001 401.412C310.183 400.736 310.138 400.16 309.868 399.686C309.603 399.213 309.098 398.876 308.352 398.676C307.579 398.469 306.928 398.476 306.398 398.697C305.868 398.918 305.463 399.196 305.181 399.533L303.792 398.572C304.238 398.005 304.737 397.605 305.29 397.371C305.849 397.133 306.419 397.016 307.002 397.02C307.59 397.021 308.149 397.093 308.68 397.235C309.018 397.325 309.396 397.471 309.813 397.671C310.235 397.867 310.62 398.144 310.965 398.502C311.315 398.86 311.56 399.325 311.701 399.897C311.842 400.469 311.8 401.174 311.576 402.011L309.716 408.953L308.097 408.52L308.479 407.093L308.397 407.071C308.226 407.27 307.977 407.466 307.651 407.658C307.325 407.85 306.925 407.98 306.451 408.049C305.977 408.118 305.433 408.071 304.82 407.906ZM305.457 406.518C306.097 406.69 306.67 406.709 307.177 406.575C307.688 406.442 308.109 406.207 308.44 405.869C308.775 405.532 309.001 405.144 309.119 404.705L309.516 403.223C309.425 403.287 309.254 403.322 309.003 403.329C308.757 403.331 308.476 403.317 308.161 403.287C307.851 403.253 307.55 403.216 307.256 403.177C306.969 403.134 306.735 403.101 306.555 403.077C306.12 403.019 305.703 403.003 305.304 403.029C304.91 403.051 304.569 403.153 304.28 403.335C303.997 403.514 303.8 403.81 303.69 404.221C303.539 404.784 303.633 405.265 303.972 405.664C304.317 406.061 304.812 406.345 305.457 406.518ZM311.738 409.495L312.142 407.986L312.527 408.089C312.842 408.173 313.122 408.182 313.365 408.115C313.61 408.043 313.838 407.867 314.051 407.586C314.27 407.301 314.489 406.884 314.71 406.336C314.936 405.784 315.183 405.07 315.452 404.196L316.894 399.583L323.919 401.465L321.095 412.003L319.476 411.569L321.895 402.541L318.026 401.504L316.854 405.219C316.586 406.074 316.304 406.814 316.009 407.441C315.719 408.065 315.396 408.566 315.039 408.946C314.687 409.327 314.287 409.578 313.838 409.698C313.389 409.818 312.872 409.799 312.287 409.642L311.738 409.495ZM327.101 413.876C326.433 413.697 325.861 413.409 325.384 413.012C324.908 412.61 324.575 412.126 324.383 411.56C324.193 410.989 324.19 410.361 324.373 409.675C324.535 409.071 324.785 408.614 325.124 408.303C325.463 407.987 325.861 407.775 326.316 407.666C326.772 407.558 327.253 407.515 327.762 407.539C328.276 407.559 328.786 407.603 329.293 407.67C329.955 407.759 330.491 407.836 330.9 407.902C331.315 407.964 331.628 407.967 331.839 407.911C332.054 407.856 332.197 407.698 332.267 407.437L332.282 407.382C332.463 406.706 332.419 406.13 332.149 405.656C331.883 405.183 331.378 404.846 330.632 404.646C329.86 404.439 329.208 404.446 328.678 404.667C328.149 404.888 327.743 405.166 327.462 405.503L326.072 404.542C326.518 403.975 327.018 403.575 327.571 403.341C328.129 403.103 328.7 402.986 329.282 402.99C329.87 402.991 330.429 403.063 330.96 403.205C331.298 403.295 331.676 403.441 332.093 403.641C332.516 403.837 332.9 404.114 333.245 404.472C333.595 404.83 333.841 405.295 333.982 405.867C334.123 406.439 334.081 407.144 333.857 407.981L331.996 414.923L330.377 414.49L330.76 413.063L330.677 413.041C330.506 413.24 330.258 413.436 329.932 413.628C329.606 413.82 329.206 413.95 328.731 414.019C328.257 414.088 327.713 414.041 327.101 413.876ZM327.737 412.488C328.378 412.66 328.951 412.679 329.457 412.545C329.968 412.412 330.389 412.177 330.72 411.839C331.055 411.502 331.282 411.114 331.399 410.675L331.796 409.194C331.706 409.257 331.535 409.292 331.283 409.299C331.037 409.301 330.757 409.287 330.441 409.257C330.132 409.223 329.83 409.186 329.537 409.147C329.249 409.104 329.016 409.071 328.836 409.047C328.4 408.989 327.983 408.973 327.584 408.999C327.191 409.021 326.85 409.123 326.561 409.305C326.277 409.484 326.081 409.78 325.97 410.191C325.82 410.754 325.914 411.235 326.253 411.634C326.598 412.031 327.092 412.315 327.737 412.488ZM341.302 415.064L347.215 407.707L348.751 408.119L341.373 417.436L340.055 417.083L338.406 405.347L339.915 405.751L341.302 415.064ZM339.394 405.612L336.57 416.149L334.951 415.715L337.775 405.178L339.394 405.612ZM344.858 418.37L347.681 407.832L349.3 408.266L346.477 418.803L344.858 418.37Z" fill="#F96247"/>
<defs>
<filter id="filter0_f_1556_2030" x="6.05118" y="73.2389" width="501.902" height="503.557" filterUnits="userSpaceOnUse" color-interpolation-filters="sRGB">
<feFlood flood-opacity="0" result="BackgroundImageFix"/>
<feBlend mode="normal" in="SourceGraphic" in2="BackgroundImageFix" result="shape"/>
<feGaussianBlur stdDeviation="8.83672" result="effect1_foregroundBlur_1556_2030"/>
</filter>
</defs>
</svg>
