<svg width="338" height="140" viewBox="0 0 338 140" fill="none" xmlns="http://www.w3.org/2000/svg">
<mask id="path-1-inside-1_925_904" fill="white">
<path fill-rule="evenodd" clip-rule="evenodd" d="M87.8797 8.81237C87.8797 3.94549 91.8251 0.000107237 96.692 0.000107237L218.559 0.000107237C223.426 0.000107237 227.372 3.94549 227.372 8.81237V32.5461C238.585 17.8513 256.283 8.36952 276.194 8.36952C310.092 8.36952 337.571 35.8487 337.571 69.746C337.571 103.643 310.092 131.122 276.194 131.122C256.283 131.122 238.585 121.641 227.372 106.946V130.68C227.372 135.547 223.426 139.492 218.559 139.492H96.692C91.8251 139.492 87.8797 135.547 87.8797 130.68V88.9864L13.2031 131.904C7.3283 135.28 -0.000125254 131.04 -0.00012509 124.264L-0.00012244 15.2285C-0.000122276 8.45256 7.32833 4.21181 13.2032 7.58815L87.8797 50.5057V8.81237Z"/>
</mask>
<path d="M218.559 0.000107237V3.00011V0.000107237ZM227.372 32.5461H224.372C224.372 33.8328 225.192 34.9762 226.411 35.3881C227.63 35.8001 228.976 35.3889 229.757 34.366L227.372 32.5461ZM227.372 106.946L229.757 105.126C228.976 104.103 227.63 103.692 226.411 104.104C225.192 104.516 224.372 105.659 224.372 106.946H227.372ZM87.8797 88.9864H90.8797C90.8797 87.9157 90.3091 86.9261 89.3823 86.3898C88.4555 85.8535 87.3132 85.8518 86.3849 86.3854L87.8797 88.9864ZM13.2031 131.904L14.698 134.505H14.698L13.2031 131.904ZM-0.00012509 124.264H2.99987H-0.00012509ZM-0.00012244 15.2285H2.99988H-0.00012244ZM13.2032 7.58815L11.7083 10.1892L13.2032 7.58815ZM87.8797 50.5057L86.3849 53.1068C87.3132 53.6403 88.4555 53.6386 89.3823 53.1023C90.3091 52.566 90.8797 51.5765 90.8797 50.5057H87.8797ZM96.692 -2.99989C90.1683 -2.99989 84.8797 2.28863 84.8797 8.81237H90.8797C90.8797 5.60234 93.482 3.00011 96.692 3.00011V-2.99989ZM218.559 -2.99989L96.692 -2.99989V3.00011L218.559 3.00011V-2.99989ZM230.372 8.81237C230.372 2.28864 225.083 -2.99989 218.559 -2.99989V3.00011C221.77 3.00011 224.372 5.60234 224.372 8.81237H230.372ZM230.372 32.5461V8.81237H224.372V32.5461H230.372ZM229.757 34.366C240.427 20.3829 257.258 11.3695 276.194 11.3695V5.36952C255.307 5.36952 236.744 15.3197 224.987 30.7261L229.757 34.366ZM276.194 11.3695C308.435 11.3695 334.571 37.5056 334.571 69.746H340.571C340.571 34.1919 311.748 5.36952 276.194 5.36952V11.3695ZM334.571 69.746C334.571 101.986 308.435 128.122 276.194 128.122V134.122C311.748 134.122 340.571 105.3 340.571 69.746H334.571ZM276.194 128.122C257.258 128.122 240.427 119.109 229.757 105.126L224.987 108.766C236.744 124.172 255.307 134.122 276.194 134.122V128.122ZM230.372 130.68V106.946H224.372V130.68H230.372ZM218.559 142.492C225.083 142.492 230.372 137.204 230.372 130.68H224.372C224.372 133.89 221.77 136.492 218.559 136.492V142.492ZM96.692 142.492H218.559V136.492H96.692V142.492ZM84.8797 130.68C84.8797 137.204 90.1682 142.492 96.692 142.492V136.492C93.482 136.492 90.8797 133.89 90.8797 130.68H84.8797ZM84.8797 88.9864V130.68H90.8797V88.9864H84.8797ZM14.698 134.505L89.3746 91.5875L86.3849 86.3854L11.7083 129.303L14.698 134.505ZM-3.00013 124.264C-3.00013 133.346 6.82315 139.031 14.698 134.505L11.7083 129.303C7.83346 131.53 2.99987 128.733 2.99987 124.264H-3.00013ZM-3.00012 15.2285L-3.00013 124.264H2.99987L2.99988 15.2285H-3.00012ZM14.698 4.98711C6.82319 0.46135 -3.00012 6.1458 -3.00012 15.2285H2.99988C2.99988 10.7593 7.83347 7.96227 11.7083 10.1892L14.698 4.98711ZM89.3746 47.9047L14.698 4.98711L11.7083 10.1892L86.3849 53.1068L89.3746 47.9047ZM84.8797 8.81237V50.5057H90.8797V8.81237H84.8797Z" fill="#F96247" mask="url(#path-1-inside-1_925_904)"/>
</svg>
