<svg width="142" height="165" viewBox="0 0 142 165" fill="none" xmlns="http://www.w3.org/2000/svg">
<path d="M55.1977 106.044C55.1977 105.417 54.8081 104.857 54.2207 104.638C53.6333 104.42 52.972 104.589 52.5624 105.064C47.2278 111.242 39.3573 115.145 30.5779 115.145C14.5234 115.145 1.5 102.085 1.5 85.964C1.5 69.843 14.5234 56.7831 30.5779 56.7831C39.3573 56.7831 47.2278 60.686 52.5624 66.8642C52.972 67.3385 53.6333 67.5082 54.2207 67.2897C54.8081 67.0712 55.1977 66.5106 55.1977 65.8838L55.1977 33.1246C55.1977 22.7013 59.6116 13.1392 66.2768 7.32719C72.8954 1.55581 81.7124 -0.526446 90.8533 3.8359C99.6825 8.04953 107.818 13.7734 114.864 20.8429C131.087 37.1209 140.202 59.1996 140.202 82.2223C140.202 105.245 131.087 127.324 114.864 143.602C107.818 150.671 99.6825 156.395 90.8532 160.609C81.7124 164.971 72.8954 162.889 66.2768 157.117C59.6116 151.305 55.1977 141.743 55.1977 131.32L55.1977 106.044Z" stroke="#F96247" stroke-width="3" stroke-linejoin="round"/>
</svg>
