<svg width="220" height="340" viewBox="0 0 220 340" fill="none" xmlns="http://www.w3.org/2000/svg">
<g clip-path="url(#clip0_1286_2036)">
<rect width="220" height="340" rx="8" fill="white"/>
<rect x="-8" y="81" width="233" height="258" stroke="#FF7961" stroke-width="2"/>
<path d="M96.959 32C96.959 33.7083 96.6465 35.1771 96.0215 36.4062C95.3965 37.6302 94.5397 38.5729 93.4512 39.2344C92.3678 39.8906 91.1361 40.2187 89.7559 40.2187C88.3704 40.2187 87.1335 39.8906 86.0449 39.2344C84.9616 38.5729 84.1074 37.6276 83.4824 36.3984C82.8574 35.1693 82.5449 33.7031 82.5449 32C82.5449 30.2917 82.8574 28.8255 83.4824 27.6016C84.1074 26.3724 84.9616 25.4297 86.0449 24.7734C87.1335 24.112 88.3704 23.7812 89.7559 23.7812C91.1361 23.7812 92.3678 24.112 93.4512 24.7734C94.5397 25.4297 95.3965 26.3724 96.0215 27.6016C96.6465 28.8255 96.959 30.2917 96.959 32ZM94.5684 32C94.5684 30.6979 94.3574 29.6016 93.9355 28.7109C93.5189 27.8151 92.946 27.138 92.2168 26.6797C91.4928 26.2161 90.6725 25.9844 89.7559 25.9844C88.834 25.9844 88.0111 26.2161 87.2871 26.6797C86.5632 27.138 85.9902 27.8151 85.5684 28.7109C85.1517 29.6016 84.9434 30.6979 84.9434 32C84.9434 33.3021 85.1517 34.401 85.5684 35.2969C85.9902 36.1875 86.5632 36.8646 87.2871 37.3281C88.0111 37.7865 88.834 38.0156 89.7559 38.0156C90.6725 38.0156 91.4928 37.7865 92.2168 37.3281C92.946 36.8646 93.5189 36.1875 93.9355 35.2969C94.3574 34.401 94.5684 33.3021 94.5684 32ZM99.0156 40L103.664 33.8594L99.0703 28H101.789L105.5 32.9844H106.336V28H108.672V32.9844H109.484L113.195 28H115.914L111.344 33.8594L115.969 40H113.195L109.453 35H108.672V40H106.336V35H105.555L101.789 40H99.0156ZM122.926 40.2422C121.801 40.2422 120.819 39.9844 119.98 39.4687C119.142 38.9531 118.491 38.2318 118.027 37.3047C117.564 36.3776 117.332 35.2943 117.332 34.0547C117.332 32.8099 117.564 31.7214 118.027 30.7891C118.491 29.8568 119.142 29.1328 119.98 28.6172C120.819 28.1016 121.801 27.8438 122.926 27.8438C124.051 27.8438 125.033 28.1016 125.871 28.6172C126.71 29.1328 127.361 29.8568 127.824 30.7891C128.288 31.7214 128.52 32.8099 128.52 34.0547C128.52 35.2943 128.288 36.3776 127.824 37.3047C127.361 38.2318 126.71 38.9531 125.871 39.4687C125.033 39.9844 124.051 40.2422 122.926 40.2422ZM122.934 38.2812C123.663 38.2812 124.267 38.0885 124.746 37.7031C125.225 37.3177 125.579 36.8047 125.809 36.1641C126.043 35.5234 126.16 34.8177 126.16 34.0469C126.16 33.2812 126.043 32.5781 125.809 31.9375C125.579 31.2917 125.225 30.7734 124.746 30.3828C124.267 29.9922 123.663 29.7969 122.934 29.7969C122.199 29.7969 121.59 29.9922 121.105 30.3828C120.626 30.7734 120.27 31.2917 120.035 31.9375C119.806 32.5781 119.691 33.2812 119.691 34.0469C119.691 34.8177 119.806 35.5234 120.035 36.1641C120.27 36.8047 120.626 37.3177 121.105 37.7031C121.59 38.0885 122.199 38.2812 122.934 38.2812ZM138.799 28V30.0156H133.432V40H131.127V28H138.799Z" fill="black"/>
<mask id="path-5-inside-1_1286_2036" fill="white">
<path fill-rule="evenodd" clip-rule="evenodd" d="M109.822 190.291C106.023 181.481 99.1406 171.539 89.9022 162.3C70.3458 142.744 47.6366 133.746 39.1798 142.203C30.723 150.66 39.721 173.369 59.2774 192.925C68.6619 202.31 78.7724 209.263 87.6857 213.023C78.7725 216.782 68.662 223.736 59.2775 233.12C39.7211 252.676 30.7231 275.386 39.18 283.843C47.6368 292.299 70.346 283.301 89.9024 263.745C99.2867 254.361 106.24 244.25 110 235.337C113.759 244.25 120.713 254.361 130.097 263.746C149.654 283.302 172.363 292.3 180.82 283.843C189.277 275.386 180.279 252.677 160.722 233.121C151.485 223.883 141.544 217.002 132.734 213.202C141.452 209.283 151.227 202.422 160.341 193.308C180.109 173.54 189.278 150.66 180.821 142.203C172.364 133.746 149.484 142.916 129.716 162.683C120.602 171.797 113.741 181.573 109.822 190.291Z"/>
</mask>
<path d="M89.9022 162.3L91.3164 160.886L91.3164 160.886L89.9022 162.3ZM109.822 190.291L107.985 191.083C108.299 191.811 109.013 192.285 109.806 192.291C110.599 192.297 111.321 191.834 111.646 191.111L109.822 190.291ZM39.1798 142.203L37.7656 140.789L37.7656 140.789L39.1798 142.203ZM59.2774 192.925L57.8631 194.339L57.8631 194.339L59.2774 192.925ZM87.6857 213.023L88.463 214.865C89.204 214.553 89.6857 213.827 89.6857 213.023C89.6857 212.218 89.204 211.492 88.463 211.18L87.6857 213.023ZM59.2775 233.12L57.8633 231.706L57.8633 231.706L59.2775 233.12ZM39.18 283.843L37.7657 285.257L37.7657 285.257L39.18 283.843ZM89.9024 263.745L88.4882 262.331L88.4882 262.331L89.9024 263.745ZM110 235.337L111.842 234.56C111.53 233.819 110.804 233.337 110 233.337C109.195 233.337 108.469 233.819 108.157 234.56L110 235.337ZM180.82 283.843L182.234 285.258L182.234 285.258L180.82 283.843ZM160.722 233.121L162.136 231.707L162.136 231.707L160.722 233.121ZM132.734 213.202L131.913 211.378C131.19 211.703 130.727 212.425 130.734 213.218C130.74 214.011 131.214 214.725 131.942 215.039L132.734 213.202ZM160.341 193.308L158.927 191.894L158.927 191.894L160.341 193.308ZM180.821 142.203L179.407 143.617L179.407 143.617L180.821 142.203ZM129.716 162.683L131.13 164.098L131.13 164.098L129.716 162.683ZM88.488 163.715C97.5855 172.812 104.306 182.549 107.985 191.083L111.658 189.499C107.74 180.412 100.696 170.265 91.3164 160.886L88.488 163.715ZM40.594 143.617C42.2345 141.976 44.6755 141.061 47.9449 141.025C51.227 140.989 55.2037 141.847 59.6419 143.606C68.5117 147.12 78.8558 154.082 88.488 163.715L91.3164 160.886C81.3923 150.962 70.6036 143.647 61.1154 139.887C56.3747 138.009 51.8661 136.981 47.9006 137.025C43.9225 137.069 40.3535 138.201 37.7656 140.789L40.594 143.617ZM60.6916 191.511C51.0593 181.879 44.0974 171.535 40.583 162.665C38.8245 158.227 37.9658 154.25 38.0021 150.968C38.0383 147.698 38.9535 145.257 40.594 143.617L37.7656 140.789C35.1777 143.376 34.0464 146.945 34.0023 150.924C33.9584 154.889 34.9859 159.398 36.8643 164.138C40.6237 173.627 47.939 184.415 57.8631 194.339L60.6916 191.511ZM88.463 211.18C79.8351 207.541 69.9338 200.753 60.6916 191.511L57.8631 194.339C67.39 203.866 77.7097 210.985 86.9083 214.865L88.463 211.18ZM86.9083 211.18C77.7097 215.06 67.3901 222.179 57.8633 231.706L60.6917 234.534C69.9339 225.292 79.8352 218.505 88.463 214.865L86.9083 211.18ZM57.8633 231.706C47.9392 241.63 40.6239 252.419 36.8644 261.907C34.986 266.648 33.9586 271.156 34.0025 275.122C34.0465 279.1 35.1778 282.669 37.7657 285.257L40.5942 282.428C38.9537 280.788 38.0384 278.347 38.0022 275.077C37.9659 271.795 38.8246 267.819 40.5832 263.38C44.0976 254.511 51.0595 244.167 60.6917 234.534L57.8633 231.706ZM37.7657 285.257C40.3537 287.845 43.9227 288.976 47.9008 289.02C51.8663 289.064 56.3748 288.036 61.1156 286.158C70.6037 282.399 81.3924 275.083 91.3166 265.159L88.4882 262.331C78.8559 271.963 68.5118 278.925 59.6421 282.439C55.2039 284.198 51.2272 285.057 47.9451 285.02C44.6756 284.984 42.2347 284.069 40.5942 282.428L37.7657 285.257ZM91.3166 265.159C100.843 255.632 107.962 245.313 111.842 236.114L108.157 234.56C104.517 243.188 97.7302 253.089 88.4882 262.331L91.3166 265.159ZM108.157 236.114C112.037 245.313 119.156 255.633 128.683 265.16L131.512 262.332C122.269 253.089 115.482 243.188 111.842 234.56L108.157 236.114ZM128.683 265.16C138.607 275.084 149.396 282.399 158.884 286.159C163.625 288.037 168.133 289.065 172.099 289.021C176.077 288.977 179.646 287.845 182.234 285.258L179.406 282.429C177.765 284.07 175.324 284.985 172.055 285.021C168.772 285.057 164.796 284.199 160.358 282.44C151.488 278.926 141.144 271.964 131.512 262.332L128.683 265.16ZM182.234 285.258C184.822 282.67 185.953 279.101 185.997 275.122C186.041 271.157 185.014 266.648 183.135 261.908C179.376 252.42 172.061 241.631 162.136 231.707L159.308 234.535C168.94 244.167 175.902 254.511 179.417 263.381C181.175 267.819 182.034 271.796 181.997 275.078C181.961 278.348 181.046 280.789 179.406 282.429L182.234 285.258ZM162.136 231.707C152.758 222.328 142.613 215.284 133.525 211.366L131.942 215.039C140.475 218.719 150.211 225.438 159.308 234.535L162.136 231.707ZM133.554 215.027C142.534 210.989 152.504 203.973 161.755 194.723L158.927 191.894C149.95 200.871 140.37 207.576 131.913 211.378L133.554 215.027ZM161.755 194.723C171.783 184.694 179.193 173.812 183.022 164.258C184.935 159.485 185.991 154.949 185.969 150.965C185.946 146.968 184.829 143.382 182.235 140.789L179.407 143.617C181.042 145.252 181.95 147.697 181.969 150.988C181.988 154.289 181.102 158.295 179.309 162.77C175.725 171.712 168.666 182.154 158.927 191.894L161.755 194.723ZM182.235 140.789C179.642 138.195 176.056 137.078 172.06 137.056C168.075 137.033 163.54 138.09 158.766 140.003C149.212 143.831 138.33 151.241 128.302 161.269L131.13 164.098C140.87 154.358 151.312 147.299 160.254 143.715C164.729 141.922 168.735 141.037 172.037 141.056C175.327 141.074 177.772 141.982 179.407 143.617L182.235 140.789ZM128.302 161.269C119.051 170.52 112.035 180.491 107.998 189.471L111.646 191.111C115.448 182.655 122.153 173.075 131.13 164.098L128.302 161.269Z" fill="#FF7961" mask="url(#path-5-inside-1_1286_2036)"/>
</g>
<rect x="1" y="1" width="218" height="338" rx="7" stroke="#FF7961" stroke-width="2"/>
<defs>
<clipPath id="clip0_1286_2036">
<rect width="220" height="340" rx="8" fill="white"/>
</clipPath>
</defs>
</svg>
