<svg width="768" height="833" viewBox="0 0 768 833" fill="none" xmlns="http://www.w3.org/2000/svg">
<path fill-rule="evenodd" clip-rule="evenodd" d="M0 248.25V109.027H0.00386047C0.494022 48.7292 49.4253 -3.05176e-05 109.714 -3.05176e-05C147.876 -3.05176e-05 181.487 19.5239 201.143 49.1476C220.799 19.5239 254.41 -3.05176e-05 292.571 -3.05176e-05C330.733 -3.05176e-05 364.344 19.5239 384 49.1476C403.656 19.5239 437.267 -3.05176e-05 475.429 -3.05176e-05C513.59 -3.05176e-05 547.201 19.524 566.857 49.1477C586.513 19.524 620.124 -3.05176e-05 658.286 -3.05176e-05C718.575 -3.05176e-05 767.506 48.7292 767.996 109.027H768V109.719L768 109.796L768 109.942C768 110.016 768 110.09 768 110.164V248.25H819.75V832.5H-32.25V248.25H0Z" fill="#F96247"/>
</svg>
