<svg width="420" height="463" viewBox="0 0 420 463" fill="none" xmlns="http://www.w3.org/2000/svg">
<g filter="url(#filter0_f_1556_2040)">
<ellipse cx="231.217" cy="231.36" rx="188.44" ry="188.44" transform="rotate(-75 231.217 231.36)" fill="#F7F2EC"/>
</g>
<path d="M176.643 198.406L169.459 196.481C169.57 195.248 169.471 194.103 169.164 193.047C168.861 191.977 168.385 191.012 167.737 190.152C167.089 189.292 166.283 188.562 165.319 187.96C164.37 187.349 163.295 186.883 162.091 186.56C159.952 185.987 157.913 186.017 155.973 186.65C154.036 187.27 152.324 188.486 150.837 190.297C149.353 192.096 148.215 194.474 147.422 197.432C146.616 200.442 146.404 203.102 146.786 205.415C147.185 207.718 148.063 209.614 149.421 211.103C150.795 212.583 152.544 213.608 154.67 214.177C155.848 214.493 156.991 214.634 158.098 214.601C159.221 214.559 160.274 214.341 161.259 213.945C162.256 213.554 163.156 212.985 163.96 212.24C164.776 211.498 165.448 210.58 165.974 209.486L173.148 211.449C172.378 213.247 171.325 214.845 169.99 216.244C168.667 217.646 167.12 218.783 165.35 219.653C163.583 220.511 161.644 221.035 159.535 221.225C157.429 221.401 155.204 221.176 152.86 220.548C149.403 219.621 146.531 217.994 144.245 215.666C141.959 213.338 140.44 210.453 139.687 207.013C138.935 203.572 139.125 199.738 140.257 195.512C141.393 191.274 143.151 187.861 145.533 185.273C147.918 182.673 150.682 180.937 153.826 180.063C156.97 179.19 160.258 179.213 163.69 180.133C165.879 180.719 167.833 181.572 169.551 182.691C171.269 183.811 172.704 185.163 173.858 186.748C175.015 188.321 175.837 190.092 176.325 192.062C176.829 194.023 176.935 196.138 176.643 198.406ZM180.641 201.907L182.169 196.202L207.986 203.119L206.457 208.824L196.911 206.266L190.533 230.066L183.81 228.265L190.188 204.465L180.641 201.907ZM212.733 236.653C210.863 236.152 209.269 235.367 207.949 234.3C206.645 233.223 205.735 231.909 205.217 230.356C204.713 228.808 204.719 227.066 205.238 225.133C205.684 223.468 206.36 222.174 207.266 221.25C208.172 220.326 209.245 219.68 210.482 219.312C211.72 218.943 213.05 218.771 214.471 218.795C215.908 218.81 217.364 218.932 218.84 219.163C220.617 219.447 222.062 219.662 223.175 219.81C224.292 219.944 225.135 219.923 225.704 219.746C226.289 219.56 226.671 219.134 226.849 218.468L226.88 218.353C227.268 216.905 227.139 215.67 226.494 214.646C225.849 213.622 224.719 212.894 223.106 212.462C221.403 212.005 219.952 212.015 218.754 212.49C217.569 212.968 216.668 213.667 216.051 214.586L209.806 211.925C210.799 210.269 212.045 208.997 213.546 208.109C215.05 207.208 216.734 206.685 218.599 206.54C220.467 206.381 222.431 206.578 224.493 207.131C225.915 207.512 227.285 208.057 228.605 208.768C229.924 209.478 231.063 210.374 232.023 211.454C232.986 212.522 233.644 213.803 233.999 215.298C234.366 216.797 234.287 218.525 233.762 220.485L228.471 240.231L221.786 238.44L222.872 234.387L222.642 234.325C221.999 235.032 221.198 235.64 220.238 236.152C219.293 236.654 218.187 236.968 216.917 237.094C215.664 237.212 214.27 237.064 212.733 236.653ZM215.908 232.027C217.303 232.401 218.587 232.45 219.759 232.174C220.935 231.885 221.921 231.353 222.719 230.578C223.53 229.807 224.081 228.878 224.372 227.789L225.304 224.312C225.038 224.433 224.622 224.5 224.056 224.513C223.503 224.53 222.89 224.51 222.219 224.453C221.548 224.397 220.887 224.33 220.235 224.251C219.584 224.173 219.019 224.104 218.541 224.044C217.466 223.907 216.475 223.889 215.57 223.989C214.665 224.09 213.898 224.365 213.27 224.814C212.645 225.251 212.212 225.917 211.972 226.814C211.629 228.094 211.837 229.186 212.597 230.09C213.357 230.993 214.461 231.639 215.908 232.027ZM238.536 217.42L240.065 211.715L265.881 218.632L264.353 224.337L254.806 221.779L248.429 245.579L241.706 243.778L248.083 219.978L238.536 217.42ZM273.551 230.981L282.252 233.313C286.017 234.322 288.685 236.018 290.256 238.402C291.827 240.785 292.221 243.464 291.438 246.439C290.907 248.369 289.973 249.958 288.637 251.206C287.314 252.457 285.653 253.275 283.656 253.659C281.675 254.034 279.43 253.886 276.92 253.213L263.512 249.621L271.418 220.116L278.122 221.912L271.745 245.712L278.449 247.508C279.96 247.913 281.305 247.862 282.484 247.354C283.667 246.834 284.421 245.965 284.747 244.749C285.09 243.468 284.883 242.294 284.126 241.227C283.369 240.159 282.235 239.423 280.724 239.018L272.022 236.686L273.551 230.981ZM303.957 250.37L321.154 233.443L328.3 235.357L320.394 264.862L313.671 263.061L319.06 242.949L301.896 259.906L294.731 257.986L302.637 228.481L309.341 230.277L303.957 250.37Z" fill="#F96247"/>
<path d="M133.001 241.789L132.597 243.299L126.78 241.74L127.184 240.23L133.001 241.789ZM128.781 235.806L125.958 246.343L124.339 245.909L127.162 235.372L128.781 235.806ZM135.45 237.592L132.626 248.13L131.007 247.696L133.831 237.159L135.45 237.592ZM138.618 250C137.95 249.821 137.377 249.533 136.901 249.135C136.425 248.733 136.091 248.25 135.9 247.684C135.71 247.113 135.707 246.485 135.89 245.799C136.052 245.195 136.302 244.737 136.64 244.426C136.98 244.11 137.378 243.898 137.833 243.79C138.289 243.681 138.77 243.639 139.279 243.662C139.793 243.683 140.303 243.726 140.81 243.793C141.472 243.883 142.008 243.96 142.417 244.025C142.832 244.087 143.145 244.09 143.356 244.034C143.571 243.979 143.714 243.822 143.784 243.561L143.799 243.506C143.98 242.829 143.936 242.253 143.666 241.779C143.4 241.306 142.895 240.97 142.149 240.77C141.377 240.563 140.725 240.57 140.195 240.79C139.666 241.011 139.26 241.29 138.979 241.626L137.589 240.666C138.035 240.099 138.535 239.698 139.088 239.464C139.646 239.227 140.217 239.11 140.799 239.114C141.387 239.115 141.946 239.186 142.477 239.328C142.815 239.419 143.193 239.564 143.61 239.764C144.033 239.961 144.417 240.238 144.762 240.595C145.112 240.954 145.358 241.419 145.499 241.991C145.64 242.563 145.598 243.267 145.374 244.104L143.513 251.047L141.894 250.613L142.277 249.186L142.194 249.164C142.023 249.363 141.775 249.559 141.449 249.751C141.123 249.943 140.723 250.074 140.248 250.143C139.774 250.212 139.23 250.164 138.618 250ZM139.254 248.612C139.894 248.783 140.468 248.802 140.974 248.668C141.485 248.535 141.906 248.3 142.237 247.962C142.572 247.626 142.799 247.238 142.916 246.799L143.313 245.317C143.223 245.381 143.052 245.416 142.8 245.422C142.554 245.425 142.274 245.411 141.958 245.38C141.649 245.346 141.347 245.31 141.054 245.27C140.766 245.228 140.533 245.194 140.353 245.171C139.917 245.113 139.5 245.097 139.101 245.122C138.708 245.144 138.367 245.246 138.078 245.429C137.794 245.608 137.598 245.903 137.487 246.315C137.337 246.877 137.431 247.358 137.77 247.758C138.114 248.154 138.609 248.439 139.254 248.612ZM154.936 254.372C154.269 254.194 153.696 253.905 153.22 253.508C152.744 253.106 152.41 252.622 152.219 252.056C152.029 251.486 152.025 250.857 152.209 250.171C152.371 249.568 152.621 249.11 152.959 248.799C153.299 248.483 153.696 248.271 154.152 248.162C154.607 248.054 155.089 248.012 155.598 248.035C156.112 248.055 156.622 248.099 157.129 248.166C157.791 248.255 158.327 248.333 158.736 248.398C159.15 248.46 159.463 248.463 159.675 248.407C159.89 248.352 160.033 248.194 160.103 247.933L160.118 247.879C160.299 247.202 160.255 246.626 159.985 246.152C159.719 245.679 159.214 245.342 158.468 245.143C157.695 244.935 157.044 244.942 156.514 245.163C155.985 245.384 155.579 245.663 155.298 245.999L153.908 245.038C154.354 244.472 154.854 244.071 155.406 243.837C155.965 243.599 156.536 243.483 157.118 243.487C157.706 243.487 158.265 243.559 158.796 243.701C159.134 243.792 159.512 243.937 159.929 244.137C160.352 244.334 160.736 244.61 161.081 244.968C161.431 245.326 161.677 245.791 161.818 246.364C161.958 246.936 161.917 247.64 161.692 248.477L159.832 255.42L158.213 254.986L158.596 253.559L158.513 253.537C158.342 253.736 158.094 253.932 157.768 254.124C157.442 254.316 157.042 254.446 156.567 254.515C156.093 254.584 155.549 254.537 154.936 254.372ZM155.573 252.984C156.213 253.156 156.787 253.175 157.293 253.041C157.804 252.908 158.225 252.673 158.556 252.335C158.891 251.998 159.118 251.611 159.235 251.171L159.632 249.69C159.542 249.754 159.37 249.789 159.119 249.795C158.873 249.797 158.592 249.784 158.277 249.753C157.968 249.719 157.666 249.682 157.373 249.643C157.085 249.6 156.851 249.567 156.671 249.543C156.236 249.486 155.819 249.469 155.42 249.495C155.027 249.517 154.686 249.619 154.397 249.801C154.113 249.98 153.916 250.276 153.806 250.687C153.655 251.25 153.75 251.731 154.089 252.131C154.433 252.527 154.928 252.811 155.573 252.984ZM162.787 256.211L165.611 245.674L167.23 246.108L166.002 250.691L167.072 250.977L172.087 247.409L174.172 247.968L168.559 251.905L171.404 258.52L169.318 257.961L167.052 252.589L165.597 252.2L164.406 256.645L162.787 256.211ZM174.979 249.802L175.383 248.293L183.945 250.587L183.54 252.096L180.083 251.169L177.664 260.198L176.045 259.764L178.464 250.736L174.979 249.802ZM183.467 265.988C183.192 265.914 182.954 265.826 182.751 265.722C182.547 265.624 182.41 265.543 182.338 265.479L183.132 264.163C183.499 264.369 183.837 264.499 184.146 264.552C184.455 264.605 184.759 264.542 185.057 264.362C185.358 264.188 185.679 263.86 186.019 263.378L186.542 262.635L185.483 250.999L187.239 251.469L187.898 260.646L188.008 260.675L193.167 253.058L194.923 253.528L187.215 264.404C186.868 264.894 186.498 265.278 186.105 265.555C185.711 265.837 185.294 266.012 184.854 266.08C184.419 266.15 183.956 266.119 183.467 265.988ZM196.95 265.63C196.283 265.451 195.71 265.163 195.234 264.766C194.758 264.364 194.424 263.88 194.233 263.314C194.043 262.743 194.039 262.115 194.223 261.429C194.385 260.825 194.635 260.368 194.973 260.056C195.313 259.74 195.71 259.528 196.166 259.42C196.621 259.312 197.103 259.269 197.612 259.293C198.126 259.313 198.636 259.356 199.143 259.424C199.805 259.513 200.341 259.59 200.75 259.656C201.164 259.718 201.477 259.721 201.689 259.665C201.904 259.61 202.047 259.452 202.117 259.191L202.132 259.136C202.313 258.459 202.269 257.884 201.999 257.409C201.733 256.936 201.228 256.6 200.482 256.4C199.709 256.193 199.058 256.2 198.528 256.421C197.999 256.642 197.593 256.92 197.312 257.256L195.922 256.296C196.368 255.729 196.868 255.329 197.42 255.094C197.979 254.857 198.55 254.74 199.132 254.744C199.72 254.745 200.279 254.816 200.81 254.959C201.148 255.049 201.526 255.195 201.943 255.395C202.366 255.591 202.75 255.868 203.095 256.225C203.445 256.584 203.691 257.049 203.832 257.621C203.972 258.193 203.931 258.898 203.706 259.735L201.846 266.677L200.227 266.243L200.61 264.816L200.527 264.794C200.356 264.994 200.108 265.189 199.782 265.381C199.456 265.573 199.056 265.704 198.581 265.773C198.107 265.842 197.563 265.794 196.95 265.63ZM197.587 264.242C198.227 264.413 198.801 264.432 199.307 264.298C199.818 264.166 200.239 263.93 200.57 263.593C200.905 263.256 201.132 262.868 201.249 262.429L201.646 260.947C201.556 261.011 201.384 261.046 201.133 261.052C200.887 261.055 200.606 261.041 200.291 261.011C199.982 260.977 199.68 260.94 199.387 260.901C199.099 260.858 198.865 260.825 198.685 260.801C198.25 260.743 197.833 260.727 197.434 260.752C197.041 260.774 196.7 260.877 196.411 261.059C196.127 261.238 195.93 261.533 195.82 261.945C195.669 262.508 195.764 262.989 196.103 263.388C196.447 263.785 196.942 264.069 197.587 264.242ZM203.868 267.219L204.273 265.71L204.657 265.813C204.972 265.897 205.252 265.906 205.495 265.839C205.74 265.767 205.969 265.591 206.181 265.309C206.4 265.025 206.619 264.608 206.84 264.059C207.066 263.507 207.314 262.794 207.582 261.92L209.024 257.307L216.049 259.189L213.226 269.726L211.607 269.293L214.026 260.264L210.157 259.228L208.985 262.943C208.716 263.798 208.435 264.538 208.139 265.165C207.85 265.788 207.526 266.29 207.17 266.67C206.818 267.051 206.417 267.302 205.968 267.421C205.52 267.541 205.002 267.523 204.417 267.366L203.868 267.219ZM219.397 264.174L222.416 264.983C223.65 265.314 224.511 265.88 224.997 266.682C225.483 267.484 225.598 268.365 225.34 269.325C225.171 269.957 224.871 270.491 224.44 270.93C224.01 271.364 223.47 271.658 222.821 271.812C222.173 271.962 221.437 271.927 220.614 271.706L216.196 270.522L219.02 259.985L220.639 260.419L218.22 269.447L221.019 270.197C221.659 270.368 222.23 270.34 222.732 270.112C223.235 269.884 223.557 269.504 223.699 268.974C223.849 268.416 223.765 267.906 223.448 267.443C223.13 266.981 222.651 266.664 222.011 266.492L218.993 265.683L219.397 264.174ZM235.556 269.269L235.151 270.778L229.334 269.219L229.738 267.71L235.556 269.269ZM231.336 263.285L228.512 273.822L226.893 273.389L229.716 262.851L231.336 263.285ZM238.004 265.072L235.18 275.609L233.561 275.175L236.385 264.638L238.004 265.072ZM241.338 270.053L244.356 270.862C245.591 271.193 246.452 271.759 246.938 272.561C247.424 273.363 247.538 274.244 247.281 275.204C247.112 275.836 246.812 276.37 246.381 276.809C245.951 277.243 245.411 277.537 244.762 277.691C244.114 277.841 243.378 277.806 242.555 277.585L238.137 276.401L240.96 265.864L242.58 266.298L240.16 275.326L242.959 276.076C243.6 276.247 244.171 276.219 244.673 275.991C245.176 275.763 245.498 275.384 245.64 274.853C245.789 274.295 245.706 273.785 245.388 273.322C245.071 272.86 244.592 272.543 243.952 272.371L240.934 271.563L241.338 270.053ZM248.043 279.056L250.867 268.518L252.486 268.952L249.662 279.49L248.043 279.056ZM256.985 281.687C255.97 281.415 255.154 280.956 254.538 280.311C253.927 279.662 253.532 278.879 253.351 277.963C253.175 277.044 253.232 276.044 253.522 274.965C253.811 273.886 254.262 272.987 254.876 272.269C255.496 271.548 256.222 271.051 257.055 270.779C257.893 270.504 258.788 270.494 259.739 270.749C260.288 270.896 260.806 271.132 261.292 271.459C261.778 271.785 262.185 272.213 262.514 272.742C262.844 273.267 263.049 273.9 263.13 274.642C263.21 275.385 263.119 276.247 262.856 277.231L262.672 277.917L254.549 275.74L254.924 274.341L261.4 276.076C261.56 275.481 261.583 274.919 261.47 274.389C261.362 273.86 261.127 273.402 260.764 273.016C260.407 272.631 259.935 272.36 259.35 272.203C258.705 272.03 258.104 272.041 257.547 272.235C256.996 272.425 256.527 272.741 256.139 273.181C255.752 273.621 255.48 274.132 255.324 274.713L255.074 275.646C254.861 276.441 254.818 277.153 254.944 277.78C255.076 278.403 255.35 278.925 255.767 279.346C256.185 279.762 256.721 280.057 257.375 280.233C257.8 280.347 258.2 280.39 258.575 280.363C258.956 280.333 259.304 280.23 259.621 280.055C259.939 279.875 260.215 279.621 260.45 279.292L261.897 280.15C261.59 280.637 261.188 281.029 260.692 281.327C260.196 281.621 259.633 281.803 259.001 281.874C258.371 281.941 257.699 281.878 256.985 281.687ZM271.119 275.562L271.523 274.053L280.085 276.347L279.68 277.856L276.223 276.93L273.804 285.958L272.185 285.524L274.604 276.496L271.119 275.562ZM283.435 288.774C282.42 288.502 281.604 288.043 280.988 287.398C280.377 286.749 279.981 285.966 279.8 285.05C279.625 284.131 279.682 283.131 279.971 282.052C280.261 280.973 280.712 280.074 281.326 279.356C281.946 278.635 282.672 278.139 283.505 277.867C284.343 277.591 285.238 277.581 286.189 277.836C286.738 277.983 287.256 278.22 287.742 278.546C288.228 278.872 288.635 279.3 288.964 279.829C289.294 280.354 289.499 280.987 289.58 281.73C289.66 282.472 289.569 283.335 289.305 284.318L289.121 285.004L280.999 282.827L281.374 281.428L287.85 283.163C288.009 282.569 288.033 282.006 287.92 281.476C287.811 280.947 287.576 280.489 287.214 280.103C286.856 279.718 286.385 279.447 285.8 279.29C285.155 279.118 284.554 279.128 283.997 279.322C283.446 279.513 282.977 279.828 282.589 280.268C282.201 280.709 281.93 281.219 281.774 281.8L281.524 282.733C281.311 283.529 281.267 284.24 281.394 284.867C281.526 285.491 281.8 286.013 282.217 286.433C282.635 286.849 283.171 287.145 283.825 287.32C284.25 287.434 284.65 287.477 285.025 287.45C285.406 287.42 285.754 287.317 286.071 287.142C286.388 286.963 286.665 286.708 286.9 286.379L288.347 287.237C288.04 287.724 287.638 288.116 287.141 288.414C286.646 288.708 286.083 288.89 285.451 288.961C284.82 289.028 284.148 288.965 283.435 288.774ZM296.67 289.732L302.583 282.376L304.12 282.787L296.741 292.104L295.424 291.751L293.774 280.015L295.284 280.42L296.67 289.732ZM294.762 280.28L291.939 290.817L290.32 290.384L293.143 279.846L294.762 280.28ZM300.226 293.038L303.049 282.501L304.668 282.934L301.845 293.472L300.226 293.038ZM308.009 287.918L311.028 288.727C312.263 289.058 313.123 289.624 313.609 290.426C314.096 291.227 314.21 292.109 313.953 293.069C313.783 293.7 313.483 294.235 313.052 294.673C312.622 295.107 312.083 295.401 311.433 295.556C310.785 295.706 310.05 295.67 309.227 295.45L304.809 294.266L307.632 283.729L309.251 284.162L306.832 293.19L309.631 293.94C310.271 294.112 310.843 294.084 311.345 293.856C311.847 293.627 312.169 293.248 312.312 292.718C312.461 292.16 312.377 291.649 312.06 291.187C311.743 290.724 311.264 290.407 310.624 290.236L307.605 289.427L308.009 287.918ZM314.715 296.92L317.538 286.383L319.157 286.817L316.334 297.354L314.715 296.92Z" fill="#F96247"/>
<defs>
<filter id="filter0_f_1556_2040" x="25.057" y="25.1999" width="412.321" height="412.321" filterUnits="userSpaceOnUse" color-interpolation-filters="sRGB">
<feFlood flood-opacity="0" result="BackgroundImageFix"/>
<feBlend mode="normal" in="SourceGraphic" in2="BackgroundImageFix" result="shape"/>
<feGaussianBlur stdDeviation="8.83672" result="effect1_foregroundBlur_1556_2040"/>
</filter>
</defs>
</svg>
