<svg width="47" height="33" viewBox="0 0 47 33" fill="none" xmlns="http://www.w3.org/2000/svg">
<path fill-rule="evenodd" clip-rule="evenodd" d="M12.31 25.5445C11.1072 29.9779 9.05 32.9 6.71428 32.9C3.00608 32.9 0 25.5351 0 16.45C0 7.36491 3.00608 0 6.71428 0C9.05 0 11.1072 2.92203 12.31 7.35544C13.5128 2.92203 15.57 0 17.9057 0C20.2408 0 22.2975 2.92045 23.5004 7.35185C24.7034 2.92045 26.76 0 29.0951 0C31.4309 0 33.488 2.92203 34.6908 7.35544C35.8937 2.92203 37.9508 0 40.2865 0C43.9947 0 47.0008 7.36491 47.0008 16.45C47.0008 25.5351 43.9947 32.9 40.2865 32.9C37.9508 32.9 35.8937 29.9779 34.6908 25.5445C33.488 29.9779 31.4309 32.9 29.0951 32.9C26.76 32.9 24.7034 29.9795 23.5004 25.5481C22.2975 29.9795 20.2408 32.9 17.9057 32.9C15.57 32.9 13.5128 29.9779 12.31 25.5445Z" fill="#F7F2EC"/>
</svg>
