<svg width="940" height="180" viewBox="0 0 940 180" fill="none" xmlns="http://www.w3.org/2000/svg">
<rect width="940" height="180" rx="8" fill="white"/>
<path d="M337.65 36H340.033V41.2812C340.033 42.0156 340.161 42.5964 340.416 43.0234C340.671 43.4453 341.041 43.7448 341.525 43.9219C342.015 44.099 342.609 44.1875 343.307 44.1875C343.676 44.1875 344.051 44.1745 344.432 44.1484C344.817 44.1172 345.2 44.0755 345.58 44.0234C345.96 43.9661 346.327 43.901 346.682 43.8281C347.041 43.75 347.374 43.6641 347.682 43.5703V45.625C347.38 45.724 347.059 45.8125 346.721 45.8906C346.387 45.9635 346.038 46.0286 345.674 46.0859C345.309 46.138 344.929 46.1797 344.533 46.2109C344.137 46.2422 343.729 46.2578 343.307 46.2578C342.14 46.2578 341.132 46.0911 340.283 45.7578C339.439 45.4193 338.788 44.8854 338.33 44.1562C337.877 43.4271 337.65 42.4687 337.65 41.2812V36ZM347.322 36H349.713V52H347.322V36ZM352.563 42.0156V40H362.688V42.0156H358.773V52H356.492V42.0156H352.563ZM369.654 52.2422C368.529 52.2422 367.548 51.9844 366.709 51.4687C365.87 50.9531 365.219 50.2318 364.756 49.3047C364.292 48.3776 364.061 47.2943 364.061 46.0547C364.061 44.8099 364.292 43.7214 364.756 42.7891C365.219 41.8568 365.87 41.1328 366.709 40.6172C367.548 40.1016 368.529 39.8438 369.654 39.8438C370.779 39.8438 371.761 40.1016 372.6 40.6172C373.438 41.1328 374.089 41.8568 374.553 42.7891C375.016 43.7214 375.248 44.8099 375.248 46.0547C375.248 47.2943 375.016 48.3776 374.553 49.3047C374.089 50.2318 373.438 50.9531 372.6 51.4687C371.761 51.9844 370.779 52.2422 369.654 52.2422ZM369.662 50.2812C370.391 50.2812 370.995 50.0885 371.475 49.7031C371.954 49.3177 372.308 48.8047 372.537 48.1641C372.771 47.5234 372.889 46.8177 372.889 46.0469C372.889 45.2812 372.771 44.5781 372.537 43.9375C372.308 43.2917 371.954 42.7734 371.475 42.3828C370.995 41.9922 370.391 41.7969 369.662 41.7969C368.928 41.7969 368.318 41.9922 367.834 42.3828C367.355 42.7734 366.998 43.2917 366.764 43.9375C366.535 44.5781 366.42 45.2812 366.42 46.0469C366.42 46.8177 366.535 47.5234 366.764 48.1641C366.998 48.8047 367.355 49.3177 367.834 49.7031C368.318 50.0885 368.928 50.2812 369.662 50.2812ZM382.506 55.4609V49.9766H383.482C383.732 49.7474 383.943 49.474 384.115 49.1562C384.292 48.8385 384.441 48.4609 384.561 48.0234C384.686 47.5859 384.79 47.0755 384.873 46.4922C384.956 45.9036 385.029 45.2318 385.092 44.4766L385.467 40H393.623V49.9766H395.467V55.4609H393.186V52H384.818V55.4609H382.506ZM385.982 49.9766H391.342V42H387.561L387.311 44.4766C387.191 45.737 387.04 46.8307 386.857 47.7578C386.675 48.6797 386.383 49.4193 385.982 49.9766ZM402.922 52.2422C401.74 52.2422 400.721 51.9896 399.867 51.4844C399.018 50.974 398.362 50.2578 397.898 49.3359C397.44 48.4089 397.211 47.3229 397.211 46.0781C397.211 44.849 397.44 43.7656 397.898 42.8281C398.362 41.8906 399.008 41.1589 399.836 40.6328C400.669 40.1068 401.643 39.8438 402.758 39.8438C403.435 39.8438 404.091 39.9557 404.727 40.1797C405.362 40.4036 405.932 40.7552 406.438 41.2344C406.943 41.7135 407.341 42.3359 407.633 43.1016C407.924 43.862 408.07 44.7865 408.07 45.875V46.7031H398.531V44.9531H405.781C405.781 44.3385 405.656 43.7943 405.406 43.3203C405.156 42.8411 404.805 42.4635 404.352 42.1875C403.904 41.9115 403.378 41.7734 402.773 41.7734C402.117 41.7734 401.544 41.9349 401.055 42.2578C400.57 42.5755 400.195 42.9922 399.93 43.5078C399.669 44.0182 399.539 44.5729 399.539 45.1719V46.5391C399.539 47.3411 399.68 48.0234 399.961 48.5859C400.247 49.1484 400.646 49.5781 401.156 49.875C401.667 50.1667 402.263 50.3125 402.945 50.3125C403.388 50.3125 403.792 50.25 404.156 50.125C404.521 49.9948 404.836 49.8021 405.102 49.5469C405.367 49.2917 405.57 48.9766 405.711 48.6016L407.922 49C407.745 49.651 407.427 50.2214 406.969 50.7109C406.516 51.1953 405.945 51.5729 405.258 51.8437C404.576 52.1094 403.797 52.2422 402.922 52.2422ZM409.717 52L409.709 49.9766H410.139C410.472 49.9766 410.751 49.9062 410.975 49.7656C411.204 49.6198 411.391 49.375 411.537 49.0312C411.683 48.6875 411.795 48.2135 411.873 47.6094C411.951 47 412.008 46.2344 412.045 45.3125L412.256 40H420.631V52H418.342V42.0156H414.42L414.232 46.0938C414.186 47.0833 414.084 47.9479 413.928 48.6875C413.777 49.4271 413.555 50.0443 413.264 50.5391C412.972 51.0286 412.597 51.3958 412.139 51.6406C411.68 51.8802 411.123 52 410.467 52H409.717ZM427.238 52.2656C426.478 52.2656 425.79 52.125 425.176 51.8437C424.561 51.5573 424.074 51.1432 423.715 50.6016C423.361 50.0599 423.184 49.3958 423.184 48.6094C423.184 47.9323 423.314 47.375 423.574 46.9375C423.835 46.5 424.186 46.1536 424.629 45.8984C425.072 45.6432 425.566 45.4505 426.113 45.3203C426.66 45.1901 427.217 45.0911 427.785 45.0234C428.504 44.9401 429.087 44.8724 429.535 44.8203C429.983 44.763 430.309 44.6719 430.512 44.5469C430.715 44.4219 430.816 44.2187 430.816 43.9375V43.8828C430.816 43.2005 430.624 42.6719 430.238 42.2969C429.858 41.9219 429.29 41.7344 428.535 41.7344C427.749 41.7344 427.129 41.9089 426.676 42.2578C426.228 42.6016 425.918 42.9844 425.746 43.4062L423.551 42.9062C423.811 42.1771 424.191 41.5885 424.691 41.1406C425.197 40.6875 425.777 40.3594 426.434 40.1562C427.09 39.9479 427.78 39.8438 428.504 39.8438C428.983 39.8438 429.491 39.901 430.027 40.0156C430.569 40.125 431.074 40.3281 431.543 40.625C432.017 40.9219 432.405 41.3464 432.707 41.8984C433.009 42.4453 433.16 43.1563 433.16 44.0313V52H430.879V50.3594H430.785C430.634 50.6615 430.408 50.9583 430.105 51.25C429.803 51.5417 429.415 51.7839 428.941 51.9766C428.467 52.1693 427.9 52.2656 427.238 52.2656ZM427.746 50.3906C428.392 50.3906 428.944 50.263 429.402 50.0078C429.866 49.7526 430.217 49.4193 430.457 49.0078C430.702 48.5911 430.824 48.1458 430.824 47.6719V46.125C430.741 46.2083 430.579 46.2865 430.34 46.3594C430.105 46.4271 429.837 46.487 429.535 46.5391C429.233 46.5859 428.939 46.6302 428.652 46.6719C428.366 46.7083 428.126 46.7396 427.934 46.7656C427.48 46.8229 427.066 46.9193 426.691 47.0547C426.322 47.1901 426.025 47.3854 425.801 47.6406C425.582 47.8906 425.473 48.224 425.473 48.6406C425.473 49.2187 425.686 49.6562 426.113 49.9531C426.54 50.2448 427.085 50.3906 427.746 50.3906ZM434.783 42.0156V40H444.908V42.0156H440.994V52H438.713V42.0156H434.783ZM449.137 44.125H452.621C454.09 44.125 455.22 44.4896 456.012 45.2187C456.803 45.9479 457.199 46.888 457.199 48.0391C457.199 48.7891 457.022 49.4635 456.668 50.0625C456.314 50.6615 455.796 51.1354 455.113 51.4844C454.431 51.8281 453.6 52 452.621 52H447.379V40H449.668V49.9844H452.621C453.293 49.9844 453.845 49.8099 454.277 49.4609C454.71 49.1068 454.926 48.6563 454.926 48.1094C454.926 47.5312 454.71 47.0599 454.277 46.6953C453.845 46.3255 453.293 46.1406 452.621 46.1406H449.137V44.125ZM465.641 52V40H475.43V52H473.141V42.0156H467.914V52H465.641ZM478.553 56.5V40H480.834V41.9453H481.029C481.165 41.6953 481.36 41.4062 481.615 41.0781C481.87 40.75 482.225 40.4635 482.678 40.2187C483.131 39.9688 483.73 39.8438 484.475 39.8438C485.443 39.8438 486.308 40.0885 487.068 40.5781C487.829 41.0677 488.425 41.7734 488.857 42.6953C489.295 43.6172 489.514 44.7266 489.514 46.0234C489.514 47.3203 489.298 48.4323 488.865 49.3594C488.433 50.2812 487.839 50.9922 487.084 51.4922C486.329 51.987 485.467 52.2344 484.498 52.2344C483.769 52.2344 483.173 52.112 482.709 51.8672C482.251 51.6224 481.891 51.3359 481.631 51.0078C481.37 50.6797 481.17 50.388 481.029 50.1328H480.889V56.5H478.553ZM480.842 46C480.842 46.8437 480.964 47.5833 481.209 48.2188C481.454 48.8542 481.808 49.3516 482.271 49.7109C482.735 50.0651 483.303 50.2422 483.975 50.2422C484.673 50.2422 485.256 50.0573 485.725 49.6875C486.193 49.3125 486.548 48.8047 486.787 48.1641C487.032 47.5234 487.154 46.8021 487.154 46C487.154 45.2083 487.035 44.4974 486.795 43.8672C486.561 43.237 486.206 42.7396 485.732 42.375C485.264 42.0104 484.678 41.8281 483.975 41.8281C483.298 41.8281 482.725 42.0026 482.256 42.3516C481.792 42.7005 481.441 43.1875 481.201 43.8125C480.962 44.4375 480.842 45.1667 480.842 46ZM494.42 48.7266L499.709 40H502.225V52H499.936V43.2656L494.67 52H492.131V40H494.42V48.7266ZM511.188 52V40H520.977V52H518.688V42.0156H513.461V52H511.188ZM529.154 52.2422C528.029 52.2422 527.048 51.9844 526.209 51.4687C525.37 50.9531 524.719 50.2318 524.256 49.3047C523.792 48.3776 523.561 47.2943 523.561 46.0547C523.561 44.8099 523.792 43.7214 524.256 42.7891C524.719 41.8568 525.37 41.1328 526.209 40.6172C527.048 40.1016 528.029 39.8438 529.154 39.8438C530.279 39.8438 531.261 40.1016 532.1 40.6172C532.938 41.1328 533.589 41.8568 534.053 42.7891C534.516 43.7214 534.748 44.8099 534.748 46.0547C534.748 47.2943 534.516 48.3776 534.053 49.3047C533.589 50.2318 532.938 50.9531 532.1 51.4687C531.261 51.9844 530.279 52.2422 529.154 52.2422ZM529.162 50.2812C529.891 50.2812 530.495 50.0885 530.975 49.7031C531.454 49.3177 531.808 48.8047 532.037 48.1641C532.271 47.5234 532.389 46.8177 532.389 46.0469C532.389 45.2812 532.271 44.5781 532.037 43.9375C531.808 43.2917 531.454 42.7734 530.975 42.3828C530.495 41.9922 529.891 41.7969 529.162 41.7969C528.428 41.7969 527.818 41.9922 527.334 42.3828C526.855 42.7734 526.498 43.2917 526.264 43.9375C526.035 44.5781 525.92 45.2812 525.92 46.0469C525.92 46.8177 526.035 47.5234 526.264 48.1641C526.498 48.8047 526.855 49.3177 527.334 49.7031C527.818 50.0885 528.428 50.2812 529.162 50.2812ZM536.117 52L540.766 45.8594L536.172 40H538.891L542.602 44.9844H543.438V40H545.773V44.9844H546.586L550.297 40H553.016L548.445 45.8594L553.07 52H550.297L546.555 47H545.773V52H543.438V47H542.656L538.891 52H536.117ZM558.916 52.2656C558.156 52.2656 557.468 52.125 556.854 51.8437C556.239 51.5573 555.752 51.1432 555.393 50.6016C555.038 50.0599 554.861 49.3958 554.861 48.6094C554.861 47.9323 554.992 47.375 555.252 46.9375C555.512 46.5 555.864 46.1536 556.307 45.8984C556.749 45.6432 557.244 45.4505 557.791 45.3203C558.338 45.1901 558.895 45.0911 559.463 45.0234C560.182 44.9401 560.765 44.8724 561.213 44.8203C561.661 44.763 561.986 44.6719 562.189 44.5469C562.393 44.4219 562.494 44.2187 562.494 43.9375V43.8828C562.494 43.2005 562.301 42.6719 561.916 42.2969C561.536 41.9219 560.968 41.7344 560.213 41.7344C559.426 41.7344 558.807 41.9089 558.354 42.2578C557.906 42.6016 557.596 42.9844 557.424 43.4062L555.229 42.9062C555.489 42.1771 555.869 41.5885 556.369 41.1406C556.874 40.6875 557.455 40.3594 558.111 40.1562C558.768 39.9479 559.458 39.8438 560.182 39.8438C560.661 39.8438 561.169 39.901 561.705 40.0156C562.247 40.125 562.752 40.3281 563.221 40.625C563.695 40.9219 564.083 41.3464 564.385 41.8984C564.687 42.4453 564.838 43.1563 564.838 44.0313V52H562.557V50.3594H562.463C562.312 50.6615 562.085 50.9583 561.783 51.25C561.481 51.5417 561.093 51.7839 560.619 51.9766C560.145 52.1693 559.577 52.2656 558.916 52.2656ZM559.424 50.3906C560.07 50.3906 560.622 50.263 561.08 50.0078C561.544 49.7526 561.895 49.4193 562.135 49.0078C562.38 48.5911 562.502 48.1458 562.502 47.6719V46.125C562.419 46.2083 562.257 46.2865 562.018 46.3594C561.783 46.4271 561.515 46.487 561.213 46.5391C560.911 46.5859 560.617 46.6302 560.33 46.6719C560.044 46.7083 559.804 46.7396 559.611 46.7656C559.158 46.8229 558.744 46.9193 558.369 47.0547C557.999 47.1901 557.702 47.3854 557.479 47.6406C557.26 47.8906 557.15 48.224 557.15 48.6406C557.15 49.2187 557.364 49.6562 557.791 49.9531C558.218 50.2448 558.762 50.3906 559.424 50.3906ZM567.949 56.5V40H570.23V41.9453H570.426C570.561 41.6953 570.757 41.4062 571.012 41.0781C571.267 40.75 571.621 40.4635 572.074 40.2187C572.527 39.9688 573.126 39.8438 573.871 39.8438C574.84 39.8438 575.704 40.0885 576.465 40.5781C577.225 41.0677 577.822 41.7734 578.254 42.6953C578.691 43.6172 578.91 44.7266 578.91 46.0234C578.91 47.3203 578.694 48.4323 578.262 49.3594C577.829 50.2812 577.236 50.9922 576.48 51.4922C575.725 51.987 574.863 52.2344 573.895 52.2344C573.165 52.2344 572.569 52.112 572.105 51.8672C571.647 51.6224 571.288 51.3359 571.027 51.0078C570.767 50.6797 570.566 50.388 570.426 50.1328H570.285V56.5H567.949ZM570.238 46C570.238 46.8437 570.361 47.5833 570.605 48.2188C570.85 48.8542 571.204 49.3516 571.668 49.7109C572.132 50.0651 572.699 50.2422 573.371 50.2422C574.069 50.2422 574.652 50.0573 575.121 49.6875C575.59 49.3125 575.944 48.8047 576.184 48.1641C576.428 47.5234 576.551 46.8021 576.551 46C576.551 45.2083 576.431 44.4974 576.191 43.8672C575.957 43.237 575.603 42.7396 575.129 42.375C574.66 42.0104 574.074 41.8281 573.371 41.8281C572.694 41.8281 572.121 42.0026 571.652 42.3516C571.189 42.7005 570.837 43.1875 570.598 43.8125C570.358 44.4375 570.238 45.1667 570.238 46ZM586.699 52.2422C585.517 52.2422 584.499 51.9896 583.645 51.4844C582.796 50.974 582.139 50.2578 581.676 49.3359C581.217 48.4089 580.988 47.3229 580.988 46.0781C580.988 44.849 581.217 43.7656 581.676 42.8281C582.139 41.8906 582.785 41.1589 583.613 40.6328C584.447 40.1068 585.421 39.8438 586.535 39.8438C587.212 39.8438 587.868 39.9557 588.504 40.1797C589.139 40.4036 589.71 40.7552 590.215 41.2344C590.72 41.7135 591.118 42.3359 591.41 43.1016C591.702 43.862 591.848 44.7865 591.848 45.875V46.7031H582.309V44.9531H589.559C589.559 44.3385 589.434 43.7943 589.184 43.3203C588.934 42.8411 588.582 42.4635 588.129 42.1875C587.681 41.9115 587.155 41.7734 586.551 41.7734C585.895 41.7734 585.322 41.9349 584.832 42.2578C584.348 42.5755 583.973 42.9922 583.707 43.5078C583.447 44.0182 583.316 44.5729 583.316 45.1719V46.5391C583.316 47.3411 583.457 48.0234 583.738 48.5859C584.025 49.1484 584.423 49.5781 584.934 49.875C585.444 50.1667 586.04 50.3125 586.723 50.3125C587.165 50.3125 587.569 50.25 587.934 50.125C588.298 49.9948 588.613 49.8021 588.879 49.5469C589.145 49.2917 589.348 48.9766 589.488 48.6016L591.699 49C591.522 49.651 591.204 50.2214 590.746 50.7109C590.293 51.1953 589.723 51.5729 589.035 51.8437C588.353 52.1094 587.574 52.2422 586.699 52.2422ZM596.994 47.3984V47.25C597.005 46.2812 597.101 45.5104 597.283 44.9375C597.471 44.3646 597.736 43.901 598.08 43.5469C598.424 43.1927 598.838 42.8698 599.322 42.5781C599.635 42.3802 599.916 42.1589 600.166 41.9141C600.416 41.6693 600.614 41.388 600.76 41.0703C600.906 40.7526 600.979 40.401 600.979 40.0156C600.979 39.5521 600.869 39.151 600.65 38.8125C600.432 38.474 600.14 38.2135 599.775 38.0312C599.416 37.8437 599.015 37.75 598.572 37.75C598.171 37.75 597.788 37.8333 597.424 38C597.059 38.1667 596.757 38.4271 596.518 38.7812C596.278 39.1302 596.14 39.5807 596.104 40.1328H593.729C593.765 39.1953 594.002 38.4036 594.439 37.7578C594.877 37.1068 595.455 36.6146 596.174 36.2812C596.898 35.9479 597.697 35.7812 598.572 35.7812C599.531 35.7812 600.369 35.9609 601.088 36.3203C601.807 36.6745 602.364 37.1719 602.76 37.8125C603.161 38.4479 603.361 39.1901 603.361 40.0391C603.361 40.6224 603.27 41.1484 603.088 41.6172C602.906 42.0807 602.645 42.4948 602.307 42.8594C601.973 43.224 601.572 43.5469 601.104 43.8281C600.661 44.1042 600.301 44.3906 600.025 44.6875C599.755 44.9844 599.557 45.3359 599.432 45.7422C599.307 46.1484 599.239 46.651 599.229 47.25V47.3984H596.994ZM598.174 52.1484C597.747 52.1484 597.38 51.9974 597.072 51.6953C596.765 51.388 596.611 51.0182 596.611 50.5859C596.611 50.1589 596.765 49.7943 597.072 49.4922C597.38 49.1849 597.747 49.0312 598.174 49.0312C598.596 49.0312 598.96 49.1849 599.268 49.4922C599.58 49.7943 599.736 50.1589 599.736 50.5859C599.736 50.8724 599.663 51.1354 599.518 51.375C599.377 51.6094 599.189 51.7969 598.955 51.9375C598.721 52.0781 598.46 52.1484 598.174 52.1484Z" fill="#231F1C"/>
<path d="M426.83 126.455V133H426.067V126.455H426.83ZM426.548 129.689V130.413C426.29 130.507 426.044 130.587 425.811 130.652C425.578 130.714 425.344 130.763 425.108 130.797C424.875 130.831 424.626 130.848 424.362 130.848C423.626 130.845 423.048 130.656 422.628 130.281C422.21 129.906 422.001 129.335 422.001 128.568V126.433H422.76V128.568C422.76 128.932 422.825 129.229 422.956 129.459C423.087 129.689 423.271 129.859 423.51 129.97C423.749 130.078 424.03 130.132 424.354 130.132C424.751 130.132 425.126 130.092 425.479 130.013C425.831 129.933 426.188 129.825 426.548 129.689ZM428.854 133V126.455H433.81V133H433.047V127.17H429.616V133H428.854Z" fill="#FF7961"/>
<rect x="407.5" y="118.5" width="41" height="21" rx="10.5" stroke="#FF7961"/>
<path d="M471.358 133V132.284H471.562C471.795 132.284 471.983 132.241 472.125 132.156C472.27 132.068 472.382 131.92 472.462 131.713C472.541 131.506 472.601 131.223 472.641 130.865C472.68 130.507 472.712 130.058 472.734 129.518L472.875 126.455H477.034V133H476.271V127.17H473.595L473.472 129.774C473.446 130.305 473.403 130.773 473.344 131.176C473.287 131.58 473.193 131.916 473.062 132.186C472.935 132.456 472.756 132.659 472.526 132.795C472.298 132.932 472 133 471.631 133H471.358ZM481.588 133.136C481.023 133.136 480.523 132.993 480.088 132.706C479.657 132.419 479.319 132.023 479.074 131.517C478.83 131.009 478.708 130.422 478.708 129.757C478.708 129.087 478.83 128.497 479.074 127.989C479.319 127.477 479.657 127.08 480.088 126.795C480.523 126.509 481.023 126.365 481.588 126.365C482.154 126.365 482.652 126.509 483.084 126.795C483.516 127.082 483.854 127.48 484.098 127.989C484.346 128.497 484.469 129.087 484.469 129.757C484.469 130.422 484.347 131.009 484.103 131.517C483.858 132.023 483.519 132.419 483.084 132.706C482.652 132.993 482.154 133.136 481.588 133.136ZM481.588 132.442C482.043 132.442 482.428 132.32 482.743 132.075C483.059 131.831 483.297 131.506 483.459 131.099C483.624 130.693 483.706 130.246 483.706 129.757C483.706 129.268 483.624 128.82 483.459 128.411C483.297 128.001 483.059 127.673 482.743 127.426C482.428 127.179 482.043 127.055 481.588 127.055C481.137 127.055 480.752 127.179 480.434 127.426C480.118 127.673 479.878 128.001 479.713 128.411C479.551 128.82 479.471 129.268 479.471 129.757C479.471 130.246 479.551 130.693 479.713 131.099C479.878 131.506 480.118 131.831 480.434 132.075C480.749 132.32 481.134 132.442 481.588 132.442ZM490.553 129.374V130.089H486.705V129.374H490.553ZM486.893 126.455V133H486.134V126.455H486.893ZM491.112 126.455V133H490.353V126.455H491.112ZM497.021 126.455V127.17H493.889V133H493.13V126.455H497.021ZM498.615 135.455V126.455H499.352V127.703H499.441C499.532 127.507 499.657 127.307 499.816 127.102C499.975 126.895 500.186 126.72 500.447 126.578C500.711 126.436 501.044 126.365 501.444 126.365C501.984 126.365 502.456 126.507 502.859 126.791C503.265 127.072 503.581 127.467 503.805 127.976C504.032 128.482 504.146 129.071 504.146 129.744C504.146 130.42 504.032 131.013 503.805 131.521C503.581 132.03 503.265 132.426 502.859 132.71C502.456 132.994 501.987 133.136 501.453 133.136C501.058 133.136 500.727 133.065 500.46 132.923C500.196 132.781 499.981 132.607 499.816 132.399C499.654 132.189 499.529 131.984 499.441 131.786H499.373V135.455H498.615ZM499.365 129.732C499.365 130.26 499.443 130.729 499.599 131.138C499.758 131.544 499.985 131.864 500.281 132.097C500.579 132.327 500.94 132.442 501.363 132.442C501.798 132.442 502.164 132.322 502.463 132.084C502.764 131.842 502.993 131.517 503.149 131.108C503.308 130.699 503.387 130.24 503.387 129.732C503.387 129.229 503.309 128.776 503.153 128.372C503 127.969 502.772 127.649 502.471 127.413C502.17 127.175 501.801 127.055 501.363 127.055C500.937 127.055 500.575 127.17 500.277 127.401C499.978 127.628 499.751 127.943 499.595 128.347C499.441 128.747 499.365 129.209 499.365 129.732ZM506.569 131.922L510.025 126.455H510.932V133H510.174V127.533L506.73 133H505.81V126.455H506.569V131.922ZM512.159 134.862V132.284H512.726C512.868 132.125 512.992 131.953 513.097 131.768C513.202 131.584 513.293 131.374 513.37 131.138C513.449 130.899 513.516 130.622 513.57 130.307C513.624 129.989 513.669 129.618 513.706 129.195L513.945 126.455H517.819V132.284H518.79V134.862H518.032V133H512.922V134.862H512.159ZM513.6 132.284H517.06V127.17H514.652L514.456 129.195C514.388 129.882 514.292 130.482 514.167 130.993C514.042 131.504 513.853 131.935 513.6 132.284Z" fill="#FF7961"/>
<rect x="457.5" y="118.5" width="76" height="21" rx="10.5" stroke="#FF7961"/>
<path opacity="0.7" d="M274.372 69.8182V80H273.447V70.6534H267.963V80H267.034V69.8182H274.372ZM279.791 80.1591C279.131 80.1591 278.548 79.9917 278.041 79.657C277.537 79.3222 277.142 78.8598 276.857 78.2699C276.572 77.6766 276.43 76.9922 276.43 76.2166C276.43 75.4344 276.572 74.7467 276.857 74.1534C277.142 73.5568 277.537 73.0928 278.041 72.7614C278.548 72.4266 279.131 72.2592 279.791 72.2592C280.45 72.2592 281.032 72.4266 281.536 72.7614C282.039 73.0961 282.434 73.5601 282.719 74.1534C283.007 74.7467 283.151 75.4344 283.151 76.2166C283.151 76.9922 283.009 77.6766 282.724 78.2699C282.439 78.8598 282.043 79.3222 281.536 79.657C281.032 79.9917 280.45 80.1591 279.791 80.1591ZM279.791 79.3487C280.321 79.3487 280.77 79.2062 281.138 78.9212C281.506 78.6361 281.784 78.2566 281.973 77.7827C282.165 77.3087 282.262 76.7867 282.262 76.2166C282.262 75.6465 282.165 75.1229 281.973 74.6456C281.784 74.1683 281.506 73.7855 281.138 73.4972C280.77 73.2088 280.321 73.0646 279.791 73.0646C279.264 73.0646 278.815 73.2088 278.443 73.4972C278.075 73.7855 277.795 74.1683 277.603 74.6456C277.414 75.1229 277.32 75.6465 277.32 76.2166C277.32 76.7867 277.414 77.3087 277.603 77.7827C277.795 78.2566 278.075 78.6361 278.443 78.9212C278.811 79.2062 279.26 79.3487 279.791 79.3487ZM284.189 82.1726V79.1648H284.85C285.016 78.9792 285.16 78.7786 285.283 78.5632C285.406 78.3478 285.512 78.1025 285.601 77.8274C285.694 77.549 285.772 77.2259 285.835 76.858C285.898 76.4867 285.951 76.0542 285.994 75.5604L286.272 72.3636H290.792V79.1648H291.925V82.1726H291.04V80H285.079V82.1726H284.189ZM285.87 79.1648H289.907V73.1989H287.098L286.869 75.5604C286.789 76.3625 286.677 77.0618 286.531 77.6584C286.385 78.255 286.165 78.7571 285.87 79.1648ZM298.151 72.3636V73.1989H294.497V80H293.612V72.3636H298.151ZM302.582 80.1591C301.922 80.1591 301.339 79.9917 300.832 79.657C300.328 79.3222 299.933 78.8598 299.648 78.2699C299.363 77.6766 299.221 76.9922 299.221 76.2166C299.221 75.4344 299.363 74.7467 299.648 74.1534C299.933 73.5568 300.328 73.0928 300.832 72.7614C301.339 72.4266 301.922 72.2592 302.582 72.2592C303.241 72.2592 303.823 72.4266 304.327 72.7614C304.83 73.0961 305.225 73.5601 305.51 74.1534C305.798 74.7467 305.942 75.4344 305.942 76.2166C305.942 76.9922 305.8 77.6766 305.515 78.2699C305.23 78.8598 304.834 79.3222 304.327 79.657C303.823 79.9917 303.241 80.1591 302.582 80.1591ZM302.582 79.3487C303.112 79.3487 303.561 79.2062 303.929 78.9212C304.297 78.6361 304.575 78.2566 304.764 77.7827C304.956 77.3087 305.053 76.7867 305.053 76.2166C305.053 75.6465 304.956 75.1229 304.764 74.6456C304.575 74.1683 304.297 73.7855 303.929 73.4972C303.561 73.2088 303.112 73.0646 302.582 73.0646C302.055 73.0646 301.606 73.2088 301.234 73.4972C300.866 73.7855 300.586 74.1683 300.394 74.6456C300.205 75.1229 300.111 75.6465 300.111 76.2166C300.111 76.7867 300.205 77.3087 300.394 77.7827C300.586 78.2566 300.866 78.6361 301.234 78.9212C301.602 79.2062 302.051 79.3487 302.582 79.3487ZM306.857 73.1989V72.3636H312.823V73.1989H310.298V80H309.413V73.1989H306.857ZM317.265 80.1591C316.606 80.1591 316.022 79.9917 315.515 79.657C315.011 79.3222 314.617 78.8598 314.332 78.2699C314.047 77.6766 313.904 76.9922 313.904 76.2166C313.904 75.4344 314.047 74.7467 314.332 74.1534C314.617 73.5568 315.011 73.0928 315.515 72.7614C316.022 72.4266 316.606 72.2592 317.265 72.2592C317.925 72.2592 318.507 72.4266 319.01 72.7614C319.514 73.0961 319.908 73.5601 320.194 74.1534C320.482 74.7467 320.626 75.4344 320.626 76.2166C320.626 76.9922 320.484 77.6766 320.199 78.2699C319.913 78.8598 319.517 79.3222 319.01 79.657C318.507 79.9917 317.925 80.1591 317.265 80.1591ZM317.265 79.3487C317.796 79.3487 318.245 79.2062 318.613 78.9212C318.98 78.6361 319.259 78.2566 319.448 77.7827C319.64 77.3087 319.736 76.7867 319.736 76.2166C319.736 75.6465 319.64 75.1229 319.448 74.6456C319.259 74.1683 318.98 73.7855 318.613 73.4972C318.245 73.2088 317.796 73.0646 317.265 73.0646C316.738 73.0646 316.289 73.2088 315.918 73.4972C315.55 73.7855 315.27 74.1683 315.078 74.6456C314.889 75.1229 314.794 75.6465 314.794 76.2166C314.794 76.7867 314.889 77.3087 315.078 77.7827C315.27 78.2566 315.55 78.6361 315.918 78.9212C316.286 79.2062 316.735 79.3487 317.265 79.3487ZM322.569 80V72.3636H325.577C326.389 72.3636 327.028 72.5393 327.496 72.8906C327.966 73.242 328.202 73.7159 328.202 74.3125C328.202 74.7666 328.071 75.1295 327.809 75.4013C327.547 75.6731 327.196 75.8653 326.755 75.978C327.05 76.0277 327.323 76.1354 327.575 76.3011C327.83 76.4669 328.037 76.6856 328.197 76.9574C328.356 77.2292 328.435 77.554 328.435 77.9318C328.435 78.3295 328.336 78.6842 328.137 78.9957C327.938 79.3073 327.658 79.5526 327.297 79.7315C326.935 79.9105 326.508 80 326.014 80H322.569ZM323.414 79.1797H326.014C326.481 79.1797 326.851 79.0604 327.123 78.8217C327.394 78.5798 327.53 78.2583 327.53 77.8572C327.53 77.4297 327.401 77.0883 327.143 76.8331C326.887 76.5746 326.544 76.4453 326.113 76.4453H323.414V79.1797ZM323.414 75.6598H325.631C325.976 75.6598 326.274 75.6068 326.526 75.5007C326.778 75.3946 326.972 75.2455 327.108 75.0533C327.247 74.8577 327.315 74.629 327.312 74.3672C327.312 73.9927 327.159 73.7027 326.854 73.4972C326.549 73.2884 326.123 73.1839 325.577 73.1839H323.414V75.6598ZM330.375 80V72.3636H331.26V75.799H332.091L334.929 72.3636H336.073L333.01 76.0376L336.142 80H334.999L332.364 76.6342H331.26V80H330.375ZM339.727 80.174C339.266 80.174 338.845 80.0845 338.464 79.9055C338.083 79.7232 337.78 79.4614 337.554 79.12C337.329 78.7753 337.216 78.3577 337.216 77.8672C337.216 77.4893 337.288 77.1712 337.43 76.9126C337.573 76.6541 337.775 76.442 338.037 76.2763C338.298 76.1106 338.608 75.9796 338.966 75.8835C339.324 75.7874 339.719 75.7128 340.15 75.6598C340.577 75.6068 340.938 75.5604 341.233 75.5206C341.532 75.4808 341.759 75.4179 341.914 75.3317C342.07 75.2455 342.148 75.1063 342.148 74.9141V74.7351C342.148 74.2147 341.992 73.8054 341.681 73.5071C341.373 73.2055 340.928 73.0547 340.348 73.0547C339.798 73.0547 339.349 73.1757 339.001 73.4176C338.656 73.6596 338.414 73.9446 338.275 74.2727L337.435 73.9695C337.607 73.5518 337.846 73.2187 338.151 72.9702C338.456 72.7183 338.797 72.5376 339.175 72.4283C339.553 72.3156 339.936 72.2592 340.324 72.2592C340.615 72.2592 340.918 72.2973 341.233 72.3736C341.551 72.4498 341.846 72.5824 342.118 72.7713C342.39 72.9569 342.61 73.2171 342.779 73.5518C342.949 73.8833 343.033 74.3042 343.033 74.8146V80H342.148V78.7919H342.093C341.987 79.0173 341.83 79.236 341.621 79.4482C341.412 79.6603 341.15 79.8343 340.836 79.9702C340.521 80.1061 340.151 80.174 339.727 80.174ZM339.846 79.3636C340.317 79.3636 340.725 79.2592 341.069 79.0504C341.414 78.8416 341.679 78.5649 341.865 78.2202C342.054 77.8722 342.148 77.4893 342.148 77.0717V75.968C342.082 76.031 341.971 76.0874 341.815 76.1371C341.663 76.1868 341.485 76.2315 341.283 76.2713C341.084 76.3078 340.885 76.3393 340.686 76.3658C340.488 76.3923 340.309 76.4155 340.15 76.4354C339.719 76.4884 339.351 76.5713 339.046 76.6839C338.741 76.7966 338.507 76.9524 338.345 77.1513C338.182 77.3468 338.101 77.5987 338.101 77.907C338.101 78.371 338.267 78.7306 338.598 78.9858C338.93 79.2377 339.346 79.3636 339.846 79.3636ZM346.859 78.608L346.769 79.1399C346.713 79.4979 346.633 79.8923 346.531 80.3232C346.428 80.754 346.322 81.1634 346.212 81.5511C346.103 81.9389 346.009 82.2505 345.929 82.4858H345.248C345.291 82.2604 345.346 81.9737 345.412 81.6257C345.482 81.2777 345.553 80.8916 345.626 80.4673C345.699 80.0464 345.765 79.6122 345.825 79.1648L345.894 78.608H346.859ZM353.149 80V72.3636H358.931V80H358.041V73.1989H354.039V80H353.149ZM360.523 80V79.1648H360.762C361.033 79.1648 361.252 79.1151 361.418 79.0156C361.587 78.9129 361.718 78.7405 361.811 78.4986C361.904 78.2566 361.973 77.9268 362.02 77.5092C362.066 77.0916 362.102 76.5679 362.129 75.9382L362.293 72.3636H367.145V80H366.255V73.1989H363.133L362.989 76.2365C362.959 76.8563 362.909 77.4015 362.84 77.8722C362.774 78.3428 362.664 78.7356 362.512 79.0504C362.363 79.3653 362.154 79.6023 361.885 79.7614C361.62 79.9205 361.272 80 360.841 80H360.523ZM371.623 80.174C371.163 80.174 370.742 80.0845 370.361 79.9055C369.979 79.7232 369.676 79.4614 369.451 79.12C369.225 78.7753 369.113 78.3577 369.113 77.8672C369.113 77.4893 369.184 77.1712 369.327 76.9126C369.469 76.6541 369.671 76.442 369.933 76.2763C370.195 76.1106 370.505 75.9796 370.863 75.8835C371.221 75.7874 371.615 75.7128 372.046 75.6598C372.474 75.6068 372.835 75.5604 373.13 75.5206C373.428 75.4808 373.655 75.4179 373.811 75.3317C373.967 75.2455 374.045 75.1063 374.045 74.9141V74.7351C374.045 74.2147 373.889 73.8054 373.577 73.5071C373.269 73.2055 372.825 73.0547 372.245 73.0547C371.695 73.0547 371.246 73.1757 370.898 73.4176C370.553 73.6596 370.311 73.9446 370.172 74.2727L369.331 73.9695C369.504 73.5518 369.742 73.2187 370.047 72.9702C370.352 72.7183 370.694 72.5376 371.072 72.4283C371.449 72.3156 371.832 72.2592 372.22 72.2592C372.512 72.2592 372.815 72.2973 373.13 72.3736C373.448 72.4498 373.743 72.5824 374.015 72.7713C374.287 72.9569 374.507 73.2171 374.676 73.5518C374.845 73.8833 374.93 74.3042 374.93 74.8146V80H374.045V78.7919H373.99C373.884 79.0173 373.726 79.236 373.518 79.4482C373.309 79.6603 373.047 79.8343 372.732 79.9702C372.417 80.1061 372.048 80.174 371.623 80.174ZM371.743 79.3636C372.213 79.3636 372.621 79.2592 372.966 79.0504C373.31 78.8416 373.576 78.5649 373.761 78.2202C373.95 77.8722 374.045 77.4893 374.045 77.0717V75.968C373.978 76.031 373.867 76.0874 373.711 76.1371C373.559 76.1868 373.382 76.2315 373.18 76.2713C372.981 76.3078 372.782 76.3393 372.583 76.3658C372.384 76.3923 372.205 76.4155 372.046 76.4354C371.615 76.4884 371.247 76.5713 370.942 76.6839C370.637 76.7966 370.404 76.9524 370.241 77.1513C370.079 77.3468 369.998 77.5987 369.998 77.907C369.998 78.371 370.163 78.7306 370.495 78.9858C370.826 79.2377 371.242 79.3636 371.743 79.3636ZM382.439 75.7692V76.6044H377.95V75.7692H382.439ZM378.169 72.3636V80H377.284V72.3636H378.169ZM383.09 72.3636V80H382.205V72.3636H383.09ZM388.478 82.1726V79.1648H389.14C389.305 78.9792 389.449 78.7786 389.572 78.5632C389.695 78.3478 389.801 78.1025 389.89 77.8274C389.983 77.549 390.061 77.2259 390.124 76.858C390.187 76.4867 390.24 76.0542 390.283 75.5604L390.561 72.3636H395.081V79.1648H396.214V82.1726H395.329V80H389.368V82.1726H388.478ZM390.159 79.1648H394.196V73.1989H391.387L391.158 75.5604C391.078 76.3625 390.966 77.0618 390.82 77.6584C390.674 78.255 390.454 78.7571 390.159 79.1648ZM400.988 80.1591C400.276 80.1591 399.659 79.9934 399.139 79.6619C398.618 79.3272 398.216 78.8648 397.931 78.2749C397.649 77.6816 397.508 76.9988 397.508 76.2266C397.508 75.4576 397.649 74.7749 397.931 74.1783C398.216 73.5784 398.608 73.1094 399.109 72.7713C399.613 72.4299 400.194 72.2592 400.854 72.2592C401.268 72.2592 401.668 72.3355 402.052 72.4879C402.436 72.6371 402.781 72.8674 403.086 73.179C403.394 73.4872 403.638 73.8767 403.817 74.3473C403.996 74.8146 404.085 75.3681 404.085 76.0078V76.4453H398.119V75.6648H403.181C403.181 75.1742 403.081 74.7334 402.882 74.3423C402.687 73.9479 402.413 73.6364 402.062 73.4077C401.714 73.179 401.311 73.0646 400.854 73.0646C400.37 73.0646 399.944 73.1939 399.576 73.4524C399.208 73.7109 398.92 74.0523 398.711 74.4766C398.506 74.9008 398.401 75.3648 398.398 75.8686V76.3359C398.398 76.9425 398.502 77.4728 398.711 77.9268C398.923 78.3776 399.223 78.7273 399.611 78.9759C399.999 79.2244 400.458 79.3487 400.988 79.3487C401.349 79.3487 401.666 79.2924 401.938 79.1797C402.213 79.067 402.443 78.9162 402.629 78.7273C402.818 78.535 402.96 78.3246 403.056 78.0959L403.896 78.3693C403.78 78.6908 403.59 78.9875 403.325 79.2592C403.063 79.531 402.735 79.7498 402.34 79.9155C401.949 80.0779 401.499 80.1591 400.988 80.1591ZM406.92 78.7422L410.952 72.3636H412.011V80H411.126V73.6214L407.109 80H406.036V72.3636H406.92V78.7422ZM409.938 69.8182H410.773C410.773 70.2921 410.616 70.6766 410.301 70.9716C409.99 71.2666 409.564 71.4141 409.023 71.4141C408.49 71.4141 408.067 71.2666 407.756 70.9716C407.444 70.6766 407.288 70.2921 407.288 69.8182H408.124C408.124 70.0767 408.193 70.2955 408.332 70.4744C408.475 70.6501 408.705 70.7379 409.023 70.7379C409.342 70.7379 409.574 70.6501 409.719 70.4744C409.865 70.2955 409.938 70.0767 409.938 69.8182ZM417.331 80.1591C416.648 80.1591 416.053 79.9884 415.546 79.647C415.042 79.3056 414.651 78.8383 414.373 78.245C414.094 77.6518 413.955 76.9756 413.955 76.2166C413.955 75.451 414.096 74.7699 414.378 74.1733C414.663 73.5767 415.057 73.1094 415.561 72.7713C416.065 72.4299 416.65 72.2592 417.316 72.2592C417.826 72.2592 418.289 72.3587 418.703 72.5575C419.117 72.7531 419.459 73.0298 419.727 73.3878C419.999 73.7424 420.17 74.1567 420.239 74.6307H419.344C419.252 74.1998 419.028 73.8319 418.673 73.527C418.322 73.2187 417.875 73.0646 417.331 73.0646C416.844 73.0646 416.413 73.1972 416.038 73.4624C415.664 73.7242 415.371 74.0904 415.158 74.5611C414.95 75.0284 414.845 75.5703 414.845 76.1868C414.845 76.8066 414.948 77.3551 415.153 77.8324C415.359 78.3063 415.647 78.6776 416.018 78.946C416.393 79.2145 416.83 79.3487 417.331 79.3487C417.669 79.3487 417.977 79.2857 418.256 79.1598C418.537 79.0305 418.773 78.8482 418.962 78.6129C419.154 78.3776 419.283 78.0975 419.349 77.7727H420.244C420.178 78.2334 420.014 78.6444 419.752 79.0057C419.494 79.3636 419.157 79.6454 418.743 79.8509C418.332 80.0563 417.861 80.1591 417.331 80.1591ZM421.51 73.1989V72.3636H427.475V73.1989H424.95V80H424.065V73.1989H421.51ZM429.346 80V72.3636H432.354C433.166 72.3636 433.806 72.5393 434.273 72.8906C434.744 73.242 434.979 73.7159 434.979 74.3125C434.979 74.7666 434.848 75.1295 434.586 75.4013C434.324 75.6731 433.973 75.8653 433.532 75.978C433.827 76.0277 434.101 76.1354 434.352 76.3011C434.608 76.4669 434.815 76.6856 434.974 76.9574C435.133 77.2292 435.213 77.554 435.213 77.9318C435.213 78.3295 435.113 78.6842 434.914 78.9957C434.715 79.3073 434.435 79.5526 434.074 79.7315C433.713 79.9105 433.285 80 432.791 80H429.346ZM430.191 79.1797H432.791C433.259 79.1797 433.628 79.0604 433.9 78.8217C434.172 78.5798 434.308 78.2583 434.308 77.8572C434.308 77.4297 434.178 77.0883 433.92 76.8331C433.665 76.5746 433.322 76.4453 432.891 76.4453H430.191V79.1797ZM430.191 75.6598H432.409C432.753 75.6598 433.052 75.6068 433.303 75.5007C433.555 75.3946 433.749 75.2455 433.885 75.0533C434.024 74.8577 434.092 74.629 434.089 74.3672C434.089 73.9927 433.936 73.7027 433.632 73.4972C433.327 73.2884 432.901 73.1839 432.354 73.1839H430.191V75.6598ZM438.038 78.7422L442.07 72.3636H443.129V80H442.244V73.6214L438.227 80H437.153V72.3636H438.038V78.7422ZM446.35 78.7422L450.382 72.3636H451.441V80H450.556V73.6214L446.539 80H445.465V72.3636H446.35V78.7422ZM449.368 69.8182H450.203C450.203 70.2921 450.046 70.6766 449.731 70.9716C449.419 71.2666 448.993 71.4141 448.453 71.4141C447.92 71.4141 447.497 71.2666 447.185 70.9716C446.874 70.6766 446.718 70.2921 446.718 69.8182H447.553C447.553 70.0767 447.623 70.2955 447.762 70.4744C447.905 70.6501 448.135 70.7379 448.453 70.7379C448.771 70.7379 449.003 70.6501 449.149 70.4744C449.295 70.2955 449.368 70.0767 449.368 69.8182ZM458.6 78.7422L462.632 72.3636H463.691V80H462.806V73.6214L458.789 80H457.715V72.3636H458.6V78.7422ZM469.965 82.8636V72.3636H470.825V73.8203H470.93C471.036 73.5916 471.182 73.358 471.367 73.1193C471.553 72.8774 471.798 72.6735 472.103 72.5078C472.411 72.3421 472.799 72.2592 473.266 72.2592C473.896 72.2592 474.446 72.425 474.917 72.7564C475.391 73.0845 475.759 73.5452 476.021 74.1385C476.286 74.7285 476.418 75.4162 476.418 76.2017C476.418 76.9905 476.286 77.6816 476.021 78.2749C475.759 78.8681 475.391 79.3305 474.917 79.6619C474.446 79.9934 473.899 80.1591 473.276 80.1591C472.816 80.1591 472.429 80.0762 472.118 79.9105C471.81 79.7448 471.559 79.541 471.367 79.299C471.178 79.0537 471.032 78.8151 470.93 78.5831H470.85V82.8636H469.965ZM470.84 76.1868C470.84 76.8033 470.931 77.3501 471.114 77.8274C471.299 78.3014 471.564 78.6742 471.909 78.946C472.257 79.2145 472.678 79.3487 473.172 79.3487C473.679 79.3487 474.107 79.2095 474.455 78.9311C474.806 78.6494 475.073 78.2699 475.255 77.7926C475.441 77.3153 475.533 76.7801 475.533 76.1868C475.533 75.6001 475.442 75.0715 475.26 74.6009C475.081 74.1302 474.816 73.7573 474.464 73.4822C474.113 73.2038 473.682 73.0646 473.172 73.0646C472.675 73.0646 472.252 73.1989 471.904 73.4673C471.556 73.7325 471.291 74.1004 471.109 74.571C470.93 75.0384 470.84 75.5769 470.84 76.1868ZM481.447 80.1591C480.734 80.1591 480.118 79.9934 479.598 79.6619C479.077 79.3272 478.675 78.8648 478.39 78.2749C478.108 77.6816 477.967 76.9988 477.967 76.2266C477.967 75.4576 478.108 74.7749 478.39 74.1783C478.675 73.5784 479.067 73.1094 479.568 72.7713C480.072 72.4299 480.653 72.2592 481.313 72.2592C481.727 72.2592 482.127 72.3355 482.511 72.4879C482.895 72.6371 483.24 72.8674 483.545 73.179C483.853 73.4872 484.097 73.8767 484.276 74.3473C484.455 74.8146 484.544 75.3681 484.544 76.0078V76.4453H478.578V75.6648H483.64C483.64 75.1742 483.54 74.7334 483.341 74.3423C483.146 73.9479 482.872 73.6364 482.521 73.4077C482.173 73.179 481.77 73.0646 481.313 73.0646C480.829 73.0646 480.403 73.1939 480.035 73.4524C479.667 73.7109 479.379 74.0523 479.17 74.4766C478.965 74.9008 478.86 75.3648 478.857 75.8686V76.3359C478.857 76.9425 478.961 77.4728 479.17 77.9268C479.382 78.3776 479.682 78.7273 480.07 78.9759C480.458 79.2244 480.917 79.3487 481.447 79.3487C481.808 79.3487 482.125 79.2924 482.397 79.1797C482.672 79.067 482.902 78.9162 483.088 78.7273C483.277 78.535 483.419 78.3246 483.515 78.0959L484.355 78.3693C484.239 78.6908 484.049 78.9875 483.784 79.2592C483.522 79.531 483.194 79.7498 482.799 79.9155C482.408 80.0779 481.958 80.1591 481.447 80.1591ZM491.034 72.3636V73.1989H487.379V80H486.494V72.3636H491.034ZM493.509 82.8636C493.334 82.8636 493.17 82.8471 493.017 82.8139C492.865 82.7808 492.744 82.7443 492.654 82.7045L492.893 81.924C493.195 82.0168 493.463 82.05 493.698 82.0234C493.934 82.0002 494.142 81.8942 494.325 81.7053C494.507 81.5196 494.669 81.2346 494.812 80.8501L495.09 80.0746L492.281 72.3636H493.241L495.508 78.8317H495.578L497.845 72.3636H498.804L495.573 81.2081C495.437 81.576 495.269 81.8826 495.07 82.1278C494.872 82.3764 494.641 82.5604 494.379 82.6797C494.121 82.8023 493.831 82.8636 493.509 82.8636ZM499.142 80V79.1648H499.381C499.653 79.1648 499.871 79.1151 500.037 79.0156C500.206 78.9129 500.337 78.7405 500.43 78.4986C500.523 78.2566 500.592 77.9268 500.639 77.5092C500.685 77.0916 500.722 76.5679 500.748 75.9382L500.912 72.3636H505.764V80H504.874V73.1989H501.752L501.608 76.2365C501.578 76.8563 501.529 77.4015 501.459 77.8722C501.393 78.3428 501.283 78.7356 501.131 79.0504C500.982 79.3653 500.773 79.6023 500.504 79.7614C500.239 79.9205 499.891 80 499.46 80H499.142ZM512.703 80V73.1839H510.6C510.054 73.1873 509.638 73.3016 509.353 73.527C509.071 73.7524 508.93 74.0888 508.93 74.5362C508.93 74.9837 509.064 75.3201 509.333 75.5455C509.601 75.7675 509.992 75.8786 510.506 75.8786H512.952V76.7138H510.506C509.979 76.7138 509.532 76.6293 509.164 76.4602C508.799 76.2912 508.521 76.0443 508.328 75.7195C508.136 75.3946 508.04 75.0002 508.04 74.5362C508.04 74.0689 508.138 73.6745 508.333 73.353C508.532 73.0282 508.822 72.7829 509.203 72.6172C509.588 72.4482 510.054 72.3636 510.6 72.3636H513.549V80H512.703ZM507.558 80L509.755 76.2017H510.725L508.527 80H507.558ZM515.903 82.8636V72.3636H516.763V73.8203H516.867C516.973 73.5916 517.119 73.358 517.305 73.1193C517.49 72.8774 517.736 72.6735 518.04 72.5078C518.349 72.3421 518.737 72.2592 519.204 72.2592C519.834 72.2592 520.384 72.425 520.854 72.7564C521.328 73.0845 521.696 73.5452 521.958 74.1385C522.223 74.7285 522.356 75.4162 522.356 76.2017C522.356 76.9905 522.223 77.6816 521.958 78.2749C521.696 78.8681 521.328 79.3305 520.854 79.6619C520.384 79.9934 519.837 80.1591 519.214 80.1591C518.753 80.1591 518.367 80.0762 518.055 79.9105C517.747 79.7448 517.497 79.541 517.305 79.299C517.116 79.0537 516.97 78.8151 516.867 78.5831H516.788V82.8636H515.903ZM516.778 76.1868C516.778 76.8033 516.869 77.3501 517.051 77.8274C517.237 78.3014 517.502 78.6742 517.847 78.946C518.195 79.2145 518.616 79.3487 519.109 79.3487C519.616 79.3487 520.044 79.2095 520.392 78.9311C520.743 78.6494 521.01 78.2699 521.192 77.7926C521.378 77.3153 521.471 76.7801 521.471 76.1868C521.471 75.6001 521.38 75.0715 521.197 74.6009C521.018 74.1302 520.753 73.7573 520.402 73.4822C520.051 73.2038 519.62 73.0646 519.109 73.0646C518.612 73.0646 518.19 73.1989 517.842 73.4673C517.494 73.7325 517.228 74.1004 517.046 74.571C516.867 75.0384 516.778 75.5769 516.778 76.1868ZM529.453 75.7692V76.6044H524.963V75.7692H529.453ZM525.182 72.3636V80H524.297V72.3636H525.182ZM530.104 72.3636V80H529.219V72.3636H530.104ZM533.205 75.3118H535.442C536.301 75.3118 536.964 75.5206 537.431 75.9382C537.898 76.3558 538.132 76.9209 538.132 77.6335C538.132 78.1075 538.026 78.5218 537.814 78.8764C537.605 79.2311 537.3 79.5078 536.899 79.7067C536.498 79.9022 536.012 80 535.442 80H532.469V72.3636H533.359V79.1648H535.442C535.983 79.1648 536.417 79.0355 536.745 78.777C537.076 78.5185 537.242 78.1506 537.242 77.6733C537.242 77.1861 537.076 76.8099 536.745 76.5447C536.417 76.2796 535.983 76.147 535.442 76.147H533.205V75.3118ZM539.42 80V72.3636H540.305V80H539.42ZM545.746 80.1591C545.033 80.1591 544.417 79.9934 543.896 79.6619C543.376 79.3272 542.973 78.8648 542.688 78.2749C542.407 77.6816 542.266 76.9988 542.266 76.2266C542.266 75.4576 542.407 74.7749 542.688 74.1783C542.973 73.5784 543.366 73.1094 543.867 72.7713C544.37 72.4299 544.952 72.2592 545.612 72.2592C546.026 72.2592 546.425 72.3355 546.81 72.4879C547.194 72.6371 547.539 72.8674 547.844 73.179C548.152 73.4872 548.396 73.8767 548.575 74.3473C548.754 74.8146 548.843 75.3681 548.843 76.0078V76.4453H542.877V75.6648H547.938C547.938 75.1742 547.839 74.7334 547.64 74.3423C547.445 73.9479 547.171 73.6364 546.82 73.4077C546.472 73.179 546.069 73.0646 545.612 73.0646C545.128 73.0646 544.702 73.1939 544.334 73.4524C543.966 73.7109 543.678 74.0523 543.469 74.4766C543.263 74.9008 543.159 75.3648 543.156 75.8686V76.3359C543.156 76.9425 543.26 77.4728 543.469 77.9268C543.681 78.3776 543.981 78.7273 544.369 78.9759C544.757 79.2244 545.216 79.3487 545.746 79.3487C546.107 79.3487 546.424 79.2924 546.695 79.1797C546.971 79.067 547.201 78.9162 547.387 78.7273C547.575 78.535 547.718 78.3246 547.814 78.0959L548.654 78.3693C548.538 78.6908 548.348 78.9875 548.083 79.2592C547.821 79.531 547.493 79.7498 547.098 79.9155C546.707 80.0779 546.256 80.1591 545.746 80.1591ZM555.347 82.8636C555.172 82.8636 555.008 82.8471 554.855 82.8139C554.703 82.7808 554.582 82.7443 554.492 82.7045L554.731 81.924C555.032 82.0168 555.301 82.05 555.536 82.0234C555.772 82.0002 555.98 81.8942 556.163 81.7053C556.345 81.5196 556.507 81.2346 556.65 80.8501L556.928 80.0746L554.119 72.3636H555.079L557.346 78.8317H557.415L559.683 72.3636H560.642L557.411 81.2081C557.275 81.576 557.107 81.8826 556.908 82.1278C556.71 82.3764 556.479 82.5604 556.217 82.6797C555.959 82.8023 555.669 82.8636 555.347 82.8636ZM567.774 72.3636V80H566.884V72.3636H567.774ZM567.446 76.1371V76.9822C567.144 77.0916 566.857 77.1844 566.586 77.2607C566.314 77.3336 566.04 77.3899 565.765 77.4297C565.493 77.4695 565.203 77.4893 564.895 77.4893C564.037 77.486 563.362 77.2656 562.872 76.8281C562.385 76.3906 562.141 75.7244 562.141 74.8295V72.3388H563.026V74.8295C563.026 75.2538 563.102 75.6001 563.255 75.8686C563.407 76.1371 563.623 76.3359 563.901 76.4652C564.179 76.5911 564.507 76.6541 564.885 76.6541C565.349 76.6541 565.787 76.6077 566.198 76.5149C566.609 76.4221 567.025 76.2962 567.446 76.1371ZM573.213 80.1591C572.5 80.1591 571.884 79.9934 571.363 79.6619C570.843 79.3272 570.44 78.8648 570.155 78.2749C569.873 77.6816 569.733 76.9988 569.733 76.2266C569.733 75.4576 569.873 74.7749 570.155 74.1783C570.44 73.5784 570.833 73.1094 571.333 72.7713C571.837 72.4299 572.419 72.2592 573.078 72.2592C573.493 72.2592 573.892 72.3355 574.277 72.4879C574.661 72.6371 575.006 72.8674 575.311 73.179C575.619 73.4872 575.863 73.8767 576.042 74.3473C576.221 74.8146 576.31 75.3681 576.31 76.0078V76.4453H570.344V75.6648H575.405C575.405 75.1742 575.306 74.7334 575.107 74.3423C574.911 73.9479 574.638 73.6364 574.287 73.4077C573.939 73.179 573.536 73.0646 573.078 73.0646C572.595 73.0646 572.169 73.1939 571.801 73.4524C571.433 73.7109 571.145 74.0523 570.936 74.4766C570.73 74.9008 570.626 75.3648 570.623 75.8686V76.3359C570.623 76.9425 570.727 77.4728 570.936 77.9268C571.148 78.3776 571.448 78.7273 571.836 78.9759C572.223 79.2244 572.682 79.3487 573.213 79.3487C573.574 79.3487 573.891 79.2924 574.162 79.1797C574.437 79.067 574.668 78.9162 574.853 78.7273C575.042 78.535 575.185 78.3246 575.281 78.0959L576.121 78.3693C576.005 78.6908 575.815 78.9875 575.549 79.2592C575.288 79.531 574.959 79.7498 574.565 79.9155C574.174 80.0779 573.723 80.1591 573.213 80.1591ZM583.416 75.7692V76.6044H578.926V75.7692H583.416ZM579.145 72.3636V80H578.26V72.3636H579.145ZM584.067 72.3636V80H583.182V72.3636H584.067ZM587.307 78.7422L591.339 72.3636H592.398V80H591.513V73.6214L587.496 80H586.422V72.3636H587.307V78.7422ZM599.328 80V73.1839H597.225C596.679 73.1873 596.263 73.3016 595.978 73.527C595.696 73.7524 595.555 74.0888 595.555 74.5362C595.555 74.9837 595.689 75.3201 595.958 75.5455C596.226 75.7675 596.617 75.8786 597.131 75.8786H599.577V76.7138H597.131C596.604 76.7138 596.157 76.6293 595.789 76.4602C595.424 76.2912 595.146 76.0443 594.953 75.7195C594.761 75.3946 594.665 75.0002 594.665 74.5362C594.665 74.0689 594.763 73.6745 594.958 73.353C595.157 73.0282 595.447 72.7829 595.828 72.6172C596.213 72.4482 596.679 72.3636 597.225 72.3636H600.174V80H599.328ZM594.183 80L596.38 76.2017H597.35L595.152 80H594.183ZM619.297 75.2173V76.0526H605.297V75.2173H619.297ZM624.403 80V72.3636H627.411C628.223 72.3636 628.862 72.5393 629.33 72.8906C629.8 73.242 630.036 73.7159 630.036 74.3125C630.036 74.7666 629.905 75.1295 629.643 75.4013C629.381 75.6731 629.03 75.8653 628.589 75.978C628.884 76.0277 629.157 76.1354 629.409 76.3011C629.664 76.4669 629.871 76.6856 630.031 76.9574C630.19 77.2292 630.269 77.554 630.269 77.9318C630.269 78.3295 630.17 78.6842 629.971 78.9957C629.772 79.3073 629.492 79.5526 629.131 79.7315C628.769 79.9105 628.342 80 627.848 80H624.403ZM625.248 79.1797H627.848C628.315 79.1797 628.685 79.0604 628.957 78.8217C629.228 78.5798 629.364 78.2583 629.364 77.8572C629.364 77.4297 629.235 77.0883 628.977 76.8331C628.721 76.5746 628.378 76.4453 627.947 76.4453H625.248V79.1797ZM625.248 75.6598H627.465C627.81 75.6598 628.108 75.6068 628.36 75.5007C628.612 75.3946 628.806 75.2455 628.942 75.0533C629.081 74.8577 629.149 74.629 629.146 74.3672C629.146 73.9927 628.993 73.7027 628.688 73.4972C628.383 73.2884 627.957 73.1839 627.411 73.1839H625.248V75.6598ZM635.297 80.1591C634.584 80.1591 633.968 79.9934 633.447 79.6619C632.927 79.3272 632.524 78.8648 632.239 78.2749C631.957 77.6816 631.817 76.9988 631.817 76.2266C631.817 75.4576 631.957 74.7749 632.239 74.1783C632.524 73.5784 632.917 73.1094 633.417 72.7713C633.921 72.4299 634.503 72.2592 635.162 72.2592C635.577 72.2592 635.976 72.3355 636.361 72.4879C636.745 72.6371 637.09 72.8674 637.395 73.179C637.703 73.4872 637.947 73.8767 638.126 74.3473C638.305 74.8146 638.394 75.3681 638.394 76.0078V76.4453H632.428V75.6648H637.489C637.489 75.1742 637.39 74.7334 637.191 74.3423C636.995 73.9479 636.722 73.6364 636.371 73.4077C636.023 73.179 635.62 73.0646 635.162 73.0646C634.679 73.0646 634.253 73.1939 633.885 73.4524C633.517 73.7109 633.229 74.0523 633.02 74.4766C632.814 74.9008 632.71 75.3648 632.706 75.8686V76.3359C632.706 76.9425 632.811 77.4728 633.02 77.9268C633.232 78.3776 633.532 78.7273 633.92 78.9759C634.307 79.2244 634.766 79.3487 635.297 79.3487C635.658 79.3487 635.974 79.2924 636.246 79.1797C636.521 79.067 636.752 78.9162 636.937 78.7273C637.126 78.535 637.269 78.3246 637.365 78.0959L638.205 78.3693C638.089 78.6908 637.898 78.9875 637.633 79.2592C637.372 79.531 637.043 79.7498 636.649 79.9155C636.258 80.0779 635.807 80.1591 635.297 80.1591ZM640.344 82.8636V72.3636H641.204V73.8203H641.309C641.415 73.5916 641.56 73.358 641.746 73.1193C641.932 72.8774 642.177 72.6735 642.482 72.5078C642.79 72.3421 643.178 72.2592 643.645 72.2592C644.275 72.2592 644.825 72.425 645.296 72.7564C645.77 73.0845 646.138 73.5452 646.4 74.1385C646.665 74.7285 646.797 75.4162 646.797 76.2017C646.797 76.9905 646.665 77.6816 646.4 78.2749C646.138 78.8681 645.77 79.3305 645.296 79.6619C644.825 79.9934 644.278 80.1591 643.655 80.1591C643.194 80.1591 642.808 80.0762 642.497 79.9105C642.189 79.7448 641.938 79.541 641.746 79.299C641.557 79.0537 641.411 78.8151 641.309 78.5831H641.229V82.8636H640.344ZM641.219 76.1868C641.219 76.8033 641.31 77.3501 641.493 77.8274C641.678 78.3014 641.943 78.6742 642.288 78.946C642.636 79.2145 643.057 79.3487 643.551 79.3487C644.058 79.3487 644.485 79.2095 644.833 78.9311C645.185 78.6494 645.452 78.2699 645.634 77.7926C645.819 77.3153 645.912 76.7801 645.912 76.1868C645.912 75.6001 645.821 75.0715 645.639 74.6009C645.46 74.1302 645.195 73.7573 644.843 73.4822C644.492 73.2038 644.061 73.0646 643.551 73.0646C643.054 73.0646 642.631 73.1989 642.283 73.4673C641.935 73.7325 641.67 74.1004 641.488 74.571C641.309 75.0384 641.219 75.5769 641.219 76.1868ZM653.894 75.7692V76.6044H649.405V75.7692H653.894ZM649.624 72.3636V80H648.739V72.3636H649.624ZM654.545 72.3636V80H653.661V72.3636H654.545ZM657.646 75.3118H659.884C660.742 75.3118 661.405 75.5206 661.872 75.9382C662.34 76.3558 662.573 76.9209 662.573 77.6335C662.573 78.1075 662.467 78.5218 662.255 78.8764C662.046 79.2311 661.741 79.5078 661.34 79.7067C660.939 79.9022 660.454 80 659.884 80H656.911V72.3636H657.801V79.1648H659.884C660.424 79.1648 660.858 79.0355 661.186 78.777C661.518 78.5185 661.683 78.1506 661.683 77.6733C661.683 77.1861 661.518 76.8099 661.186 76.5447C660.858 76.2796 660.424 76.147 659.884 76.147H657.646V75.3118ZM663.861 80V72.3636H664.746V80H663.861ZM667.985 78.7422L672.017 72.3636H673.076V80H672.191V73.6214L668.174 80H667.1V72.3636H667.985V78.7422ZM671.003 69.8182H671.838C671.838 70.2921 671.68 70.6766 671.366 70.9716C671.054 71.2666 670.628 71.4141 670.088 71.4141C669.554 71.4141 669.132 71.2666 668.82 70.9716C668.509 70.6766 668.353 70.2921 668.353 69.8182H669.188C669.188 70.0767 669.258 70.2955 669.397 70.4744C669.539 70.6501 669.77 70.7379 670.088 70.7379C670.406 70.7379 670.638 70.6501 670.784 70.4744C670.93 70.2955 671.003 70.0767 671.003 69.8182ZM368.857 100.159C368.175 100.159 367.58 99.9884 367.073 99.647C366.569 99.3056 366.178 98.8383 365.899 98.245C365.621 97.6518 365.482 96.9756 365.482 96.2166C365.482 95.451 365.622 94.7699 365.904 94.1733C366.189 93.5767 366.584 93.1094 367.087 92.7713C367.591 92.4299 368.176 92.2592 368.842 92.2592C369.353 92.2592 369.815 92.3587 370.229 92.5575C370.644 92.7531 370.985 93.0298 371.254 93.3878C371.525 93.7424 371.696 94.1567 371.766 94.6307H370.871C370.778 94.1998 370.554 93.8319 370.2 93.527C369.848 93.2187 369.401 93.0646 368.857 93.0646C368.37 93.0646 367.939 93.1972 367.565 93.4624C367.19 93.7242 366.897 94.0904 366.685 94.5611C366.476 95.0284 366.372 95.5703 366.372 96.1868C366.372 96.8066 366.474 97.3551 366.68 97.8324C366.885 98.3063 367.174 98.6776 367.545 98.946C367.919 99.2145 368.357 99.3487 368.857 99.3487C369.195 99.3487 369.504 99.2857 369.782 99.1598C370.064 99.0305 370.299 98.8482 370.488 98.6129C370.68 98.3776 370.81 98.0975 370.876 97.7727H371.771C371.704 98.2334 371.54 98.6444 371.278 99.0057C371.02 99.3636 370.684 99.6454 370.269 99.8509C369.858 100.056 369.388 100.159 368.857 100.159ZM373.677 100V92.3636H379.459V100H378.569V93.1989H374.567V100H373.677ZM384.77 100.159C384.111 100.159 383.527 99.9917 383.02 99.657C382.516 99.3222 382.122 98.8598 381.837 98.2699C381.552 97.6766 381.409 96.9922 381.409 96.2166C381.409 95.4344 381.552 94.7467 381.837 94.1534C382.122 93.5568 382.516 93.0928 383.02 92.7614C383.527 92.4266 384.111 92.2592 384.77 92.2592C385.43 92.2592 386.011 92.4266 386.515 92.7614C387.019 93.0961 387.413 93.5601 387.698 94.1534C387.987 94.7467 388.131 95.4344 388.131 96.2166C388.131 96.9922 387.988 97.6766 387.703 98.2699C387.418 98.8598 387.022 99.3222 386.515 99.657C386.011 99.9917 385.43 100.159 384.77 100.159ZM384.77 99.3487C385.3 99.3487 385.75 99.2062 386.117 98.9212C386.485 98.6361 386.764 98.2566 386.953 97.7827C387.145 97.3087 387.241 96.7867 387.241 96.2166C387.241 95.6465 387.145 95.1229 386.953 94.6456C386.764 94.1683 386.485 93.7855 386.117 93.4972C385.75 93.2088 385.3 93.0646 384.77 93.0646C384.243 93.0646 383.794 93.2088 383.423 93.4972C383.055 93.7855 382.775 94.1683 382.583 94.6456C382.394 95.1229 382.299 95.6465 382.299 96.2166C382.299 96.7867 382.394 97.3087 382.583 97.7827C382.775 98.2566 383.055 98.6361 383.423 98.9212C383.791 99.2062 384.24 99.3487 384.77 99.3487ZM393.057 100.159C392.374 100.159 391.779 99.9884 391.272 99.647C390.768 99.3056 390.377 98.8383 390.098 98.245C389.82 97.6518 389.681 96.9756 389.681 96.2166C389.681 95.451 389.822 94.7699 390.103 94.1733C390.388 93.5767 390.783 93.1094 391.287 92.7713C391.79 92.4299 392.375 92.2592 393.042 92.2592C393.552 92.2592 394.014 92.3587 394.429 92.5575C394.843 92.7531 395.184 93.0298 395.453 93.3878C395.725 93.7424 395.895 94.1567 395.965 94.6307H395.07C394.977 94.1998 394.754 93.8319 394.399 93.527C394.048 93.2187 393.6 93.0646 393.057 93.0646C392.569 93.0646 392.138 93.1972 391.764 93.4624C391.389 93.7242 391.096 94.0904 390.884 94.5611C390.675 95.0284 390.571 95.5703 390.571 96.1868C390.571 96.8066 390.674 97.3551 390.879 97.8324C391.084 98.3063 391.373 98.6776 391.744 98.946C392.119 99.2145 392.556 99.3487 393.057 99.3487C393.395 99.3487 393.703 99.2857 393.981 99.1598C394.263 99.0305 394.498 98.8482 394.687 98.6129C394.879 98.3776 395.009 98.0975 395.075 97.7727H395.97C395.904 98.2334 395.74 98.6444 395.478 99.0057C395.219 99.3636 394.883 99.6454 394.468 99.8509C394.057 100.056 393.587 100.159 393.057 100.159ZM400.835 100.159C400.175 100.159 399.592 99.9917 399.085 99.657C398.581 99.3222 398.186 98.8598 397.901 98.2699C397.616 97.6766 397.474 96.9922 397.474 96.2166C397.474 95.4344 397.616 94.7467 397.901 94.1534C398.186 93.5568 398.581 93.0928 399.085 92.7614C399.592 92.4266 400.175 92.2592 400.835 92.2592C401.494 92.2592 402.076 92.4266 402.58 92.7614C403.083 93.0961 403.478 93.5601 403.763 94.1534C404.051 94.7467 404.195 95.4344 404.195 96.2166C404.195 96.9922 404.053 97.6766 403.768 98.2699C403.483 98.8598 403.087 99.3222 402.58 99.657C402.076 99.9917 401.494 100.159 400.835 100.159ZM400.835 99.3487C401.365 99.3487 401.814 99.2062 402.182 98.9212C402.55 98.6361 402.828 98.2566 403.017 97.7827C403.209 97.3087 403.305 96.7867 403.305 96.2166C403.305 95.6465 403.209 95.1229 403.017 94.6456C402.828 94.1683 402.55 93.7855 402.182 93.4972C401.814 93.2088 401.365 93.0646 400.835 93.0646C400.308 93.0646 399.859 93.2088 399.487 93.4972C399.119 93.7855 398.839 94.1683 398.647 94.6456C398.458 95.1229 398.364 95.6465 398.364 96.2166C398.364 96.7867 398.458 97.3087 398.647 97.7827C398.839 98.2566 399.119 98.6361 399.487 98.9212C399.855 99.2062 400.304 99.3487 400.835 99.3487ZM411.637 89.5L412.099 90.0618C411.89 90.264 411.64 90.4032 411.348 90.4794C411.06 90.5523 410.737 90.5937 410.379 90.6037C410.024 90.6136 409.641 90.6286 409.23 90.6484C408.64 90.6783 408.155 90.8324 407.774 91.1108C407.393 91.3859 407.103 91.7836 406.904 92.304C406.708 92.821 406.585 93.4524 406.536 94.1982H406.635C406.89 93.6778 407.25 93.2817 407.714 93.0099C408.181 92.7382 408.695 92.6023 409.255 92.6023C409.842 92.6023 410.369 92.7464 410.836 93.0348C411.307 93.3198 411.678 93.7391 411.95 94.2926C412.225 94.8428 412.362 95.514 412.362 96.3061C412.362 97.0883 412.225 97.7694 411.95 98.3494C411.675 98.9261 411.29 99.3719 410.796 99.6868C410.303 100.002 409.724 100.159 409.061 100.159C408.395 100.159 407.812 100.003 407.311 99.6918C406.814 99.3769 406.428 98.9145 406.153 98.3047C405.881 97.6915 405.745 96.9375 405.745 96.0426V95.2422C405.745 93.4624 406.027 92.1233 406.59 91.2251C407.154 90.3269 408.021 89.858 409.191 89.8182C409.568 89.8049 409.911 89.8016 410.22 89.8082C410.528 89.8116 410.8 89.7966 411.035 89.7635C411.27 89.727 411.471 89.6392 411.637 89.5ZM409.061 99.3487C409.555 99.3487 409.983 99.2244 410.344 98.9759C410.705 98.724 410.984 98.3693 411.179 97.9119C411.378 97.4545 411.478 96.9193 411.478 96.3061C411.478 95.6963 411.376 95.1759 411.174 94.745C410.975 94.3142 410.697 93.9844 410.339 93.7557C409.981 93.527 409.562 93.4126 409.081 93.4126C408.703 93.4126 408.364 93.4856 408.062 93.6314C407.764 93.7739 407.509 93.9777 407.296 94.2429C407.084 94.508 406.922 94.8196 406.809 95.1776C406.697 95.5355 406.639 95.9283 406.635 96.3558C406.635 97.2805 406.851 98.0114 407.282 98.5483C407.716 99.0819 408.309 99.3487 409.061 99.3487ZM421.221 100.159C420.538 100.159 419.943 99.9884 419.436 99.647C418.932 99.3056 418.541 98.8383 418.263 98.245C417.984 97.6518 417.845 96.9756 417.845 96.2166C417.845 95.451 417.986 94.7699 418.267 94.1733C418.553 93.5767 418.947 93.1094 419.451 92.7713C419.955 92.4299 420.54 92.2592 421.206 92.2592C421.716 92.2592 422.178 92.3587 422.593 92.5575C423.007 92.7531 423.348 93.0298 423.617 93.3878C423.889 93.7424 424.059 94.1567 424.129 94.6307H423.234C423.141 94.1998 422.918 93.8319 422.563 93.527C422.212 93.2187 421.764 93.0646 421.221 93.0646C420.733 93.0646 420.303 93.1972 419.928 93.4624C419.553 93.7242 419.26 94.0904 419.048 94.5611C418.839 95.0284 418.735 95.5703 418.735 96.1868C418.735 96.8066 418.838 97.3551 419.043 97.8324C419.249 98.3063 419.537 98.6776 419.908 98.946C420.283 99.2145 420.72 99.3487 421.221 99.3487C421.559 99.3487 421.867 99.2857 422.145 99.1598C422.427 99.0305 422.662 98.8482 422.851 98.6129C423.044 98.3776 423.173 98.0975 423.239 97.7727H424.134C424.068 98.2334 423.904 98.6444 423.642 99.0057C423.383 99.3636 423.047 99.6454 422.633 99.8509C422.222 100.056 421.751 100.159 421.221 100.159ZM426.041 100V92.3636H431.823V100H430.933V93.1989H426.93V100H426.041ZM436.298 100.174C435.838 100.174 435.417 100.085 435.035 99.9055C434.654 99.7232 434.351 99.4614 434.126 99.12C433.9 98.7753 433.788 98.3577 433.788 97.8672C433.788 97.4893 433.859 97.1712 434.001 96.9126C434.144 96.6541 434.346 96.442 434.608 96.2763C434.87 96.1106 435.18 95.9796 435.538 95.8835C435.896 95.7874 436.29 95.7128 436.721 95.6598C437.148 95.6068 437.51 95.5604 437.805 95.5206C438.103 95.4808 438.33 95.4179 438.486 95.3317C438.641 95.2455 438.719 95.1063 438.719 94.9141V94.7351C438.719 94.2147 438.564 93.8054 438.252 93.5071C437.944 93.2055 437.5 93.0547 436.92 93.0547C436.369 93.0547 435.92 93.1757 435.572 93.4176C435.228 93.6596 434.986 93.9446 434.847 94.2727L434.006 93.9695C434.179 93.5518 434.417 93.2187 434.722 92.9702C435.027 92.7183 435.369 92.5376 435.746 92.4283C436.124 92.3156 436.507 92.2592 436.895 92.2592C437.186 92.2592 437.49 92.2973 437.805 92.3736C438.123 92.4498 438.418 92.5824 438.69 92.7713C438.961 92.9569 439.182 93.2171 439.351 93.5518C439.52 93.8833 439.604 94.3042 439.604 94.8146V100H438.719V98.7919H438.665C438.559 99.0173 438.401 99.236 438.192 99.4482C437.984 99.6603 437.722 99.8343 437.407 99.9702C437.092 100.106 436.722 100.174 436.298 100.174ZM436.418 99.3636C436.888 99.3636 437.296 99.2592 437.641 99.0504C437.985 98.8416 438.25 98.5649 438.436 98.2202C438.625 97.8722 438.719 97.4893 438.719 97.0717V95.968C438.653 96.031 438.542 96.0874 438.386 96.1371C438.234 96.1868 438.056 96.2315 437.854 96.2713C437.655 96.3078 437.457 96.3393 437.258 96.3658C437.059 96.3923 436.88 96.4155 436.721 96.4354C436.29 96.4884 435.922 96.5713 435.617 96.6839C435.312 96.7966 435.079 96.9524 434.916 97.1513C434.754 97.3468 434.672 97.5987 434.672 97.907C434.672 98.371 434.838 98.7306 435.17 98.9858C435.501 99.2377 435.917 99.3636 436.418 99.3636ZM444.941 100.159C444.259 100.159 443.664 99.9884 443.157 99.647C442.653 99.3056 442.262 98.8383 441.983 98.245C441.705 97.6518 441.566 96.9756 441.566 96.2166C441.566 95.451 441.706 94.7699 441.988 94.1733C442.273 93.5767 442.668 93.1094 443.171 92.7713C443.675 92.4299 444.26 92.2592 444.926 92.2592C445.437 92.2592 445.899 92.3587 446.313 92.5575C446.728 92.7531 447.069 93.0298 447.338 93.3878C447.609 93.7424 447.78 94.1567 447.85 94.6307H446.955C446.862 94.1998 446.638 93.8319 446.284 93.527C445.932 93.2187 445.485 93.0646 444.941 93.0646C444.454 93.0646 444.023 93.1972 443.649 93.4624C443.274 93.7242 442.981 94.0904 442.769 94.5611C442.56 95.0284 442.456 95.5703 442.456 96.1868C442.456 96.8066 442.558 97.3551 442.764 97.8324C442.969 98.3063 443.258 98.6776 443.629 98.946C444.003 99.2145 444.441 99.3487 444.941 99.3487C445.279 99.3487 445.588 99.2857 445.866 99.1598C446.148 99.0305 446.383 98.8482 446.572 98.6129C446.764 98.3776 446.893 98.0975 446.96 97.7727H447.855C447.788 98.2334 447.624 98.6444 447.362 99.0057C447.104 99.3636 446.768 99.6454 446.353 99.8509C445.942 100.056 445.472 100.159 444.941 100.159ZM449.12 93.1989V92.3636H455.086V93.1989H452.56V100H451.675V93.1989H449.12ZM457.841 98.7422L461.873 92.3636H462.932V100H462.047V93.6214L458.03 100H456.956V92.3636H457.841V98.7422ZM468.252 100.159C467.569 100.159 466.974 99.9884 466.467 99.647C465.963 99.3056 465.572 98.8383 465.294 98.245C465.015 97.6518 464.876 96.9756 464.876 96.2166C464.876 95.451 465.017 94.7699 465.299 94.1733C465.584 93.5767 465.978 93.1094 466.482 92.7713C466.986 92.4299 467.571 92.2592 468.237 92.2592C468.747 92.2592 469.21 92.3587 469.624 92.5575C470.038 92.7531 470.38 93.0298 470.648 93.3878C470.92 93.7424 471.091 94.1567 471.16 94.6307H470.265C470.173 94.1998 469.949 93.8319 469.594 93.527C469.243 93.2187 468.795 93.0646 468.252 93.0646C467.765 93.0646 467.334 93.1972 466.959 93.4624C466.585 93.7242 466.291 94.0904 466.079 94.5611C465.87 95.0284 465.766 95.5703 465.766 96.1868C465.766 96.8066 465.869 97.3551 466.074 97.8324C466.28 98.3063 466.568 98.6776 466.939 98.946C467.314 99.2145 467.751 99.3487 468.252 99.3487C468.59 99.3487 468.898 99.2857 469.177 99.1598C469.458 99.0305 469.694 98.8482 469.883 98.6129C470.075 98.3776 470.204 98.0975 470.27 97.7727H471.165C471.099 98.2334 470.935 98.6444 470.673 99.0057C470.415 99.3636 470.078 99.6454 469.664 99.8509C469.253 100.056 468.782 100.159 468.252 100.159ZM473.798 95.3118H476.03C476.888 95.3118 477.551 95.5206 478.019 95.9382C478.486 96.3558 478.72 96.9209 478.72 97.6335C478.72 98.1075 478.615 98.5218 478.406 98.8764C478.198 99.2311 477.893 99.5078 477.492 99.7067C477.091 99.9022 476.603 100 476.03 100H473.062V92.3636H473.947V99.1648H476.03C476.57 99.1648 477.006 99.0355 477.337 98.777C477.669 98.5185 477.835 98.1506 477.835 97.6733C477.835 97.1861 477.669 96.8099 477.337 96.5447C477.006 96.2796 476.57 96.147 476.03 96.147H473.798V95.3118ZM484.611 100V92.3636H490.393V100H489.503V93.1989H485.501V100H484.611ZM492.736 102.864V92.3636H493.596V93.8203H493.7C493.806 93.5916 493.952 93.358 494.138 93.1193C494.323 92.8774 494.569 92.6735 494.873 92.5078C495.182 92.3421 495.57 92.2592 496.037 92.2592C496.667 92.2592 497.217 92.425 497.687 92.7564C498.161 93.0845 498.529 93.5452 498.791 94.1385C499.056 94.7285 499.189 95.4162 499.189 96.2017C499.189 96.9905 499.056 97.6816 498.791 98.2749C498.529 98.8681 498.161 99.3305 497.687 99.6619C497.217 99.9934 496.67 100.159 496.047 100.159C495.586 100.159 495.2 100.076 494.888 99.9105C494.58 99.7448 494.33 99.541 494.138 99.299C493.949 99.0537 493.803 98.8151 493.7 98.5831H493.621V102.864H492.736ZM493.611 96.1868C493.611 96.8033 493.702 97.3501 493.884 97.8274C494.07 98.3014 494.335 98.6742 494.68 98.946C495.028 99.2145 495.449 99.3487 495.942 99.3487C496.449 99.3487 496.877 99.2095 497.225 98.9311C497.576 98.6494 497.843 98.2699 498.025 97.7926C498.211 97.3153 498.304 96.7801 498.304 96.1868C498.304 95.6001 498.213 95.0715 498.03 94.6009C497.851 94.1302 497.586 93.7573 497.235 93.4822C496.884 93.2038 496.453 93.0646 495.942 93.0646C495.445 93.0646 495.023 93.1989 494.675 93.4673C494.327 93.7325 494.061 94.1004 493.879 94.571C493.7 95.0384 493.611 95.5769 493.611 96.1868ZM502.015 98.7422L506.047 92.3636H507.106V100H506.221V93.6214L502.204 100H501.13V92.3636H502.015V98.7422ZM513.39 100V92.3636H519.172V100H518.282V93.1989H514.28V100H513.39ZM524.483 100.159C523.823 100.159 523.24 99.9917 522.733 99.657C522.229 99.3222 521.835 98.8598 521.55 98.2699C521.265 97.6766 521.122 96.9922 521.122 96.2166C521.122 95.4344 521.265 94.7467 521.55 94.1534C521.835 93.5568 522.229 93.0928 522.733 92.7614C523.24 92.4266 523.823 92.2592 524.483 92.2592C525.143 92.2592 525.724 92.4266 526.228 92.7614C526.732 93.0961 527.126 93.5601 527.411 94.1534C527.7 94.7467 527.844 95.4344 527.844 96.2166C527.844 96.9922 527.701 97.6766 527.416 98.2699C527.131 98.8598 526.735 99.3222 526.228 99.657C525.724 99.9917 525.143 100.159 524.483 100.159ZM524.483 99.3487C525.013 99.3487 525.462 99.2062 525.83 98.9212C526.198 98.6361 526.477 98.2566 526.666 97.7827C526.858 97.3087 526.954 96.7867 526.954 96.2166C526.954 95.6465 526.858 95.1229 526.666 94.6456C526.477 94.1683 526.198 93.7855 525.83 93.4972C525.462 93.2088 525.013 93.0646 524.483 93.0646C523.956 93.0646 523.507 93.2088 523.136 93.4972C522.768 93.7855 522.488 94.1683 522.296 94.6456C522.107 95.1229 522.012 95.6465 522.012 96.2166C522.012 96.7867 522.107 97.3087 522.296 97.7827C522.488 98.2566 522.768 98.6361 523.136 98.9212C523.504 99.2062 523.953 99.3487 524.483 99.3487ZM528.995 100L532.366 96.142L529.04 92.3636H530.118L533.047 95.7592H533.559V92.3636H534.449V95.7592H534.951L537.879 92.3636H538.958L535.642 96.142L539.003 100H537.909L534.936 96.5945H534.449V100H533.559V96.5945H533.071L530.089 100H528.995ZM542.994 100.174C542.533 100.174 542.112 100.085 541.731 99.9055C541.35 99.7232 541.046 99.4614 540.821 99.12C540.596 98.7753 540.483 98.3577 540.483 97.8672C540.483 97.4893 540.554 97.1712 540.697 96.9126C540.839 96.6541 541.041 96.442 541.303 96.2763C541.565 96.1106 541.875 95.9796 542.233 95.8835C542.591 95.7874 542.985 95.7128 543.416 95.6598C543.844 95.6068 544.205 95.5604 544.5 95.5206C544.798 95.4808 545.025 95.4179 545.181 95.3317C545.337 95.2455 545.415 95.1063 545.415 94.9141V94.7351C545.415 94.2147 545.259 93.8054 544.947 93.5071C544.639 93.2055 544.195 93.0547 543.615 93.0547C543.065 93.0547 542.616 93.1757 542.268 93.4176C541.923 93.6596 541.681 93.9446 541.542 94.2727L540.702 93.9695C540.874 93.5518 541.113 93.2187 541.418 92.9702C541.722 92.7183 542.064 92.5376 542.442 92.4283C542.82 92.3156 543.202 92.2592 543.59 92.2592C543.882 92.2592 544.185 92.2973 544.5 92.3736C544.818 92.4498 545.113 92.5824 545.385 92.7713C545.657 92.9569 545.877 93.2171 546.046 93.5518C546.215 93.8833 546.3 94.3042 546.3 94.8146V100H545.415V98.7919H545.36C545.254 99.0173 545.097 99.236 544.888 99.4482C544.679 99.6603 544.417 99.8343 544.102 99.9702C543.787 100.106 543.418 100.174 542.994 100.174ZM543.113 99.3636C543.583 99.3636 543.991 99.2592 544.336 99.0504C544.681 98.8416 544.946 98.5649 545.131 98.2202C545.32 97.8722 545.415 97.4893 545.415 97.0717V95.968C545.348 96.031 545.237 96.0874 545.082 96.1371C544.929 96.1868 544.752 96.2315 544.55 96.2713C544.351 96.3078 544.152 96.3393 543.953 96.3658C543.754 96.3923 543.575 96.4155 543.416 96.4354C542.985 96.4884 542.617 96.5713 542.312 96.6839C542.007 96.7966 541.774 96.9524 541.611 97.1513C541.449 97.3468 541.368 97.5987 541.368 97.907C541.368 98.371 541.534 98.7306 541.865 98.9858C542.196 99.2377 542.612 99.3636 543.113 99.3636ZM548.654 102.864V92.3636H549.514V93.8203H549.618C549.724 93.5916 549.87 93.358 550.056 93.1193C550.241 92.8774 550.487 92.6735 550.791 92.5078C551.1 92.3421 551.487 92.2592 551.955 92.2592C552.585 92.2592 553.135 92.425 553.605 92.7564C554.079 93.0845 554.447 93.5452 554.709 94.1385C554.974 94.7285 555.107 95.4162 555.107 96.2017C555.107 96.9905 554.974 97.6816 554.709 98.2749C554.447 98.8681 554.079 99.3305 553.605 99.6619C553.135 99.9934 552.588 100.159 551.965 100.159C551.504 100.159 551.118 100.076 550.806 99.9105C550.498 99.7448 550.248 99.541 550.056 99.299C549.867 99.0537 549.721 98.8151 549.618 98.5831H549.539V102.864H548.654ZM549.529 96.1868C549.529 96.8033 549.62 97.3501 549.802 97.8274C549.988 98.3014 550.253 98.6742 550.598 98.946C550.946 99.2145 551.367 99.3487 551.86 99.3487C552.367 99.3487 552.795 99.2095 553.143 98.9311C553.494 98.6494 553.761 98.2699 553.943 97.7926C554.129 97.3153 554.222 96.7801 554.222 96.1868C554.222 95.6001 554.131 95.0715 553.948 94.6009C553.769 94.1302 553.504 93.7573 553.153 93.4822C552.802 93.2038 552.371 93.0646 551.86 93.0646C551.363 93.0646 550.941 93.1989 550.593 93.4673C550.245 93.7325 549.979 94.1004 549.797 94.571C549.618 95.0384 549.529 95.5769 549.529 96.1868ZM560.136 100.159C559.423 100.159 558.806 99.9934 558.286 99.6619C557.766 99.3272 557.363 98.8648 557.078 98.2749C556.796 97.6816 556.655 96.9988 556.655 96.2266C556.655 95.4576 556.796 94.7749 557.078 94.1783C557.363 93.5784 557.756 93.1094 558.256 92.7713C558.76 92.4299 559.342 92.2592 560.001 92.2592C560.416 92.2592 560.815 92.3355 561.199 92.4879C561.584 92.6371 561.929 92.8674 562.234 93.179C562.542 93.4872 562.785 93.8767 562.964 94.3473C563.143 94.8146 563.233 95.3681 563.233 96.0078V96.4453H557.267V95.6648H562.328C562.328 95.1742 562.229 94.7334 562.03 94.3423C561.834 93.9479 561.561 93.6364 561.209 93.4077C560.861 93.179 560.459 93.0646 560.001 93.0646C559.517 93.0646 559.092 93.1939 558.724 93.4524C558.356 93.7109 558.067 94.0523 557.859 94.4766C557.653 94.9008 557.549 95.3648 557.545 95.8686V96.3359C557.545 96.9425 557.65 97.4728 557.859 97.9268C558.071 98.3776 558.371 98.7273 558.758 98.9759C559.146 99.2244 559.605 99.3487 560.136 99.3487C560.497 99.3487 560.813 99.2924 561.085 99.1797C561.36 99.067 561.591 98.9162 561.776 98.7273C561.965 98.535 562.108 98.3246 562.204 98.0959L563.044 98.3693C562.928 98.6908 562.737 98.9875 562.472 99.2592C562.21 99.531 561.882 99.7498 561.488 99.9155C561.097 100.078 560.646 100.159 560.136 100.159ZM565.889 100.075C565.693 100.075 565.524 100.005 565.382 99.8658C565.243 99.7232 565.173 99.5542 565.173 99.3587C565.173 99.1598 565.243 98.9908 565.382 98.8516C565.524 98.7124 565.693 98.6428 565.889 98.6428C566.088 98.6428 566.257 98.7124 566.396 98.8516C566.535 98.9908 566.605 99.1598 566.605 99.3587C566.605 99.4879 566.572 99.6072 566.505 99.7166C566.442 99.826 566.356 99.9138 566.247 99.9801C566.141 100.043 566.022 100.075 565.889 100.075ZM569.649 100.075C569.453 100.075 569.284 100.005 569.142 99.8658C569.002 99.7232 568.933 99.5542 568.933 99.3587C568.933 99.1598 569.002 98.9908 569.142 98.8516C569.284 98.7124 569.453 98.6428 569.649 98.6428C569.848 98.6428 570.017 98.7124 570.156 98.8516C570.295 98.9908 570.365 99.1598 570.365 99.3587C570.365 99.4879 570.331 99.6072 570.265 99.7166C570.202 99.826 570.116 99.9138 570.007 99.9801C569.901 100.043 569.781 100.075 569.649 100.075ZM573.408 100.075C573.213 100.075 573.044 100.005 572.901 99.8658C572.762 99.7232 572.693 99.5542 572.693 99.3587C572.693 99.1598 572.762 98.9908 572.901 98.8516C573.044 98.7124 573.213 98.6428 573.408 98.6428C573.607 98.6428 573.776 98.7124 573.916 98.8516C574.055 98.9908 574.124 99.1598 574.124 99.3587C574.124 99.4879 574.091 99.6072 574.025 99.7166C573.962 99.826 573.876 99.9138 573.766 99.9801C573.66 100.043 573.541 100.075 573.408 100.075Z" fill="#231F1C"/>
</svg>
