<svg width="91" height="90" viewBox="0 0 91 90" fill="none" xmlns="http://www.w3.org/2000/svg">
<rect x="0.998535" width="89.9995" height="89.9995" rx="44.9998" fill="#3C65F7"/>
<g clip-path="url(#clip0_2664_2476)">
<path fill-rule="evenodd" clip-rule="evenodd" d="M54.0469 33.1662H67.7844V29.2322H54.0469V33.1662ZM60.8185 41.0671C57.754 41.0671 55.4266 42.9656 55.2025 46.4736H66.1969C65.4517 42.3103 63.6022 41.0671 60.8185 41.0671ZM61.2478 57.3382C64.0774 57.3382 66.1537 55.5508 66.5776 54.0449H72.5283C70.8273 59.491 67.3146 62.5496 61.0075 62.5496C52.9588 62.5496 48.4417 56.8251 48.4417 49.229C48.4417 31.3403 74.2536 30.6989 72.9576 50.8993H55.2025C55.3753 55.0013 57.0682 57.3382 61.2478 57.3382ZM34.4693 56.5511C37.7174 56.5511 39.9908 55.3017 39.9908 51.9303C39.9908 48.4334 37.982 46.9166 34.6097 46.9166H26.472V56.5511H34.4693ZM34.04 41.6577C36.7427 41.6577 38.6084 40.3996 38.6084 37.4772C38.6084 34.3986 36.4376 33.4483 33.4703 33.4483H26.472V41.6577H34.04ZM34.9931 27.4498C41.3948 27.4498 45.8444 29.5658 45.8444 36.1496C45.8444 39.4095 44.5349 41.8388 41.2274 43.4757C45.461 44.7333 47.4644 48.0356 47.4644 52.3746C47.4644 59.2624 42.0023 62.5496 35.4683 62.5496H18.9984V27.4498H34.9931Z" fill="#F7F2EC"/>
</g>
<defs>
<clipPath id="clip0_2664_2476">
<rect width="53.9997" height="53.9997" fill="white" transform="translate(18.9984 17.9999)"/>
</clipPath>
</defs>
</svg>
