<svg width="114" height="518" viewBox="0 0 114 518" fill="none" xmlns="http://www.w3.org/2000/svg">
<g filter="url(#filter0_f_1866_9942)">
<path d="M110 6C111.105 6 112 5.10457 112 4C112 2.89543 111.105 2 110 2L110 6ZM44.2391 31.2391L45.6533 32.6533L45.6533 32.6533L44.2391 31.2391ZM17 97L15 97V97H17ZM15.5858 514.914C16.3668 515.695 17.6332 515.695 18.4142 514.914L31.1421 502.186C31.9232 501.405 31.9232 500.139 31.1421 499.358C30.3611 498.577 29.0948 498.577 28.3137 499.358L17 510.672L5.68629 499.358C4.90524 498.577 3.63891 498.577 2.85786 499.358C2.07682 500.139 2.07682 501.405 2.85786 502.186L15.5858 514.914ZM110 2C84.8044 2 60.6408 12.0089 42.8249 29.8249L45.6533 32.6533C62.7191 15.5875 85.8653 6 110 6L110 2ZM42.8249 29.8249C25.0089 47.6408 15 71.8044 15 97L19 97C19 72.8653 28.5875 49.7191 45.6533 32.6533L42.8249 29.8249ZM15 97L15 513.5H19L19 97H15Z" fill="#3C65F7"/>
</g>
<defs>
<filter id="filter0_f_1866_9942" x="0.273438" y="0" width="113.727" height="517.5" filterUnits="userSpaceOnUse" color-interpolation-filters="sRGB">
<feFlood flood-opacity="0" result="BackgroundImageFix"/>
<feBlend mode="normal" in="SourceGraphic" in2="BackgroundImageFix" result="shape"/>
<feGaussianBlur stdDeviation="1" result="effect1_foregroundBlur_1866_9942"/>
</filter>
</defs>
</svg>
