<svg width="39" height="46" viewBox="0 0 39 46" fill="none" xmlns="http://www.w3.org/2000/svg">
<path d="M13.1334 14.0743C13.2023 14.5735 13.2719 15.2291 13.3852 15.872C13.5644 16.8959 13.7527 17.9188 13.9739 18.929C14.1951 19.9373 14.4638 20.929 14.7103 21.9285C14.9454 22.881 15.1712 23.8375 15.4169 24.7862C15.6542 25.7026 15.9107 26.6113 16.1587 27.5228C16.2835 27.98 16.409 28.4373 16.53 28.8965C16.5621 29.0196 16.5729 29.174 16.69 29.1994C16.8324 29.2296 16.837 29.0518 16.8699 28.9395C19.1825 21.0697 21.7884 12.556 25.2302 5.37109C26.1258 3.50207 27.1378 1.35363 28.969 0.657022C30.1747 0.198805 31.5075 0.0200124 32.7606 0.00047225C34.4777 -0.026884 36.2032 1.1426 37.9509 1.34191C38.6659 1.423 39.1053 2.1665 38.9782 3.06633C38.9522 3.25 38.8856 3.47862 38.7432 3.46592C38.2946 3.42684 37.9126 3.83035 37.4403 3.69552C35.7783 3.22265 33.409 8.35585 32.5731 9.74614C28.0519 17.2681 24.4677 25.7955 22.854 35.1015C22.6978 36.0003 22.6251 36.9226 22.4904 37.8283C22.3258 38.9382 22.24 40.0617 22.0846 41.1736C21.9514 42.1262 21.8374 43.0807 21.6766 44.0274C21.5985 44.4866 21.316 44.8002 21.2556 45.2545C21.2464 45.322 21.1453 45.4128 21.0818 45.4197C20.5536 45.4812 20.0568 45.7401 19.5178 45.7567C18.6176 45.786 17.7181 45.8886 16.8186 45.9541C15.9405 46.0186 15.0625 46.0088 14.1844 45.9639C13.6922 45.9384 13.3944 45.4421 13.102 45.0396C12.5745 44.3156 12.1948 43.4441 11.7922 42.601C11.2318 41.4266 10.7556 40.1927 10.2657 38.9704C9.81559 37.8459 9.40527 36.695 8.9827 35.5528C8.44606 34.103 7.91326 32.6511 7.37893 31.2003C6.74813 29.4856 6.10663 27.7768 5.48961 26.0544C4.87184 24.3299 4.28468 22.5889 3.67379 20.8606C3.14711 19.3697 2.70158 17.8358 2.22006 16.3214C1.49511 14.0401 1.03274 11.6308 0.124828 9.43838C-0.169898 8.72711 0.072007 8.19758 0.695143 8.07643C0.976855 8.02171 1.23713 7.90057 1.49741 7.77355C1.73932 7.65534 2.00266 7.54103 2.23997 7.61626C2.73756 7.77453 3.22902 7.6397 3.7159 7.62016C4.66055 7.58206 5.5899 7.81947 6.53302 7.79309C6.89971 7.78332 7.14621 8.06959 7.33299 8.5493C7.82446 9.8155 8.05029 11.2019 8.50042 12.4847C8.59993 12.768 8.71553 12.8364 8.93677 12.7993C9.50631 12.7045 10.0789 12.6899 10.6469 12.8188C11.1897 12.9419 11.737 12.9126 12.2836 12.9361C12.9114 12.9664 13.1563 13.2595 13.1334 14.0743Z" fill="#99F263"/>
</svg>
