<svg width="2527" height="1814" viewBox="0 0 2527 1814" fill="none" xmlns="http://www.w3.org/2000/svg">
<path d="M724.84 781.7H724.83L719 710.44L724.84 781.7Z" fill="#3C65F6"/>
<path d="M2424.63 554.49C2423.83 494.83 2371.91 452.54 2309.54 428.97C2246.36 405.08 2169.66 393.55 2064.12 393.39C1852.57 393.05 1585.37 432.6 1268.12 520.15C1239.13 528.15 1210.39 536.377 1181.91 544.83H874.57L865.11 578L857.8 603.59L850.64 628.64L846.1 584.64L841.86 543.64H729.06L715.75 565.86L596.07 765.86C544.75 790.29 496.48 815.05 451.74 839.86C346.74 898.13 258.74 958.06 196.29 1016.62C135.9 1073.23 93.1801 1134.62 91.7101 1193.29H91.5601C91.5601 1194.29 91.6301 1195.34 91.6701 1196.36C91.6701 1196.73 91.6701 1197.09 91.6701 1197.46C95.6701 1295.89 159.78 1358.64 229.94 1389.78C302.54 1422 364.09 1438.78 476.79 1436.92C703.26 1433.2 993.65 1377.17 1325.92 1257.56L1323.75 1152.27L1321.37 1058.78C1272.79 1076.27 1224.9 1093.37 1177.7 1110.09L1343.5 842.63C1341.68 854.458 1340.74 866.404 1340.67 878.37C1340.67 926.15 1357.31 967.14 1395.06 993.81C1429.55 1018.18 1474.87 1025.49 1521.6 1025.49C1558.17 1025.49 1597.41 1019.29 1639.07 1007.58L1598.07 1162.66V1162.75C1596.7 1168.3 1594.86 1173.73 1592.58 1178.98H1591.08H1589.36L1587.64 1179.11L1536.35 1182.97L1504.6 1185.37L1495.85 1215.98L1488.54 1241.57L1471.91 1299.77H1532.44L1857.65 1299.98H1898.18C1900.79 1300.2 1903.44 1300.31 1906.13 1300.31C1961.79 1300.31 2002.13 1253.94 2002.13 1202.53C2002.13 1151.88 1963.4 1103.85 1908.01 1103.85C1858.89 1103.85 1825.76 1139.74 1816.01 1179.74L1789.72 1179.3L1924.03 679.04C1925.48 673.145 1927.41 667.376 1929.79 661.79H1945.51C1941.59 673.79 1938.19 686.33 1935.23 699.27L1935.18 699.47V699.67C1928.18 731.67 1925.7 753.9 1922.8 780C1922.01 787.06 1921.2 794.37 1920.25 802.38C1917.51 825.38 1914.09 850.14 1910.33 877.38L1910.24 878.05C1907.9 895.05 1905.43 912.87 1902.96 931.55C1896.63 979.46 1890.48 1015.95 1883.75 1043.74L1870.05 1100.19H1988.5L1997.15 1065.58C2008.05 1021.92 2026.86 972 2054.15 916.58L2054.27 916.32C2063.43 897.41 2071.69 880.65 2079.42 864.94L2079.77 864.25C2095.57 832.16 2109.36 804.17 2123.77 772.18L2123.84 772.03L2123.91 771.88C2146.52 720.73 2158.91 673.15 2158.91 629.13C2158.91 603.28 2148.28 580.78 2130.45 565.34C2113.45 550.63 2092.13 544.14 2072.1 544.14C2067.39 544.136 2062.69 544.43 2058.02 545.02L1998.62 544.89L1963.12 544.82L1733.45 544.36L1698.92 544.29L1689.43 577.49L1682 603L1665.63 660.27L1725.18 661.27L1732.66 661.39L1675.66 874.89C1625.8 891.14 1593.84 897.56 1577.33 897.56C1551.65 897.56 1541.84 892.82 1538.94 890.56C1538.67 890.36 1534.38 888.19 1534.38 871.95C1534.38 859.34 1536.96 842.69 1542.84 820.85C1542.84 820.85 1542.84 820.85 1542.84 820.78L1581.2 679.21L1581.29 678.89L1581.37 678.56C1582.74 672.85 1584.51 667.246 1586.68 661.79H1588L1611.41 661.5L1645.41 661.08L1654.76 628.36L1662.07 602.78L1678.73 544.46L1618.08 544.53L1453.74 544.74C1693.12 487.32 1910.53 453.24 2071.09 453.49C2171.87 453.65 2234.5 448.3 2308.09 477.42C2350.24 494.11 2391.43 520.31 2392.45 564.14H2392.57C2392.57 619.5 2370.86 679.47 2318.79 743.03C2266.14 807.31 2189.09 873.21 2092.85 936.58L2102.36 957.7C2200.36 893.16 2280.55 824.98 2336.26 756.96C2391.97 688.94 2425.13 619.88 2424.7 555.03V554.91C2424.7 554.78 2424.7 554.65 2424.7 554.51L2424.63 554.49ZM1907.92 1149.63C1934.42 1149.63 1956.35 1173.38 1956.35 1202.63C1956.35 1230.96 1934.42 1254.72 1906.09 1254.72C1879.59 1254.72 1858.57 1232.79 1858.57 1204.46C1858.57 1175.21 1879.59 1149.63 1907.92 1149.63ZM1197.54 661.8L1207.01 628.66L1212.82 608.34C1231.34 603.007 1249.98 597.737 1268.75 592.53L1282.36 588.79L1278.14 603.57L1261.5 661.8H1314.06L1177.81 888.1L1131.11 661.8H1197.54ZM271.47 1213.61L265.08 1239.19L260.29 1258.34C258.497 1257.67 256.767 1256.96 255.1 1256.19C204.81 1233.88 179.98 1198.66 179.02 1163.29C178.709 1163.55 178.374 1163.78 178.02 1163.97C178.51 1124.88 194.61 1098.61 243.44 1052.83C295.44 1004.09 377.93 957.27 478.24 901.62C495.64 891.96 513.64 882.293 532.24 872.62L374.44 1136.32L374.29 1136.56L374.15 1136.8C360.23 1160.73 351.61 1170.38 345.99 1174.63C342.65 1177.15 339.15 1178.97 328.66 1178.97H280.12L271.47 1213.61ZM637.26 1205.76L628.38 1240.88L621.24 1269.09C588.083 1274.26 554.659 1277.54 521.13 1278.92L525.52 1261.36L531.92 1235.77L546.11 1179H483.28L541 1082.14H704.9L711.98 1171.27H646L637.26 1205.76ZM978.11 1155.49C978.11 1155.89 978.03 1156.29 977.97 1156.68C977.91 1157.07 977.84 1157.76 977.75 1158.3C977.66 1158.84 977.63 1159.11 977.56 1159.51C977.49 1159.91 977.37 1160.51 977.26 1161.05C977.2 1161.35 977.14 1161.65 977.07 1161.94L976.98 1162.34C976.91 1162.67 976.82 1163.01 976.74 1163.34C976.66 1163.67 976.57 1164.01 976.48 1164.34C976.307 1165.01 976.117 1165.67 975.91 1166.34V1166.44C975.73 1167.03 975.53 1167.62 975.33 1168.2L975.24 1168.46C975.03 1169.04 974.82 1169.62 974.59 1170.2C974.36 1170.78 974.15 1171.31 973.91 1171.86C973.8 1172.12 973.68 1172.39 973.56 1172.65C973.05 1173.79 972.56 1174.91 971.92 1176C971.67 1176.49 971.4 1177 971.12 1177.46L971.01 1177.66C970.71 1178.19 970.39 1178.66 970.07 1179.23C969.85 1179.58 969.63 1179.93 969.4 1180.23C969.17 1180.53 969.13 1180.66 968.99 1180.87C877.58 1210.13 791.22 1234.8 711.91 1252.13L672.7 1252.06L681.59 1216.93H726.71C751.3 1216.93 759.02 1216.93 759.02 1192.68C759.02 1191.41 758.82 1188.18 758.61 1184.68C758.49 1182.68 758.37 1180.59 758.27 1178.77C758.17 1176.95 758.11 1175.37 758.11 1174.39L747.11 1036.39H515L441 1160.67C429.12 1181.67 422.73 1196.3 422.73 1206.35C422.73 1218.23 430.95 1224.63 448.31 1224.63H487.61L481.2 1250.21H309.4L315.79 1224.63H328.59C364.22 1224.63 384.33 1210.01 413.59 1159.75L608.1 834.74L669.58 732L755 589.34H800.69L809.36 673.23L816.64 743.68L858.83 1151.91C862.33 1125.27 881.46 1101.43 906.92 1095.91C915.261 1093.5 924.047 1093.07 932.584 1094.64C941.121 1096.22 949.176 1099.75 956.112 1104.97C963.048 1110.19 968.676 1116.95 972.551 1124.72C976.426 1132.49 978.442 1141.05 978.44 1149.73C978.428 1151.65 978.317 1153.58 978.11 1155.49V1155.49ZM1022.91 1134.22C1020.71 1120.07 1015.55 1106.55 1007.77 1094.53C999.994 1082.52 989.766 1072.28 977.758 1064.48C965.75 1056.69 952.233 1051.52 938.089 1049.3C923.946 1047.09 909.495 1047.89 895.68 1051.64L894.4 1051.95L860.75 726.39C886.503 716.483 912.72 706.71 939.4 697.07L1036 1113.48C1031.42 1121.18 1027.07 1128.07 1022.91 1134.22ZM2072 589.77C2093 589.77 2113.12 603.48 2113.12 629.07C2113.12 664.7 2103.07 705.82 2082.05 753.34C2067.99 784.51 2054.54 811.83 2038.7 844C2030.85 859.93 2022.42 877 2013.04 896.41C1984.72 953.97 1964.61 1006.97 1952.72 1054.49H1928C1935.31 1024.34 1941.71 985.96 1948.11 937.49C1950.58 918.71 1953.06 900.76 1955.44 883.58C1957.31 870.013 1959.1 856.917 1960.81 844.29C1962.52 831.663 1964.08 819.477 1965.47 807.73C1966.47 799.53 1967.28 792.05 1968.06 785C1970.94 759.06 1973.19 738.88 1979.66 709.42C1997 633.63 2027.18 589.77 2072 589.77ZM1618.13 590.23L1610.82 615.82L1587.41 616.11C1560.91 616.11 1548.12 624.33 1537.15 667.28L1498.77 808.92C1492.38 832.68 1488.71 853.69 1488.71 871.97C1488.71 923.14 1518.88 943.24 1577.36 943.24C1604.77 943.24 1650.46 932.24 1713.51 910.35L1778.39 667.28C1787.53 628.9 1784.79 616.11 1759.2 616.11L1725.95 615.57L1733.26 589.99L1962.92 590.45L1998.42 590.52L1991.11 616.11H1930.11C1903.61 616.11 1890.82 626.11 1879.85 667.28L1743.7 1174.43C1740.04 1187.23 1738.21 1197.27 1738.21 1203.67C1738.21 1217.38 1747.35 1224.67 1765.63 1224.67L1829.07 1225.67L1818.48 1254.25L1532.48 1254.07L1539.79 1228.48L1591.09 1224.62C1617.58 1224.62 1631.29 1215.48 1642.26 1174.36L1705.26 935.86C1634.9 965.113 1573.68 979.737 1521.59 979.73C1434.78 979.73 1386.35 951.4 1386.35 878.3C1386.35 859.11 1390 836.3 1397.35 808.85L1434.82 667.21C1437.56 655.33 1439.39 645.28 1439.39 637.06C1439.54 632.782 1438.37 628.561 1436.02 624.98C1422.02 634.42 1407.86 652.26 1388.81 682.75L1111.93 1129.59L1109.29 1133.9C1109.26 1133.94 1109.24 1133.98 1109.22 1134.02V1134.02C1095.54 1138.74 1081.95 1143.41 1068.45 1148.02C1073.78 1139.57 1079.14 1130.4 1084.53 1120.49L982.73 681.68L979.39 667.28C979.21 666.46 979.03 665.66 978.84 664.87C978.5 663.38 978.14 661.94 977.77 660.53C977.65 660.06 977.53 659.61 977.4 659.15C976.953 657.49 976.483 655.883 975.99 654.33C975.863 653.89 975.723 653.45 975.57 653.01C975.08 651.51 974.57 650.01 974.04 648.65C973.9 648.26 973.75 647.87 973.6 647.49C973.233 646.55 972.853 645.63 972.46 644.73C972.31 644.37 972.16 644.02 972 643.68C971.31 642.13 970.58 640.68 969.83 639.26C969.59 638.82 969.36 638.39 969.11 637.97C969.069 637.883 969.023 637.8 968.97 637.72C968.71 637.27 968.43 636.82 968.17 636.38L967.36 635.1C967.047 634.62 966.713 634.15 966.36 633.69L966.05 633.25L965.43 632.4C965.09 631.94 964.74 631.5 964.43 631.07L963.61 630.07C963.19 629.59 962.78 629.13 962.36 628.69C961.94 628.25 961.68 627.98 961.36 627.69C961.04 627.4 960.64 626.99 960.28 626.69C959.92 626.39 959.53 626.03 959.16 625.69C958.79 625.35 958.51 625.15 958.16 624.9C957.81 624.65 957.76 624.59 957.56 624.45C957.36 624.31 957.06 624.07 956.81 623.89C956.56 623.71 956.01 623.33 955.6 623.06C955.19 622.79 954.6 622.44 954.13 622.15L953.41 621.74L952.89 621.45C952.1 621.03 951.29 620.63 950.45 620.26L949.35 619.78C945.947 618.406 942.392 617.446 938.76 616.92L937.76 616.78C936.76 616.64 935.76 616.52 934.66 616.44H934.05L932.98 616.37C932.51 616.37 932.04 616.31 931.57 616.3H931.32C930.84 616.3 930.32 616.3 929.87 616.3C929.42 616.3 928.81 616.3 928.27 616.3H901.77L909 590.52H1170.34L1163.03 616.11H1121.9C1095.4 616.11 1081.71 626.11 1081.71 646.26C1081.71 646.33 1081.71 646.43 1081.71 646.56C1081.71 646.69 1081.71 646.77 1081.71 646.9C1081.75 647.26 1081.81 647.75 1081.89 648.37C1081.98 649.08 1082.11 649.96 1082.27 650.99C1082.33 651.36 1082.39 651.76 1082.46 652.17C1082.85 654.53 1083.46 657.54 1084.17 661.17C1084.36 662.17 1084.58 663.17 1084.82 664.17C1084.98 664.9 1085.14 665.64 1085.32 666.4L1156.6 1011.81L1369.51 658.17C1375.91 648.17 1378.65 638.98 1378.65 631.67C1378.65 621.67 1373.16 616.14 1361.29 616.14H1321.99L1329.3 590.55H1386.3L1618.13 590.23Z" fill="#3C65F6"/>
<path d="M952.87 621.38C952.08 620.96 951.27 620.56 950.43 620.19C951.27 620.56 952.08 621 952.87 621.38Z" fill="#3C65F6"/>
<path d="M717.86 696.52L706.31 715.89C710.523 714.07 714.753 712.253 719 710.44L717.86 696.52ZM717.86 696.52L706.31 715.89C710.523 714.07 714.753 712.253 719 710.44L717.86 696.52ZM717.86 696.52L706.31 715.89C710.523 714.07 714.753 712.253 719 710.44L717.86 696.52ZM717.86 696.52L706.31 715.89C710.523 714.07 714.753 712.253 719 710.44L717.86 696.52ZM717.86 696.52L706.31 715.89C710.523 714.07 714.753 712.253 719 710.44L717.86 696.52ZM950.43 620.19C951.27 620.56 952.08 620.96 952.87 621.38C952.08 621 951.27 620.56 950.43 620.19V620.19ZM717.86 696.52L706.31 715.89C710.523 714.07 714.753 712.253 719 710.44L717.86 696.52ZM950.43 620.19C951.27 620.56 952.08 620.96 952.87 621.38C952.08 621 951.27 620.56 950.43 620.19V620.19ZM717.86 696.52L706.31 715.89C710.523 714.07 714.753 712.253 719 710.44L717.86 696.52ZM950.43 620.19C951.27 620.56 952.08 620.96 952.87 621.38C952.08 621 951.27 620.56 950.43 620.19V620.19ZM717.86 696.52L706.31 715.89C710.523 714.07 714.753 712.253 719 710.44L717.86 696.52ZM950.43 620.19C951.27 620.56 952.08 620.96 952.87 621.38C952.08 621 951.27 620.56 950.43 620.19V620.19ZM717.86 696.52L706.31 715.89C710.523 714.07 714.753 712.253 719 710.44L717.86 696.52ZM950.43 620.19C951.27 620.56 952.08 620.96 952.87 621.38C952.08 621 951.27 620.56 950.43 620.19V620.19ZM717.86 696.52L706.31 715.89C710.523 714.07 714.753 712.253 719 710.44L717.86 696.52ZM950.43 620.19C951.27 620.56 952.08 620.96 952.87 621.38C952.08 621 951.27 620.56 950.43 620.19ZM717.86 696.52L706.31 715.89C710.523 714.07 714.753 712.253 719 710.44L717.86 696.52ZM950.43 620.19C951.27 620.56 952.08 620.96 952.87 621.38C952.08 621 951.27 620.56 950.43 620.19ZM717.86 696.52L706.31 715.89C710.523 714.07 714.753 712.253 719 710.44L717.86 696.52ZM717.86 696.52L706.31 715.89C710.523 714.07 714.753 712.253 719 710.44L717.86 696.52ZM717.86 696.52L706.31 715.89C710.523 714.07 714.753 712.253 719 710.44L717.86 696.52ZM717.86 696.52L706.31 715.89C710.523 714.07 714.753 712.253 719 710.44L717.86 696.52ZM717.86 696.52L706.31 715.89C710.523 714.07 714.753 712.253 719 710.44L717.86 696.52ZM717.86 696.52L706.31 715.89C710.523 714.07 714.753 712.253 719 710.44L717.86 696.52ZM717.86 696.52L706.31 715.89C710.523 714.07 714.753 712.253 719 710.44L717.86 696.52Z" fill="#3C65F6"/>
<path fill-rule="evenodd" clip-rule="evenodd" d="M1907.92 1149.63C1879.59 1149.63 1858.57 1175.21 1858.57 1204.45C1858.57 1232.78 1879.57 1254.71 1906.09 1254.71C1934.42 1254.71 1956.35 1230.95 1956.35 1202.62C1956.35 1173.38 1934.42 1149.63 1907.92 1149.63ZM2071.92 589.77C2027.13 589.77 1996.99 633.63 1979.63 709.48C1973.16 738.94 1970.91 759.12 1968.03 785.06C1967.25 792.11 1966.41 799.59 1965.44 807.79C1964.04 819.543 1962.49 831.73 1960.78 844.35C1959.07 856.97 1957.28 870.067 1955.41 883.64C1953.03 900.82 1950.55 918.77 1948.08 937.55C1941.68 985.98 1935.28 1024.36 1927.97 1054.55H1952.63C1964.52 1007.03 1984.63 954.03 2012.95 896.47C2022.33 877.1 2030.76 859.99 2038.61 844.06C2054.45 811.89 2067.9 784.57 2081.96 753.4C2102.96 705.88 2113.03 664.76 2113.03 629.13C2113.09 603.48 2093 589.77 2072 589.77H2071.92ZM950.43 620.19C951.27 620.56 952.08 620.96 952.87 621.38C952.08 621 951.27 620.56 950.43 620.19Z" fill="#FDFF8A"/>
<path fill-rule="evenodd" clip-rule="evenodd" d="M922.4 1093.77C917.15 1093.77 911.925 1094.5 906.88 1095.95C881.42 1101.43 862.29 1125.27 858.79 1151.95L816.6 743.68L809.32 673.23L800.65 589.34H755L669.59 732L608.11 834.73L413.57 1159.81C384.33 1210.07 364.22 1224.69 328.57 1224.69H315.77L309.38 1250.27H481.18L487.59 1224.69H448.29C430.93 1224.69 422.71 1218.29 422.71 1206.41C422.71 1196.36 429.1 1181.74 440.98 1160.73L514.98 1036.45H747.1L758.1 1174.45C758.1 1175.45 758.16 1177 758.26 1178.83C758.36 1180.66 758.48 1182.74 758.6 1184.74C758.81 1188.21 759.01 1191.44 759.01 1192.74C759.01 1217 751.29 1217 726.7 1216.99H681.55L672.66 1252.12L711.87 1252.19C791.18 1234.86 877.54 1210.19 968.95 1180.93L969.37 1180.29C969.6 1179.94 969.82 1179.59 970.04 1179.29C970.36 1178.77 970.68 1178.29 970.98 1177.72L971.09 1177.52C971.37 1177.04 971.64 1176.52 971.89 1176.06C972.48 1174.97 973.02 1173.85 973.53 1172.71C973.65 1172.45 973.77 1172.18 973.88 1171.92C974.12 1171.37 974.35 1170.82 974.56 1170.26C974.77 1169.7 975 1169.1 975.21 1168.52L975.3 1168.26C975.5 1167.68 975.7 1167.09 975.88 1166.5V1166.4C976.08 1165.73 976.27 1165.07 976.45 1164.4C976.54 1164.07 976.63 1163.74 976.71 1163.4C976.79 1163.06 976.88 1162.73 976.95 1162.4L977.04 1162C977.11 1161.71 977.17 1161.41 977.23 1161.11C977.34 1160.6 977.44 1160.11 977.53 1159.57C977.62 1159.03 977.65 1158.76 977.72 1158.36C977.79 1157.96 977.88 1157.28 977.94 1156.74C978 1156.2 978.04 1155.95 978.08 1155.55C978.273 1153.65 978.369 1151.74 978.37 1149.83C978.378 1142.47 976.936 1135.19 974.127 1128.39C971.318 1121.59 967.197 1115.41 962 1110.2C956.802 1105 950.629 1100.87 943.835 1098.05C937.04 1095.23 929.756 1093.77 922.4 1093.77V1093.77ZM531.45 1009L646.08 816.86L706.3 715.86L717.85 696.49L719 710.44L724.84 781.7L743.45 1009H531.45Z" fill="#FDFF8A"/>
<path fill-rule="evenodd" clip-rule="evenodd" d="M1998.39 590.52L1991.08 616.11H1930.08C1903.58 616.11 1890.79 626.11 1879.82 667.28L1743.67 1174.43C1740.01 1187.23 1738.18 1197.27 1738.18 1203.67C1738.18 1217.38 1747.32 1224.67 1765.6 1224.67L1829.04 1225.67L1818.45 1254.25L1532.45 1254.07L1539.76 1228.48L1591.06 1224.62C1617.55 1224.62 1631.26 1215.48 1642.23 1174.36L1705.23 935.86C1634.87 965.113 1573.65 979.737 1521.56 979.73C1434.75 979.73 1386.32 951.4 1386.32 878.3C1386.32 859.11 1389.97 836.3 1397.32 808.85L1434.79 667.21C1437.53 655.33 1439.36 645.28 1439.36 637.06C1439.51 632.781 1438.34 628.56 1435.99 624.98C1421.99 634.42 1407.83 652.26 1388.78 682.75L1111.9 1129.59L1109.26 1133.9C1109.23 1133.94 1109.2 1133.98 1109.18 1134.02C1095.5 1138.74 1081.91 1143.41 1068.41 1148.02C1073.74 1139.57 1079.1 1130.4 1084.49 1120.49L982.73 681.68L979.39 667.28C979.21 666.46 979.03 665.66 978.84 664.87C978.5 663.38 978.14 661.94 977.77 660.53C977.65 660.06 977.53 659.61 977.4 659.15C976.953 657.49 976.483 655.883 975.99 654.33C975.863 653.89 975.723 653.45 975.57 653.01C975.08 651.51 974.57 650.01 974.04 648.65C973.9 648.26 973.75 647.87 973.6 647.49C973.233 646.55 972.853 645.63 972.46 644.73C972.31 644.37 972.16 644.02 972 643.68C971.31 642.13 970.58 640.68 969.83 639.26C969.59 638.82 969.36 638.39 969.11 637.97C969.069 637.883 969.023 637.8 968.97 637.72C968.71 637.27 968.43 636.82 968.17 636.38L967.36 635.1C967.047 634.62 966.713 634.15 966.36 633.69L966.05 633.25L965.43 632.4C965.09 631.94 964.74 631.5 964.43 631.07L963.61 630.07C963.19 629.59 962.78 629.13 962.36 628.69C961.94 628.25 961.68 627.98 961.36 627.69C961.04 627.4 960.64 626.99 960.28 626.69C959.92 626.39 959.53 626.03 959.16 625.69C958.79 625.35 958.51 625.15 958.16 624.9C957.81 624.65 957.76 624.59 957.56 624.45C957.36 624.31 957.06 624.07 956.81 623.89C956.56 623.71 956.01 623.33 955.6 623.06C955.19 622.79 954.6 622.44 954.13 622.15L953.41 621.74L952.89 621.45C952.1 621.02 951.29 620.63 950.45 620.26L949.35 619.78C945.947 618.406 942.392 617.446 938.76 616.92L937.76 616.78C936.76 616.64 935.76 616.52 934.66 616.44H934.05L932.98 616.37C932.51 616.37 932.04 616.31 931.57 616.3H931.32C930.84 616.3 930.32 616.3 929.87 616.3C929.42 616.3 928.81 616.3 928.27 616.3H901.77L909 590.52H1170.34L1163.03 616.11H1121.9C1095.4 616.11 1081.71 626.11 1081.71 646.26C1081.71 646.33 1081.71 646.43 1081.71 646.56C1081.71 646.69 1081.71 646.77 1081.71 646.9C1081.75 647.26 1081.81 647.75 1081.89 648.37C1081.98 649.08 1082.11 649.96 1082.27 650.99C1082.33 651.36 1082.39 651.76 1082.46 652.17C1082.85 654.53 1083.46 657.54 1084.17 661.17C1084.36 662.17 1084.58 663.17 1084.82 664.17C1084.98 664.9 1085.14 665.64 1085.32 666.4L1156.6 1011.81L1369.51 658.17C1375.91 648.17 1378.65 638.98 1378.65 631.67C1378.65 621.67 1373.16 616.14 1361.29 616.14H1321.99L1329.3 590.55H1386.3L1618.05 590.26L1610.74 615.85L1587.33 616.14C1560.83 616.14 1548.04 624.36 1537.07 667.31L1498.69 808.95C1492.3 832.71 1488.63 853.72 1488.63 872C1488.63 923.17 1518.8 943.27 1577.28 943.27C1604.69 943.27 1650.38 932.27 1713.43 910.38L1778.31 667.31C1787.45 628.93 1784.71 616.14 1759.12 616.14L1725.87 615.6L1733.18 590.02L1962.84 590.48L1998.39 590.52Z" fill="#FDFF8A"/>
<path fill-rule="evenodd" clip-rule="evenodd" d="M724.84 781.7L719 710.44C714.754 712.247 710.524 714.063 706.31 715.89L646.09 816.89L531.45 1009H743.45L724.84 781.7ZM611.9 963.35L684 842.52L693.88 963.35H611.9Z" fill="#3C65F6"/>
</svg>
