<svg width="70" height="70" viewBox="0 0 70 70" fill="none" xmlns="http://www.w3.org/2000/svg">
<circle cx="35" cy="35" r="34.25" fill="#FEFF8B" stroke="#231F1C" stroke-width="1.5"/>
<path d="M12.0006 34.5856L11.6123 33.1367L10.5832 33.4124L10.5047 34.4749L12.0006 34.5856ZM11.5974 40.0356L10.1015 39.9249L9.94569 42.0311L11.9856 41.4845L11.5974 40.0356ZM12.119 39.8958L12.5072 41.3447L13.4632 41.0886L13.6038 40.1089L12.119 39.8958ZM14.2512 34.5622L13.863 33.1134L13.8392 33.1197L13.8157 33.1269L14.2512 34.5622ZM16.1639 35.2093L14.6643 35.1729L14.6639 35.1907L14.6639 35.2085L16.1639 35.2093ZM16.1583 46.7023L14.6583 46.7016L14.6583 46.7041L16.1583 46.7023ZM14.4918 48.2877L14.1036 46.8388L13.0107 47.1316L12.992 48.2629L14.4918 48.2877ZM14.4822 48.87L12.9824 48.8452L12.9496 50.8336L14.8704 50.3189L14.4822 48.87ZM19.9493 47.4051L20.3376 48.854L21.4305 48.5611L21.4491 47.4298L19.9493 47.4051ZM19.959 46.8227L21.4588 46.8475L21.4916 44.8592L19.5707 45.3739L19.959 46.8227ZM18.322 46.1226L19.8218 46.1473L19.822 46.1353L19.822 46.1233L18.322 46.1226ZM18.3275 34.6295L19.8275 34.6302L19.8275 34.621L19.8274 34.6118L18.3275 34.6295ZM22.3578 37.1524L20.8701 37.3442L21.0895 39.0451L22.746 38.6013L22.3578 37.1524ZM22.8794 37.0126L23.2676 38.4615L24.4536 38.1437L24.3765 36.9183L22.8794 37.0126ZM22.5485 31.7593L24.0455 31.6649L23.9303 29.8361L22.1602 30.3104L22.5485 31.7593ZM10.5047 34.4749L10.1015 39.9249L13.0933 40.1463L13.4965 34.6962L10.5047 34.4749ZM11.9856 41.4845L12.5072 41.3447L11.7308 38.447L11.2092 38.5867L11.9856 41.4845ZM13.6038 40.1089C13.9323 37.8194 14.1533 36.7808 14.3708 36.2639C14.4587 36.0549 14.5011 36.0472 14.4636 36.0778C14.4406 36.0965 14.4565 36.0675 14.6867 35.9976L13.8157 33.1269C13.4619 33.2342 12.9996 33.4006 12.5677 33.7528C12.1213 34.1168 11.8242 34.5805 11.6054 35.1008C11.2094 36.0423 10.9484 37.4933 10.6342 39.6828L13.6038 40.1089ZM14.6395 36.0111L15.8952 35.6747L15.1187 32.7769L13.863 33.1134L14.6395 36.0111ZM15.8952 35.6747C15.8937 35.6751 15.6547 35.7443 15.3302 35.6088C15.1563 35.5363 14.9961 35.419 14.8712 35.2652C14.7506 35.1166 14.6917 34.9699 14.6638 34.8658L17.5616 34.0893C17.4297 33.597 17.0895 33.0922 16.4853 32.8402C15.9568 32.6196 15.4486 32.6885 15.1187 32.7769L15.8952 35.6747ZM14.6638 34.8658C14.6552 34.8336 14.6532 34.8176 14.6542 34.8239C14.6549 34.8287 14.6572 34.8454 14.6595 34.8758C14.6642 34.9375 14.6676 35.0351 14.6643 35.1729L17.6634 35.2456C17.6731 34.8461 17.6538 34.4334 17.5616 34.0893L14.6638 34.8658ZM14.6639 35.2085L14.6583 46.7016L17.6583 46.7031L17.6639 35.21L14.6639 35.2085ZM14.6583 46.7041C14.6585 46.8861 14.6473 46.9779 14.6407 47.0134C14.6349 47.0452 14.6418 46.9809 14.7038 46.8805C14.7354 46.8294 14.7758 46.778 14.8242 46.7305C14.8723 46.6836 14.919 46.6495 14.9572 46.6262C15.0265 46.5839 15.0584 46.5829 14.9922 46.6007L15.7687 49.4984C16.2057 49.3813 16.8388 49.1325 17.256 48.4574C17.6131 47.8794 17.6589 47.2172 17.6583 46.7005L14.6583 46.7041ZM14.9922 46.6007L14.1036 46.8388L14.88 49.7365L15.7687 49.4984L14.9922 46.6007ZM12.992 48.2629L12.9824 48.8452L15.982 48.8947L15.9916 48.3124L12.992 48.2629ZM14.8704 50.3189L20.3376 48.854L19.5611 45.9562L14.094 47.4211L14.8704 50.3189ZM21.4491 47.4298L21.4588 46.8475L18.4592 46.798L18.4496 47.3803L21.4491 47.4298ZM19.5707 45.3739L18.6821 45.612L19.4585 48.5097L20.3472 48.2716L19.5707 45.3739ZM18.6821 45.612C18.6455 45.6218 18.8689 45.5477 19.1859 45.6808C19.3572 45.7527 19.5125 45.8689 19.6313 46.0177C19.745 46.16 19.7972 46.2963 19.8206 46.3836L16.9228 47.1601C17.0554 47.6549 17.3947 48.1824 18.0245 48.4469C18.5748 48.6779 19.1087 48.6035 19.4585 48.5097L18.6821 45.612ZM19.8206 46.3836C19.8293 46.416 19.8316 46.4333 19.831 46.4296C19.8307 46.4272 19.8289 46.4142 19.8269 46.389C19.8229 46.3375 19.8199 46.2575 19.8218 46.1473L16.8222 46.0978C16.8168 46.4235 16.8308 46.8168 16.9228 47.1601L19.8206 46.3836ZM19.822 46.1233L19.8275 34.6302L16.8275 34.6288L16.822 46.1218L19.822 46.1233ZM19.8274 34.6118C19.825 34.4038 19.8333 34.2907 19.8409 34.2353C19.8486 34.1793 19.8478 34.2443 19.7878 34.3562C19.7559 34.4159 19.7114 34.4808 19.6528 34.5434C19.5944 34.6059 19.5343 34.6528 19.4815 34.6864C19.3861 34.7471 19.3285 34.7547 19.3918 34.7377L18.6153 31.84C18.1984 31.9517 17.5382 32.2027 17.1435 32.9394C16.8385 33.5087 16.8219 34.1639 16.8276 34.6472L19.8274 34.6118ZM19.3918 34.7377L20.6668 34.3961L19.8904 31.4983L18.6153 31.84L19.3918 34.7377ZM20.6668 34.3961C20.757 34.3719 20.7306 34.3925 20.636 34.3818C20.5838 34.3759 20.5185 34.3614 20.4482 34.3318C20.3776 34.3022 20.3199 34.2648 20.2767 34.229C20.1958 34.162 20.1974 34.1269 20.2459 34.2245C20.2941 34.3214 20.3622 34.4958 20.4406 34.788L23.3383 34.0116C23.1407 33.2741 22.8359 32.4538 22.1914 31.9195C21.397 31.2609 20.5004 31.3349 19.8904 31.4983L20.6668 34.3961ZM20.4406 34.788C20.5423 35.1679 20.6983 36.0123 20.8701 37.3442L23.8455 36.9605C23.6714 35.6106 23.4954 34.5976 23.3383 34.0116L20.4406 34.788ZM22.746 38.6013L23.2676 38.4615L22.4912 35.5637L21.9696 35.7035L22.746 38.6013ZM24.3765 36.9183L24.0455 31.6649L21.0514 31.8536L21.3824 37.1069L24.3765 36.9183ZM22.1602 30.3104L11.6123 33.1367L12.3888 36.0344L22.9367 33.2081L22.1602 30.3104ZM24.0728 31.3508L23.6846 29.9019L22.5917 30.1948L22.573 31.3261L24.0728 31.3508ZM24.0632 31.9331L22.5634 31.9084L22.5306 33.8967L24.4514 33.382L24.0632 31.9331ZM25.7054 32.6526L27.2054 32.6533L27.2054 32.6508L25.7054 32.6526ZM25.6998 44.1457L24.1998 44.145L24.1998 44.1475L25.6998 44.1457ZM24.0527 45.7258L23.6644 44.2769L22.5715 44.5698L22.5529 45.7011L24.0527 45.7258ZM24.0431 46.3082L22.5433 46.2834L22.5105 48.2717L24.4313 47.7571L24.0431 46.3082ZM34.108 43.6113L34.4962 45.0602L35.5393 44.7807L35.6052 43.7028L34.108 43.6113ZM34.4542 37.9487L35.9514 38.0403L36.0786 35.9606L34.066 36.4998L34.4542 37.9487ZM33.9326 38.0885L33.5444 36.6396L32.5604 36.9032L32.4427 37.9151L33.9326 38.0885ZM32.914 42.7096L34.2879 43.3116L34.2923 43.3013L32.914 42.7096ZM31.9681 43.5842L32.5573 44.9636L32.5956 44.9473L32.6329 44.9288L31.9681 43.5842ZM27.8635 43.5659L29.3633 43.5907L29.3635 43.5777L29.3635 43.5648L27.8635 43.5659ZM27.8592 37.8316L27.471 36.3828L26.3583 36.6809L26.3592 37.8328L27.8592 37.8316ZM31.0594 40.0386L29.5598 40.0705L29.6005 41.9824L31.4477 41.4874L31.0594 40.0386ZM31.5617 39.904L31.95 41.3529L33.0587 41.0558L33.0617 39.9079L31.5617 39.904ZM31.5794 33.1699L33.0794 33.1739L33.0846 31.2137L31.1912 31.721L31.5794 33.1699ZM31.0772 33.3045L30.6889 31.8556L29.5886 32.1505L29.5772 33.2895L31.0772 33.3045ZM30.7324 35.8816L29.3938 35.2048L29.3836 35.2249L29.3741 35.2452L30.7324 35.8816ZM27.8636 37.23L26.3636 37.2284L26.3616 39.1854L28.2519 38.6789L27.8636 37.23ZM27.8691 32.0729L26.3691 32.0688L26.3691 32.0713L27.8691 32.0729ZM32.355 29.9598L32.8988 28.5618L32.8988 28.5618L32.355 29.9598ZM33.4765 33.759L31.9861 33.928L32.1823 35.6587L33.8648 35.2079L33.4765 33.759ZM33.9981 33.6192L34.3864 35.0681L35.5577 34.7543L35.4962 33.5432L33.9981 33.6192ZM33.7514 28.7574L35.2495 28.6814L35.1554 26.8283L33.3632 27.3085L33.7514 28.7574ZM22.573 31.3261L22.5634 31.9084L25.563 31.9579L25.5726 31.3756L22.573 31.3261ZM24.4514 33.382L25.3401 33.1439L24.5636 30.2461L23.675 30.4842L24.4514 33.382ZM25.3401 33.1439C25.3766 33.1341 25.1532 33.2082 24.8363 33.0751C24.6649 33.0032 24.5097 32.887 24.3908 32.7382C24.2772 32.5959 24.225 32.4596 24.2016 32.3723L27.0994 31.5958C26.9668 31.1009 26.6275 30.5735 25.9976 30.309C25.4473 30.078 24.9135 30.1524 24.5636 30.2461L25.3401 33.1439ZM24.2016 32.3723C24.1929 32.3398 24.1906 32.3228 24.1914 32.3278C24.192 32.3315 24.194 32.3465 24.1964 32.3754C24.2013 32.4345 24.2052 32.5253 24.2054 32.6544L27.2054 32.6508C27.205 32.3287 27.1903 31.9354 27.0994 31.5958L24.2016 32.3723ZM24.2054 32.6519L24.1998 44.145L27.1998 44.1464L27.2054 32.6533L24.2054 32.6519ZM24.1998 44.1475C24.2 44.3294 24.1888 44.4213 24.1823 44.4567C24.1764 44.4886 24.1833 44.4243 24.2453 44.3239C24.2769 44.2727 24.3173 44.2213 24.3658 44.1739C24.4138 44.1269 24.4606 44.0929 24.4988 44.0696C24.5681 44.0273 24.6 44.0263 24.5338 44.044L25.3102 46.9418C25.7473 46.8247 26.3804 46.5759 26.7975 45.9007C27.1546 45.3228 27.2004 44.6606 27.1998 44.1439L24.1998 44.1475ZM24.5338 44.044L23.6644 44.2769L24.4409 47.1747L25.3102 46.9418L24.5338 44.044ZM22.5529 45.7011L22.5433 46.2834L25.5429 46.3329L25.5525 45.7506L22.5529 45.7011ZM24.4313 47.7571L34.4962 45.0602L33.7198 42.1624L23.6548 44.8593L24.4313 47.7571ZM35.6052 43.7028L35.9514 38.0403L32.957 37.8572L32.6108 43.5197L35.6052 43.7028ZM34.066 36.4998L33.5444 36.6396L34.3209 39.5374L34.8425 39.3976L34.066 36.4998ZM32.4427 37.9151C32.1518 40.4145 31.7908 41.5235 31.5356 42.1179L34.2923 43.3013C34.7001 42.3515 35.1116 40.9344 35.4226 38.2619L32.4427 37.9151ZM31.54 42.1076C31.5619 42.0577 31.5772 42.0622 31.5223 42.1067C31.4682 42.1505 31.3936 42.1949 31.3032 42.2396L32.6329 44.9288C32.9387 44.7776 33.8512 44.3083 34.2879 43.3116L31.54 42.1076ZM31.3789 42.2048C31.3959 42.1975 31.3822 42.2047 31.2989 42.2292C31.219 42.2526 31.1176 42.2799 30.9668 42.3203L31.7433 45.2181C31.9801 45.1546 32.3039 45.0719 32.5573 44.9636L31.3789 42.2048ZM30.9668 42.3203L28.2429 43.0501L29.0194 45.9479L31.7433 45.2181L30.9668 42.3203ZM28.2429 43.0501C28.1836 43.0661 28.3984 42.9888 28.7133 43.1167C28.8865 43.187 29.0461 43.3033 29.1689 43.4556C29.2859 43.6008 29.3388 43.7399 29.3621 43.8269L26.4643 44.6034C26.5976 45.1009 26.9415 45.6352 27.585 45.8964C28.1381 46.1209 28.6731 46.0407 29.0194 45.9479L28.2429 43.0501ZM29.3621 43.8269C29.3708 43.8594 29.3731 43.8766 29.3726 43.8729C29.3722 43.8705 29.3704 43.8576 29.3684 43.8324C29.3644 43.7808 29.3615 43.7009 29.3633 43.5907L26.3637 43.5412C26.3583 43.8668 26.3724 44.2602 26.4643 44.6034L29.3621 43.8269ZM29.3635 43.5648L29.3592 37.8305L26.3592 37.8328L26.3635 43.567L29.3635 43.5648ZM28.2474 39.2805L29.9861 38.8147L29.2096 35.9169L27.471 36.3828L28.2474 39.2805ZM29.9861 38.8147C30.0939 38.7858 30.1327 38.785 30.123 38.7854C30.1091 38.7858 30.0085 38.7873 29.8702 38.7291C29.7183 38.6652 29.6016 38.5632 29.5293 38.465C29.4675 38.3811 29.4645 38.3362 29.4793 38.3914L32.3771 37.615C32.213 37.0025 31.8377 36.3023 31.0338 35.964C30.3361 35.6704 29.6399 35.8016 29.2096 35.9169L29.9861 38.8147ZM29.4793 38.3914C29.4675 38.3476 29.4728 38.3521 29.4839 38.447C29.4934 38.5289 29.5035 38.6448 29.5133 38.8002C29.5329 39.1109 29.5484 39.5332 29.5598 40.0705L32.5591 40.0067C32.5473 39.4528 32.5308 38.9829 32.5074 38.6115C32.4869 38.2864 32.455 37.9059 32.3771 37.615L29.4793 38.3914ZM31.4477 41.4874L31.95 41.3529L31.1735 38.4551L30.6712 38.5897L31.4477 41.4874ZM33.0617 39.9079L33.0794 33.1739L30.0794 33.166L30.0617 39.9L33.0617 39.9079ZM31.1912 31.721L30.6889 31.8556L31.4654 34.7534L31.9677 34.6188L31.1912 31.721ZM29.5772 33.2895C29.5712 33.8931 29.5439 34.3576 29.4988 34.7037C29.4765 34.8751 29.4518 35.0018 29.4287 35.0919C29.4048 35.1847 29.3887 35.2147 29.3938 35.2048L32.071 36.5584C32.3 36.1055 32.4101 35.5798 32.4738 35.0909C32.5404 34.5788 32.5705 33.9824 32.5771 33.3195L29.5772 33.2895ZM29.3741 35.2452C29.3689 35.2562 29.3667 35.2581 29.369 35.2552C29.3713 35.2522 29.3732 35.2508 29.3717 35.252C29.3694 35.2539 29.3298 35.2842 29.2141 35.3152L29.9905 38.213C30.8759 37.9758 31.6587 37.4402 32.0907 36.5179L29.3741 35.2452ZM29.2141 35.3152L27.4754 35.7811L28.2519 38.6789L29.9905 38.213L29.2141 35.3152ZM29.3636 37.2316L29.3691 32.0744L26.3691 32.0713L26.3636 37.2284L29.3636 37.2316ZM29.3691 32.0769C29.3697 31.8567 29.379 31.7355 29.3878 31.6729C29.3969 31.6084 29.3966 31.6746 29.335 31.7897C29.3017 31.852 29.255 31.9202 29.1927 31.9861C29.1306 32.0517 29.0672 32.1002 29.0124 32.1343C28.9159 32.1944 28.8583 32.2012 28.9333 32.1811L28.1569 29.2833C27.7663 29.388 27.0905 29.6257 26.6899 30.3743C26.3891 30.9365 26.3703 31.5933 26.3691 32.0688L29.3691 32.0769ZM28.9333 32.1811L31.6959 31.4409L30.9194 28.5431L28.1569 29.2833L28.9333 32.1811ZM31.6959 31.4409C31.7574 31.4244 31.808 31.4112 31.8516 31.4003C31.8953 31.3894 31.9273 31.382 31.9514 31.3769C32.0014 31.3664 31.9996 31.3697 31.9695 31.3712C31.9531 31.372 31.9311 31.3721 31.9053 31.3703C31.8794 31.3685 31.8552 31.3652 31.8342 31.3611C31.7932 31.3532 31.7796 31.3455 31.8113 31.3578L32.8988 28.5618C32.5892 28.4414 32.2437 28.3543 31.8243 28.3747C31.485 28.3911 31.1571 28.4794 30.9194 28.5431L31.6959 31.4409ZM31.8113 31.3578C31.685 31.3087 31.587 31.2365 31.5214 31.17C31.4631 31.1109 31.4469 31.073 31.4594 31.0966C31.472 31.1204 31.4995 31.1791 31.539 31.2928C31.5779 31.4048 31.6214 31.5493 31.6718 31.7372L34.5695 30.9608C34.4538 30.5286 34.314 30.0759 34.1094 29.6903C33.8919 29.2804 33.5263 28.8059 32.8988 28.5618L31.8113 31.3578ZM31.6718 31.7372C31.7453 32.0117 31.8452 32.6859 31.9861 33.928L34.967 33.59C34.8344 32.4207 34.7134 31.4977 34.5695 30.9608L31.6718 31.7372ZM33.8648 35.2079L34.3864 35.0681L33.6099 32.1703L33.0883 32.3101L33.8648 35.2079ZM35.4962 33.5432L35.2495 28.6814L32.2533 28.8335L32.5001 33.6953L35.4962 33.5432ZM33.3632 27.3085L23.6846 29.9019L24.4611 32.7997L34.1396 30.2063L33.3632 27.3085ZM45.0277 25.4668L44.6395 24.0179L43.744 24.2578L43.5582 25.1661L45.0277 25.4668ZM44.6063 27.526L43.491 28.529L45.4796 30.7403L46.0759 27.8267L44.6063 27.526ZM36.4695 30.9279L35.0547 30.4296L35.0522 30.4366L35.0498 30.4436L36.4695 30.9279ZM38.5186 41.125L37.6611 42.3558L38.5186 41.125ZM45.1876 39.5865L46.3779 40.4993L45.1876 39.5865ZM46.5275 35.3142L48.0272 35.3437L48.0536 34.005L46.7264 33.8274L46.5275 35.3142ZM46.0121 35.2452L46.211 33.7584L44.6149 33.5449L44.515 35.1521L46.0121 35.2452ZM40.1188 40.22L39.1286 41.3467L39.1442 41.3604L39.1601 41.3736L40.1188 40.22ZM38.3552 30.5469L39.7873 30.9929L39.7873 30.9929L38.3552 30.5469ZM43.4492 27.3805L42.6992 28.6796L42.7102 28.6859L42.7214 28.6921L43.4492 27.3805ZM45.3128 31.1672L43.8247 31.3561L44.0412 33.0609L45.701 32.6161L45.3128 31.1672ZM45.8344 31.0275L46.2226 32.4764L47.4054 32.1594L47.3317 30.9371L45.8344 31.0275ZM45.4913 25.3426L46.9886 25.2522L46.8779 23.4181L45.1031 23.8937L45.4913 25.3426ZM43.5582 25.1661L43.1368 27.2253L46.0759 27.8267L46.4972 25.7675L43.5582 25.1661ZM45.7216 26.523C44.4638 25.1244 42.399 24.5975 40.6547 25.0649L41.4311 27.9627C42.1596 27.7675 43.0382 28.0256 43.491 28.529L45.7216 26.523ZM40.6547 25.0649C37.9265 25.7959 35.9355 27.929 35.0547 30.4296L37.8843 31.4262C38.4853 29.72 39.7933 28.4015 41.4311 27.9627L40.6547 25.0649ZM35.0498 30.4436C34.2535 32.7782 34.1061 35.476 34.7528 37.8894L37.6506 37.113C37.1688 35.3149 37.2708 33.2251 37.8892 31.4122L35.0498 30.4436ZM34.7528 37.8894C35.2594 39.7802 36.2057 41.3418 37.6611 42.3558L39.376 39.8943C38.642 39.3829 38.0239 38.5064 37.6506 37.113L34.7528 37.8894ZM37.6611 42.3558C39.1437 43.3887 40.86 43.6449 42.6282 43.1711L41.8517 40.2733C40.8767 40.5346 40.0828 40.3867 39.376 39.8943L37.6611 42.3558ZM42.6282 43.1711C44.1226 42.7707 45.37 41.8137 46.3779 40.4993L43.9973 38.6738C43.2867 39.6005 42.5595 40.0837 41.8517 40.2733L42.6282 43.1711ZM46.3779 40.4993C47.472 39.0724 47.9883 37.3182 48.0272 35.3437L45.0278 35.2846C44.9986 36.7654 44.6217 37.8595 43.9973 38.6738L46.3779 40.4993ZM46.7264 33.8274L46.211 33.7584L45.8132 36.732L46.3286 36.8009L46.7264 33.8274ZM44.515 35.1521C44.3477 37.8423 43.2577 39.1098 42.2345 39.3839L43.011 42.2817C45.8902 41.5102 47.3099 38.5439 47.5092 35.3383L44.515 35.1521ZM42.2345 39.3839C41.8557 39.4854 41.525 39.4382 41.0776 39.0664L39.1601 41.3736C40.2576 42.2857 41.5739 42.6668 43.011 42.2817L42.2345 39.3839ZM41.109 39.0933C40.6425 38.6832 40.2004 37.9744 39.8919 36.823L36.9941 37.5994C37.4 39.114 38.0786 40.4239 39.1286 41.3467L41.109 39.0933ZM39.8919 36.823C39.2784 34.5335 39.2791 32.6245 39.7873 30.9929L36.923 30.1008C36.2069 32.4001 36.2721 34.9048 36.9941 37.5994L39.8919 36.823ZM39.7873 30.9929C40.3202 29.2819 41.0609 28.6624 41.7358 28.4815L40.9593 25.5837C38.8911 26.1379 37.6144 27.881 36.923 30.1008L39.7873 30.9929ZM41.7358 28.4815C41.9608 28.4212 42.2684 28.4308 42.6992 28.6796L44.1992 26.0815C43.2094 25.51 42.0867 25.2817 40.9593 25.5837L41.7358 28.4815ZM42.7214 28.6921C42.9418 28.8145 43.312 29.1864 43.5944 30.2404L46.4921 29.464C46.112 28.0452 45.416 26.7565 44.1771 26.069L42.7214 28.6921ZM43.5944 30.2404C43.7024 30.6437 43.78 31.004 43.8247 31.3561L46.8009 30.9783C46.7337 30.4494 46.6222 29.9493 46.4921 29.464L43.5944 30.2404ZM45.701 32.6161L46.2226 32.4764L45.4462 29.5786L44.9246 29.7183L45.701 32.6161ZM47.3317 30.9371L46.9886 25.2522L43.9941 25.4329L44.3371 31.1178L47.3317 30.9371ZM45.1031 23.8937L44.6395 24.0179L45.4159 26.9157L45.8796 26.7914L45.1031 23.8937ZM47.5934 25.0485L47.2052 23.5996L46.1761 23.8753L46.0975 24.9378L47.5934 25.0485ZM47.1903 30.4985L45.6943 30.3879L45.5386 32.494L47.5785 31.9474L47.1903 30.4985ZM47.7119 30.3588L48.1001 31.8077L49.0561 31.5515L49.1967 30.5718L47.7119 30.3588ZM49.8441 25.0252L49.4558 23.5763L49.4321 23.5826L49.4086 23.5898L49.8441 25.0252ZM51.7567 25.6722L50.2572 25.6358L50.2567 25.6536L50.2567 25.6715L51.7567 25.6722ZM51.7511 37.1653L50.2511 37.1645L50.2511 37.167L51.7511 37.1653ZM50.0847 38.7506L49.6964 37.3017L48.6035 37.5945L48.5849 38.7258L50.0847 38.7506ZM50.0751 39.3329L48.5753 39.3082L48.5425 41.2965L50.4633 40.7818L50.0751 39.3329ZM55.5422 37.868L55.9304 39.3169L57.0233 39.024L57.042 37.8927L55.5422 37.868ZM55.5518 37.2857L57.0516 37.3104L57.0844 35.3221L55.1636 35.8368L55.5518 37.2857ZM53.9148 36.5855L55.4146 36.6102L55.4148 36.5982L55.4148 36.5862L53.9148 36.5855ZM53.9204 25.0924L55.4204 25.0932L55.4204 25.0839L55.4203 25.0747L53.9204 25.0924ZM57.9507 27.6153L56.463 27.8072L56.6824 29.508L58.3389 29.0642L57.9507 27.6153ZM58.4723 27.4755L58.8605 28.9244L60.0465 28.6066L59.9693 27.3812L58.4723 27.4755ZM58.1413 22.2222L59.6384 22.1279L59.5232 20.299L57.7531 20.7733L58.1413 22.2222ZM46.0975 24.9378L45.6943 30.3879L48.6862 30.6092L49.0893 25.1591L46.0975 24.9378ZM47.5785 31.9474L48.1001 31.8077L47.3236 28.9099L46.802 29.0496L47.5785 31.9474ZM49.1967 30.5718C49.5252 28.2824 49.7462 27.2438 49.9636 26.7268C50.0515 26.5178 50.094 26.5101 50.0565 26.5407C50.0334 26.5595 50.0494 26.5304 50.2796 26.4606L49.4086 23.5898C49.0547 23.6971 48.5925 23.8635 48.1605 24.2157C47.7142 24.5797 47.4171 25.0435 47.1983 25.5637C46.8023 26.5052 46.5412 27.9562 46.2271 30.1457L49.1967 30.5718ZM50.2323 26.4741L51.488 26.1376L50.7116 23.2398L49.4558 23.5763L50.2323 26.4741ZM51.488 26.1376C51.4866 26.138 51.2476 26.2072 50.923 26.0718C50.7491 25.9992 50.5889 25.882 50.464 25.7281C50.3435 25.5796 50.2846 25.4328 50.2567 25.3287L53.1545 24.5523C53.0226 24.0599 52.6823 23.5551 52.0782 23.3031C51.5497 23.0826 51.0414 23.1514 50.7116 23.2398L51.488 26.1376ZM50.2567 25.3287C50.2481 25.2965 50.2461 25.2805 50.247 25.2868C50.2477 25.2917 50.25 25.3084 50.2523 25.3388C50.2571 25.4004 50.2605 25.498 50.2572 25.6358L53.2563 25.7086C53.266 25.3091 53.2467 24.8963 53.1545 24.5523L50.2567 25.3287ZM50.2567 25.6715L50.2511 37.1645L53.2511 37.166L53.2567 25.6729L50.2567 25.6715ZM50.2511 37.167C50.2514 37.349 50.2401 37.4409 50.2336 37.4763C50.2277 37.5081 50.2346 37.4438 50.2967 37.3434C50.3283 37.2923 50.3686 37.2409 50.4171 37.1935C50.4651 37.1465 50.5119 37.1125 50.5501 37.0892C50.6194 37.0469 50.6513 37.0458 50.5851 37.0636L51.3616 39.9614C51.7986 39.8443 52.4317 39.5954 52.8488 38.9203C53.2059 38.3423 53.2518 37.6802 53.2511 37.1635L50.2511 37.167ZM50.5851 37.0636L49.6964 37.3017L50.4729 40.1995L51.3616 39.9614L50.5851 37.0636ZM48.5849 38.7258L48.5753 39.3082L51.5749 39.3577L51.5845 38.7753L48.5849 38.7258ZM50.4633 40.7818L55.9304 39.3169L55.154 36.4191L49.6868 37.884L50.4633 40.7818ZM57.042 37.8927L57.0516 37.3104L54.052 37.2609L54.0424 37.8432L57.042 37.8927ZM55.1636 35.8368L54.2749 36.0749L55.0514 38.9727L55.94 38.7346L55.1636 35.8368ZM54.2749 36.0749C54.2384 36.0847 54.4618 36.0106 54.7788 36.1437C54.9501 36.2156 55.1053 36.3318 55.2242 36.4806C55.3378 36.6229 55.39 36.7592 55.4134 36.8465L52.5157 37.623C52.6483 38.1179 52.9875 38.6453 53.6174 38.9098C54.1677 39.1408 54.7016 39.0664 55.0514 38.9727L54.2749 36.0749ZM55.4134 36.8465C55.4221 36.8789 55.4245 36.8962 55.4239 36.8925C55.4235 36.8901 55.4217 36.8772 55.4197 36.8519C55.4157 36.8004 55.4128 36.7204 55.4146 36.6102L52.415 36.5607C52.4096 36.8864 52.4237 37.2797 52.5157 37.623L55.4134 36.8465ZM55.4148 36.5862L55.4204 25.0932L52.4204 25.0917L52.4148 36.5848L55.4148 36.5862ZM55.4203 25.0747C55.4178 24.8667 55.4261 24.7536 55.4338 24.6982C55.4415 24.6422 55.4406 24.7072 55.3807 24.8191C55.3487 24.8788 55.3043 24.9437 55.2457 25.0064C55.1872 25.0688 55.1272 25.1158 55.0743 25.1494C54.979 25.21 54.9214 25.2176 54.9847 25.2007L54.2082 22.3029C53.7913 22.4146 53.1311 22.6656 52.7363 23.4023C52.4313 23.9716 52.4148 24.6269 52.4205 25.1102L55.4203 25.0747ZM54.9847 25.2007L56.2597 24.859L55.4832 21.9613L54.2082 22.3029L54.9847 25.2007ZM56.2597 24.859C56.3499 24.8349 56.3234 24.8554 56.2289 24.8447C56.1767 24.8389 56.1113 24.8243 56.0411 24.7948C55.9705 24.7651 55.9127 24.7278 55.8695 24.692C55.7886 24.6249 55.7903 24.5898 55.8388 24.6874C55.8869 24.7843 55.9551 24.9587 56.0334 25.2509L58.9312 24.4745C58.7336 23.737 58.4288 22.9167 57.7842 22.3824C56.9899 21.7239 56.0933 21.7978 55.4832 21.9613L56.2597 24.859ZM56.0334 25.2509C56.1352 25.6308 56.2912 26.4752 56.463 27.8072L59.4384 27.4234C59.2642 26.0735 59.0882 25.0606 58.9312 24.4745L56.0334 25.2509ZM58.3389 29.0642L58.8605 28.9244L58.084 26.0266L57.5624 26.1664L58.3389 29.0642ZM59.9693 27.3812L59.6384 22.1279L56.6443 22.3165L56.9752 27.5698L59.9693 27.3812ZM57.7531 20.7733L47.2052 23.5996L47.9816 26.4974L58.5296 23.6711L57.7531 20.7733Z" fill="#231F1C"/>
</svg>
