<svg width="340" height="160" viewBox="0 0 340 160" fill="none" xmlns="http://www.w3.org/2000/svg">
<g clip-path="url(#clip0_1250_1537)">
<rect width="340" height="160" rx="8" fill="white"/>
<path fill-rule="evenodd" clip-rule="evenodd" d="M267.476 160.399C264.302 172.093 258.876 179.8 252.714 179.8C242.931 179.8 235 160.369 235 136.4C235 112.431 242.931 93 252.714 93C258.876 93 264.302 100.707 267.476 112.401C270.65 100.707 276.076 93 282.238 93C288.399 93 293.826 100.707 296.999 112.401C300.173 100.707 305.6 93 311.761 93C317.923 93 323.35 100.708 326.524 112.404C329.697 100.708 335.125 93 341.287 93C351.07 93 359.001 112.431 359.001 136.4C359.001 160.369 351.07 179.8 341.287 179.8C335.125 179.8 329.697 172.092 326.524 160.396C323.35 172.092 317.923 179.8 311.761 179.8C305.6 179.8 300.173 172.093 296.999 160.399C293.826 172.093 288.399 179.8 282.238 179.8C276.076 179.8 270.65 172.093 267.476 160.399Z" fill="#FF7961"/>
<path d="M33.25 40L27.875 32.8281H26.1719V40H23.7578V24H26.1719V30.7578H26.9609L33.0078 24H35.9531L29.5547 31.1641L36.1953 40H33.25ZM38.8398 44.5C38.4909 44.5 38.1732 44.4714 37.8867 44.4141C37.6003 44.362 37.3867 44.3047 37.2461 44.2422L37.8086 42.3281C38.2357 42.4427 38.6159 42.4922 38.9492 42.4766C39.2826 42.4609 39.5768 42.3359 39.832 42.1016C40.0924 41.8672 40.3216 41.4844 40.5195 40.9531L40.8086 40.1563L36.418 28H38.918L41.957 37.3125H42.082L45.1211 28H47.6289L42.6836 41.6016C42.4544 42.2266 42.1628 42.7552 41.8086 43.1875C41.4544 43.625 41.0326 43.9531 40.543 44.1719C40.0534 44.3906 39.4857 44.5 38.8398 44.5ZM49.8242 44.5V28H52.1055V29.9453H52.3008C52.4362 29.6953 52.6315 29.4062 52.8867 29.0781C53.1419 28.75 53.4961 28.4635 53.9492 28.2187C54.4023 27.9688 55.0013 27.8438 55.7461 27.8438C56.7148 27.8438 57.5794 28.0885 58.3398 28.5781C59.1003 29.0677 59.6966 29.7734 60.1289 30.6953C60.5664 31.6172 60.7852 32.7266 60.7852 34.0234C60.7852 35.3203 60.569 36.4323 60.1367 37.3594C59.7044 38.2812 59.1107 38.9922 58.3555 39.4922C57.6003 39.987 56.7383 40.2344 55.7695 40.2344C55.0404 40.2344 54.444 40.112 53.9805 39.8672C53.5221 39.6224 53.1628 39.3359 52.9023 39.0078C52.6419 38.6797 52.4414 38.388 52.3008 38.1328H52.1602V44.5H49.8242ZM52.1133 34C52.1133 34.8437 52.2357 35.5833 52.4805 36.2188C52.7253 36.8542 53.0794 37.3516 53.543 37.7109C54.0065 38.0651 54.5742 38.2422 55.2461 38.2422C55.944 38.2422 56.5273 38.0573 56.9961 37.6875C57.4648 37.3125 57.819 36.8047 58.0586 36.1641C58.3034 35.5234 58.4258 34.8021 58.4258 34C58.4258 33.2083 58.306 32.4974 58.0664 31.8672C57.832 31.237 57.4779 30.7396 57.0039 30.375C56.5352 30.0104 55.9492 29.8281 55.2461 29.8281C54.569 29.8281 53.9961 30.0026 53.5273 30.3516C53.0638 30.7005 52.7122 31.1875 52.4727 31.8125C52.2331 32.4375 52.1133 33.1667 52.1133 34ZM65.6914 36.7266L70.9805 28H73.4961V40H71.207V31.2656L65.9414 40H63.4023V28H65.6914V36.7266ZM75.6914 40L75.6836 37.9766H76.1133C76.4466 37.9766 76.7253 37.9062 76.9492 37.7656C77.1784 37.6198 77.3659 37.375 77.5117 37.0312C77.6576 36.6875 77.7695 36.2135 77.8477 35.6094C77.9258 35 77.9831 34.2344 78.0195 33.3125L78.2305 28H86.6055V40H84.3164V30.0156H80.3945L80.207 34.0938C80.1602 35.0833 80.0586 35.9479 79.9023 36.6875C79.7513 37.4271 79.5299 38.0443 79.2383 38.5391C78.9466 39.0286 78.5716 39.3958 78.1133 39.6406C77.6549 39.8802 77.0977 40 76.4414 40H75.6914ZM91.2598 40.1484C90.8327 40.1484 90.4655 39.9974 90.1582 39.6953C89.8509 39.388 89.6973 39.0182 89.6973 38.5859C89.6973 38.1589 89.8509 37.7943 90.1582 37.4922C90.4655 37.1849 90.8327 37.0312 91.2598 37.0312C91.6868 37.0312 92.054 37.1849 92.3613 37.4922C92.6686 37.7943 92.8223 38.1589 92.8223 38.5859C92.8223 38.8724 92.7493 39.1354 92.6035 39.375C92.4629 39.6094 92.2754 39.7969 92.041 39.9375C91.8066 40.0781 91.5462 40.1484 91.2598 40.1484ZM102.836 40.2187V38.0938H103.797C104.198 38.0938 104.529 38.026 104.789 37.8906C105.055 37.7552 105.271 37.5729 105.438 37.3437C105.609 37.1094 105.753 36.8542 105.867 36.5781L106.094 36.0078L100.469 24H103.031L107.227 33.25L110.961 24H113.492L107.961 37.2266C107.727 37.7578 107.456 38.25 107.148 38.7031C106.846 39.1562 106.443 39.5234 105.937 39.8047C105.432 40.0807 104.763 40.2187 103.93 40.2187H102.836ZM118.666 40.2422C117.505 40.2422 116.505 39.9792 115.666 39.4531C114.833 38.9219 114.192 38.1901 113.744 37.2578C113.296 36.3255 113.072 35.2578 113.072 34.0547C113.072 32.8359 113.301 31.7604 113.76 30.8281C114.218 29.8906 114.864 29.1589 115.697 28.6328C116.531 28.1068 117.512 27.8438 118.643 27.8438C119.554 27.8438 120.367 28.013 121.08 28.3516C121.794 28.6849 122.369 29.1536 122.807 29.7578C123.249 30.362 123.512 31.0677 123.596 31.875H121.322C121.197 31.3125 120.911 30.8281 120.463 30.4219C120.02 30.0156 119.426 29.8125 118.682 29.8125C118.031 29.8125 117.46 29.9844 116.971 30.3281C116.486 30.6667 116.109 31.151 115.838 31.7812C115.567 32.4062 115.432 33.1458 115.432 34C115.432 34.875 115.564 35.6302 115.83 36.2656C116.096 36.901 116.471 37.3932 116.955 37.7422C117.445 38.0911 118.02 38.2656 118.682 38.2656C119.124 38.2656 119.525 38.1849 119.885 38.0234C120.249 37.8568 120.554 37.6198 120.799 37.3125C121.049 37.0052 121.223 36.6354 121.322 36.2031H123.596C123.512 36.9792 123.26 37.6719 122.838 38.2812C122.416 38.8906 121.851 39.3698 121.143 39.7187C120.439 40.0677 119.614 40.2422 118.666 40.2422ZM134.227 32.9922V35.0156H127.727V32.9922H134.227ZM128.383 28V40H126.094V28H128.383ZM135.859 28V40H133.578V28H135.859ZM140.031 44.5C139.682 44.5 139.365 44.4714 139.078 44.4141C138.792 44.362 138.578 44.3047 138.438 44.2422L139 42.3281C139.427 42.4427 139.807 42.4922 140.141 42.4766C140.474 42.4609 140.768 42.3359 141.023 42.1016C141.284 41.8672 141.513 41.4844 141.711 40.9531L142 40.1563L137.609 28H140.109L143.148 37.3125H143.273L146.313 28H148.82L143.875 41.6016C143.646 42.2266 143.354 42.7552 143 43.1875C142.646 43.625 142.224 43.9531 141.734 44.1719C141.245 44.3906 140.677 44.5 140.031 44.5ZM149.082 40L149.074 37.9766H149.504C149.837 37.9766 150.116 37.9062 150.34 37.7656C150.569 37.6198 150.757 37.375 150.902 37.0312C151.048 36.6875 151.16 36.2135 151.238 35.6094C151.316 35 151.374 34.2344 151.41 33.3125L151.621 28H159.996V40H157.707V30.0156H153.785L153.598 34.0938C153.551 35.0833 153.449 35.9479 153.293 36.6875C153.142 37.4271 152.921 38.0443 152.629 38.5391C152.337 39.0286 151.962 39.3958 151.504 39.6406C151.046 39.8802 150.488 40 149.832 40H149.082ZM164.65 40.1484C164.223 40.1484 163.856 39.9974 163.549 39.6953C163.242 39.388 163.088 39.0182 163.088 38.5859C163.088 38.1589 163.242 37.7943 163.549 37.4922C163.856 37.1849 164.223 37.0312 164.65 37.0312C165.077 37.0312 165.445 37.1849 165.752 37.4922C166.059 37.7943 166.213 38.1589 166.213 38.5859C166.213 38.8724 166.14 39.1354 165.994 39.375C165.854 39.6094 165.666 39.7969 165.432 39.9375C165.197 40.0781 164.937 40.1484 164.65 40.1484ZM187.602 24V40H185.195V26.0625H177.664V40H175.258V24H187.602ZM196.16 40.2422C195.035 40.2422 194.053 39.9844 193.215 39.4687C192.376 38.9531 191.725 38.2318 191.262 37.3047C190.798 36.3776 190.566 35.2943 190.566 34.0547C190.566 32.8099 190.798 31.7214 191.262 30.7891C191.725 29.8568 192.376 29.1328 193.215 28.6172C194.053 28.1016 195.035 27.8438 196.16 27.8438C197.285 27.8438 198.267 28.1016 199.105 28.6172C199.944 29.1328 200.595 29.8568 201.059 30.7891C201.522 31.7214 201.754 32.8099 201.754 34.0547C201.754 35.2943 201.522 36.3776 201.059 37.3047C200.595 38.2318 199.944 38.9531 199.105 39.4687C198.267 39.9844 197.285 40.2422 196.16 40.2422ZM196.168 38.2812C196.897 38.2812 197.501 38.0885 197.98 37.7031C198.46 37.3177 198.814 36.8047 199.043 36.1641C199.277 35.5234 199.395 34.8177 199.395 34.0469C199.395 33.2812 199.277 32.5781 199.043 31.9375C198.814 31.2917 198.46 30.7734 197.98 30.3828C197.501 29.9922 196.897 29.7969 196.168 29.7969C195.434 29.7969 194.824 29.9922 194.34 30.3828C193.861 30.7734 193.504 31.2917 193.27 31.9375C193.04 32.5781 192.926 33.2812 192.926 34.0469C192.926 34.8177 193.04 35.5234 193.27 36.1641C193.504 36.8047 193.861 37.3177 194.34 37.7031C194.824 38.0885 195.434 38.2812 196.168 38.2812ZM203.123 40L207.771 33.8594L203.178 28H205.896L209.607 32.9844H210.443V28H212.779V32.9844H213.592L217.303 28H220.021L215.451 33.8594L220.076 40H217.303L213.561 35H212.779V40H210.443V35H209.662L205.896 40H203.123ZM225.922 40.2656C225.161 40.2656 224.474 40.125 223.859 39.8437C223.245 39.5573 222.758 39.1432 222.398 38.6016C222.044 38.0599 221.867 37.3958 221.867 36.6094C221.867 35.9323 221.997 35.375 222.258 34.9375C222.518 34.5 222.87 34.1536 223.313 33.8984C223.755 33.6432 224.25 33.4505 224.797 33.3203C225.344 33.1901 225.901 33.0911 226.469 33.0234C227.188 32.9401 227.771 32.8724 228.219 32.8203C228.667 32.763 228.992 32.6719 229.195 32.5469C229.398 32.4219 229.5 32.2187 229.5 31.9375V31.8828C229.5 31.2005 229.307 30.6719 228.922 30.2969C228.542 29.9219 227.974 29.7344 227.219 29.7344C226.432 29.7344 225.813 29.9089 225.359 30.2578C224.911 30.6016 224.602 30.9844 224.43 31.4062L222.234 30.9062C222.495 30.1771 222.875 29.5885 223.375 29.1406C223.88 28.6875 224.461 28.3594 225.117 28.1562C225.773 27.9479 226.464 27.8438 227.188 27.8438C227.667 27.8438 228.174 27.901 228.711 28.0156C229.253 28.125 229.758 28.3281 230.227 28.625C230.701 28.9219 231.089 29.3464 231.391 29.8984C231.693 30.4453 231.844 31.1563 231.844 32.0313V40H229.563V38.3594H229.469C229.318 38.6615 229.091 38.9583 228.789 39.25C228.487 39.5417 228.099 39.7839 227.625 39.9766C227.151 40.1693 226.583 40.2656 225.922 40.2656ZM226.43 38.3906C227.076 38.3906 227.628 38.263 228.086 38.0078C228.549 37.7526 228.901 37.4193 229.141 37.0078C229.385 36.5911 229.508 36.1458 229.508 35.6719V34.125C229.424 34.2083 229.263 34.2865 229.023 34.3594C228.789 34.4271 228.521 34.487 228.219 34.5391C227.917 34.5859 227.622 34.6302 227.336 34.6719C227.049 34.7083 226.81 34.7396 226.617 34.7656C226.164 34.8229 225.75 34.9193 225.375 35.0547C225.005 35.1901 224.708 35.3854 224.484 35.6406C224.266 35.8906 224.156 36.224 224.156 36.6406C224.156 37.2187 224.37 37.6562 224.797 37.9531C225.224 38.2448 225.768 38.3906 226.43 38.3906ZM234.955 44.5V28H237.236V29.9453H237.432C237.567 29.6953 237.762 29.4062 238.018 29.0781C238.273 28.75 238.627 28.4635 239.08 28.2187C239.533 27.9688 240.132 27.8438 240.877 27.8438C241.846 27.8438 242.71 28.0885 243.471 28.5781C244.231 29.0677 244.827 29.7734 245.26 30.6953C245.697 31.6172 245.916 32.7266 245.916 34.0234C245.916 35.3203 245.7 36.4323 245.268 37.3594C244.835 38.2812 244.242 38.9922 243.486 39.4922C242.731 39.987 241.869 40.2344 240.9 40.2344C240.171 40.2344 239.575 40.112 239.111 39.8672C238.653 39.6224 238.294 39.3359 238.033 39.0078C237.773 38.6797 237.572 38.388 237.432 38.1328H237.291V44.5H234.955ZM237.244 34C237.244 34.8437 237.367 35.5833 237.611 36.2188C237.856 36.8542 238.21 37.3516 238.674 37.7109C239.137 38.0651 239.705 38.2422 240.377 38.2422C241.075 38.2422 241.658 38.0573 242.127 37.6875C242.596 37.3125 242.95 36.8047 243.189 36.1641C243.434 35.5234 243.557 34.8021 243.557 34C243.557 33.2083 243.437 32.4974 243.197 31.8672C242.963 31.237 242.609 30.7396 242.135 30.375C241.666 30.0104 241.08 29.8281 240.377 29.8281C239.7 29.8281 239.127 30.0026 238.658 30.3516C238.195 30.7005 237.843 31.1875 237.604 31.8125C237.364 32.4375 237.244 33.1667 237.244 34ZM250.072 40.1484C249.645 40.1484 249.278 39.9974 248.971 39.6953C248.663 39.388 248.51 39.0182 248.51 38.5859C248.51 38.1589 248.663 37.7943 248.971 37.4922C249.278 37.1849 249.645 37.0312 250.072 37.0312C250.499 37.0312 250.867 37.1849 251.174 37.4922C251.481 37.7943 251.635 38.1589 251.635 38.5859C251.635 38.8724 251.562 39.1354 251.416 39.375C251.275 39.6094 251.088 39.7969 250.854 39.9375C250.619 40.0781 250.359 40.1484 250.072 40.1484ZM24.0781 44H26.4609V49.2812C26.4609 50.0156 26.5885 50.5964 26.8438 51.0234C27.099 51.4453 27.4688 51.7448 27.9531 51.9219C28.4427 52.099 29.0365 52.1875 29.7344 52.1875C30.1042 52.1875 30.4792 52.1745 30.8594 52.1484C31.2448 52.1172 31.6276 52.0755 32.0078 52.0234C32.388 51.9661 32.7552 51.901 33.1094 51.8281C33.4688 51.75 33.8021 51.6641 34.1094 51.5703V53.625C33.8073 53.724 33.487 53.8125 33.1484 53.8906C32.8151 53.9635 32.4661 54.0286 32.1016 54.0859C31.737 54.138 31.3568 54.1797 30.9609 54.2109C30.5651 54.2422 30.1563 54.2578 29.7344 54.2578C28.5677 54.2578 27.5599 54.0911 26.7109 53.7578C25.8672 53.4193 25.2161 52.8854 24.7578 52.1562C24.3047 51.4271 24.0781 50.4687 24.0781 49.2812V44ZM33.75 44H36.1406V60H33.75V44ZM38.9902 50.0156V48H49.1152V50.0156H45.2012V60H42.9199V50.0156H38.9902ZM56.082 60.2422C54.957 60.2422 53.9753 59.9844 53.1367 59.4687C52.2982 58.9531 51.6471 58.2318 51.1836 57.3047C50.7201 56.3776 50.4883 55.2943 50.4883 54.0547C50.4883 52.8099 50.7201 51.7214 51.1836 50.7891C51.6471 49.8568 52.2982 49.1328 53.1367 48.6172C53.9753 48.1016 54.957 47.8438 56.082 47.8438C57.207 47.8438 58.1888 48.1016 59.0273 48.6172C59.8659 49.1328 60.5169 49.8568 60.9805 50.7891C61.444 51.7214 61.6758 52.8099 61.6758 54.0547C61.6758 55.2943 61.444 56.3776 60.9805 57.3047C60.5169 58.2318 59.8659 58.9531 59.0273 59.4687C58.1888 59.9844 57.207 60.2422 56.082 60.2422ZM56.0898 58.2812C56.819 58.2812 57.4232 58.0885 57.9023 57.7031C58.3815 57.3177 58.7357 56.8047 58.9648 56.1641C59.1992 55.5234 59.3164 54.8177 59.3164 54.0469C59.3164 53.2812 59.1992 52.5781 58.9648 51.9375C58.7357 51.2917 58.3815 50.7734 57.9023 50.3828C57.4232 49.9922 56.819 49.7969 56.0898 49.7969C55.3555 49.7969 54.7461 49.9922 54.2617 50.3828C53.7826 50.7734 53.4258 51.2917 53.1914 51.9375C52.9622 52.5781 52.8477 53.2812 52.8477 54.0469C52.8477 54.8177 52.9622 55.5234 53.1914 56.1641C53.4258 56.8047 53.7826 57.3177 54.2617 57.7031C54.7461 58.0885 55.3555 58.2812 56.0898 58.2812ZM68.9336 63.4609V57.9766H69.9102C70.1602 57.7474 70.3711 57.474 70.543 57.1562C70.7201 56.8385 70.8685 56.4609 70.9883 56.0234C71.1133 55.5859 71.2174 55.0755 71.3008 54.4922C71.3841 53.9036 71.457 53.2318 71.5195 52.4766L71.8945 48H80.0508V57.9766H81.8945V63.4609H79.6133V60H71.2461V63.4609H68.9336ZM72.4102 57.9766H77.7695V50H73.9883L73.7383 52.4766C73.6185 53.737 73.4674 54.8307 73.2852 55.7578C73.1029 56.6797 72.8112 57.4193 72.4102 57.9766ZM87.6699 60.2656C86.9095 60.2656 86.222 60.125 85.6074 59.8437C84.9928 59.5573 84.5059 59.1432 84.1465 58.6016C83.7923 58.0599 83.6152 57.3958 83.6152 56.6094C83.6152 55.9323 83.7454 55.375 84.0059 54.9375C84.2663 54.5 84.6178 54.1536 85.0605 53.8984C85.5033 53.6432 85.998 53.4505 86.5449 53.3203C87.0918 53.1901 87.6491 53.0911 88.2168 53.0234C88.9355 52.9401 89.5189 52.8724 89.9668 52.8203C90.4147 52.763 90.7402 52.6719 90.9434 52.5469C91.1465 52.4219 91.248 52.2187 91.248 51.9375V51.8828C91.248 51.2005 91.0553 50.6719 90.6699 50.2969C90.2897 49.9219 89.722 49.7344 88.9668 49.7344C88.1803 49.7344 87.5605 49.9089 87.1074 50.2578C86.6595 50.6016 86.3496 50.9844 86.1777 51.4062L83.9824 50.9062C84.2428 50.1771 84.623 49.5885 85.123 49.1406C85.6283 48.6875 86.209 48.3594 86.8652 48.1562C87.5215 47.9479 88.2116 47.8438 88.9355 47.8438C89.4147 47.8438 89.9225 47.901 90.459 48.0156C91.0007 48.125 91.5059 48.3281 91.9746 48.625C92.4486 48.9219 92.8366 49.3464 93.1387 49.8984C93.4408 50.4453 93.5918 51.1563 93.5918 52.0313V60H91.3105V58.3594H91.2168C91.0658 58.6615 90.8392 58.9583 90.5371 59.25C90.235 59.5417 89.847 59.7839 89.373 59.9766C88.8991 60.1693 88.3314 60.2656 87.6699 60.2656ZM88.1777 58.3906C88.8236 58.3906 89.3757 58.263 89.834 58.0078C90.2975 57.7526 90.6491 57.4193 90.8887 57.0078C91.1335 56.5911 91.2559 56.1458 91.2559 55.6719V54.125C91.1725 54.2083 91.0111 54.2865 90.7715 54.3594C90.5371 54.4271 90.2689 54.487 89.9668 54.5391C89.6647 54.5859 89.3704 54.6302 89.084 54.6719C88.7975 54.7083 88.5579 54.7396 88.3652 54.7656C87.9121 54.8229 87.498 54.9193 87.123 55.0547C86.7533 55.1901 86.4564 55.3854 86.2324 55.6406C86.0137 55.8906 85.9043 56.224 85.9043 56.6406C85.9043 57.2187 86.1178 57.6562 86.5449 57.9531C86.972 58.2448 87.5163 58.3906 88.1777 58.3906ZM95.7578 60L95.75 57.9766H96.1797C96.513 57.9766 96.7917 57.9062 97.0156 57.7656C97.2448 57.6198 97.4323 57.375 97.5781 57.0312C97.724 56.6875 97.8359 56.2135 97.9141 55.6094C97.9922 55 98.0495 54.2344 98.0859 53.3125L98.2969 48H106.672V60H104.383V50.0156H100.461L100.273 54.0938C100.227 55.0833 100.125 55.9479 99.9688 56.6875C99.8177 57.4271 99.5964 58.0443 99.3047 58.5391C99.013 59.0286 98.638 59.3958 98.1797 59.6406C97.7214 59.8802 97.1641 60 96.5078 60H95.7578ZM111.545 52.125H115.029C116.498 52.125 117.628 52.4896 118.42 53.2187C119.212 53.9479 119.607 54.888 119.607 56.0391C119.607 56.7891 119.43 57.4635 119.076 58.0625C118.722 58.6615 118.204 59.1354 117.521 59.4844C116.839 59.8281 116.008 60 115.029 60H109.787V48H112.076V57.9844H115.029C115.701 57.9844 116.253 57.8099 116.686 57.4609C117.118 57.1068 117.334 56.6563 117.334 56.1094C117.334 55.5312 117.118 55.0599 116.686 54.6953C116.253 54.3255 115.701 54.1406 115.029 54.1406H111.545V52.125ZM122.227 48H124.516V57.9766H128.664V48H130.953V57.9766H135.102V48H137.391V60H122.227V48ZM145.682 60.2422C144.499 60.2422 143.481 59.9896 142.627 59.4844C141.778 58.974 141.122 58.2578 140.658 57.3359C140.2 56.4089 139.971 55.3229 139.971 54.0781C139.971 52.849 140.2 51.7656 140.658 50.8281C141.122 49.8906 141.768 49.1589 142.596 48.6328C143.429 48.1068 144.403 47.8438 145.518 47.8438C146.195 47.8438 146.851 47.9557 147.486 48.1797C148.122 48.4036 148.692 48.7552 149.197 49.2344C149.702 49.7135 150.101 50.3359 150.393 51.1016C150.684 51.862 150.83 52.7865 150.83 53.875V54.7031H141.291V52.9531H148.541C148.541 52.3385 148.416 51.7943 148.166 51.3203C147.916 50.8411 147.564 50.4635 147.111 50.1875C146.663 49.9115 146.137 49.7734 145.533 49.7734C144.877 49.7734 144.304 49.9349 143.814 50.2578C143.33 50.5755 142.955 50.9922 142.689 51.5078C142.429 52.0182 142.299 52.5729 142.299 53.1719V54.5391C142.299 55.3411 142.439 56.0234 142.721 56.5859C143.007 57.1484 143.406 57.5781 143.916 57.875C144.426 58.1667 145.023 58.3125 145.705 58.3125C146.148 58.3125 146.551 58.25 146.916 58.125C147.281 57.9948 147.596 57.8021 147.861 57.5469C148.127 57.2917 148.33 56.9766 148.471 56.6016L150.682 57C150.505 57.651 150.187 58.2214 149.729 58.7109C149.275 59.1953 148.705 59.5729 148.018 59.8437C147.335 60.1094 146.557 60.2422 145.682 60.2422ZM155.977 55.3984V55.25C155.987 54.2812 156.083 53.5104 156.266 52.9375C156.453 52.3646 156.719 51.901 157.063 51.5469C157.406 51.1927 157.82 50.8698 158.305 50.5781C158.617 50.3802 158.898 50.1589 159.148 49.9141C159.398 49.6693 159.596 49.388 159.742 49.0703C159.888 48.7526 159.961 48.401 159.961 48.0156C159.961 47.5521 159.852 47.151 159.633 46.8125C159.414 46.474 159.122 46.2135 158.758 46.0312C158.398 45.8437 157.997 45.75 157.555 45.75C157.154 45.75 156.771 45.8333 156.406 46C156.042 46.1667 155.74 46.4271 155.5 46.7812C155.26 47.1302 155.122 47.5807 155.086 48.1328H152.711C152.747 47.1953 152.984 46.4036 153.422 45.7578C153.859 45.1068 154.438 44.6146 155.156 44.2812C155.88 43.9479 156.68 43.7812 157.555 43.7812C158.513 43.7812 159.352 43.9609 160.07 44.3203C160.789 44.6745 161.346 45.1719 161.742 45.8125C162.143 46.4479 162.344 47.1901 162.344 48.0391C162.344 48.6224 162.253 49.1484 162.07 49.6172C161.888 50.0807 161.628 50.4948 161.289 50.8594C160.956 51.224 160.555 51.5469 160.086 51.8281C159.643 52.1042 159.284 52.3906 159.008 52.6875C158.737 52.9844 158.539 53.3359 158.414 53.7422C158.289 54.1484 158.221 54.651 158.211 55.25V55.3984H155.977ZM157.156 60.1484C156.729 60.1484 156.362 59.9974 156.055 59.6953C155.747 59.388 155.594 59.0182 155.594 58.5859C155.594 58.1589 155.747 57.7943 156.055 57.4922C156.362 57.1849 156.729 57.0312 157.156 57.0312C157.578 57.0312 157.943 57.1849 158.25 57.4922C158.563 57.7943 158.719 58.1589 158.719 58.5859C158.719 58.8724 158.646 59.1354 158.5 59.375C158.359 59.6094 158.172 59.7969 157.938 59.9375C157.703 60.0781 157.443 60.1484 157.156 60.1484Z" fill="#231F1C"/>
<path d="M273.133 126.078V124H285.516V126.078H280.523V140H278.117V126.078H273.133ZM291.496 140.242C290.314 140.242 289.296 139.99 288.441 139.484C287.592 138.974 286.936 138.258 286.473 137.336C286.014 136.409 285.785 135.323 285.785 134.078C285.785 132.849 286.014 131.766 286.473 130.828C286.936 129.891 287.582 129.159 288.41 128.633C289.243 128.107 290.217 127.844 291.332 127.844C292.009 127.844 292.665 127.956 293.301 128.18C293.936 128.404 294.507 128.755 295.012 129.234C295.517 129.714 295.915 130.336 296.207 131.102C296.499 131.862 296.645 132.786 296.645 133.875V134.703H287.105V132.953H294.355C294.355 132.339 294.23 131.794 293.98 131.32C293.73 130.841 293.379 130.464 292.926 130.187C292.478 129.911 291.952 129.773 291.348 129.773C290.691 129.773 290.118 129.935 289.629 130.258C289.145 130.576 288.77 130.992 288.504 131.508C288.243 132.018 288.113 132.573 288.113 133.172V134.539C288.113 135.341 288.254 136.023 288.535 136.586C288.822 137.148 289.22 137.578 289.73 137.875C290.241 138.167 290.837 138.312 291.52 138.312C291.962 138.312 292.366 138.25 292.73 138.125C293.095 137.995 293.41 137.802 293.676 137.547C293.941 137.292 294.145 136.977 294.285 136.602L296.496 137C296.319 137.651 296.001 138.221 295.543 138.711C295.09 139.195 294.52 139.573 293.832 139.844C293.15 140.109 292.371 140.242 291.496 140.242ZM304.291 140.242C303.13 140.242 302.13 139.979 301.291 139.453C300.458 138.922 299.817 138.19 299.369 137.258C298.921 136.326 298.697 135.258 298.697 134.055C298.697 132.836 298.926 131.76 299.385 130.828C299.843 129.891 300.489 129.159 301.322 128.633C302.156 128.107 303.137 127.844 304.268 127.844C305.179 127.844 305.992 128.013 306.705 128.352C307.419 128.685 307.994 129.154 308.432 129.758C308.874 130.362 309.137 131.068 309.221 131.875H306.947C306.822 131.312 306.536 130.828 306.088 130.422C305.645 130.016 305.051 129.812 304.307 129.812C303.656 129.812 303.085 129.984 302.596 130.328C302.111 130.667 301.734 131.151 301.463 131.781C301.192 132.406 301.057 133.146 301.057 134C301.057 134.875 301.189 135.63 301.455 136.266C301.721 136.901 302.096 137.393 302.58 137.742C303.07 138.091 303.645 138.266 304.307 138.266C304.749 138.266 305.15 138.185 305.51 138.023C305.874 137.857 306.179 137.62 306.424 137.312C306.674 137.005 306.848 136.635 306.947 136.203H309.221C309.137 136.979 308.885 137.672 308.463 138.281C308.041 138.891 307.476 139.37 306.768 139.719C306.064 140.068 305.239 140.242 304.291 140.242ZM310.811 130.016V128H320.936V130.016H317.021V140H314.74V130.016H310.811Z" fill="white"/>
</g>
<defs>
<clipPath id="clip0_1250_1537">
<rect width="340" height="160" rx="8" fill="white"/>
</clipPath>
</defs>
</svg>
