<svg width="90" height="90" viewBox="0 0 90 90" fill="none" xmlns="http://www.w3.org/2000/svg">
<rect x="0.612244" y="0.306122" width="89.3878" height="89.3878" rx="44.6939" fill="#3C65F7"/>
<path d="M48.0768 16.8612L40.0341 16.9345C38.4035 16.9345 37.0295 18.3268 37.0295 19.9574C37.0295 25.6551 34.2814 28.5131 31.35 30.3819C29.8661 31.2979 28.3455 31.9025 27.2096 32.2506C26.6416 32.4338 26.1653 32.5437 25.8538 32.617C25.689 32.6536 25.5424 32.6719 25.4508 32.6903C25.4141 32.6903 25.3775 32.7086 25.3409 32.7269C25.3409 32.7269 25.3225 32.7269 25.3042 32.7269C25.2859 32.7269 25.2676 32.7269 25.2309 32.7269C25.1943 32.7452 24.9561 32.8185 24.9561 32.8185L24.9378 32.8368H24.9012C23.692 33.2948 22.9592 34.4307 22.9592 35.6582V41.9972C22.9592 43.6277 24.3332 45.0018 25.9638 45.0018H32.3394V56.1957C32.3394 57.1301 32.321 61.1606 34.1714 65.1545C36.0401 69.1668 40.2722 73.1424 47.3623 73.1424C52.5471 73.1424 56.596 72.1714 59.3807 71.1637C60.7914 70.6507 61.8723 70.1194 62.6418 69.6981C63.0265 69.4965 63.3197 69.3133 63.5578 69.1851C63.7777 69.0385 63.7227 69.1301 64.1258 68.782L64.1441 68.7454L64.1624 68.7271C64.8036 68.1591 65.1701 67.3164 65.1701 66.4736V59.4568C65.1701 58.3759 64.5472 57.3682 63.6494 56.8369L63.6311 56.8186L63.5945 56.8003C62.6601 56.3056 61.4693 56.3056 60.5166 56.9285L60.7548 56.8003C60.6998 56.8186 57.2372 59.0721 54.0311 59.0721C52.2173 59.0721 51.8875 58.5408 51.5211 57.9362C51.3379 57.6431 51.228 57.295 51.173 57.0201C51.0998 56.7453 51.0998 56.2873 51.0998 56.727V45.0018H57.457C59.0876 45.0018 60.48 43.646 60.48 41.9972V34.0277C60.48 32.3788 59.0876 31.0048 57.457 31.0048L51.0998 30.9498V19.8658C51.0998 18.2352 49.7257 16.8612 48.0952 16.8612H48.0768ZM46.4097 21.5696V35.6033L55.7899 35.6949V40.3117H46.4097V56.727C46.4097 57.2766 46.4463 57.4415 46.5929 58.0644C46.7211 58.7057 46.9959 59.5118 47.5089 60.3728C48.5349 62.0583 50.8249 63.7622 54.0311 63.7622C57.7502 63.7622 59.1242 62.5347 60.48 61.7286V65.5393C60.4433 65.5576 60.4433 65.5576 60.4067 65.5942C59.8204 65.9057 58.9593 66.3271 57.7868 66.7484C55.4601 67.5912 51.9608 68.4523 47.3623 68.4523C41.8661 68.4523 39.7592 66.0339 38.4218 63.1759C37.1027 60.3362 37.0295 57.0568 37.0295 56.1957V40.3117H27.6493V36.9773C27.9607 36.904 28.2172 36.8491 28.6019 36.7208C30.031 36.2811 31.918 35.5483 33.8417 34.3391C37.3409 32.1406 40.6203 27.817 41.2615 21.6246L46.4097 21.5696Z" fill="#EFEFEF"/>
</svg>
