<svg width="20" height="20" viewBox="0 0 20 20" fill="none" xmlns="http://www.w3.org/2000/svg">
<rect width="20" height="20" rx="10" fill="#3C65F7"/>
<path d="M9.18372 5.55645C8.43736 5.54952 7.87407 5.58418 7.40232 5.82333C7.20869 5.92037 7.07138 6.04514 6.96577 6.19071C6.90944 6.26349 6.85663 6.32934 6.83199 6.48184C6.8179 6.55462 6.80734 6.67593 6.88479 6.80763C6.96225 6.9428 7.12771 7.03291 7.24037 7.05024C7.32486 7.06064 7.50441 7.13342 7.5361 7.17501C7.61003 7.27899 7.63819 7.35523 7.64876 7.39682C7.65932 7.43841 7.6558 7.41069 7.6558 7.41069V7.45228C7.6558 7.45228 7.68396 7.88898 7.66636 8.33954C7.6558 8.56135 7.63467 8.79357 7.59947 8.94953C7.56426 9.10549 7.47625 9.14362 7.60299 9.07083C7.51497 9.12282 7.54666 9.14362 7.43752 9.08816C7.32486 9.03617 7.03266 8.79357 6.64892 8.11426C6.26517 7.43148 5.98705 7.07797 5.92368 7.00172C5.89904 6.9324 5.83919 6.7903 5.635 6.63434C5.37095 6.43332 5.09987 6.42985 5.09987 6.42985L5.07523 6.42638H3.10723C3.10723 6.42638 2.99457 6.42985 2.86431 6.45758C2.73405 6.4853 2.54746 6.5165 2.37143 6.73138H2.36791C2.18837 6.95666 2.22005 7.16115 2.23413 7.28592C2.25174 7.41415 2.29046 7.51466 2.29046 7.51466L2.2975 7.53546L2.30806 7.55625C2.30806 7.55625 3.81134 10.7136 5.60683 12.6372C7.29318 14.4464 9.24709 14.4117 9.24709 14.4117H10.3561L10.3807 14.4083C10.3807 14.4083 10.7363 14.4256 11.0355 14.0963C11.1869 13.9265 11.2221 13.7671 11.2397 13.6492C11.2609 13.5279 11.2609 13.4309 11.2609 13.4309V13.4586C11.2609 13.4586 11.2749 13.2299 11.3383 12.9907C11.37 12.8729 11.4158 12.755 11.458 12.6892C11.4791 12.6511 11.4791 12.6615 11.4862 12.6511C11.5636 12.7065 11.6904 12.8348 11.8241 12.9977C12.0987 13.32 12.4086 13.7671 12.8416 14.0755C13.1549 14.2939 13.4506 14.3909 13.676 14.4256C13.8273 14.4498 13.9365 14.4464 14.0104 14.4394L15.5419 14.4117H15.5559C15.5559 14.4117 15.8728 14.4048 16.1896 14.2072C16.3445 14.1102 16.5241 13.9334 16.5839 13.6804C16.6473 13.4274 16.5769 13.1536 16.429 12.9006C16.4783 12.9873 16.4185 12.8729 16.3727 12.7828C16.3269 12.6927 16.2565 12.5713 16.1509 12.4189C15.9467 12.1208 15.6087 11.7014 15.049 11.1677C14.7849 10.9181 14.6159 10.7795 14.5103 10.6825C14.542 10.6374 14.5455 10.6339 14.6652 10.4953C14.8553 10.277 15.1335 9.95463 15.4855 9.47287C15.908 8.89061 16.2143 8.41579 16.4114 8.02068C16.6086 7.62904 16.767 7.30325 16.591 6.90121C16.4959 6.68286 16.3269 6.59968 16.2037 6.54769C16.077 6.4957 15.9643 6.47491 15.8587 6.45758C15.651 6.42638 15.4679 6.42638 15.4679 6.42638L13.683 6.44025C13.6302 6.42985 13.426 6.39173 13.162 6.55809C12.9014 6.71752 12.8416 6.88734 12.8275 6.93933C12.7853 6.99825 12.4895 7.41069 12.0776 8.13159C11.6622 8.85942 11.3806 9.05697 11.3453 9.0743C11.3348 9.0639 11.3559 9.06737 11.3066 9.03964C11.2855 9.02231 11.2644 9.00845 11.2468 8.82129C11.2327 8.63414 11.2503 8.33954 11.2503 7.99295C11.2503 7.24779 11.3172 6.85962 11.2785 6.48877C11.2609 6.30161 11.1834 6.07287 11.0144 5.92037C10.8454 5.77134 10.6624 5.71588 10.4722 5.66736C10.173 5.59458 9.76813 5.56339 9.18372 5.55645ZM9.17668 6.44371C9.72237 6.45065 10.1061 6.49224 10.2469 6.52689C10.3666 6.55809 10.3842 6.57195 10.3807 6.56502C10.3807 6.57195 10.3807 6.56848 10.3807 6.57888C10.3948 6.72791 10.349 7.2062 10.349 7.99295C10.349 8.30141 10.3244 8.59948 10.349 8.89754C10.3737 9.1956 10.4828 9.55952 10.8032 9.7744H10.8067C10.768 9.75014 11.2116 10.0759 11.634 9.9269C12.0565 9.7744 12.391 9.39316 12.8662 8.56482C13.2817 7.83006 13.5879 7.41762 13.5879 7.41762L13.6161 7.37603L13.6372 7.33444C13.6372 7.33444 13.6302 7.33097 13.6372 7.32751L15.4679 7.31364C15.4679 7.31364 15.5947 7.31364 15.7179 7.33444C15.7214 7.33444 15.7249 7.33444 15.7284 7.33444C15.7108 7.34137 15.7249 7.38643 15.6017 7.6325C15.4433 7.9479 15.1581 8.39846 14.7532 8.95646C14.4188 9.41049 14.1688 9.70509 13.9822 9.91997C13.7957 10.1314 13.6548 10.2319 13.5633 10.5092C13.5175 10.6443 13.5281 10.8454 13.595 10.9805C13.6584 11.1122 13.7358 11.185 13.8133 11.2578C13.9682 11.4034 14.1512 11.5455 14.4188 11.8054C14.9434 12.3045 15.2391 12.6719 15.4046 12.9145C15.489 13.0392 15.5383 13.1259 15.57 13.1883C15.6017 13.2507 15.5806 13.2264 15.651 13.3442C15.7108 13.4517 15.7003 13.4655 15.7003 13.4586C15.6404 13.4933 15.489 13.5245 15.4855 13.5245L13.9541 13.5522L13.9118 13.5626C13.9118 13.5626 13.9154 13.5661 13.8203 13.5522C13.7217 13.5349 13.5668 13.4933 13.3697 13.3546C13.1267 13.1848 12.8205 12.7897 12.5177 12.4292C12.3698 12.2525 12.2184 12.0792 12.0283 11.9406C11.8382 11.8019 11.539 11.6737 11.2327 11.7742C10.9686 11.8574 10.7961 12.048 10.687 12.2248C10.5779 12.405 10.5145 12.5921 10.4652 12.762C10.3737 13.1051 10.3596 13.4136 10.3596 13.4136V13.4413C10.3596 13.4413 10.3596 13.4621 10.3525 13.4933C10.3349 13.5002 10.3103 13.5175 10.2962 13.5245H9.21893C9.21893 13.5245 7.72973 13.6007 6.2687 12.0411C4.70557 10.3601 3.31495 7.54932 3.19877 7.31364H5.01186C5.02946 7.32058 5.09283 7.34484 5.08579 7.34137C5.04354 7.30671 5.10691 7.38296 5.10691 7.38296L5.13508 7.44881L5.18436 7.50427C5.18436 7.50427 5.46249 7.83699 5.86031 8.54402C6.2863 9.30305 6.6454 9.69815 7.04674 9.88878C7.44808 10.0794 7.87055 9.94423 8.0501 9.84372C8.38455 9.6531 8.42328 9.38623 8.47961 9.14015C8.53594 8.89407 8.55354 8.63067 8.5641 8.3742C8.58523 7.88204 8.55706 7.46268 8.55706 7.43148C8.55354 7.42109 8.55354 7.29978 8.51833 7.16808C8.47961 7.03291 8.4092 6.85615 8.27542 6.66899C8.21909 6.59275 8.16628 6.63087 8.10643 6.57542C8.35639 6.5061 8.62395 6.43678 9.17668 6.44371Z" fill="#EFEFEF"/>
</svg>
