<svg width="1058" height="741" viewBox="0 0 1058 741" fill="none" xmlns="http://www.w3.org/2000/svg">
<g filter="url(#filter0_d_1047_977)">
<path fill-rule="evenodd" clip-rule="evenodd" d="M980.478 164.078L686.108 85.2012C672.093 81.446 657.688 89.763 653.932 103.778L528.901 570.401C525.146 584.415 533.463 598.82 547.477 602.576L841.848 681.452C855.862 685.207 870.268 676.89 874.023 662.876L999.054 196.253C1002.81 182.238 994.492 167.833 980.478 164.078ZM690.64 68.2841C667.283 62.0254 643.274 75.887 637.015 99.2447L511.984 565.868C505.725 589.225 519.587 613.234 542.945 619.493L837.315 698.369C860.673 704.628 884.681 690.766 890.94 667.409L1015.97 200.786C1022.23 177.428 1008.37 153.419 985.011 147.16L690.64 68.2841Z" fill="#F7F2EC"/>
</g>
<path d="M728.171 162.421L736.083 132.893L747.157 135.86C749.425 136.468 751.215 137.401 752.526 138.659C753.847 139.919 754.703 141.395 755.095 143.087C755.498 144.771 755.449 146.551 754.947 148.425C754.44 150.318 753.59 151.894 752.398 153.151C751.206 154.407 749.718 155.25 747.935 155.679C746.153 156.098 744.124 156.002 741.846 155.392L734.507 153.425L735.685 149.028L742.303 150.801C743.63 151.156 744.778 151.217 745.747 150.982C746.717 150.747 747.511 150.28 748.131 149.581C748.761 148.884 749.216 148.012 749.497 146.965C749.778 145.917 749.818 144.939 749.619 144.03C749.429 143.124 748.965 142.336 748.228 141.664C747.504 140.986 746.473 140.468 745.137 140.11L740.235 138.796L733.521 163.855L728.171 162.421Z" fill="#F7F2EC"/>
<path d="M763.441 172.335C761.221 171.74 759.427 170.765 758.059 169.41C756.704 168.047 755.821 166.399 755.412 164.466C755.006 162.524 755.113 160.394 755.733 158.077C756.344 155.799 757.312 153.916 758.638 152.427C759.976 150.931 761.558 149.913 763.382 149.372C765.209 148.821 767.18 148.828 769.294 149.395C770.659 149.761 771.888 150.327 772.981 151.094C774.085 151.853 774.982 152.814 775.669 153.977C776.367 155.143 776.795 156.504 776.955 158.062C777.117 159.609 776.938 161.354 776.418 163.295L775.989 164.896L757.837 160.032L758.779 156.514L771.929 160.037C772.187 159.035 772.209 158.088 771.994 157.196C771.783 156.294 771.358 155.516 770.719 154.861C770.091 154.208 769.276 153.748 768.277 153.48C767.21 153.194 766.203 153.203 765.257 153.505C764.313 153.798 763.503 154.303 762.827 155.018C762.163 155.726 761.694 156.574 761.419 157.561L760.596 160.632C760.251 161.92 760.191 163.089 760.414 164.138C760.641 165.177 761.111 166.055 761.826 166.772C762.543 167.479 763.468 167.985 764.603 168.289C765.362 168.492 766.077 168.571 766.749 168.524C767.424 168.468 768.043 168.289 768.609 167.987C769.174 167.685 769.655 167.253 770.053 166.69L774.78 168.543C774.127 169.749 773.239 170.716 772.117 171.446C771.006 172.168 769.712 172.615 768.235 172.785C766.759 172.946 765.162 172.796 763.441 172.335Z" fill="#F7F2EC"/>
<path d="M783.754 153.578L788.786 154.927L784.003 172.776L790.967 174.642L795.75 156.793L800.782 158.141L795.999 175.991L802.963 177.856L807.745 160.007L812.777 161.355L806.843 183.501L777.82 175.725L783.754 153.578Z" fill="#F7F2EC"/>
<path d="M821.805 187.974C819.585 187.379 817.791 186.404 816.423 185.048C815.068 183.686 814.185 182.038 813.776 180.105C813.37 178.162 813.477 176.033 814.097 173.716C814.708 171.438 815.676 169.555 817.002 168.066C818.34 166.57 819.922 165.552 821.746 165.01C823.573 164.459 825.544 164.467 827.658 165.034C829.023 165.399 830.252 165.965 831.345 166.732C832.449 167.492 833.346 168.453 834.033 169.616C834.731 170.782 835.159 172.143 835.319 173.7C835.481 175.248 835.302 176.992 834.782 178.934L834.353 180.534L816.201 175.67L817.143 172.152L830.293 175.676C830.551 174.674 830.573 173.727 830.358 172.835C830.147 171.933 829.722 171.155 829.083 170.5C828.455 169.847 827.641 169.387 826.641 169.119C825.574 168.833 824.567 168.841 823.621 169.144C822.677 169.437 821.867 169.941 821.191 170.656C820.528 171.365 820.058 172.212 819.783 173.2L818.96 176.271C818.615 177.559 818.555 178.727 818.778 179.776C819.005 180.816 819.475 181.694 820.19 182.411C820.907 183.118 821.832 183.623 822.967 183.927C823.726 184.131 824.442 184.209 825.113 184.163C825.788 184.106 826.408 183.927 826.973 183.625C827.538 183.324 828.019 182.891 828.417 182.328L833.144 184.182C832.491 185.387 831.603 186.355 830.481 187.084C829.37 187.807 828.076 188.253 826.599 188.424C825.123 188.585 823.526 188.435 821.805 187.974Z" fill="#F7F2EC"/>
<path d="M854.941 182.203L853.794 186.485L842 183.325L843.148 179.043L854.941 182.203ZM847.15 170.565L841.216 192.711L836.184 191.363L842.118 169.217L847.15 170.565ZM860.746 174.208L854.812 196.355L849.795 195.01L855.729 172.864L860.746 174.208Z" fill="#F7F2EC"/>
<path d="M867.018 192.053L879.926 179.348L885.289 180.785L879.355 202.931L874.309 201.579L878.354 186.483L865.471 199.21L860.093 197.769L866.027 175.623L871.059 176.972L867.018 192.053Z" fill="#F7F2EC"/>
<path d="M894.403 207.427C892.183 206.832 890.389 205.856 889.021 204.501C887.666 203.138 886.784 201.491 886.375 199.558C885.968 197.615 886.075 195.485 886.696 193.169C887.306 190.891 888.274 189.007 889.6 187.519C890.939 186.023 892.52 185.004 894.344 184.463C896.171 183.912 898.142 183.92 900.257 184.486C901.621 184.852 902.85 185.418 903.943 186.185C905.048 186.944 905.944 187.906 906.632 189.069C907.329 190.234 907.757 191.596 907.917 193.153C908.079 194.7 907.9 196.445 907.38 198.387L906.951 199.987L888.799 195.123L889.742 191.605L902.891 195.128C903.149 194.126 903.171 193.179 902.957 192.287C902.745 191.386 902.32 190.607 901.682 189.952C901.053 189.299 900.239 188.839 899.239 188.571C898.172 188.286 897.166 188.294 896.219 188.597C895.275 188.89 894.465 189.394 893.789 190.109C893.126 190.817 892.657 191.665 892.382 192.652L891.559 195.724C891.214 197.012 891.153 198.18 891.377 199.229C891.603 200.268 892.073 201.146 892.788 201.863C893.505 202.571 894.431 203.076 895.565 203.38C896.324 203.583 897.04 203.662 897.712 203.615C898.386 203.559 899.006 203.38 899.571 203.078C900.136 202.776 900.618 202.344 901.016 201.781L905.742 203.634C905.089 204.84 904.202 205.808 903.079 206.537C901.969 207.259 900.675 207.706 899.197 207.877C897.722 208.038 896.124 207.888 894.403 207.427Z" fill="#F7F2EC"/>
<path fill-rule="evenodd" clip-rule="evenodd" d="M821.591 420.952C823.405 417.81 827.153 416.344 830.617 417.422C846.178 422.264 859.431 424.527 869.288 424.314C879.621 424.091 883.772 421.284 885.107 418.971C885.877 417.638 886.358 415.498 885.584 411.95C884.797 408.341 882.802 403.8 879.329 398.441C872.391 387.738 860.427 375.105 844.428 362.105C841.647 359.845 840.775 355.974 842.319 352.74C843.863 349.505 847.422 347.749 850.928 348.491C860.923 350.606 869.288 350.978 875.492 349.92C881.741 348.854 884.744 346.568 886.043 344.318C887.183 342.344 887.688 339.27 886.323 334.515C884.949 329.73 881.843 323.929 876.849 317.491C866.887 304.647 850.408 290.54 829.663 278.563C808.919 266.586 788.462 259.368 772.358 257.163C764.285 256.058 757.708 256.268 752.878 257.47C748.077 258.665 745.668 260.64 744.528 262.614C743.229 264.864 742.751 268.608 744.952 274.552C747.138 280.454 751.643 287.512 758.471 295.111C760.867 297.777 761.126 301.737 759.097 304.691C757.068 307.646 753.279 308.826 749.931 307.547C730.674 300.192 713.752 296.147 701.013 295.491C694.636 295.162 689.705 295.705 686.187 296.828C682.727 297.931 681.114 299.418 680.344 300.752C679.009 303.064 678.654 308.062 683.627 317.122C688.371 325.765 696.957 336.111 708.931 347.167C711.596 349.628 712.201 353.607 710.387 356.748C708.573 359.89 704.825 361.356 701.361 360.278C685.8 355.436 672.547 353.173 662.69 353.386C652.357 353.609 648.207 356.416 646.872 358.728C645.322 361.413 645.238 367.584 652.254 378.642C658.855 389.045 670.306 401.348 685.702 414.08C688.431 416.336 689.286 420.153 687.782 423.358C686.277 426.563 682.794 428.343 679.315 427.685C669.928 425.91 662.138 425.74 656.378 426.856C650.601 427.976 647.792 430.165 646.544 432.328C645.404 434.302 644.899 437.376 646.264 442.131C647.638 446.915 650.744 452.716 655.738 459.155C665.699 471.999 682.179 486.106 702.923 498.083C723.668 510.06 744.125 517.278 760.229 519.483C768.302 520.588 774.879 520.378 779.709 519.175C784.51 517.98 786.919 516.006 788.059 514.032C789.308 511.869 789.799 508.342 787.88 502.779C785.967 497.233 781.925 490.571 775.694 483.329C773.385 480.646 773.185 476.739 775.208 473.834C777.231 470.928 780.965 469.761 784.283 470.995C803.007 477.963 819.387 481.729 831.697 482.243C844.781 482.79 850.084 479.632 851.634 476.948C852.969 474.635 853.325 469.638 848.351 460.578C843.607 451.935 835.021 441.589 823.047 430.533C820.382 428.072 819.777 424.093 821.591 420.952ZM794.844 482.81C826.802 492.753 851.425 492.831 858.354 480.828C864.135 470.816 856.481 454.345 839.51 435.979C836.135 432.326 832.391 428.599 828.311 424.832C833.614 426.482 838.714 427.86 843.565 428.956C867.956 434.47 886.047 432.863 891.827 422.851C898.88 410.636 885.933 388.805 860.466 365.647C856.98 362.477 853.258 359.282 849.322 356.083C854.407 357.159 859.227 357.84 863.695 358.114C877.785 358.978 888.376 355.796 892.763 348.198C902.847 330.733 876.333 296.547 833.543 271.842C790.754 247.138 747.891 241.269 737.808 258.734C733.421 266.333 735.961 277.096 743.755 288.866C746.226 292.599 749.225 296.432 752.7 300.298C747.961 298.488 743.334 296.863 738.845 295.429C706.057 284.953 680.677 284.656 673.624 296.872C667.844 306.884 675.498 323.354 692.468 341.721C695.843 345.373 699.587 349.101 703.667 352.868C698.365 351.218 693.264 349.84 688.413 348.743C664.023 343.23 645.932 344.837 640.151 354.848C633.222 366.851 645.6 388.136 670.19 410.841C673.497 413.895 677.025 416.974 680.757 420.06C675.879 419.138 671.268 418.594 667.004 418.44C653.857 417.964 644.012 421.193 639.823 428.448C629.74 445.913 656.254 480.099 699.043 504.803C741.833 529.508 784.696 535.377 794.779 517.912C798.968 510.656 796.842 500.516 789.856 489.368C787.591 485.753 784.814 482.031 781.576 478.268C786.115 479.957 790.546 481.473 794.844 482.81Z" fill="#F7F2EC"/>
<g filter="url(#filter1_d_1047_977)">
<path fill-rule="evenodd" clip-rule="evenodd" d="M365.196 85.5215L70.8258 164.398C56.8112 168.153 48.4943 182.558 52.2495 196.573L177.281 663.196C181.036 677.211 195.441 685.527 209.456 681.772L503.826 602.896C517.841 599.141 526.158 584.735 522.402 570.721L397.371 104.098C393.616 90.0832 379.211 81.7663 365.196 85.5215ZM66.2928 147.481C42.9351 153.739 29.0737 177.748 35.3323 201.106L160.364 667.729C166.622 691.087 190.631 704.948 213.989 698.689L508.359 619.813C531.717 613.554 545.578 589.546 539.32 566.188L414.288 99.5649C408.03 76.2072 384.021 62.3457 360.663 68.6044L66.2928 147.481Z" fill="#F7F2EC"/>
</g>
<path d="M146.034 209.863L138.122 180.335L149.195 177.368C151.463 176.76 153.48 176.673 155.244 177.107C157.018 177.538 158.498 178.388 159.683 179.657C160.874 180.914 161.721 182.48 162.224 184.354C162.731 186.248 162.783 188.037 162.379 189.721C161.975 191.406 161.108 192.879 159.778 194.143C158.445 195.396 156.639 196.328 154.361 196.938L147.022 198.905L145.844 194.507L152.462 192.734C153.788 192.379 154.813 191.857 155.535 191.169C156.257 190.481 156.712 189.679 156.899 188.763C157.096 187.845 157.054 186.862 156.774 185.815C156.493 184.767 156.039 183.9 155.412 183.212C154.795 182.523 153.999 182.072 153.025 181.859C152.058 181.634 150.906 181.7 149.57 182.058L144.668 183.372L151.383 208.43L146.034 209.863Z" fill="#F7F2EC"/>
<path d="M181.535 200.814C179.315 201.409 177.273 201.462 175.411 200.972C173.556 200.469 171.968 199.484 170.647 198.014C169.324 196.535 168.352 194.637 167.731 192.321C167.121 190.043 167.017 187.927 167.421 185.975C167.833 184.01 168.693 182.338 170.002 180.957C171.308 179.566 173.019 178.587 175.134 178.021C176.499 177.655 177.846 177.531 179.176 177.649C180.512 177.754 181.769 178.138 182.946 178.802C184.133 179.463 185.184 180.427 186.101 181.696C187.016 182.955 187.733 184.555 188.253 186.497L188.682 188.098L170.53 192.961L169.587 189.443L182.736 185.92C182.459 184.923 182.004 184.092 181.373 183.427C180.739 182.752 179.981 182.29 179.101 182.042C178.23 181.791 177.295 181.799 176.295 182.067C175.228 182.353 174.361 182.864 173.692 183.599C173.022 184.325 172.572 185.167 172.345 186.124C172.124 187.069 172.141 188.038 172.397 189.03L173.22 192.101C173.565 193.389 174.097 194.432 174.815 195.228C175.531 196.015 176.377 196.541 177.354 196.804C178.329 197.058 179.383 197.033 180.518 196.729C181.277 196.526 181.936 196.236 182.494 195.859C183.05 195.474 183.497 195.009 183.836 194.465C184.174 193.921 184.375 193.305 184.438 192.619L189.459 191.861C189.496 193.231 189.211 194.513 188.604 195.706C188.003 196.887 187.106 197.921 185.911 198.807C184.714 199.684 183.255 200.353 181.535 200.814Z" fill="#F7F2EC"/>
<path d="M189.748 174.414L194.78 173.066L199.563 190.915L206.527 189.049L201.744 171.2L206.776 169.851L211.558 187.701L218.522 185.835L213.74 167.985L218.771 166.637L224.705 188.783L195.682 196.56L189.748 174.414Z" fill="#F7F2EC"/>
<path d="M239.899 185.176C237.679 185.771 235.637 185.823 233.775 185.333C231.92 184.831 230.332 183.845 229.011 182.375C227.688 180.896 226.716 178.998 226.095 176.682C225.485 174.404 225.381 172.289 225.786 170.336C226.197 168.372 227.057 166.699 228.366 165.318C229.673 163.927 231.383 162.949 233.498 162.382C234.863 162.016 236.21 161.892 237.54 162.01C238.876 162.115 240.133 162.5 241.31 163.163C242.497 163.824 243.549 164.789 244.465 166.057C245.38 167.317 246.097 168.917 246.617 170.859L247.046 172.459L228.894 177.323L227.951 173.805L241.1 170.281C240.823 169.284 240.368 168.453 239.737 167.788C239.103 167.113 238.345 166.652 237.465 166.403C236.594 166.152 235.659 166.161 234.659 166.429C233.592 166.715 232.725 167.225 232.057 167.961C231.386 168.686 230.936 169.528 230.709 170.485C230.488 171.43 230.505 172.399 230.761 173.392L231.584 176.463C231.929 177.751 232.461 178.793 233.179 179.59C233.895 180.377 234.741 180.902 235.718 181.165C236.693 181.419 237.747 181.394 238.882 181.091C239.641 180.887 240.3 180.597 240.858 180.221C241.414 179.835 241.862 179.37 242.2 178.826C242.538 178.282 242.739 177.667 242.803 176.98L247.823 176.222C247.86 177.593 247.575 178.874 246.968 180.067C246.367 181.248 245.47 182.282 244.275 183.169C243.078 184.046 241.62 184.715 239.899 185.176Z" fill="#F7F2EC"/>
<path d="M265.711 163.61L266.858 167.892L255.064 171.052L253.917 166.77L265.711 163.61ZM253.144 157.427L259.078 179.573L254.046 180.921L248.112 158.775L253.144 157.427ZM266.74 153.784L272.674 175.93L267.657 177.274L261.723 155.128L266.74 153.784Z" fill="#F7F2EC"/>
<path d="M281.094 166.102L285.92 148.645L291.283 147.208L297.217 169.354L292.171 170.706L288.126 155.61L283.333 173.074L277.955 174.515L272.021 152.369L277.053 151.021L281.094 166.102Z" fill="#F7F2EC"/>
<path d="M312.497 165.723C310.277 166.318 308.236 166.37 306.374 165.88C304.519 165.378 302.931 164.392 301.61 162.923C300.286 161.444 299.314 159.546 298.693 157.229C298.083 154.951 297.98 152.836 298.384 150.884C298.795 148.919 299.655 147.246 300.964 145.865C302.271 144.475 303.981 143.496 306.096 142.93C307.461 142.564 308.808 142.44 310.138 142.557C311.474 142.663 312.731 143.047 313.908 143.711C315.095 144.371 316.147 145.336 317.064 146.605C317.978 147.864 318.695 149.464 319.215 151.406L319.644 153.006L301.492 157.87L300.549 154.352L313.699 150.829C313.421 149.832 312.967 149.001 312.335 148.335C311.701 147.66 310.944 147.199 310.063 146.951C309.193 146.7 308.257 146.708 307.258 146.976C306.191 147.262 305.323 147.773 304.655 148.508C303.984 149.234 303.535 150.075 303.307 151.033C303.086 151.978 303.104 152.947 303.359 153.939L304.182 157.01C304.527 158.298 305.059 159.341 305.777 160.137C306.493 160.924 307.339 161.449 308.317 161.713C309.291 161.967 310.346 161.942 311.48 161.638C312.239 161.434 312.898 161.145 313.457 160.768C314.013 160.382 314.46 159.917 314.798 159.373C315.137 158.829 315.338 158.214 315.401 157.528L320.421 156.77C320.458 158.14 320.173 159.422 319.566 160.615C318.965 161.796 318.068 162.829 316.874 163.716C315.677 164.593 314.218 165.262 312.497 165.723Z" fill="#F7F2EC"/>
<path fill-rule="evenodd" clip-rule="evenodd" d="M347.091 349.08C345.219 346.632 344.974 343.308 346.466 340.612C355.14 324.936 360.085 309.647 361.293 297.701C361.898 291.717 361.528 286.948 360.513 283.51C359.513 280.125 358.054 278.5 356.707 277.723C355.351 276.94 353.194 276.487 349.721 277.338C346.197 278.201 341.835 280.308 336.912 283.885C327.083 291.025 316.237 303.13 306.982 318.674C305.397 321.336 302.381 322.799 299.309 322.397C296.238 321.995 293.7 319.805 292.854 316.825C287.926 299.475 280.591 285.034 272.962 275.637C269.141 270.93 265.484 267.782 262.312 266.047C259.189 264.337 256.994 264.217 255.485 264.621C253.99 265.022 252.172 266.203 250.339 269.181C248.477 272.207 246.886 276.672 245.913 282.555C243.972 294.301 244.74 310.218 248.971 327.497C249.703 330.483 248.601 333.62 246.164 335.493C243.726 337.366 240.412 337.623 237.714 336.148C222.155 327.638 207.027 322.812 195.222 321.666C189.309 321.092 184.603 321.478 181.213 322.494C177.877 323.493 176.271 324.939 175.498 326.278C174.721 327.624 174.27 329.76 175.095 333.19C175.934 336.673 177.996 340.987 181.51 345.865C188.525 355.602 200.445 366.368 215.788 375.607C218.436 377.201 219.885 380.215 219.476 383.279C219.067 386.342 216.878 388.871 213.905 389.715C196.55 394.642 182.105 401.977 172.705 409.608C167.996 413.43 164.847 417.088 163.11 420.26C161.4 423.384 161.28 425.579 161.684 427.089C162.097 428.628 163.343 430.52 166.532 432.408C169.763 434.322 174.518 435.919 180.741 436.836C193.158 438.666 209.902 437.568 227.855 432.758C228.646 432.545 229.433 432.328 230.214 432.106C233.286 431.231 236.58 432.329 238.514 434.872C240.447 437.415 240.624 440.883 238.959 443.609C238.295 444.696 237.64 445.8 236.993 446.919C227.7 463.015 222.306 478.904 220.86 491.372C220.136 497.62 220.447 502.627 221.459 506.243C222.458 509.812 223.963 511.505 225.343 512.302C226.684 513.076 228.805 513.526 232.206 512.716C235.663 511.894 239.945 509.861 244.793 506.389C254.471 499.456 265.183 487.657 274.409 472.447C275.983 469.853 278.925 468.414 281.94 468.765C284.954 469.116 287.487 471.193 288.422 474.08C293.566 489.963 300.659 502.95 307.872 511.304C315.552 520.197 321.27 521.662 324.152 520.889C327.069 520.108 331.342 515.887 333.52 504.117C335.564 493.075 335.123 478.03 331.474 461.487C330.816 458.501 331.972 455.407 334.428 453.586C336.883 451.764 340.179 451.555 342.846 453.051C358.662 461.926 374.148 467.016 386.264 468.301C392.334 468.945 397.181 468.594 400.677 467.579C404.122 466.579 405.769 465.105 406.552 463.747C407.349 462.368 407.806 460.149 406.886 456.558C405.955 452.92 403.721 448.429 399.97 443.38C392.483 433.305 379.868 422.242 363.771 412.949C362.658 412.306 361.544 411.681 360.431 411.075C357.636 409.55 356.055 406.473 356.446 403.313C356.836 400.153 359.118 397.552 362.2 396.754C362.627 396.644 363.054 396.531 363.482 396.416C381.435 391.606 396.484 384.185 406.323 376.391C411.253 372.486 414.573 368.725 416.415 365.452C418.232 362.222 418.365 359.961 417.953 358.422C417.552 356.927 416.371 355.109 413.395 353.277C410.37 351.415 405.907 349.824 400.026 348.851C388.285 346.909 372.372 347.675 355.098 351.903C352.105 352.636 348.962 351.527 347.091 349.08ZM353.254 344.368C356.587 343.552 359.885 342.856 363.129 342.277C394.972 336.593 421.63 342.172 425.446 356.414C429.431 371.287 407.119 390.434 374.444 401.235C372.876 401.753 371.285 402.251 369.672 402.73C368.294 403.138 366.899 403.532 365.49 403.909C365.041 404.03 364.593 404.148 364.145 404.264C364.708 404.571 365.272 404.883 365.835 405.199C366.44 405.538 367.045 405.882 367.65 406.231C369.612 407.364 371.529 408.524 373.398 409.708C403.518 428.786 421.164 453.954 413.271 467.626C405.77 480.618 377.75 478.828 347.883 464.422C344.951 463.008 342 461.472 339.049 459.816C339.78 463.127 340.391 466.397 340.886 469.605C345.553 499.865 339.871 524.709 326.16 528.382C312.592 532.018 295.466 513.768 284.366 485.73C283.186 482.749 282.074 479.658 281.042 476.47C279.308 479.329 277.517 482.084 275.683 484.725C257.158 511.403 234.269 526.413 221.464 519.02C207.799 511.13 210.488 480.536 227.013 448.97C228.046 446.996 229.134 445.017 230.275 443.041C230.352 442.909 230.428 442.777 230.504 442.646C231.108 441.606 231.719 440.58 232.338 439.567C231.518 439.8 230.693 440.028 229.862 440.251C228.841 440.524 227.823 440.787 226.807 441.038C225.147 441.449 223.495 441.831 221.853 442.183C187.693 449.51 158.219 444.128 154.191 429.096C150.333 414.696 171.128 396.288 202.114 385.329C205.239 384.224 208.469 383.194 211.787 382.252C208.831 380.473 205.985 378.632 203.26 376.746C176.467 358.198 161.37 335.233 168.78 322.399C176.138 309.654 203.243 311.134 232.467 324.795C235.441 326.185 238.437 327.702 241.437 329.342C240.624 326.022 239.929 322.736 239.351 319.504C233.649 287.635 239.227 260.947 253.477 257.128C267.87 253.272 286.265 274.04 297.225 304.996C298.336 308.133 299.37 311.375 300.316 314.706C302.088 311.731 303.922 308.864 305.802 306.119C324.425 278.93 347.65 263.536 360.586 271.005C373.431 278.421 371.826 305.898 357.863 335.387C356.452 338.366 354.915 341.366 353.254 344.368Z" fill="#F7F2EC"/>
<g filter="url(#filter2_d_1047_977)">
<path d="M330 77.7848C330 53.6032 349.603 34 373.785 34H678.539C702.721 34 722.324 53.6031 722.324 77.7848V560.868C722.324 585.05 702.721 604.653 678.539 604.653H373.785C349.603 604.653 330 585.05 330 560.869V77.7848Z" fill="#F7F2EC"/>
</g>
<path d="M445.339 84.3253V114.895H439.846V88.9227H426.472V114.895H420.979V84.3253H445.339Z" fill="#F96247"/>
<path d="M451.724 123.493V91.9677H457.037V95.7591H457.351C457.63 95.2018 458.023 94.6097 458.53 93.9828C459.038 93.3459 459.724 92.8036 460.59 92.3558C461.456 91.898 462.56 91.6692 463.904 91.6692C465.675 91.6692 467.272 92.1219 468.695 93.0275C470.128 93.9231 471.263 95.2516 472.098 97.0129C472.944 98.7643 473.367 100.914 473.367 103.461C473.367 105.979 472.954 108.118 472.128 109.88C471.302 111.641 470.178 112.984 468.755 113.91C467.332 114.835 465.72 115.298 463.919 115.298C462.605 115.298 461.515 115.079 460.65 114.641C459.784 114.203 459.087 113.676 458.56 113.059C458.043 112.432 457.64 111.84 457.351 111.283H457.127V123.493H451.724ZM457.023 103.431C457.023 104.914 457.232 106.213 457.649 107.327C458.077 108.442 458.689 109.312 459.485 109.939C460.291 110.556 461.267 110.865 462.411 110.865C463.605 110.865 464.605 110.546 465.411 109.909C466.217 109.263 466.824 108.382 467.232 107.267C467.65 106.143 467.859 104.864 467.859 103.431C467.859 102.008 467.655 100.745 467.247 99.64C466.839 98.5354 466.232 97.6697 465.426 97.0428C464.62 96.4158 463.615 96.1024 462.411 96.1024C461.257 96.1024 460.277 96.4059 459.471 97.0129C458.664 97.6199 458.053 98.4707 457.635 99.5653C457.227 100.66 457.023 101.949 457.023 103.431Z" fill="#F96247"/>
<path d="M487.995 115.343C485.756 115.343 483.816 114.85 482.174 113.865C480.532 112.88 479.258 111.502 478.353 109.73C477.457 107.959 477.009 105.889 477.009 103.521C477.009 101.153 477.457 99.0777 478.353 97.2965C479.258 95.5153 480.532 94.1321 482.174 93.1469C483.816 92.1617 485.756 91.6692 487.995 91.6692C490.234 91.6692 492.175 92.1617 493.817 93.1469C495.459 94.1321 496.727 95.5153 497.623 97.2965C498.529 99.0777 498.981 101.153 498.981 103.521C498.981 105.889 498.529 107.959 497.623 109.73C496.727 111.502 495.459 112.88 493.817 113.865C492.175 114.85 490.234 115.343 487.995 115.343ZM488.025 111.014C489.239 111.014 490.254 110.681 491.07 110.014C491.886 109.337 492.493 108.432 492.891 107.297C493.299 106.163 493.503 104.899 493.503 103.506C493.503 102.103 493.299 100.834 492.891 99.6997C492.493 98.5553 491.886 97.6448 491.07 96.9681C490.254 96.2914 489.239 95.9531 488.025 95.9531C486.781 95.9531 485.746 96.2914 484.92 96.9681C484.104 97.6448 483.492 98.5553 483.084 99.6997C482.686 100.834 482.487 102.103 482.487 103.506C482.487 104.899 482.686 106.163 483.084 107.297C483.492 108.432 484.104 109.337 484.92 110.014C485.746 110.681 486.781 111.014 488.025 111.014Z" fill="#F96247"/>
<path d="M521.942 83.4894L523.823 86.9822C523.156 87.5594 522.41 87.9773 521.584 88.236C520.758 88.4948 519.788 88.6639 518.673 88.7436C517.569 88.8132 516.255 88.863 514.733 88.8928C513.021 88.9326 511.623 89.256 510.538 89.863C509.454 90.4701 508.623 91.3905 508.045 92.6245C507.468 93.8485 507.09 95.4108 506.911 97.3114H507.165C507.881 95.9083 508.886 94.8386 510.18 94.1022C511.474 93.3658 512.991 92.9976 514.733 92.9976C516.633 92.9976 518.31 93.4255 519.763 94.2813C521.226 95.1272 522.365 96.3561 523.181 97.9682C524.007 99.5803 524.42 101.531 524.42 103.819C524.42 106.178 523.977 108.223 523.092 109.954C522.206 111.676 520.947 113.004 519.315 113.94C517.693 114.875 515.768 115.343 513.538 115.343C511.319 115.343 509.389 114.86 507.747 113.895C506.115 112.92 504.851 111.482 503.956 109.581C503.07 107.671 502.627 105.317 502.627 102.521V100.461C502.627 95.0675 503.632 91.0423 505.642 88.3853C507.652 85.7284 510.633 84.375 514.583 84.3253C515.758 84.3054 516.807 84.3004 517.733 84.3103C518.668 84.3203 519.484 84.2755 520.181 84.176C520.877 84.0765 521.465 83.8476 521.942 83.4894ZM513.568 111.014C514.673 111.014 515.628 110.73 516.434 110.163C517.24 109.586 517.857 108.77 518.285 107.715C518.723 106.66 518.942 105.412 518.942 103.969C518.942 102.546 518.723 101.337 518.285 100.342C517.847 99.3365 517.225 98.5702 516.419 98.0428C515.613 97.5154 514.653 97.2517 513.538 97.2517C512.703 97.2517 511.951 97.401 511.285 97.6995C510.618 97.9981 510.051 98.4359 509.583 99.0131C509.115 99.5902 508.757 100.292 508.508 101.118C508.259 101.944 508.125 102.894 508.105 103.969C508.105 106.128 508.593 107.845 509.568 109.118C510.543 110.382 511.877 111.014 513.568 111.014Z" fill="#F96247"/>
<path d="M527.435 114.895L527.405 110.447H528.196C528.793 110.447 529.296 110.313 529.704 110.044C530.112 109.775 530.45 109.327 530.719 108.7C530.988 108.064 531.197 107.208 531.346 106.133C531.495 105.058 531.6 103.72 531.659 102.118L532.062 91.9677H548.78V114.895H543.556V96.4009H536.973L536.615 103.79C536.525 105.7 536.312 107.357 535.973 108.76C535.645 110.153 535.177 111.303 534.57 112.208C533.973 113.114 533.222 113.79 532.316 114.238C531.411 114.676 530.341 114.895 529.107 114.895H527.435Z" fill="#F96247"/>
<path d="M564.371 115.343C562.072 115.343 560.087 114.865 558.415 113.91C556.754 112.945 555.475 111.581 554.579 109.82C553.684 108.049 553.236 105.964 553.236 103.566C553.236 101.207 553.684 99.1375 554.579 97.3562C555.485 95.565 556.749 94.1719 558.371 93.1768C559.993 92.1717 561.898 91.6692 564.087 91.6692C565.501 91.6692 566.834 91.898 568.088 92.3558C569.352 92.8036 570.466 93.5002 571.431 94.4455C572.407 95.3909 573.173 96.595 573.73 98.0578C574.287 99.5106 574.566 101.242 574.566 103.252V104.909H555.773V101.267H569.386C569.376 100.232 569.153 99.3116 568.715 98.5056C568.277 97.6896 567.665 97.0477 566.879 96.58C566.103 96.1123 565.197 95.8785 564.162 95.8785C563.058 95.8785 562.087 96.1472 561.251 96.6845C560.416 97.2119 559.764 97.9085 559.296 98.7742C558.838 99.63 558.604 100.57 558.594 101.595V104.775C558.594 106.108 558.838 107.253 559.326 108.208C559.813 109.153 560.495 109.88 561.371 110.387C562.247 110.885 563.271 111.133 564.446 111.133C565.232 111.133 565.943 111.024 566.58 110.805C567.217 110.576 567.769 110.243 568.237 109.805C568.705 109.367 569.058 108.825 569.297 108.178L574.342 108.745C574.024 110.079 573.417 111.243 572.521 112.238C571.635 113.223 570.501 113.989 569.118 114.537C567.735 115.074 566.152 115.343 564.371 115.343Z" fill="#F96247"/>
<path d="M592.332 108.611L599.139 91.9677H603.497L594.228 114.895H590.452L581.391 91.9677H585.705L592.332 108.611ZM584.347 91.9677V114.895H579.137V91.9677H584.347ZM600.542 114.895V91.9677H605.707V114.895H600.542Z" fill="#F96247"/>
<path d="M617.752 115.358C616.3 115.358 614.991 115.099 613.827 114.582C612.672 114.054 611.757 113.278 611.08 112.253C610.413 111.228 610.08 109.964 610.08 108.462C610.08 107.168 610.319 106.098 610.797 105.252C611.274 104.407 611.926 103.73 612.752 103.222C613.578 102.715 614.508 102.332 615.543 102.073C616.588 101.804 617.668 101.61 618.782 101.491C620.126 101.352 621.215 101.227 622.051 101.118C622.887 100.998 623.494 100.819 623.872 100.58C624.26 100.332 624.454 99.9485 624.454 99.431V99.3415C624.454 98.217 624.121 97.3463 623.454 96.7293C622.788 96.1123 621.827 95.8038 620.574 95.8038C619.25 95.8038 618.2 96.0924 617.424 96.6696C616.658 97.2467 616.14 97.9284 615.872 98.7145L610.826 97.9981C611.224 96.6049 611.881 95.4406 612.797 94.5052C613.712 93.5599 614.832 92.8533 616.155 92.3856C617.479 91.908 618.942 91.6692 620.544 91.6692C621.648 91.6692 622.748 91.7985 623.842 92.0573C624.937 92.316 625.937 92.7439 626.843 93.3409C627.748 93.9281 628.475 94.7291 629.022 95.7441C629.579 96.7591 629.858 98.0279 629.858 99.5504V114.895H624.663V111.745H624.484C624.156 112.382 623.693 112.979 623.096 113.537C622.509 114.084 621.768 114.527 620.872 114.865C619.986 115.194 618.947 115.358 617.752 115.358ZM619.156 111.387C620.24 111.387 621.181 111.173 621.977 110.745C622.773 110.308 623.385 109.73 623.813 109.014C624.25 108.297 624.469 107.516 624.469 106.67V103.969C624.3 104.108 624.012 104.237 623.604 104.357C623.206 104.476 622.758 104.581 622.26 104.67C621.763 104.76 621.27 104.839 620.783 104.909C620.295 104.979 619.872 105.038 619.514 105.088C618.708 105.198 617.986 105.377 617.349 105.626C616.713 105.874 616.21 106.223 615.842 106.67C615.474 107.108 615.29 107.675 615.29 108.372C615.29 109.367 615.653 110.118 616.379 110.626C617.106 111.133 618.031 111.387 619.156 111.387Z" fill="#F96247"/>
<path fill-rule="evenodd" clip-rule="evenodd" d="M519.162 249.416C513.891 236.92 504.143 222.746 490.986 209.589C463.569 182.172 431.732 169.557 419.876 181.413C408.02 193.269 420.635 225.106 448.052 252.523C461.209 265.68 475.383 275.428 487.879 280.699C475.383 285.97 461.209 295.718 448.052 308.875C420.635 336.292 408.02 368.129 419.876 379.985C431.732 391.841 463.569 379.227 490.986 351.81C504.143 338.653 513.891 324.478 519.162 311.982C524.433 324.478 534.181 338.653 547.338 351.81C574.755 379.227 606.592 391.841 618.448 379.985C630.304 368.129 617.689 336.292 590.272 308.875C577.116 295.718 562.941 285.97 550.445 280.699C562.941 275.428 577.115 265.68 590.272 252.524C617.689 225.107 630.304 193.269 618.448 181.413C606.592 169.557 574.755 182.172 547.337 209.589C534.181 222.746 524.433 236.92 519.162 249.416Z" fill="#F96247"/>
<defs>
<filter id="filter0_d_1047_977" x="477.205" y="33.505" width="580.551" height="706.649" filterUnits="userSpaceOnUse" color-interpolation-filters="sRGB">
<feFlood flood-opacity="0" result="BackgroundImageFix"/>
<feColorMatrix in="SourceAlpha" type="matrix" values="0 0 0 0 0 0 0 0 0 0 0 0 0 0 0 0 0 0 127 0" result="hardAlpha"/>
<feOffset dx="3.50278" dy="3.50278"/>
<feGaussianBlur stdDeviation="18.3896"/>
<feComposite in2="hardAlpha" operator="out"/>
<feColorMatrix type="matrix" values="0 0 0 0 0 0 0 0 0 0 0 0 0 0 0 0 0 0 0.15 0"/>
<feBlend mode="normal" in2="BackgroundImageFix" result="effect1_dropShadow_1047_977"/>
<feBlend mode="normal" in="SourceGraphic" in2="effect1_dropShadow_1047_977" result="shape"/>
</filter>
<filter id="filter1_d_1047_977" x="0.55318" y="33.8252" width="580.551" height="706.649" filterUnits="userSpaceOnUse" color-interpolation-filters="sRGB">
<feFlood flood-opacity="0" result="BackgroundImageFix"/>
<feColorMatrix in="SourceAlpha" type="matrix" values="0 0 0 0 0 0 0 0 0 0 0 0 0 0 0 0 0 0 127 0" result="hardAlpha"/>
<feOffset dx="3.50278" dy="3.50278"/>
<feGaussianBlur stdDeviation="18.3896"/>
<feComposite in2="hardAlpha" operator="out"/>
<feColorMatrix type="matrix" values="0 0 0 0 0 0 0 0 0 0 0 0 0 0 0 0 0 0 0.15 0"/>
<feBlend mode="normal" in2="BackgroundImageFix" result="effect1_dropShadow_1047_977"/>
<feBlend mode="normal" in="SourceGraphic" in2="effect1_dropShadow_1047_977" result="shape"/>
</filter>
<filter id="filter2_d_1047_977" x="296.724" y="0.72359" width="465.883" height="644.212" filterUnits="userSpaceOnUse" color-interpolation-filters="sRGB">
<feFlood flood-opacity="0" result="BackgroundImageFix"/>
<feColorMatrix in="SourceAlpha" type="matrix" values="0 0 0 0 0 0 0 0 0 0 0 0 0 0 0 0 0 0 127 0" result="hardAlpha"/>
<feOffset dx="3.50278" dy="3.50278"/>
<feGaussianBlur stdDeviation="18.3896"/>
<feComposite in2="hardAlpha" operator="out"/>
<feColorMatrix type="matrix" values="0 0 0 0 0 0 0 0 0 0 0 0 0 0 0 0 0 0 0.15 0"/>
<feBlend mode="normal" in2="BackgroundImageFix" result="effect1_dropShadow_1047_977"/>
<feBlend mode="normal" in="SourceGraphic" in2="effect1_dropShadow_1047_977" result="shape"/>
</filter>
</defs>
</svg>
