<svg width="533" height="614" viewBox="0 0 533 614" fill="none" xmlns="http://www.w3.org/2000/svg">
<path d="M397.99 31.871C396.042 32.1829 394.759 32.3469 393.484 32.6011C356.295 39.9665 319.218 47.9215 281.904 54.5366C247.87 60.5735 213.533 64.8964 179.412 70.4612C157.589 74.0168 135.902 78.3716 114.185 82.5383C86.0451 87.9352 57.7415 91.6093 29.0257 91.3757C28.0745 91.3687 27.1227 91.5559 25.7214 91.6933L131.536 601.916C141.131 599.477 150.416 597.123 159.699 594.758C177.575 590.193 195.373 585.307 213.344 581.1C275.992 566.443 338.668 551.913 401.393 537.576C426.685 531.79 452.231 527.278 478.2 525.692C480.208 525.572 482.254 525.985 484.281 526.156C484.353 526.601 484.435 527.044 484.507 527.489C483.006 528.229 481.576 529.363 480.001 529.648C465.981 532.219 451.884 534.418 437.887 537.147C412.111 542.176 386.278 546.982 360.665 552.794C320.781 561.842 281.054 571.592 241.287 581.157C211.385 588.349 181.518 595.666 151.644 602.996C139.244 606.037 126.867 609.196 114.507 612.434C110.478 613.494 109.168 612.346 108.369 608.1C104.41 587.188 100.018 566.356 95.695 545.509C68.6293 414.904 41.5224 284.298 14.4372 153.697C10.7555 135.944 7.07391 118.192 3.39228 100.44C3.32527 100.117 3.25622 99.7839 3.18921 99.4607C0.602958 88.763 0.447178 87.8149 11.229 86.0282C23.7778 83.9466 36.6323 83.7828 49.3548 82.6865C68.5394 81.0363 87.8659 80.3167 106.851 77.3598C137.728 72.5495 168.307 65.9116 199.125 60.6742C225.83 56.1367 252.783 53.0389 279.453 48.284C317.251 41.538 354.903 33.9437 392.578 26.5082C399.525 25.139 406.219 22.4537 413.165 21.0335C419.16 19.8005 419.828 20.6116 420.967 26.8912C425.174 50.1311 428.794 73.4929 433.666 96.5947C441.323 132.876 449.21 169.13 458.085 205.127C476.627 280.401 495.233 355.64 510.724 431.617C515.201 453.596 520.856 475.351 526.271 497.125C527.276 501.185 526.625 502.873 522.469 503.663C517.92 504.525 513.46 505.92 508.99 507.214C505.936 508.103 504.532 507.24 503.785 503.984C497.015 474.147 490.159 444.338 483.225 414.546C470.235 358.659 457.538 302.702 444.041 246.93C430.975 192.939 417.014 139.163 407.245 84.4265C404.435 68.7097 401.823 52.9621 399.11 37.225C398.826 35.609 398.444 34.0133 397.997 31.8591L397.99 31.871Z" fill="#FDFF8B"/>
<path d="M213.869 425.103C214.858 424.357 215.751 423.293 216.868 422.919C221.17 421.505 221.448 419.201 220.083 415.031C202.261 360.514 179.158 308.308 151.83 257.938C144.144 243.774 137.211 229.157 128.845 215.41C122.22 204.539 114.032 194.604 106.315 184.429C102.888 179.921 102.71 178.324 108.068 176.631C114.355 174.643 120.942 173.164 127.505 172.508C159.157 169.365 190.361 163.772 221.276 156.339C237.434 152.457 253.655 148.827 269.785 144.808C276.06 143.252 282.207 141.129 288.26 138.852C289.587 138.353 290.322 136.137 291.162 134.625C291.445 134.117 291.189 133.322 291.182 132.65C290.874 116.148 294.538 111.702 310.823 109.121C314.097 108.606 317.449 108.125 320.731 108.292C325.966 108.565 330.007 111.311 331.671 116.328C333.222 121 330.756 124.82 327.349 127.743C324.723 130.003 321.806 132.038 318.714 133.578C315.429 135.22 314.712 137.227 315.409 140.739C320.065 164.222 325.089 187.66 328.946 211.279C336.469 257.403 343.093 303.672 339.586 350.632C338.57 364.201 336.589 377.695 335.147 391.229C334.739 395.021 332.978 397.072 329.185 398.083C320.846 400.323 312.672 402.376 303.793 402.205C289.219 401.909 276.022 407.954 262.581 412.876C249.045 417.828 235.194 421.906 221.427 426.191C219.22 426.873 216.743 426.652 214.385 426.855C214.222 426.265 214.059 425.676 213.898 425.097L213.869 425.103ZM243.648 411.901C244.549 411.959 245.072 412.116 245.497 411.997C246.767 411.622 248.025 411.187 249.243 410.659C268.459 402.466 288.304 396.563 309.136 394.387C312.644 394.017 312.916 391.929 313.306 389.376C319.377 348.971 318.655 308.556 313.589 268.122C308.917 230.824 302.873 193.749 294.581 157.068C293.713 153.225 292.983 149.362 292.128 145.24C238.866 159.462 185.635 171.809 130.948 179.454C158.227 214.423 175.488 253.971 195.002 292.175C214.666 330.653 230.294 370.898 243.658 411.899L243.648 411.901Z" fill="#FDFF8B"/>
<path d="M336.891 473.214C333.814 467.244 330.872 461.675 328.081 456.045C326.782 453.424 325.199 453.773 322.796 454.547C305.12 460.317 287.407 465.961 269.642 471.453C266.648 472.38 263.371 472.386 260.234 472.822C259.988 472.128 259.742 471.433 259.505 470.737C262.251 469.299 264.86 467.502 267.744 466.485C282.465 461.287 297.264 456.319 312.012 451.197C313.868 450.547 315.987 449.831 317.268 448.473C323.701 441.675 332.309 441.125 340.686 440.297C342.587 440.107 345.459 441.891 346.624 443.621C349.766 448.28 352.216 453.399 354.973 458.321C357.717 463.227 360.489 468.126 363.699 473.802C360.513 474.841 357.091 476.265 353.53 477.065C343.346 479.371 332.924 480.777 322.931 483.707C305.248 488.906 287.831 494.99 270.285 500.651C266.111 501.997 266.17 505.334 267.033 508.362C268.616 513.926 266.754 516.028 261.222 517.523C245.22 521.863 245.246 522.184 238.198 507.357C232.912 496.248 227.935 485.005 222.51 473.966C220.781 470.454 221.622 468.452 224.948 467.599C230.398 466.203 235.939 465.095 241.501 464.288C242.443 464.154 244.127 465.919 244.732 467.162C248.804 475.519 252.868 483.888 256.529 492.433C258.137 496.195 259.75 497.423 263.946 495.991C279.825 490.563 295.794 485.424 311.791 480.37C319.853 477.83 328.054 475.71 336.889 473.204L336.891 473.214Z" fill="#FDFF8B"/>
</svg>
