<svg width="2526" height="2526" viewBox="0 0 2526 2526" fill="none" xmlns="http://www.w3.org/2000/svg">
<path d="M724.84 1129.31H724.83L719 1058.05L724.84 1129.31Z" fill="#3C65F7"/>
<path d="M952.87 968.992C952.08 968.572 951.27 968.172 950.43 967.802C951.27 968.172 952.08 968.612 952.87 968.992Z" fill="#3C65F7"/>
<path d="M717.861 1044.13L706.311 1063.5C710.524 1061.68 714.754 1059.87 719.001 1058.05L717.861 1044.13ZM717.861 1044.13L706.311 1063.5C710.524 1061.68 714.754 1059.87 719.001 1058.05L717.861 1044.13ZM717.861 1044.13L706.311 1063.5C710.524 1061.68 714.754 1059.87 719.001 1058.05L717.861 1044.13ZM717.861 1044.13L706.311 1063.5C710.524 1061.68 714.754 1059.87 719.001 1058.05L717.861 1044.13ZM717.861 1044.13L706.311 1063.5C710.524 1061.68 714.754 1059.87 719.001 1058.05L717.861 1044.13ZM950.431 967.802C951.271 968.172 952.081 968.572 952.871 968.992C952.081 968.612 951.271 968.172 950.431 967.802V967.802ZM717.861 1044.13L706.311 1063.5C710.524 1061.68 714.754 1059.87 719.001 1058.05L717.861 1044.13ZM950.431 967.802C951.271 968.172 952.081 968.572 952.871 968.992C952.081 968.612 951.271 968.172 950.431 967.802V967.802ZM717.861 1044.13L706.311 1063.5C710.524 1061.68 714.754 1059.87 719.001 1058.05L717.861 1044.13ZM950.431 967.802C951.271 968.172 952.081 968.572 952.871 968.992C952.081 968.612 951.271 968.172 950.431 967.802V967.802ZM717.861 1044.13L706.311 1063.5C710.524 1061.68 714.754 1059.87 719.001 1058.05L717.861 1044.13ZM950.431 967.802C951.271 968.172 952.081 968.572 952.871 968.992C952.081 968.612 951.271 968.172 950.431 967.802V967.802ZM717.861 1044.13L706.311 1063.5C710.524 1061.68 714.754 1059.87 719.001 1058.05L717.861 1044.13ZM950.431 967.802C951.271 968.172 952.081 968.572 952.871 968.992C952.081 968.612 951.271 968.172 950.431 967.802V967.802ZM717.861 1044.13L706.311 1063.5C710.524 1061.68 714.754 1059.87 719.001 1058.05L717.861 1044.13ZM950.431 967.802C951.271 968.172 952.081 968.572 952.871 968.992C952.081 968.612 951.271 968.172 950.431 967.802ZM717.861 1044.13L706.311 1063.5C710.524 1061.68 714.754 1059.87 719.001 1058.05L717.861 1044.13ZM950.431 967.802C951.271 968.172 952.081 968.572 952.871 968.992C952.081 968.612 951.271 968.172 950.431 967.802ZM717.861 1044.13L706.311 1063.5C710.524 1061.68 714.754 1059.87 719.001 1058.05L717.861 1044.13ZM717.861 1044.13L706.311 1063.5C710.524 1061.68 714.754 1059.87 719.001 1058.05L717.861 1044.13ZM717.861 1044.13L706.311 1063.5C710.524 1061.68 714.754 1059.87 719.001 1058.05L717.861 1044.13ZM717.861 1044.13L706.311 1063.5C710.524 1061.68 714.754 1059.87 719.001 1058.05L717.861 1044.13ZM717.861 1044.13L706.311 1063.5C710.524 1061.68 714.754 1059.87 719.001 1058.05L717.861 1044.13ZM717.861 1044.13L706.311 1063.5C710.524 1061.68 714.754 1059.87 719.001 1058.05L717.861 1044.13ZM717.861 1044.13L706.311 1063.5C710.524 1061.68 714.754 1059.87 719.001 1058.05L717.861 1044.13Z" fill="#3C65F7"/>
<path fill-rule="evenodd" clip-rule="evenodd" d="M2200.17 2064.29L2200.25 2065.31C2200.35 2066.5 2200.45 2067.64 2200.56 2068.75H2431L2327.21 2483.9H1234.91L1338.7 2068.75H1546.78L1526.55 1814.19H1049.53L897.915 2068.75H1083L979.217 2483.9H95.8398L199.627 2068.75H370.48C398.629 2068.75 404.49 2064.29 409.583 2060.42L410.014 2060.1C423.604 2049.82 448.629 2023.12 491.861 1948.82L492.174 1948.28L1620.1 42.4629H2011.3L2200.17 2064.29ZM1715.61 2078.85C1715.61 2084.98 1716.43 2098.51 1717.2 2111.07C1717.86 2121.95 1718.47 2132.1 1718.47 2136.09C1718.47 2140.53 1718.37 2144.79 1718.16 2148.88C1714.69 2215.92 1682.38 2236.25 1606.86 2236.25H1469.48L1449.45 2316.39H2196.43L2216.46 2236.25H2173.53C2134.74 2236.25 2103.45 2225 2080.25 2202.2C2066.38 2188.57 2055.4 2170.82 2047.43 2148.88C2040.21 2128.99 2035.47 2105.66 2033.29 2078.85L1858.71 209.97H1715.61L636.645 2033.05C608.364 2081.66 582.813 2119.62 557.715 2148.88C548.017 2160.19 538.386 2170.2 528.692 2179.01C518.874 2187.95 508.991 2195.66 498.906 2202.27C461.268 2226.94 420.823 2236.25 370.48 2236.25H330.412L310.379 2316.39H848.432L868.465 2236.25H745.4C730.112 2236.25 717.087 2234.67 706.26 2231.57C703.24 2230.7 700.392 2229.72 697.713 2228.62C675.83 2219.63 665.265 2202.84 665.265 2179.01C665.265 2170.15 666.854 2160.15 669.968 2148.88C675.756 2127.95 686.813 2102.65 702.728 2072.16C702.816 2071.99 702.904 2071.83 702.993 2071.66C708.85 2060.45 715.361 2048.55 722.504 2035.92L954.325 1646.69H1681.27L1715.61 2078.85ZM1589.69 582.028L1005.84 1560.83H1669.82L1589.69 582.028ZM1488.04 1393.32L1465.44 1117.3L1300.8 1393.32H1488.04Z" fill="#3C65F7"/>
</svg>
